<?xml version="1.0" standalone="no"?>
<!DOCTYPE svg PUBLIC "-//W3C//DTD SVG 1.1//EN" "http://www.w3.org/Graphics/SVG/1.1/DTD/svg11.dtd" >
<svg xmlns="http://www.w3.org/2000/svg" xmlns:xlink="http://www.w3.org/1999/xlink" version="1.1">
<metadata>
Created by FontForge 20160407 at Thu Jul 14 15:24:21 2016
 By Jimmy Wärting
Copyright \(c\) 2013 by Andriy Konstantynov. All rights reserved.
</metadata>
<defs>
<font id="RistrettoPro-Black" horiz-adv-x="315" >
  <font-face 
    font-family="Ristretto Pro"
    font-weight="900"
    font-stretch="normal"
    units-per-em="1000"
    panose-1="2 11 0 8 3 2 0 2 0 4"
    ascent="759"
    descent="-241"
    x-height="500"
    cap-height="700"
    bbox="-95 -232 998 939"
    underline-thickness="50"
    underline-position="-100"
    unicode-range="U+0020-F739"
  />
<missing-glyph horiz-adv-x="180" 
 />
    <glyph glyph-name="afii10056_afii10056" unicode="&#x407;&#x407;" horiz-adv-x="350" 
d="M145 0h-120v700h120v-700zM58 750h-100v125h100v-125zM225 750h-100v125h100v-125zM325 0h-120v700h120v-700zM393 750h-100v125h100v-125z" />
    <glyph glyph-name="quoteright_afii10056" unicode="&#x2019;&#x407;" 
d="M90 625h-95c17 43 25 85 25 125v125h115v-125c0 -36 -19 -83 -34 -107zM290 0h-120v700h120v-700zM358 750h-100v125h100v-125z" />
    <glyph glyph-name="quoteright_afii10104" unicode="&#x2019;&#x457;" horiz-adv-x="295" 
d="M90 475h-95c17 43 25 85 25 125v125h115v-125c0 -36 -19 -83 -34 -107zM270 0h-120v500h120v-500zM338 575h-100v125h100v-125z" />
    <glyph glyph-name="afii10104_afii10104" unicode="&#x457;&#x457;" horiz-adv-x="350" 
d="M145 0h-120v500h120v-500zM58 575h-100v125h100v-125zM226 575h-100v125h100v-125zM325 0h-120v500h120v-500zM393 575h-100v125h100v-125z" />
    <glyph glyph-name=".notdef" horiz-adv-x="180" 
 />
    <glyph glyph-name="NULL" horiz-adv-x="0" 
 />
    <glyph glyph-name="CR" horiz-adv-x="333" 
 />
    <glyph glyph-name="space" unicode=" " horiz-adv-x="180" 
 />
    <glyph glyph-name="exclam" unicode="!" horiz-adv-x="170" 
d="M145 0h-120v125h120v-125zM145 200h-120v500h120v-500z" />
    <glyph glyph-name="quotedbl" unicode="&#x22;" horiz-adv-x="255" 
d="M110 550h-90v175h90v-175zM235 550h-90v175h90v-175z" />
    <glyph glyph-name="numbersign" unicode="#" horiz-adv-x="360" 
d="M165 0h-120v150h-30v95h30v210h-30v95h30v150h120v-150h30v150h120v-150h30v-95h-30v-210h30v-95h-30v-150h-120v150h-30v-150zM165 455v-210h30v210h-30z" />
    <glyph glyph-name="dollar" unicode="$" 
d="M207 -100h-100v100c-53 15 -87 54 -87 110v90h120v-90c0 -15 6 -22 17 -22c12 0 18 7 18 22v115c0 59 -155 59 -155 200v114c0 56 34 95 87 111v100h100v-100c53 -16 88 -56 88 -111v-89h-120v89c0 15 -6 23 -18 23c-11 0 -17 -8 -17 -23v-114c0 -60 155 -60 155 -200
v-115c0 -56 -35 -95 -88 -110v-100z" />
    <glyph glyph-name="percent" unicode="%" horiz-adv-x="525" 
d="M190 0h-85l230 700h85zM20 500v99c0 67 46 108 107 108s108 -43 108 -108v-99c0 -65 -47 -107 -108 -107s-107 40 -107 107zM95 599v-99c0 -25 15 -39 32 -39c19 0 33 14 33 39v99c0 25 -14 40 -33 40c-17 0 -32 -15 -32 -40zM290 100v99c0 67 46 108 107 108
s108 -43 108 -108v-99c0 -65 -47 -107 -108 -107s-107 40 -107 107zM365 199v-99c0 -25 15 -39 32 -39c19 0 33 14 33 39v99c0 25 -14 40 -33 40c-17 0 -32 -15 -32 -40z" />
    <glyph glyph-name="ampersand" unicode="&#x26;" 
d="M157 393h18v32h120v-315c0 -72 -59 -117 -138 -117s-137 44 -137 117v139c0 43 19 76 56 98c-37 21 -56 53 -56 98v119c0 73 58 118 137 118s138 -45 138 -118v-64h-120v64c0 15 -6 23 -18 23c-11 0 -17 -8 -17 -23v-149c0 -15 6 -22 17 -22zM175 298h-18
c-11 0 -17 -8 -17 -23v-165c0 -15 6 -22 17 -22c12 0 18 7 18 22v188z" />
    <glyph glyph-name="quotesingle" unicode="'" horiz-adv-x="130" 
d="M110 550h-90v175h90v-175z" />
    <glyph glyph-name="parenleft" unicode="(" horiz-adv-x="177" 
d="M167 662h-10c-11 0 -17 -8 -17 -23v-629c0 -15 6 -22 17 -22h10v-95h-10c-79 0 -137 44 -137 117v629c0 73 58 118 137 118h10v-95z" />
    <glyph glyph-name="parenright" unicode=")" horiz-adv-x="177" 
d="M10 -12h10c11 0 17 8 17 23v629c0 15 -6 22 -17 22h-10v95h10c79 0 137 -44 137 -117v-629c0 -73 -58 -118 -137 -118h-10v95z" />
    <glyph glyph-name="asterisk" unicode="*" horiz-adv-x="325" 
d="M79 508h-64v95h64l-32 56l82 48l32 -57l33 57l83 -47l-33 -57h66v-95h-67l33 -57l-82 -47l-33 56l-32 -56l-82 48z" />
    <glyph glyph-name="plus" unicode="+" horiz-adv-x="325" 
d="M114 265h-99v95h99v105h95v-105h101v-95h-101v-105h-95v105z" />
    <glyph glyph-name="comma" unicode="," horiz-adv-x="155" 
d="M101 -107l-11 -18h-95c17 43 25 85 25 125v125h115v-125c0 -36 -19 -83 -34 -107z" />
    <glyph glyph-name="hyphen" unicode="-" horiz-adv-x="210" 
d="M195 235h-180v95h180v-95z" />
    <glyph glyph-name="period" unicode="." horiz-adv-x="155" 
d="M135 0h-115v125h115v-125z" />
    <glyph glyph-name="slash" unicode="/" horiz-adv-x="280" 
d="M135 -100h-120l130 840h120z" />
    <glyph glyph-name="zero" unicode="0" 
d="M295 564v-454c0 -72 -59 -117 -138 -117s-137 44 -137 117v454c0 73 58 118 137 118s138 -45 138 -118zM140 564v-454c0 -15 6 -22 17 -22c12 0 18 7 18 22v454c0 15 -6 23 -18 23c-11 0 -17 -8 -17 -23z" />
    <glyph glyph-name="one" unicode="1" horiz-adv-x="235" 
d="M90 565l-80 -50v110l80 50h120v-675h-120v565z" />
    <glyph glyph-name="two" unicode="2" horiz-adv-x="311" 
d="M291 0h-272v157c0 129 152 181 152 250v157c0 15 -6 23 -18 23s-18 -7 -18 -22v-80h-120v80c0 72 59 117 138 117s138 -45 138 -118v-157c0 -131 -152 -181 -152 -250v-62h152v-95z" />
    <glyph glyph-name="three" unicode="3" horiz-adv-x="311" 
d="M176 111v167c0 15 -6 22 -18 22h-59v95h54c12 0 18 7 18 22v147c0 15 -6 23 -18 23s-18 -7 -18 -22v-80h-120v80c0 72 59 117 138 117s138 -45 138 -118v-117c0 -45 -19 -77 -58 -98c42 -21 63 -54 63 -101v-137c0 -73 -59 -118 -138 -118s-138 45 -138 118v79h120v-79
c0 -15 6 -23 18 -23s18 8 18 23z" />
    <glyph glyph-name="four" unicode="4" horiz-adv-x="316" 
d="M171 125h-161v95l94 455h182v-455h19v-95h-19v-125h-115v125zM169 555l-52 -335h54v335h-2z" />
    <glyph glyph-name="five" unicode="5" 
d="M140 319h-120v356h270v-95h-150v-177c26 26 53 39 82 39c41 0 73 -30 73 -78v-254c0 -72 -59 -117 -138 -117s-137 44 -137 117v80h120v-80c0 -15 6 -22 17 -22c12 0 18 7 18 22v219c0 12 -4 18 -13 18c-15 0 -22 -9 -22 -28z" />
    <glyph glyph-name="six" unicode="6" 
d="M158 587c-12 0 -18 -8 -18 -23v-186c26 26 53 39 82 39c41 0 73 -30 73 -78v-229c0 -72 -59 -117 -138 -117s-137 44 -137 117v454c0 73 59 118 138 118s137 -45 137 -118v-79h-120v79c0 15 -6 23 -17 23zM140 294v-184c0 -15 6 -22 17 -22c12 0 18 7 18 22v194
c0 12 -4 18 -13 18c-15 0 -22 -9 -22 -28z" />
    <glyph glyph-name="seven" unicode="7" horiz-adv-x="300" 
d="M156 580h-141v95h270v-50l-123 -625h-122z" />
    <glyph glyph-name="eight" unicode="8" 
d="M295 564v-119c0 -44 -19 -77 -57 -98c38 -23 57 -55 57 -98v-139c0 -72 -59 -117 -138 -117s-137 44 -137 117v139c0 43 19 76 56 98c-37 21 -56 53 -56 98v119c0 73 58 118 137 118s138 -45 138 -118zM140 564v-149c0 -15 6 -22 17 -22c12 0 18 7 18 22v149
c0 15 -6 23 -18 23c-11 0 -17 -8 -17 -23zM140 275v-165c0 -15 6 -22 17 -22c12 0 18 7 18 22v165c0 15 -6 23 -18 23c-11 0 -17 -8 -17 -23z" />
    <glyph glyph-name="nine" unicode="9" 
d="M157 88c12 0 18 8 18 23v186c-26 -26 -53 -39 -82 -39c-41 0 -73 30 -73 78v229c0 72 59 117 138 117s137 -44 137 -117v-454c0 -73 -59 -118 -138 -118s-137 45 -137 118v79h120v-79c0 -15 6 -23 17 -23zM175 381v184c0 15 -6 22 -17 22c-12 0 -18 -7 -18 -22v-194
c0 -12 4 -18 13 -18c15 0 22 9 22 28z" />
    <glyph glyph-name="colon" unicode=":" horiz-adv-x="155" 
d="M135 0h-115v125h115v-125zM135 375h-115v125h115v-125z" />
    <glyph glyph-name="semicolon" unicode=";" horiz-adv-x="155" 
d="M101 -107l-11 -18h-95c17 43 25 85 25 125v125h115v-125c0 -36 -19 -83 -34 -107zM135 375h-115v125h115v-125z" />
    <glyph glyph-name="less" unicode="&#x3c;" horiz-adv-x="390" 
d="M20 222v155l350 78v-123l-254 -31v-2l254 -32v-123z" />
    <glyph glyph-name="equal" unicode="=" horiz-adv-x="325" 
d="M310 330h-295v95h295v-95zM310 175h-295v95h295v-95z" />
    <glyph glyph-name="greater" unicode="&#x3e;" horiz-adv-x="390" 
d="M370 378v-155l-350 -78v123l254 31v2l-254 32v123z" />
    <glyph glyph-name="question" unicode="?" horiz-adv-x="311" 
d="M213 200h-120v82c0 130 78 95 78 185v122c0 15 -6 23 -18 23s-18 -7 -18 -22v-80h-120v80c0 72 59 117 138 117s138 -45 138 -118v-122c0 -132 -78 -95 -78 -185v-82zM213 0h-120v125h120v-125z" />
    <glyph glyph-name="at" unicode="@" horiz-adv-x="625" 
d="M312 -112v-95c-84 0 -154 25 -209 76c-55 50 -83 119 -83 206v350c0 87 28 155 83 206s125 76 208 76s153 -25 209 -76c57 -51 85 -119 85 -206v-425h-275v32c-26 -26 -53 -39 -82 -39c-41 0 -73 30 -73 78v319c0 72 59 117 138 117c48 0 100 -16 121 -28l16 -9v-375h35
v330c0 57 -17 102 -50 136s-74 51 -123 51s-90 -17 -123 -51s-49 -79 -49 -136v-350c0 -58 16 -104 49 -137s74 -50 123 -50zM330 116v290c-5 4 -10 6 -17 6c-12 0 -18 -7 -18 -22v-284c0 -12 4 -18 13 -18c15 0 22 9 22 28z" />
    <glyph glyph-name="A" unicode="A" 
d="M125 0h-123l78 700h155l78 -700h-123l-7 125h-51zM157 569l-20 -349h41l-19 349h-2z" />
    <glyph glyph-name="B" unicode="B" horiz-adv-x="320" 
d="M167 0h-142v700h137c79 0 138 -45 138 -118v-125c0 -45 -19 -77 -58 -98c42 -21 63 -54 63 -101v-140c0 -73 -59 -118 -138 -118zM167 310h-22v-215h22c12 0 18 8 18 23v170c0 15 -6 22 -18 22zM145 605v-200h17c12 0 18 7 18 22v155c0 15 -6 23 -18 23h-17z" />
    <glyph glyph-name="C" unicode="C" 
d="M140 589v-479c0 -15 6 -22 17 -22c12 0 18 7 18 22v90h120v-90c0 -72 -59 -117 -138 -117s-137 44 -137 117v479c0 73 58 118 137 118s138 -45 138 -118v-89h-120v89c0 15 -6 23 -18 23c-11 0 -17 -8 -17 -23z" />
    <glyph glyph-name="D" unicode="D" horiz-adv-x="320" 
d="M162 0h-137v700h137c79 0 138 -45 138 -118v-465c0 -72 -59 -117 -138 -117zM145 605v-510h17c12 0 18 7 18 22v465c0 15 -6 23 -18 23h-17z" />
    <glyph glyph-name="E" unicode="E" horiz-adv-x="295" 
d="M275 0h-250v700h250v-95h-130v-200h110v-95h-110v-215h130v-95z" />
    <glyph glyph-name="F" unicode="F" horiz-adv-x="295" 
d="M145 0h-120v700h250v-95h-130v-200h110v-95h-110v-310z" />
    <glyph glyph-name="G" unicode="G" 
d="M175 305h-15v95h135v-290c0 -72 -59 -117 -138 -117s-137 44 -137 117v479c0 73 58 118 137 118s138 -45 138 -118v-89h-120v89c0 15 -6 23 -18 23c-11 0 -17 -8 -17 -23v-479c0 -15 6 -22 17 -22c12 0 18 7 18 22v195z" />
    <glyph glyph-name="H" unicode="H" horiz-adv-x="325" 
d="M145 0h-120v700h120v-295h35v295h120v-700h-120v310h-35v-310z" />
    <glyph glyph-name="I" unicode="I" horiz-adv-x="170" 
d="M145 0h-120v700h120v-700z" />
    <glyph glyph-name="J" unicode="J" 
d="M20 111v89h120v-89c0 -15 6 -23 18 -23c11 0 17 8 17 23v589h120v-589c0 -73 -58 -118 -137 -118s-138 45 -138 118z" />
    <glyph glyph-name="K" unicode="K" horiz-adv-x="320" 
d="M145 0h-120v700h120v-295h9l40 294h123l-74 -341l76 -358h-123l-41 310h-10v-310z" />
    <glyph glyph-name="L" unicode="L" horiz-adv-x="280" 
d="M270 0h-245v700h120v-605h125v-95z" />
    <glyph glyph-name="M" unicode="M" horiz-adv-x="545" 
d="M140 0h-115v700h175l71 -520h2l72 520h175v-700h-115v510h-2l-65 -510h-131l-65 510h-2v-510z" />
    <glyph glyph-name="N" unicode="N" horiz-adv-x="329" 
d="M140 0h-115v700h85l76 -295h3v295h115v-700h-85l-77 295h-2v-295z" />
    <glyph glyph-name="O" unicode="O" 
d="M295 589v-479c0 -72 -59 -117 -138 -117s-137 44 -137 117v479c0 73 58 118 137 118s138 -45 138 -118zM140 589v-479c0 -15 6 -22 17 -22c12 0 18 7 18 22v479c0 15 -6 23 -18 23c-11 0 -17 -8 -17 -23z" />
    <glyph glyph-name="P" unicode="P" horiz-adv-x="320" 
d="M145 0h-120v700h137c79 0 138 -45 138 -118v-200c0 -72 -59 -117 -138 -117h-17v-265zM145 605v-245h17c12 0 18 7 18 22v200c0 15 -6 23 -18 23h-17z" />
    <glyph glyph-name="Q" unicode="Q" 
d="M95 -15v18c-50 19 -75 54 -75 107v479c0 73 58 118 137 118s138 -45 138 -118v-479c0 -53 -31 -92 -80 -108v-17c0 -15 6 -22 17 -22h63v-95h-63c-79 0 -137 44 -137 117zM140 589v-479c0 -15 6 -22 17 -22c12 0 18 7 18 22v479c0 15 -6 23 -18 23c-11 0 -17 -8 -17 -23z
" />
    <glyph glyph-name="R" unicode="R" horiz-adv-x="320" 
d="M316 0h-121l-34 280h-16v-280h-120v700h137c79 0 138 -45 138 -118v-185c0 -37 -14 -66 -43 -88zM145 605v-230h17c12 0 18 7 18 22v185c0 15 -6 23 -18 23h-17z" />
    <glyph glyph-name="S" unicode="S" 
d="M20 110v90h120v-90c0 -15 6 -22 17 -22c12 0 18 7 18 22v140c0 59 -155 59 -155 200v139c0 73 58 118 137 118s138 -45 138 -118v-89h-120v89c0 15 -6 23 -18 23c-11 0 -17 -8 -17 -23v-139c0 -60 155 -60 155 -200v-140c0 -72 -59 -117 -138 -117s-137 44 -137 117z" />
    <glyph glyph-name="T" unicode="T" horiz-adv-x="300" 
d="M90 605h-80v95h280v-95h-80v-605h-120v605z" />
    <glyph glyph-name="U" unicode="U" 
d="M20 110v590h120v-590c0 -15 6 -22 17 -22c12 0 18 7 18 22v590h120v-590c0 -72 -59 -117 -138 -117s-137 44 -137 117z" />
    <glyph glyph-name="V" unicode="V" 
d="M235 0h-155l-78 700h123l31 -569h2l32 569h123z" />
    <glyph glyph-name="W" unicode="W" horiz-adv-x="540" 
d="M240 0h-157l-80 700h124l30 -584h2l35 584h152l34 -584h2l31 584h124l-80 -700h-157l-29 571h-2z" />
    <glyph glyph-name="X" unicode="X" 
d="M124 0h-123l63 360l-61 340h123l30 -304h2l31 303h123l-61 -341l63 -358h-123l-32 324h-2z" />
    <glyph glyph-name="Y" unicode="Y" 
d="M217 0h-120v191l-95 509h120l34 -327h2l35 327h120l-96 -509v-191z" />
    <glyph glyph-name="Z" unicode="Z" horiz-adv-x="310" 
d="M290 0h-270v50l141 555h-141v95h270v-50l-137 -555h137v-95z" />
    <glyph glyph-name="bracketleft" unicode="[" horiz-adv-x="177" 
d="M167 -100h-147v850h147v-95h-27v-660h27v-95z" />
    <glyph glyph-name="backslash" unicode="\" horiz-adv-x="280" 
d="M265 -100h-120l-130 840h120z" />
    <glyph glyph-name="bracketright" unicode="]" horiz-adv-x="177" 
d="M157 -100h-147v95h27v660h-27v95h147v-850z" />
    <glyph glyph-name="asciicircum" unicode="^" horiz-adv-x="281" 
d="M196 589l-119 -109l-67 67l186 161l186 -161l-67 -67z" />
    <glyph glyph-name="underscore" unicode="_" 
d="M320 -120h-325v95h325v-95z" />
    <glyph glyph-name="grave" unicode="`" horiz-adv-x="170" 
d="M196 603l-67 -67l-156 136l67 67z" />
    <glyph glyph-name="a" unicode="a" 
d="M295 0h-120v32c-25 -26 -52 -39 -82 -39c-43 0 -73 30 -73 78v110c0 71 45 109 110 117l45 5v87c0 15 -6 22 -17 22c-12 0 -18 -7 -18 -22v-65h-120v65c0 72 59 117 138 117s137 -44 137 -117v-390zM175 116v89l-17 -2c-12 -1 -18 -9 -18 -22v-75c0 -12 4 -18 13 -18
c15 0 22 9 22 28z" />
    <glyph glyph-name="b" unicode="b" 
d="M36 21l-16 9v695h120v-257c26 26 53 39 82 39c41 0 73 -30 73 -78v-319c0 -72 -59 -117 -138 -117c-48 0 -100 16 -121 28zM140 384v-290c5 -4 10 -6 17 -6c12 0 18 7 18 22v284c0 12 -4 18 -13 18c-15 0 -22 -9 -22 -28z" />
    <glyph glyph-name="c" unicode="c" 
d="M140 389v-279c0 -15 6 -22 17 -22c12 0 18 7 18 22v65h120v-65c0 -72 -59 -117 -138 -117s-137 44 -137 117v279c0 73 58 118 137 118s138 -45 138 -118v-64h-120v64c0 15 -6 23 -18 23c-11 0 -17 -8 -17 -23z" />
    <glyph glyph-name="d" unicode="d" horiz-adv-x="320" 
d="M295 0h-120v32c-26 -26 -53 -39 -82 -39c-41 0 -73 30 -73 78v319c0 72 46 117 110 117c17 0 32 -2 45 -7v225h120v-725zM175 116v290c-5 4 -10 6 -17 6c-12 0 -18 -7 -18 -22v-284c0 -12 4 -18 13 -18c15 0 22 9 22 28z" />
    <glyph glyph-name="e" unicode="e" 
d="M295 389v-179h-155v-100c0 -15 6 -22 17 -22c12 0 18 7 18 22v65h120v-65c0 -72 -59 -117 -138 -117s-137 44 -137 117v279c0 73 58 118 137 118s138 -45 138 -118zM140 389v-84h35v84c0 15 -6 23 -18 23c-11 0 -17 -8 -17 -23z" />
    <glyph glyph-name="f" unicode="f" horiz-adv-x="230" 
d="M145 0h-120v595c0 84 63 137 146 137c19 0 36 -3 43 -6l6 -2v-93c-10 4 -22 6 -35 6c-24 0 -40 -17 -40 -42v-95h75v-95h-75v-405z" />
    <glyph glyph-name="g" unicode="g" 
d="M20 -114v50h120v-50c0 -15 6 -23 18 -23c10 0 16 7 17 22v147c-26 -26 -53 -39 -82 -39c-41 0 -73 30 -73 78v319c0 72 59 117 138 117c48 0 99 -16 120 -28l17 -9v-584c0 -73 -58 -118 -137 -118s-138 45 -138 118zM175 116v290c-5 4 -10 6 -17 6c-12 0 -18 -7 -18 -22
v-284c0 -12 4 -18 13 -18c15 0 22 9 22 28z" />
    <glyph glyph-name="h" unicode="h" horiz-adv-x="320" 
d="M145 0h-120v725h120v-257c26 26 53 39 82 39c41 0 73 -30 73 -78v-429h-120v394c0 12 -4 18 -13 18c-15 0 -22 -9 -22 -28v-384z" />
    <glyph glyph-name="i" unicode="i" horiz-adv-x="170" 
d="M145 0h-120v500h120v-500zM145 575h-120v125h120v-125z" />
    <glyph glyph-name="j" unicode="j" horiz-adv-x="170" 
d="M-35 -226l-5 1v94c9 -4 19 -6 31 -6c20 0 34 12 34 32v605h120v-605c0 -79 -60 -127 -139 -127c-17 0 -34 3 -41 6zM145 575h-120v125h120v-125z" />
    <glyph glyph-name="k" unicode="k" horiz-adv-x="320" 
d="M145 0h-120v725h120v-419h5l41 194h123l-79 -240l83 -260h-123l-45 216h-5v-216z" />
    <glyph glyph-name="l" unicode="l" horiz-adv-x="170" 
d="M145 0h-120v725h120v-725z" />
    <glyph glyph-name="m" unicode="m" horiz-adv-x="475" 
d="M145 384v-384h-120v500h120v-32c26 26 53 39 82 39c37 0 61 -13 70 -39c26 26 54 39 85 39c41 0 73 -30 73 -78v-429h-120v394c0 12 -4 18 -13 18c-13 0 -21 -8 -22 -24v-388h-120v394c0 12 -4 18 -13 18c-15 0 -22 -9 -22 -28z" />
    <glyph glyph-name="n" unicode="n" horiz-adv-x="320" 
d="M145 384v-384h-120v500h120v-32c26 26 53 39 82 39c41 0 73 -30 73 -78v-429h-120v394c0 12 -4 18 -13 18c-15 0 -22 -9 -22 -28z" />
    <glyph glyph-name="o" unicode="o" 
d="M295 389v-279c0 -72 -59 -117 -138 -117s-137 44 -137 117v279c0 73 58 118 137 118s138 -45 138 -118zM140 389v-279c0 -15 6 -22 17 -22c12 0 18 7 18 22v279c0 15 -6 23 -18 23c-11 0 -17 -8 -17 -23z" />
    <glyph glyph-name="p" unicode="p" horiz-adv-x="320" 
d="M145 -200h-120v700h120v-32c26 26 53 39 82 39c41 0 73 -30 73 -78v-319c0 -72 -47 -117 -110 -117c-19 0 -34 2 -45 7v-200zM145 384v-290c5 -4 10 -6 17 -6c12 0 18 7 18 22v284c0 12 -4 18 -13 18c-15 0 -22 -9 -22 -28z" />
    <glyph glyph-name="q" unicode="q" 
d="M295 -200h-120v232c-26 -26 -53 -39 -82 -39c-41 0 -73 30 -73 78v319c0 72 59 117 138 117c48 0 99 -16 120 -28l17 -9v-670zM175 116v290c-5 4 -10 6 -17 6c-12 0 -18 -7 -18 -22v-284c0 -12 4 -18 13 -18c15 0 22 9 22 28z" />
    <glyph glyph-name="r" unicode="r" horiz-adv-x="305" 
d="M145 0h-120v500h120v-42c29 33 59 49 92 49c36 0 63 -27 63 -68v-114h-120v69c0 12 -4 18 -13 18c-15 0 -22 -9 -22 -28v-384z" />
    <glyph glyph-name="s" unicode="s" 
d="M20 110v65h120v-65c0 -15 6 -22 17 -22c12 0 18 7 18 22v73c0 9 -38 24 -78 40c-39 16 -77 55 -77 100v66c0 73 58 118 137 118s138 -45 138 -118v-64h-120v64c0 15 -6 23 -18 23c-11 0 -17 -8 -17 -23v-66c0 -9 38 -25 77 -41c40 -16 78 -54 78 -99v-73
c0 -72 -59 -117 -138 -117s-137 44 -137 117z" />
    <glyph glyph-name="t" unicode="t" horiz-adv-x="230" 
d="M216 92l4 2v-93c-12 -5 -28 -8 -49 -8c-83 0 -146 53 -146 137v490h120v-120h75v-95h-75v-275c0 -25 16 -42 40 -42c12 0 24 3 31 4z" />
    <glyph glyph-name="u" unicode="u" horiz-adv-x="320" 
d="M295 0h-120v32c-26 -26 -53 -39 -82 -39c-41 0 -73 30 -73 78v429h120v-394c0 -12 4 -18 13 -18c15 0 22 9 22 28v384h120v-500z" />
    <glyph glyph-name="v" unicode="v" 
d="M235 0h-155l-78 500h123l31 -404h2l32 404h123z" />
    <glyph glyph-name="w" unicode="w" horiz-adv-x="524" 
d="M232 0h-155l-75 500h123l28 -404h2l32 404h150l31 -404h2l29 404h123l-75 -500h-155l-29 391h-2z" />
    <glyph glyph-name="x" unicode="x" 
d="M125 0h-123l75 260l-71 240h123l27 -185h2l28 185h123l-71 -240l75 -260h-123l-32 210h-2z" />
    <glyph glyph-name="y" unicode="y" 
d="M20 -114v50h120v-50c0 -15 6 -23 18 -23c10 0 16 7 17 22v147c-26 -26 -53 -39 -82 -39c-41 0 -73 30 -73 78v429h120v-394c0 -12 4 -18 13 -18c15 0 22 9 22 28v384h120v-614c0 -73 -58 -118 -137 -118s-138 45 -138 118z" />
    <glyph glyph-name="z" unicode="z" horiz-adv-x="310" 
d="M290 0h-270v50l135 355h-135v95h270v-50l-131 -355h131v-95z" />
    <glyph glyph-name="braceleft" unicode="{" horiz-adv-x="199" 
d="M189 -12v-95h-10c-37 0 -70 10 -97 31s-40 48 -40 82v253c0 15 -6 22 -17 22h-10v97h10c11 0 17 8 17 23v238c0 73 58 118 137 118h10v-95h-10c-11 0 -17 -8 -17 -23v-238c0 -28 -8 -52 -24 -72c16 -19 24 -43 24 -70v-253c1 -12 7 -18 17 -18h10z" />
    <glyph glyph-name="bar" unicode="|" horiz-adv-x="170" 
d="M145 -100h-120v850h120v-850z" />
    <glyph glyph-name="braceright" unicode="}" horiz-adv-x="199" 
d="M25 -107h-10v95h10c11 0 17 8 17 23v238c0 28 8 52 24 72c-16 19 -24 43 -24 70v253c-1 12 -7 18 -17 18h-10v95h10c37 0 69 -10 96 -31s41 -48 41 -82v-253c0 -15 6 -22 17 -22h10v-97h-10c-11 0 -17 -8 -17 -23v-238c0 -73 -58 -118 -137 -118z" />
    <glyph glyph-name="asciitilde" unicode="~" horiz-adv-x="360" 
d="M104 234h-84c0 63 47 102 107 102c25 0 45 -6 61 -18c17 -12 30 -18 39 -18c16 0 29 11 29 31h84c0 -63 -47 -102 -107 -102c-25 0 -45 6 -61 18s-29 18 -39 18c-16 0 -29 -11 -29 -31z" />
    <glyph glyph-name="exclamdown" unicode="&#xa1;" horiz-adv-x="170" 
d="M145 -200h-120v500h120v-500zM145 375h-120v125h120v-125z" />
    <glyph glyph-name="cent" unicode="&#xa2;" 
d="M217 -100h-120v103c-51 18 -77 54 -77 107v279c0 53 26 89 77 108v103h120v-103c52 -19 78 -55 78 -108v-64h-120v64c0 15 -6 23 -18 23c-11 0 -17 -8 -17 -23v-279c0 -15 6 -22 17 -22c12 0 18 7 18 22v65h120v-65c0 -52 -30 -91 -78 -107v-103z" />
    <glyph glyph-name="sterling" unicode="&#xa3;" horiz-adv-x="335" 
d="M40 280h-25v95h25v214c0 73 58 118 137 118s138 -45 138 -118v-89h-120v89c0 15 -6 23 -18 23c-11 0 -17 -8 -17 -23v-214h155v-95h-155v-185h155v-95h-300v95h25v185z" />
    <glyph glyph-name="currency" unicode="&#xa4;" 
d="M157 407c8 0 14 0 18 -1l11 69h123l-35 -119c14 -19 21 -42 21 -67v-79c0 -23 -6 -43 -18 -62l36 -123h-123l-11 69c-9 -1 -35 -1 -44 0l-10 -69h-123l35 123c-11 17 -17 38 -17 62v79c0 27 7 49 21 67l-35 119h123l9 -69c4 1 10 1 19 1zM140 289v-79c0 -15 6 -22 17 -22
c12 0 18 7 18 22v79c0 15 -6 23 -18 23c-11 0 -17 -8 -17 -23z" />
    <glyph glyph-name="yen" unicode="&#xa5;" 
d="M89 235h-69v95h51l-69 370h120l34 -327h2l35 327h120l-70 -370h52v-95h-70l-8 -44h78v-95h-78v-96h-120v96h-77v95h77z" />
    <glyph glyph-name="brokenbar" unicode="&#xa6;" horiz-adv-x="170" 
d="M145 -100h-120v375h120v-375zM145 375h-120v375h120v-375z" />
    <glyph glyph-name="section" unicode="&#xa7;" 
d="M295 270v-140c0 -21 -5 -40 -15 -58c10 -20 15 -42 15 -67v-120c0 -72 -59 -117 -138 -117s-137 44 -137 117v90h120v-90c0 -15 6 -22 17 -22c12 0 18 7 18 22v120c0 59 -155 59 -155 200v139c0 23 5 42 15 58c-10 18 -15 41 -15 68v119c0 73 58 118 137 118
s138 -45 138 -118v-89h-120v89c0 15 -6 23 -18 23c-11 0 -17 -8 -17 -23v-119c0 -60 155 -60 155 -200zM175 160v110c0 14 -12 29 -35 44v-109c0 -15 12 -30 35 -45z" />
    <glyph glyph-name="dieresis" unicode="&#xa8;" horiz-adv-x="320" 
d="M130 575h-100v125h100v-125zM285 575h-100v125h100v-125z" />
    <glyph glyph-name="copyright" unicode="&#xa9;" horiz-adv-x="625" 
d="M605 459v-219c0 -73 -28 -133 -85 -179c-57 -45 -126 -68 -208 -68c-83 0 -152 23 -208 68s-84 105 -84 179v219c0 74 28 134 83 179c56 46 125 69 208 69s152 -23 209 -69c57 -45 85 -105 85 -179zM140 459v-219c0 -44 17 -80 50 -109s74 -43 122 -43c49 0 90 14 123 43
s50 65 50 109v219c0 44 -17 80 -51 109c-33 29 -74 44 -122 44s-89 -15 -122 -44s-50 -65 -50 -109zM295 459v-219c0 -15 6 -22 17 -22c12 0 18 7 18 22v65h120v-65c0 -72 -59 -117 -138 -117s-137 44 -137 117v219c0 73 58 118 137 118s138 -45 138 -118v-64h-120v64
c0 15 -6 23 -18 23c-11 0 -17 -8 -17 -23z" />
    <glyph glyph-name="ordfeminine" unicode="&#xaa;" horiz-adv-x="177" 
d="M157 450h-59v16c-13 -13 -26 -19 -41 -19c-21 0 -37 15 -37 39v55c0 34 18 53 55 58l23 3v43c0 15 -18 15 -18 0v-32h-60v32c-7 78 145 78 137 0v-195zM98 508v45l-9 -1c-6 -1 -9 -5 -9 -11v-38c0 -6 2 -9 7 -9c7 0 11 5 11 14z" />
    <glyph glyph-name="guillemotleft" unicode="&#xab;" horiz-adv-x="357" 
d="M60 425h122l-49 -175l49 -175h-122l-45 175zM220 425h122l-49 -175l49 -175h-122l-45 175z" />
    <glyph glyph-name="logicalnot" unicode="&#xac;" horiz-adv-x="325" 
d="M190 285h-175v95h295v-180h-120v85z" />
    <glyph glyph-name="uni00AD" unicode="&#xad;" horiz-adv-x="210" 
d="M195 235h-180v95h180v-95z" />
    <glyph glyph-name="registered" unicode="&#xae;" horiz-adv-x="625" 
d="M605 459v-219c0 -73 -28 -133 -85 -179c-57 -45 -126 -68 -208 -68c-83 0 -152 23 -208 68s-84 105 -84 179v219c0 74 28 134 83 179c56 46 125 69 208 69s152 -23 209 -69c57 -45 85 -105 85 -179zM140 459v-219c0 -44 17 -80 50 -109s74 -43 122 -43c49 0 90 14 123 43
s50 65 50 109v219c0 44 -17 80 -51 109c-33 29 -74 44 -122 44s-89 -15 -122 -44s-50 -65 -50 -109zM456 163h-111l-37 117h-13v-117h-120v374h137c79 0 138 -45 138 -118v-22c0 -37 -14 -66 -43 -88zM295 442v-67h17c12 0 18 7 18 22v22c0 15 -6 23 -18 23h-17z" />
    <glyph glyph-name="overscore" unicode="&#xaf;" horiz-adv-x="170" 
d="M195 580h-220v95h220v-95z" />
    <glyph glyph-name="degree" unicode="&#xb0;" horiz-adv-x="255" 
d="M20 574v25c0 67 46 108 107 108s108 -43 108 -108v-25c0 -65 -47 -107 -108 -107s-107 40 -107 107zM95 599v-25c0 -25 15 -39 32 -39c19 0 33 14 33 39v25c0 25 -14 40 -33 40c-17 0 -32 -15 -32 -40z" />
    <glyph glyph-name="plusminus" unicode="&#xb1;" horiz-adv-x="325" 
d="M114 265h-99v95h99v105h95v-105h101v-95h-101v-105h-95v105zM310 40h-295v95h295v-95z" />
    <glyph glyph-name="twosuperior" unicode="&#xb2;" horiz-adv-x="157" 
d="M139 400h-121v70c0 57 66 81 66 109v70c0 5 -2 8 -7 8c-4 0 -6 -3 -6 -8v-35h-55v35c-6 68 128 68 123 0v-70c0 -57 -66 -81 -66 -109v-27h66v-43z" />
    <glyph glyph-name="threesuperior" unicode="&#xb3;" horiz-adv-x="157" 
d="M80 440c4 0 6 3 6 9v74c0 5 -2 8 -6 8h-27v44h24c5 0 7 3 7 8v66c0 5 -2 8 -7 8c-4 0 -6 -3 -6 -8v-35h-55v35c-6 68 128 68 123 0v-52c0 -20 -8 -34 -25 -43c18 -10 27 -25 27 -45v-60c6 -68 -128 -68 -123 0v35h55v-35c0 -6 2 -9 7 -9z" />
    <glyph glyph-name="acute" unicode="&#xb4;" horiz-adv-x="170" 
d="M196 672l-156 -136l-67 67l156 136z" />
    <glyph glyph-name="mu" unicode="&#xb5;" horiz-adv-x="320" 
d="M140 -150h-120v650h120v-394c0 -12 4 -18 13 -18c15 0 22 9 22 28v384h120v-500h-120v18c-8 -12 -16 -18 -24 -18c-5 0 -8 1 -11 3v-153z" />
    <glyph glyph-name="paragraph" unicode="&#xb6;" horiz-adv-x="480" 
d="M158 700h137v-800h-120v365h-17c-79 0 -138 45 -138 117v200c0 73 59 118 138 118zM335 700h120v-800h-120v800z" />
    <glyph glyph-name="middot" unicode="&#xb7;" horiz-adv-x="155" 
d="M135 200h-115v125h115v-125z" />
    <glyph glyph-name="cedilla" unicode="&#xb8;" horiz-adv-x="125" 
d="M105 -150h-85v155h85v-155z" />
    <glyph glyph-name="onesuperior" unicode="&#xb9;" horiz-adv-x="124" 
d="M49 647l-35 -21v50l35 22h55v-298h-55v247z" />
    <glyph glyph-name="ordmasculine" unicode="&#xba;" horiz-adv-x="177" 
d="M157 645v-140c0 -36 -29 -58 -68 -58c-40 0 -69 22 -69 58v140c0 36 30 59 69 59s68 -23 68 -59zM80 645v-140c0 -15 18 -15 18 0v140c0 15 -18 15 -18 0z" />
    <glyph glyph-name="guillemotright" unicode="&#xbb;" horiz-adv-x="357" 
d="M137 75h-122l49 175l-49 175h122l45 -175zM297 75h-122l49 175l-49 175h122l45 -175z" />
    <glyph glyph-name="onequarter" unicode="&#xbc;" horiz-adv-x="525" 
d="M190 0h-85l230 700h85zM69 647l-35 -21v50l35 22h55v-298h-55v247zM426 55h-70v43l39 200h84v-200h8v-43h-8v-55h-53v55zM425 243l-20 -145h21v145h-1z" />
    <glyph glyph-name="onehalf" unicode="&#xbd;" horiz-adv-x="525" 
d="M190 0h-85l230 700h85zM69 647l-35 -21v50l35 22h55v-298h-55v247zM459 0h-121v70c0 57 66 81 66 109v70c0 5 -2 8 -7 8c-4 0 -6 -3 -6 -8v-35h-55v35c-6 68 128 68 123 0v-70c0 -57 -66 -81 -66 -109v-27h66v-43z" />
    <glyph glyph-name="threequarters" unicode="&#xbe;" horiz-adv-x="525" 
d="M190 0h-85l230 700h85zM100 440c4 0 6 3 6 9v74c0 5 -2 8 -6 8h-27v44h24c5 0 7 3 7 8v66c0 5 -2 8 -7 8c-4 0 -6 -3 -6 -8v-35h-55v35c-6 68 128 68 123 0v-52c0 -20 -8 -34 -25 -43c18 -10 27 -25 27 -45v-60c6 -68 -128 -68 -123 0v35h55v-35c0 -6 2 -9 7 -9zM426 55
h-70v43l39 200h84v-200h8v-43h-8v-55h-53v55zM425 243l-20 -145h21v145h-1z" />
    <glyph glyph-name="questiondown" unicode="&#xbf;" horiz-adv-x="311" 
d="M93 225v82h120v-82c0 -130 -78 -95 -78 -185v-129c0 -15 6 -23 18 -23s18 7 18 22v90h120v-90c0 -72 -59 -117 -138 -117s-138 45 -138 118v129c0 132 78 95 78 185zM213 382h-120v125h120v-125z" />
    <glyph glyph-name="Agrave" unicode="&#xc0;" 
d="M125 0h-123l78 700h155l78 -700h-123l-7 125h-51zM157 569l-20 -349h41l-19 349h-2zM269 803l-67 -67l-156 136l67 67z" />
    <glyph glyph-name="Aacute" unicode="&#xc1;" 
d="M125 0h-123l78 700h155l78 -700h-123l-7 125h-51zM157 569l-20 -349h41l-19 349h-2zM269 872l-156 -136l-67 67l156 136z" />
    <glyph glyph-name="Acircumflex" unicode="&#xc2;" 
d="M125 0h-123l78 700h155l78 -700h-123l-7 125h-51zM157 569l-20 -349h41l-19 349h-2zM157 820l-89 -79l-67 67l156 131l156 -131l-67 -67z" />
    <glyph glyph-name="Atilde" unicode="&#xc3;" 
d="M125 0h-123l78 700h155l78 -700h-123l-7 125h-51zM157 569l-20 -349h41l-19 349h-2zM91 748h-69c0 63 38 102 90 102c17 0 34 -6 50 -18s27 -18 34 -18c15 0 27 11 27 31h69c0 -63 -38 -102 -90 -102c-18 0 -35 6 -50 18s-27 18 -34 18c-15 0 -27 -11 -27 -31z" />
    <glyph glyph-name="Adieresis" unicode="&#xc4;" 
d="M125 0h-123l78 700h155l78 -700h-123l-7 125h-51zM157 569l-20 -349h41l-19 349h-2zM130 775h-100v125h100v-125zM285 775h-100v125h100v-125z" />
    <glyph glyph-name="Aring" unicode="&#xc5;" 
d="M87 901c37 36 103 36 140 0c19 -17 28 -41 28 -71s-9 -54 -28 -71c-37 -35 -103 -35 -140 0c-18 17 -27 41 -27 71s9 54 27 71zM130 830c0 -21 12 -35 27 -35c16 0 28 14 28 35c0 23 -12 36 -28 36c-15 0 -27 -13 -27 -36zM125 0h-123l78 700h155l78 -700h-123l-7 125
h-51zM157 569l-20 -349h41l-19 349h-2z" />
    <glyph glyph-name="AE" unicode="&#xc6;" horiz-adv-x="444" 
d="M424 95v-95h-225v125h-62l-17 -125h-118l118 700h304v-95h-105v-200h85v-95h-85v-215h105zM197 579l-47 -359h49v359h-2z" />
    <glyph glyph-name="Ccedilla" unicode="&#xc7;" 
d="M200 -150h-85v148c-57 12 -95 52 -95 112v479c0 73 58 118 137 118s138 -45 138 -118v-89h-120v89c0 15 -6 23 -18 23c-11 0 -17 -8 -17 -23v-479c0 -15 6 -22 17 -22c12 0 18 7 18 22v90h120v-90c0 -59 -38 -99 -95 -112v-148z" />
    <glyph glyph-name="Egrave" unicode="&#xc8;" horiz-adv-x="295" 
d="M275 0h-250v700h250v-95h-130v-200h110v-95h-110v-215h130v-95zM259 803l-67 -67l-156 136l67 67z" />
    <glyph glyph-name="Eacute" unicode="&#xc9;" horiz-adv-x="295" 
d="M275 0h-250v700h250v-95h-130v-200h110v-95h-110v-215h130v-95zM259 872l-156 -136l-67 67l156 136z" />
    <glyph glyph-name="Ecircumflex" unicode="&#xca;" horiz-adv-x="295" 
d="M275 0h-250v700h250v-95h-130v-200h110v-95h-110v-215h130v-95zM147 820l-89 -79l-67 67l156 131l156 -131l-67 -67z" />
    <glyph glyph-name="Edieresis" unicode="&#xcb;" horiz-adv-x="295" 
d="M275 0h-250v700h250v-95h-130v-200h110v-95h-110v-215h130v-95zM120 775h-100v125h100v-125zM275 775h-100v125h100v-125z" />
    <glyph glyph-name="Igrave" unicode="&#xcc;" horiz-adv-x="170" 
d="M196 803l-67 -67l-156 136l67 67zM145 0h-120v700h120v-700z" />
    <glyph glyph-name="Iacute" unicode="&#xcd;" horiz-adv-x="170" 
d="M196 872l-156 -136l-67 67l156 136zM145 0h-120v700h120v-700z" />
    <glyph glyph-name="Icircumflex" unicode="&#xce;" horiz-adv-x="170" 
d="M85 820l-89 -79l-67 67l156 131l156 -131l-67 -67zM145 0h-120v700h120v-700z" />
    <glyph glyph-name="Idieresis" unicode="&#xcf;" horiz-adv-x="170" 
d="M58 775h-100v125h100v-125zM213 775h-100v125h100v-125zM145 0h-120v700h120v-700z" />
    <glyph glyph-name="Eth" unicode="&#xd0;" horiz-adv-x="320" 
d="M25 310h-20v95h20v295h137c79 0 138 -45 138 -118v-465c0 -72 -59 -117 -138 -117h-137v310zM145 310v-215h17c12 0 18 7 18 22v465c0 15 -6 23 -18 23h-17v-200h19v-95h-19z" />
    <glyph glyph-name="Ntilde" unicode="&#xd1;" horiz-adv-x="329" 
d="M98 748h-69c0 63 38 102 90 102c17 0 34 -6 50 -18s27 -18 34 -18c15 0 27 11 27 31h69c0 -63 -38 -102 -90 -102c-18 0 -35 6 -50 18s-27 18 -34 18c-15 0 -27 -11 -27 -31zM140 0h-115v700h85l76 -295h3v295h115v-700h-85l-77 295h-2v-295z" />
    <glyph glyph-name="Ograve" unicode="&#xd2;" 
d="M295 589v-479c0 -72 -59 -117 -138 -117s-137 44 -137 117v479c0 73 58 118 137 118s138 -45 138 -118zM140 589v-479c0 -15 6 -22 17 -22c12 0 18 7 18 22v479c0 15 -6 23 -18 23c-11 0 -17 -8 -17 -23zM269 803l-67 -67l-156 136l67 67z" />
    <glyph glyph-name="Oacute" unicode="&#xd3;" 
d="M295 589v-479c0 -72 -59 -117 -138 -117s-137 44 -137 117v479c0 73 58 118 137 118s138 -45 138 -118zM140 589v-479c0 -15 6 -22 17 -22c12 0 18 7 18 22v479c0 15 -6 23 -18 23c-11 0 -17 -8 -17 -23zM269 872l-156 -136l-67 67l156 136z" />
    <glyph glyph-name="Ocircumflex" unicode="&#xd4;" 
d="M295 589v-479c0 -72 -59 -117 -138 -117s-137 44 -137 117v479c0 73 58 118 137 118s138 -45 138 -118zM140 589v-479c0 -15 6 -22 17 -22c12 0 18 7 18 22v479c0 15 -6 23 -18 23c-11 0 -17 -8 -17 -23zM157 820l-89 -79l-67 67l156 131l156 -131l-67 -67z" />
    <glyph glyph-name="Otilde" unicode="&#xd5;" 
d="M295 589v-479c0 -72 -59 -117 -138 -117s-137 44 -137 117v479c0 73 58 118 137 118s138 -45 138 -118zM140 589v-479c0 -15 6 -22 17 -22c12 0 18 7 18 22v479c0 15 -6 23 -18 23c-11 0 -17 -8 -17 -23zM91 748h-69c0 63 38 102 90 102c17 0 34 -6 50 -18s27 -18 34 -18
c15 0 27 11 27 31h69c0 -63 -38 -102 -90 -102c-18 0 -35 6 -50 18s-27 18 -34 18c-15 0 -27 -11 -27 -31z" />
    <glyph glyph-name="Odieresis" unicode="&#xd6;" 
d="M295 589v-479c0 -72 -59 -117 -138 -117s-137 44 -137 117v479c0 73 58 118 137 118s138 -45 138 -118zM140 589v-479c0 -15 6 -22 17 -22c12 0 18 7 18 22v479c0 15 -6 23 -18 23c-11 0 -17 -8 -17 -23zM130 775h-100v125h100v-125zM285 775h-100v125h100v-125z" />
    <glyph glyph-name="multiply" unicode="&#xd7;" horiz-adv-x="325" 
d="M95 313l-86 86l67 67l86 -86l87 87l67 -67l-87 -87l88 -88l-67 -67l-88 88l-87 -87l-67 67z" />
    <glyph glyph-name="Oslash" unicode="&#xd8;" 
d="M75 0h-60l18 55c-9 15 -13 34 -13 55v479c0 73 58 118 137 118c29 0 55 -6 79 -19l4 12h60l-18 -57c9 -16 13 -34 13 -54v-479c0 -72 -59 -117 -138 -117c-31 0 -57 6 -79 18zM157 88c12 0 18 7 18 22v201l-35 -109v-92c0 -15 6 -22 17 -22zM140 589v-201l35 109v92
c0 15 -6 23 -18 23c-11 0 -17 -8 -17 -23z" />
    <glyph glyph-name="Ugrave" unicode="&#xd9;" 
d="M20 110v590h120v-590c0 -15 6 -22 17 -22c12 0 18 7 18 22v590h120v-590c0 -72 -59 -117 -138 -117s-137 44 -137 117zM269 803l-67 -67l-156 136l67 67z" />
    <glyph glyph-name="Uacute" unicode="&#xda;" 
d="M20 110v590h120v-590c0 -15 6 -22 17 -22c12 0 18 7 18 22v590h120v-590c0 -72 -59 -117 -138 -117s-137 44 -137 117zM269 872l-156 -136l-67 67l156 136z" />
    <glyph glyph-name="Ucircumflex" unicode="&#xdb;" 
d="M20 110v590h120v-590c0 -15 6 -22 17 -22c12 0 18 7 18 22v590h120v-590c0 -72 -59 -117 -138 -117s-137 44 -137 117zM157 820l-89 -79l-67 67l156 131l156 -131l-67 -67z" />
    <glyph glyph-name="Udieresis" unicode="&#xdc;" 
d="M20 110v590h120v-590c0 -15 6 -22 17 -22c12 0 18 7 18 22v590h120v-590c0 -72 -59 -117 -138 -117s-137 44 -137 117zM130 775h-100v125h100v-125zM285 775h-100v125h100v-125z" />
    <glyph glyph-name="Yacute" unicode="&#xdd;" 
d="M217 0h-120v191l-95 509h120l34 -327h2l35 327h120l-96 -509v-191zM269 872l-156 -136l-67 67l156 136z" />
    <glyph glyph-name="Thorn" unicode="&#xde;" horiz-adv-x="320" 
d="M145 0h-120v700h120v-125h17c79 0 138 -45 138 -117v-215c0 -73 -59 -118 -138 -118h-17v-125zM145 480v-260h17c12 0 18 8 18 23v215c0 15 -6 22 -18 22h-17z" />
    <glyph glyph-name="germandbls" unicode="&#xdf;" horiz-adv-x="310" 
d="M175 110v65h120v-65c0 -15 6 -22 17 -22c12 0 18 7 18 22v73c0 9 -38 24 -78 40c-39 16 -77 55 -77 100v76c0 21 6 42 17 62c11 21 17 40 17 59v80c0 49 -69 49 -69 0v-600h-120v600c0 83 66 132 155 132c88 0 155 -49 155 -132v-100c0 -21 -6 -41 -18 -62
c-11 -20 -17 -40 -17 -59v-56c0 -9 38 -25 77 -41c40 -16 78 -54 78 -99v-73c0 -72 -59 -117 -138 -117s-137 44 -137 117z" />
    <glyph glyph-name="agrave" unicode="&#xe0;" 
d="M295 0h-120v32c-25 -26 -52 -39 -82 -39c-43 0 -73 30 -73 78v110c0 71 45 109 110 117l45 5v87c0 15 -6 22 -17 22c-12 0 -18 -7 -18 -22v-65h-120v65c0 72 59 117 138 117s137 -44 137 -117v-390zM175 116v89l-17 -2c-12 -1 -18 -9 -18 -22v-75c0 -12 4 -18 13 -18
c15 0 22 9 22 28zM269 603l-67 -67l-156 136l67 67z" />
    <glyph glyph-name="aacute" unicode="&#xe1;" 
d="M295 0h-120v32c-25 -26 -52 -39 -82 -39c-43 0 -73 30 -73 78v110c0 71 45 109 110 117l45 5v87c0 15 -6 22 -17 22c-12 0 -18 -7 -18 -22v-65h-120v65c0 72 59 117 138 117s137 -44 137 -117v-390zM175 116v89l-17 -2c-12 -1 -18 -9 -18 -22v-75c0 -12 4 -18 13 -18
c15 0 22 9 22 28zM269 672l-156 -136l-67 67l156 136z" />
    <glyph glyph-name="acircumflex" unicode="&#xe2;" 
d="M295 0h-120v32c-25 -26 -52 -39 -82 -39c-43 0 -73 30 -73 78v110c0 71 45 109 110 117l45 5v87c0 15 -6 22 -17 22c-12 0 -18 -7 -18 -22v-65h-120v65c0 72 59 117 138 117s137 -44 137 -117v-390zM175 116v89l-17 -2c-12 -1 -18 -9 -18 -22v-75c0 -12 4 -18 13 -18
c15 0 22 9 22 28zM157 620l-89 -79l-67 67l156 131l156 -131l-67 -67z" />
    <glyph glyph-name="atilde" unicode="&#xe3;" 
d="M295 0h-120v32c-25 -26 -52 -39 -82 -39c-43 0 -73 30 -73 78v110c0 71 45 109 110 117l45 5v87c0 15 -6 22 -17 22c-12 0 -18 -7 -18 -22v-65h-120v65c0 72 59 117 138 117s137 -44 137 -117v-390zM175 116v89l-17 -2c-12 -1 -18 -9 -18 -22v-75c0 -12 4 -18 13 -18
c15 0 22 9 22 28zM91 548h-69c0 63 38 102 90 102c17 0 34 -6 50 -18s27 -18 34 -18c15 0 27 11 27 31h69c0 -63 -38 -102 -90 -102c-18 0 -35 6 -50 18s-27 18 -34 18c-15 0 -27 -11 -27 -31z" />
    <glyph glyph-name="adieresis" unicode="&#xe4;" 
d="M295 0h-120v32c-25 -26 -52 -39 -82 -39c-43 0 -73 30 -73 78v110c0 71 45 109 110 117l45 5v87c0 15 -6 22 -17 22c-12 0 -18 -7 -18 -22v-65h-120v65c0 72 59 117 138 117s137 -44 137 -117v-390zM175 116v89l-17 -2c-12 -1 -18 -9 -18 -22v-75c0 -12 4 -18 13 -18
c15 0 22 9 22 28zM130 575h-100v125h100v-125zM285 575h-100v125h100v-125z" />
    <glyph glyph-name="aring" unicode="&#xe5;" 
d="M295 0h-120v32c-25 -26 -52 -39 -82 -39c-43 0 -73 30 -73 78v110c0 71 45 109 110 117l45 5v87c0 15 -6 22 -17 22c-12 0 -18 -7 -18 -22v-65h-120v65c0 72 59 117 138 117s137 -44 137 -117v-390zM175 116v89l-17 -2c-12 -1 -18 -9 -18 -22v-75c0 -12 4 -18 13 -18
c15 0 22 9 22 28zM87 701c37 36 103 36 140 0c19 -17 28 -41 28 -71s-9 -54 -28 -71c-37 -35 -103 -35 -140 0c-18 17 -27 41 -27 71s9 54 27 71zM130 630c0 -21 12 -35 27 -35c16 0 28 14 28 35c0 23 -12 36 -28 36c-15 0 -27 -13 -27 -36z" />
    <glyph glyph-name="ae" unicode="&#xe6;" horiz-adv-x="470" 
d="M450 389v-179h-155v-100c0 -15 6 -22 17 -22c12 0 18 7 18 22v65h120v-65c0 -72 -59 -117 -138 -117c-53 0 -92 17 -115 52c-23 -35 -57 -52 -104 -52c-43 0 -73 30 -73 78v110c0 71 45 109 110 117l45 5v87c0 15 -6 22 -17 22c-12 0 -18 -7 -18 -22v-65h-120v65
c0 72 59 117 138 117c35 0 61 -11 77 -33c16 22 42 33 77 33c79 0 138 -45 138 -118zM175 116v89l-17 -2c-12 -1 -18 -9 -18 -22v-75c0 -12 4 -18 13 -18c15 0 22 9 22 28zM295 389v-84h35v84c0 15 -6 23 -18 23c-11 0 -17 -8 -17 -23z" />
    <glyph glyph-name="ccedilla" unicode="&#xe7;" 
d="M200 -150h-85v148c-57 12 -95 52 -95 112v279c0 73 58 118 137 118s138 -45 138 -118v-64h-120v64c0 15 -6 23 -18 23c-11 0 -17 -8 -17 -23v-279c0 -15 6 -22 17 -22c12 0 18 7 18 22v65h120v-65c0 -59 -38 -99 -95 -112v-148z" />
    <glyph glyph-name="egrave" unicode="&#xe8;" 
d="M295 389v-179h-155v-100c0 -15 6 -22 17 -22c12 0 18 7 18 22v65h120v-65c0 -72 -59 -117 -138 -117s-137 44 -137 117v279c0 73 58 118 137 118s138 -45 138 -118zM140 389v-84h35v84c0 15 -6 23 -18 23c-11 0 -17 -8 -17 -23zM269 603l-67 -67l-156 136l67 67z" />
    <glyph glyph-name="eacute" unicode="&#xe9;" 
d="M295 389v-179h-155v-100c0 -15 6 -22 17 -22c12 0 18 7 18 22v65h120v-65c0 -72 -59 -117 -138 -117s-137 44 -137 117v279c0 73 58 118 137 118s138 -45 138 -118zM140 389v-84h35v84c0 15 -6 23 -18 23c-11 0 -17 -8 -17 -23zM269 672l-156 -136l-67 67l156 136z" />
    <glyph glyph-name="ecircumflex" unicode="&#xea;" 
d="M295 389v-179h-155v-100c0 -15 6 -22 17 -22c12 0 18 7 18 22v65h120v-65c0 -72 -59 -117 -138 -117s-137 44 -137 117v279c0 73 58 118 137 118s138 -45 138 -118zM140 389v-84h35v84c0 15 -6 23 -18 23c-11 0 -17 -8 -17 -23zM157 620l-89 -79l-67 67l156 131l156 -131
l-67 -67z" />
    <glyph glyph-name="edieresis" unicode="&#xeb;" 
d="M295 389v-179h-155v-100c0 -15 6 -22 17 -22c12 0 18 7 18 22v65h120v-65c0 -72 -59 -117 -138 -117s-137 44 -137 117v279c0 73 58 118 137 118s138 -45 138 -118zM140 389v-84h35v84c0 15 -6 23 -18 23c-11 0 -17 -8 -17 -23zM130 575h-100v125h100v-125zM285 575h-100
v125h100v-125z" />
    <glyph glyph-name="igrave" unicode="&#xec;" horiz-adv-x="170" 
d="M196 603l-67 -67l-156 136l67 67zM145 0h-120v500h120v-500z" />
    <glyph glyph-name="iacute" unicode="&#xed;" horiz-adv-x="170" 
d="M196 672l-156 -136l-67 67l156 136zM145 0h-120v500h120v-500z" />
    <glyph glyph-name="icircumflex" unicode="&#xee;" horiz-adv-x="170" 
d="M85 620l-89 -79l-67 67l156 131l156 -131l-67 -67zM145 0h-120v500h120v-500z" />
    <glyph glyph-name="idieresis" unicode="&#xef;" horiz-adv-x="170" 
d="M58 575h-100v125h100v-125zM213 575h-100v125h100v-125zM145 0h-120v500h120v-500z" />
    <glyph glyph-name="eth" unicode="&#xf0;" 
d="M165 568l-32 -32l-58 57l43 43c-17 17 -38 37 -49 45l-8 6l43 43c22 -8 46 -20 72 -36l37 37l58 -57l-30 -30c36 -37 54 -77 54 -119v-415c0 -73 -58 -117 -137 -117s-138 45 -138 117v319c0 48 32 78 73 78c29 0 56 -13 82 -39v57c0 13 -3 28 -10 43zM175 110v274
c0 19 -7 28 -22 28c-9 0 -13 -6 -13 -18v-284c0 -15 6 -22 18 -22c11 0 17 7 17 22z" />
    <glyph glyph-name="ntilde" unicode="&#xf1;" horiz-adv-x="320" 
d="M94 548h-69c0 63 38 102 90 102c17 0 34 -6 50 -18s27 -18 34 -18c15 0 27 11 27 31h69c0 -63 -38 -102 -90 -102c-18 0 -35 6 -50 18s-27 18 -34 18c-15 0 -27 -11 -27 -31zM145 384v-384h-120v500h120v-32c26 26 53 39 82 39c41 0 73 -30 73 -78v-429h-120v394
c0 12 -4 18 -13 18c-15 0 -22 -9 -22 -28z" />
    <glyph glyph-name="ograve" unicode="&#xf2;" 
d="M295 389v-279c0 -72 -59 -117 -138 -117s-137 44 -137 117v279c0 73 58 118 137 118s138 -45 138 -118zM140 389v-279c0 -15 6 -22 17 -22c12 0 18 7 18 22v279c0 15 -6 23 -18 23c-11 0 -17 -8 -17 -23zM269 603l-67 -67l-156 136l67 67z" />
    <glyph glyph-name="oacute" unicode="&#xf3;" 
d="M295 389v-279c0 -72 -59 -117 -138 -117s-137 44 -137 117v279c0 73 58 118 137 118s138 -45 138 -118zM140 389v-279c0 -15 6 -22 17 -22c12 0 18 7 18 22v279c0 15 -6 23 -18 23c-11 0 -17 -8 -17 -23zM269 672l-156 -136l-67 67l156 136z" />
    <glyph glyph-name="ocircumflex" unicode="&#xf4;" 
d="M295 389v-279c0 -72 -59 -117 -138 -117s-137 44 -137 117v279c0 73 58 118 137 118s138 -45 138 -118zM140 389v-279c0 -15 6 -22 17 -22c12 0 18 7 18 22v279c0 15 -6 23 -18 23c-11 0 -17 -8 -17 -23zM157 620l-89 -79l-67 67l156 131l156 -131l-67 -67z" />
    <glyph glyph-name="otilde" unicode="&#xf5;" 
d="M295 389v-279c0 -72 -59 -117 -138 -117s-137 44 -137 117v279c0 73 58 118 137 118s138 -45 138 -118zM140 389v-279c0 -15 6 -22 17 -22c12 0 18 7 18 22v279c0 15 -6 23 -18 23c-11 0 -17 -8 -17 -23zM91 548h-69c0 63 38 102 90 102c17 0 34 -6 50 -18s27 -18 34 -18
c15 0 27 11 27 31h69c0 -63 -38 -102 -90 -102c-18 0 -35 6 -50 18s-27 18 -34 18c-15 0 -27 -11 -27 -31z" />
    <glyph glyph-name="odieresis" unicode="&#xf6;" 
d="M295 389v-279c0 -72 -59 -117 -138 -117s-137 44 -137 117v279c0 73 58 118 137 118s138 -45 138 -118zM140 389v-279c0 -15 6 -22 17 -22c12 0 18 7 18 22v279c0 15 -6 23 -18 23c-11 0 -17 -8 -17 -23zM130 575h-100v125h100v-125zM285 575h-100v125h100v-125z" />
    <glyph glyph-name="divide" unicode="&#xf7;" horiz-adv-x="325" 
d="M219 65h-115v125h115v-125zM219 375h-115v125h115v-125zM310 235h-295v95h295v-95z" />
    <glyph glyph-name="oslash" unicode="&#xf8;" 
d="M75 0h-60l22 49c-11 17 -17 38 -17 61v279c0 73 58 118 137 118c30 0 56 -6 78 -18l5 11h60l-23 -50c12 -19 18 -39 18 -61v-279c0 -72 -59 -117 -138 -117c-29 0 -55 6 -78 17zM157 88c12 0 18 7 18 22v112l-35 -77v-35c0 -15 6 -22 17 -22zM140 389v-111l35 77v34
c0 15 -6 23 -18 23c-11 0 -17 -8 -17 -23z" />
    <glyph glyph-name="ugrave" unicode="&#xf9;" horiz-adv-x="320" 
d="M295 0h-120v32c-26 -26 -53 -39 -82 -39c-41 0 -73 30 -73 78v429h120v-394c0 -12 4 -18 13 -18c15 0 22 9 22 28v384h120v-500zM271 603l-67 -67l-156 136l67 67z" />
    <glyph glyph-name="uacute" unicode="&#xfa;" horiz-adv-x="320" 
d="M295 0h-120v32c-26 -26 -53 -39 -82 -39c-41 0 -73 30 -73 78v429h120v-394c0 -12 4 -18 13 -18c15 0 22 9 22 28v384h120v-500zM271 672l-156 -136l-67 67l156 136z" />
    <glyph glyph-name="ucircumflex" unicode="&#xfb;" horiz-adv-x="320" 
d="M295 0h-120v32c-26 -26 -53 -39 -82 -39c-41 0 -73 30 -73 78v429h120v-394c0 -12 4 -18 13 -18c15 0 22 9 22 28v384h120v-500zM160 620l-89 -79l-67 67l156 131l156 -131l-67 -67z" />
    <glyph glyph-name="udieresis" unicode="&#xfc;" horiz-adv-x="320" 
d="M295 0h-120v32c-26 -26 -53 -39 -82 -39c-41 0 -73 30 -73 78v429h120v-394c0 -12 4 -18 13 -18c15 0 22 9 22 28v384h120v-500zM132 575h-100v125h100v-125zM287 575h-100v125h100v-125z" />
    <glyph glyph-name="yacute" unicode="&#xfd;" 
d="M20 -114v50h120v-50c0 -15 6 -23 18 -23c10 0 16 7 17 22v147c-26 -26 -53 -39 -82 -39c-41 0 -73 30 -73 78v429h120v-394c0 -12 4 -18 13 -18c15 0 22 9 22 28v384h120v-614c0 -73 -58 -118 -137 -118s-138 45 -138 118zM269 672l-156 -136l-67 67l156 136z" />
    <glyph glyph-name="thorn" unicode="&#xfe;" horiz-adv-x="320" 
d="M145 -200h-120v925h120v-257c26 26 53 39 82 39c41 0 73 -30 73 -78v-319c0 -72 -47 -117 -110 -117c-19 0 -34 2 -45 7v-200zM145 384v-290c5 -4 10 -6 17 -6c12 0 18 7 18 22v284c0 12 -4 18 -13 18c-15 0 -22 -9 -22 -28z" />
    <glyph glyph-name="ydieresis" unicode="&#xff;" 
d="M20 -114v50h120v-50c0 -15 6 -23 18 -23c10 0 16 7 17 22v147c-26 -26 -53 -39 -82 -39c-41 0 -73 30 -73 78v429h120v-394c0 -12 4 -18 13 -18c15 0 22 9 22 28v384h120v-614c0 -73 -58 -118 -137 -118s-138 45 -138 118zM130 575h-100v125h100v-125zM285 575h-100v125
h100v-125z" />
    <glyph glyph-name="Amacron" unicode="&#x100;" 
d="M125 0h-123l78 700h155l78 -700h-123l-7 125h-51zM157 569l-20 -349h41l-19 349h-2zM267 780h-220v95h220v-95z" />
    <glyph glyph-name="amacron" unicode="&#x101;" 
d="M295 0h-120v32c-25 -26 -52 -39 -82 -39c-43 0 -73 30 -73 78v110c0 71 45 109 110 117l45 5v87c0 15 -6 22 -17 22c-12 0 -18 -7 -18 -22v-65h-120v65c0 72 59 117 138 117s137 -44 137 -117v-390zM175 116v89l-17 -2c-12 -1 -18 -9 -18 -22v-75c0 -12 4 -18 13 -18
c15 0 22 9 22 28zM267 580h-220v95h220v-95z" />
    <glyph glyph-name="Abreve" unicode="&#x102;" 
d="M125 0h-123l78 700h155l78 -700h-123l-7 125h-51zM157 569l-20 -349h41l-19 349h-2zM44 850h79c0 -25 15 -41 34 -41c21 0 36 14 36 41h78c0 -65 -49 -107 -114 -107s-113 42 -113 107z" />
    <glyph glyph-name="abreve" unicode="&#x103;" 
d="M295 0h-120v32c-25 -26 -52 -39 -82 -39c-43 0 -73 30 -73 78v110c0 71 45 109 110 117l45 5v87c0 15 -6 22 -17 22c-12 0 -18 -7 -18 -22v-65h-120v65c0 72 59 117 138 117s137 -44 137 -117v-390zM175 116v89l-17 -2c-12 -1 -18 -9 -18 -22v-75c0 -12 4 -18 13 -18
c15 0 22 9 22 28zM44 650h79c0 -25 15 -41 34 -41c21 0 36 14 36 41h78c0 -65 -49 -107 -114 -107s-113 42 -113 107z" />
    <glyph glyph-name="Aogonek" unicode="&#x104;" 
d="M190 -18v18l-7 125h-51l-7 -125h-123l78 700h155l78 -700h-44v-18c0 -29 16 -51 41 -51v-63c-73 0 -120 49 -120 114zM157 569l-20 -349h41l-19 349h-2z" />
    <glyph glyph-name="aogonek" unicode="&#x105;" 
d="M295 0h-120v32c-25 -26 -52 -39 -82 -39c-43 0 -73 30 -73 78v110c0 71 45 109 110 117l45 5v87c0 15 -6 22 -17 22c-12 0 -18 -7 -18 -22v-65h-120v65c0 72 59 117 138 117s137 -44 137 -117v-390zM175 116v89l-17 -2c-12 -1 -18 -9 -18 -22v-75c0 -12 4 -18 13 -18
c15 0 22 9 22 28zM175 -18v18h79v-18c0 -29 16 -51 41 -51v-63c-73 0 -120 49 -120 114z" />
    <glyph glyph-name="Cacute" unicode="&#x106;" 
d="M140 589v-479c0 -15 6 -22 17 -22c12 0 18 7 18 22v90h120v-90c0 -72 -59 -117 -138 -117s-137 44 -137 117v479c0 73 58 118 137 118s138 -45 138 -118v-89h-120v89c0 15 -6 23 -18 23c-11 0 -17 -8 -17 -23zM269 872l-156 -136l-67 67l156 136z" />
    <glyph glyph-name="cacute" unicode="&#x107;" 
d="M140 389v-279c0 -15 6 -22 17 -22c12 0 18 7 18 22v65h120v-65c0 -72 -59 -117 -138 -117s-137 44 -137 117v279c0 73 58 118 137 118s138 -45 138 -118v-64h-120v64c0 15 -6 23 -18 23c-11 0 -17 -8 -17 -23zM269 672l-156 -136l-67 67l156 136z" />
    <glyph glyph-name="Ccircumflex" unicode="&#x108;" 
d="M140 589v-479c0 -15 6 -22 17 -22c12 0 18 7 18 22v90h120v-90c0 -72 -59 -117 -138 -117s-137 44 -137 117v479c0 73 58 118 137 118s138 -45 138 -118v-89h-120v89c0 15 -6 23 -18 23c-11 0 -17 -8 -17 -23zM157 820l-89 -79l-67 67l156 131l156 -131l-67 -67z" />
    <glyph glyph-name="ccircumflex" unicode="&#x109;" 
d="M140 389v-279c0 -15 6 -22 17 -22c12 0 18 7 18 22v65h120v-65c0 -72 -59 -117 -138 -117s-137 44 -137 117v279c0 73 58 118 137 118s138 -45 138 -118v-64h-120v64c0 15 -6 23 -18 23c-11 0 -17 -8 -17 -23zM157 620l-89 -79l-67 67l156 131l156 -131l-67 -67z" />
    <glyph glyph-name="Cdotaccent" unicode="&#x10a;" 
d="M140 589v-479c0 -15 6 -22 17 -22c12 0 18 7 18 22v90h120v-90c0 -72 -59 -117 -138 -117s-137 44 -137 117v479c0 73 58 118 137 118s138 -45 138 -118v-89h-120v89c0 15 -6 23 -18 23c-11 0 -17 -8 -17 -23zM217 775h-120v125h120v-125z" />
    <glyph glyph-name="cdotaccent" unicode="&#x10b;" 
d="M140 389v-279c0 -15 6 -22 17 -22c12 0 18 7 18 22v65h120v-65c0 -72 -59 -117 -138 -117s-137 44 -137 117v279c0 73 58 118 137 118s138 -45 138 -118v-64h-120v64c0 15 -6 23 -18 23c-11 0 -17 -8 -17 -23zM217 575h-120v125h120v-125z" />
    <glyph glyph-name="Ccaron" unicode="&#x10c;" 
d="M140 589v-479c0 -15 6 -22 17 -22c12 0 18 7 18 22v90h120v-90c0 -72 -59 -117 -138 -117s-137 44 -137 117v479c0 73 58 118 137 118s138 -45 138 -118v-89h-120v89c0 15 -6 23 -18 23c-11 0 -17 -8 -17 -23zM313 872l-156 -131l-156 131l67 67l89 -79l89 79z" />
    <glyph glyph-name="ccaron" unicode="&#x10d;" 
d="M140 389v-279c0 -15 6 -22 17 -22c12 0 18 7 18 22v65h120v-65c0 -72 -59 -117 -138 -117s-137 44 -137 117v279c0 73 58 118 137 118s138 -45 138 -118v-64h-120v64c0 15 -6 23 -18 23c-11 0 -17 -8 -17 -23zM313 672l-156 -131l-156 131l67 67l89 -79l89 79z" />
    <glyph glyph-name="Dcaron" unicode="&#x10e;" horiz-adv-x="320" 
d="M162 0h-137v700h137c79 0 138 -45 138 -118v-465c0 -72 -59 -117 -138 -117zM145 605v-510h17c12 0 18 7 18 22v465c0 15 -6 23 -18 23h-17zM316 872l-156 -131l-156 131l67 67l89 -79l89 79z" />
    <glyph glyph-name="dcaron" unicode="&#x10f;" horiz-adv-x="485" 
d="M295 0h-120v32c-26 -26 -53 -39 -82 -39c-41 0 -73 30 -73 78v319c0 72 46 117 110 117c17 0 32 -2 45 -7v225h120v-725zM175 116v290c-5 4 -10 6 -17 6c-12 0 -18 -7 -18 -22v-284c0 -12 4 -18 13 -18c15 0 22 9 22 28zM431 493l-11 -18h-95c17 43 25 85 25 125v125h115
v-125c0 -36 -19 -83 -34 -107z" />
    <glyph glyph-name="Dcroat" unicode="&#x110;" horiz-adv-x="320" 
d="M25 310h-20v95h20v295h137c79 0 138 -45 138 -118v-465c0 -72 -59 -117 -138 -117h-137v310zM145 310v-215h17c12 0 18 7 18 22v465c0 15 -6 23 -18 23h-17v-200h19v-95h-19z" />
    <glyph glyph-name="dslash" unicode="&#x111;" horiz-adv-x="320" 
d="M175 565h-104v95h104v65h120v-65h20v-95h-20v-565h-120v32c-26 -26 -53 -39 -82 -39c-41 0 -73 30 -73 78v319c0 72 46 117 110 117c17 0 32 -2 45 -7v65zM175 116v290c-5 4 -10 6 -17 6c-12 0 -18 -7 -18 -22v-284c0 -12 4 -18 13 -18c15 0 22 9 22 28z" />
    <glyph glyph-name="Emacron" unicode="&#x112;" horiz-adv-x="295" 
d="M275 0h-250v700h250v-95h-130v-200h110v-95h-110v-215h130v-95zM257 780h-220v95h220v-95z" />
    <glyph glyph-name="emacron" unicode="&#x113;" 
d="M295 389v-179h-155v-100c0 -15 6 -22 17 -22c12 0 18 7 18 22v65h120v-65c0 -72 -59 -117 -138 -117s-137 44 -137 117v279c0 73 58 118 137 118s138 -45 138 -118zM140 389v-84h35v84c0 15 -6 23 -18 23c-11 0 -17 -8 -17 -23zM267 580h-220v95h220v-95z" />
    <glyph glyph-name="Ebreve" unicode="&#x114;" horiz-adv-x="295" 
d="M275 0h-250v700h250v-95h-130v-200h110v-95h-110v-215h130v-95zM34 850h79c0 -25 15 -41 34 -41c21 0 36 14 36 41h78c0 -65 -49 -107 -114 -107s-113 42 -113 107z" />
    <glyph glyph-name="ebreve" unicode="&#x115;" 
d="M295 389v-179h-155v-100c0 -15 6 -22 17 -22c12 0 18 7 18 22v65h120v-65c0 -72 -59 -117 -138 -117s-137 44 -137 117v279c0 73 58 118 137 118s138 -45 138 -118zM140 389v-84h35v84c0 15 -6 23 -18 23c-11 0 -17 -8 -17 -23zM44 650h79c0 -25 15 -41 34 -41
c21 0 36 14 36 41h78c0 -65 -49 -107 -114 -107s-113 42 -113 107z" />
    <glyph glyph-name="Edotaccent" unicode="&#x116;" horiz-adv-x="295" 
d="M275 0h-250v700h250v-95h-130v-200h110v-95h-110v-215h130v-95zM207 775h-120v125h120v-125z" />
    <glyph glyph-name="edotaccent" unicode="&#x117;" 
d="M295 389v-179h-155v-100c0 -15 6 -22 17 -22c12 0 18 7 18 22v65h120v-65c0 -72 -59 -117 -138 -117s-137 44 -137 117v279c0 73 58 118 137 118s138 -45 138 -118zM140 389v-84h35v84c0 15 -6 23 -18 23c-11 0 -17 -8 -17 -23zM217 575h-120v125h120v-125z" />
    <glyph glyph-name="Eogonek" unicode="&#x118;" horiz-adv-x="295" 
d="M155 0h-130v700h250v-95h-130v-200h110v-95h-110v-215h130v-95h-41v-18c0 -29 16 -51 41 -51v-63c-73 0 -120 49 -120 114v18z" />
    <glyph glyph-name="eogonek" unicode="&#x119;" 
d="M130 -18v13c-65 9 -110 51 -110 115v279c0 73 58 118 137 118s138 -45 138 -118v-179h-155v-100c0 -15 6 -22 17 -22c12 0 18 7 18 22v65h120v-65c0 -55 -34 -94 -87 -110h1v-18c0 -29 16 -51 41 -51v-63c-73 0 -120 49 -120 114zM140 389v-84h35v84c0 15 -6 23 -18 23
c-11 0 -17 -8 -17 -23z" />
    <glyph glyph-name="Ecaron" unicode="&#x11a;" horiz-adv-x="295" 
d="M275 0h-250v700h250v-95h-130v-200h110v-95h-110v-215h130v-95zM303 872l-156 -131l-156 131l67 67l89 -79l89 79z" />
    <glyph glyph-name="ecaron" unicode="&#x11b;" 
d="M295 389v-179h-155v-100c0 -15 6 -22 17 -22c12 0 18 7 18 22v65h120v-65c0 -72 -59 -117 -138 -117s-137 44 -137 117v279c0 73 58 118 137 118s138 -45 138 -118zM140 389v-84h35v84c0 15 -6 23 -18 23c-11 0 -17 -8 -17 -23zM313 672l-156 -131l-156 131l67 67l89 -79
l89 79z" />
    <glyph glyph-name="Gcircumflex" unicode="&#x11c;" 
d="M175 305h-15v95h135v-290c0 -72 -59 -117 -138 -117s-137 44 -137 117v479c0 73 58 118 137 118s138 -45 138 -118v-89h-120v89c0 15 -6 23 -18 23c-11 0 -17 -8 -17 -23v-479c0 -15 6 -22 17 -22c12 0 18 7 18 22v195zM157 820l-89 -79l-67 67l156 131l156 -131l-67 -67
z" />
    <glyph glyph-name="gcircumflex" unicode="&#x11d;" 
d="M20 -114v50h120v-50c0 -15 6 -23 18 -23c10 0 16 7 17 22v147c-26 -26 -53 -39 -82 -39c-41 0 -73 30 -73 78v319c0 72 59 117 138 117c48 0 99 -16 120 -28l17 -9v-584c0 -73 -58 -118 -137 -118s-138 45 -138 118zM175 116v290c-5 4 -10 6 -17 6c-12 0 -18 -7 -18 -22
v-284c0 -12 4 -18 13 -18c15 0 22 9 22 28zM157 620l-89 -79l-67 67l156 131l156 -131l-67 -67z" />
    <glyph glyph-name="Gbreve" unicode="&#x11e;" 
d="M175 305h-15v95h135v-290c0 -72 -59 -117 -138 -117s-137 44 -137 117v479c0 73 58 118 137 118s138 -45 138 -118v-89h-120v89c0 15 -6 23 -18 23c-11 0 -17 -8 -17 -23v-479c0 -15 6 -22 17 -22c12 0 18 7 18 22v195zM44 850h79c0 -25 15 -41 34 -41c21 0 36 14 36 41
h78c0 -65 -49 -107 -114 -107s-113 42 -113 107z" />
    <glyph glyph-name="gbreve" unicode="&#x11f;" 
d="M20 -114v50h120v-50c0 -15 6 -23 18 -23c10 0 16 7 17 22v147c-26 -26 -53 -39 -82 -39c-41 0 -73 30 -73 78v319c0 72 59 117 138 117c48 0 99 -16 120 -28l17 -9v-584c0 -73 -58 -118 -137 -118s-138 45 -138 118zM175 116v290c-5 4 -10 6 -17 6c-12 0 -18 -7 -18 -22
v-284c0 -12 4 -18 13 -18c15 0 22 9 22 28zM44 650h79c0 -25 15 -41 34 -41c21 0 36 14 36 41h78c0 -65 -49 -107 -114 -107s-113 42 -113 107z" />
    <glyph glyph-name="Gdotaccent" unicode="&#x120;" 
d="M175 305h-15v95h135v-290c0 -72 -59 -117 -138 -117s-137 44 -137 117v479c0 73 58 118 137 118s138 -45 138 -118v-89h-120v89c0 15 -6 23 -18 23c-11 0 -17 -8 -17 -23v-479c0 -15 6 -22 17 -22c12 0 18 7 18 22v195zM217 775h-120v125h120v-125z" />
    <glyph glyph-name="gdotaccent" unicode="&#x121;" 
d="M20 -114v50h120v-50c0 -15 6 -23 18 -23c10 0 16 7 17 22v147c-26 -26 -53 -39 -82 -39c-41 0 -73 30 -73 78v319c0 72 59 117 138 117c48 0 99 -16 120 -28l17 -9v-584c0 -73 -58 -118 -137 -118s-138 45 -138 118zM175 116v290c-5 4 -10 6 -17 6c-12 0 -18 -7 -18 -22
v-284c0 -12 4 -18 13 -18c15 0 22 9 22 28zM217 575h-120v125h120v-125z" />
    <glyph glyph-name="Gcommaaccent" unicode="&#x122;" 
d="M175 305h-15v95h135v-290c0 -72 -59 -117 -138 -117s-137 44 -137 117v479c0 73 58 118 137 118s138 -45 138 -118v-89h-120v89c0 15 -6 23 -18 23c-11 0 -17 -8 -17 -23v-479c0 -15 6 -22 17 -22c12 0 18 7 18 22v195zM214 -30v-95c0 -29 -11 -64 -33 -105h-80
c12 41 18 76 18 105v95h95z" />
    <glyph glyph-name="gcommaaccent" unicode="&#x123;" 
d="M20 -114v50h120v-50c0 -15 6 -23 18 -23c10 0 16 7 17 22v147c-26 -26 -53 -39 -82 -39c-41 0 -73 30 -73 78v319c0 72 59 117 138 117c48 0 99 -16 120 -28l17 -9v-584c0 -73 -58 -118 -137 -118s-138 45 -138 118zM175 116v290c-5 4 -10 6 -17 6c-12 0 -18 -7 -18 -22
v-284c0 -12 4 -18 13 -18c15 0 22 9 22 28zM130 807l12 18h95c-17 -43 -25 -85 -25 -125v-125h-115v125c0 36 18 83 33 107z" />
    <glyph glyph-name="Hcircumflex" unicode="&#x124;" horiz-adv-x="325" 
d="M145 0h-120v700h120v-295h35v295h120v-700h-120v310h-35v-310zM162 820l-89 -79l-67 67l156 131l156 -131l-67 -67z" />
    <glyph glyph-name="hcircumflex" unicode="&#x125;" horiz-adv-x="320" 
d="M145 0h-120v725h120v-257c26 26 53 39 82 39c41 0 73 -30 73 -78v-429h-120v394c0 12 -4 18 -13 18c-15 0 -22 -9 -22 -28v-384zM160 820l-89 -79l-67 67l156 131l156 -131l-67 -67z" />
    <glyph glyph-name="Hbar" unicode="&#x126;" horiz-adv-x="325" 
d="M25 500h-20v95h20v105h120v-105h35v105h120v-105h20v-95h-20v-500h-120v310h-35v-310h-120v500zM145 500v-95h35v95h-35z" />
    <glyph glyph-name="hbar" unicode="&#x127;" horiz-adv-x="345" 
d="M50 555h-40v95h40v75h120v-75h105v-95h-105v-87c26 26 53 39 82 39c41 0 73 -30 73 -78v-429h-120v394c0 12 -4 18 -13 18c-15 0 -22 -9 -22 -28v-384h-120v555z" />
    <glyph glyph-name="Itilde" unicode="&#x128;" horiz-adv-x="170" 
d="M19 748h-69c0 63 38 102 90 102c17 0 34 -6 50 -18s27 -18 34 -18c15 0 27 11 27 31h69c0 -63 -38 -102 -90 -102c-18 0 -35 6 -50 18s-27 18 -34 18c-15 0 -27 -11 -27 -31zM145 0h-120v700h120v-700z" />
    <glyph glyph-name="itilde" unicode="&#x129;" horiz-adv-x="170" 
d="M19 548h-69c0 63 38 102 90 102c17 0 34 -6 50 -18s27 -18 34 -18c15 0 27 11 27 31h69c0 -63 -38 -102 -90 -102c-18 0 -35 6 -50 18s-27 18 -34 18c-15 0 -27 -11 -27 -31zM145 0h-120v500h120v-500z" />
    <glyph glyph-name="Imacron" unicode="&#x12a;" horiz-adv-x="170" 
d="M145 0h-120v700h120v-700zM195 780h-220v95h220v-95z" />
    <glyph glyph-name="imacron" unicode="&#x12b;" horiz-adv-x="170" 
d="M145 0h-120v500h120v-500zM195 580h-220v95h220v-95z" />
    <glyph glyph-name="Ibreve" unicode="&#x12c;" horiz-adv-x="170" 
d="M-28 850h79c0 -25 15 -41 34 -41c21 0 36 14 36 41h78c0 -65 -49 -107 -114 -107s-113 42 -113 107zM145 0h-120v700h120v-700z" />
    <glyph glyph-name="ibreve" unicode="&#x12d;" horiz-adv-x="170" 
d="M-28 650h79c0 -25 15 -41 34 -41c21 0 36 14 36 41h78c0 -65 -49 -107 -114 -107s-113 42 -113 107zM145 0h-120v500h120v-500z" />
    <glyph glyph-name="Iogonek" unicode="&#x12e;" horiz-adv-x="170" 
d="M25 -18v18h79v-18c0 -29 16 -51 41 -51v-63c-73 0 -120 49 -120 114zM145 0h-120v700h120v-700z" />
    <glyph glyph-name="iogonek" unicode="&#x12f;" horiz-adv-x="170" 
d="M145 0h-120v500h120v-500zM145 575h-120v125h120v-125zM25 -18v18h79v-18c0 -29 16 -51 41 -51v-63c-73 0 -120 49 -120 114z" />
    <glyph glyph-name="Idot" unicode="&#x130;" horiz-adv-x="170" 
d="M145 775h-120v125h120v-125zM145 0h-120v700h120v-700z" />
    <glyph glyph-name="dotlessi" unicode="&#x131;" horiz-adv-x="170" 
d="M145 0h-120v500h120v-500z" />
    <glyph glyph-name="IJ" unicode="&#x132;" horiz-adv-x="320" 
d="M25 111v89h120v-89c0 -15 6 -23 18 -23c11 0 17 8 17 23v589h120v-589c0 -73 -58 -118 -137 -118s-138 45 -138 118zM145 275h-120v425h120v-425z" />
    <glyph glyph-name="ij" unicode="&#x133;" horiz-adv-x="350" 
d="M145 -226l-5 1v94c9 -4 19 -6 31 -6c20 0 34 12 34 32v605h120v-605c0 -79 -60 -127 -139 -127c-17 0 -34 3 -41 6zM325 575h-120v125h120v-125zM145 0h-120v500h120v-500zM145 575h-120v125h120v-125z" />
    <glyph glyph-name="Jcircumflex" unicode="&#x134;" 
d="M20 111v89h120v-89c0 -15 6 -23 18 -23c11 0 17 8 17 23v589h120v-589c0 -73 -58 -118 -137 -118s-138 45 -138 118zM237 820l-89 -79l-67 67l156 131l156 -131l-67 -67z" />
    <glyph glyph-name="jcircumflex" unicode="&#x135;" horiz-adv-x="170" 
d="M-35 -226l-5 1v94c9 -4 19 -6 31 -6c20 0 34 12 34 32v605h120v-605c0 -79 -60 -127 -139 -127c-17 0 -34 3 -41 6zM85 620l-89 -79l-67 67l156 131l156 -131l-67 -67z" />
    <glyph glyph-name="Kcommaaccent" unicode="&#x136;" horiz-adv-x="320" 
d="M145 0h-120v700h120v-295h9l40 294h123l-74 -341l76 -358h-123l-41 310h-10v-310zM216 -30v-95c0 -29 -11 -64 -33 -105h-80c12 41 18 76 18 105v95h95z" />
    <glyph glyph-name="kcommaaccent" unicode="&#x137;" horiz-adv-x="320" 
d="M145 0h-120v725h120v-419h5l41 194h123l-79 -240l83 -260h-123l-45 216h-5v-216zM216 -30v-95c0 -29 -11 -64 -33 -105h-80c12 41 18 76 18 105v95h95z" />
    <glyph glyph-name="Lacute" unicode="&#x139;" horiz-adv-x="280" 
d="M251 872l-156 -136l-67 67l156 136zM270 0h-245v700h120v-605h125v-95z" />
    <glyph glyph-name="lacute" unicode="&#x13a;" horiz-adv-x="170" 
d="M196 872l-156 -136l-67 67l156 136zM145 0h-120v725h120v-725z" />
    <glyph glyph-name="Lcommaaccent" unicode="&#x13b;" horiz-adv-x="280" 
d="M270 0h-245v700h120v-605h125v-95zM196 -30v-95c0 -29 -11 -64 -33 -105h-80c12 41 18 76 18 105v95h95z" />
    <glyph glyph-name="lcommaaccent" unicode="&#x13c;" horiz-adv-x="170" 
d="M134 -30v-95c0 -29 -11 -64 -33 -105h-80c12 41 18 76 18 105v95h95zM145 0h-120v725h120v-725z" />
    <glyph glyph-name="Lcaron" unicode="&#x13d;" horiz-adv-x="280" 
d="M270 0h-245v700h120v-605h125v-95zM241 872l-156 -131l-156 131l67 67l89 -79l89 79z" />
    <glyph glyph-name="lcaron" unicode="&#x13e;" horiz-adv-x="335" 
d="M281 493l-11 -18h-95c17 43 25 85 25 125v125h115v-125c0 -36 -19 -83 -34 -107zM145 0h-120v725h120v-725z" />
    <glyph glyph-name="Ldot" unicode="&#x13f;" horiz-adv-x="280" 
d="M270 0h-245v700h120v-605h125v-95zM271 219h-98v106h98v-106z" />
    <glyph glyph-name="ldot" unicode="&#x140;" 
d="M295 200h-115v125h115v-125zM145 0h-120v725h120v-725z" />
    <glyph glyph-name="Lslash" unicode="&#x141;" horiz-adv-x="280" 
d="M25 176l-15 -15v116l15 15v408h120v-288l81 81v-115l-81 -82v-201h125v-95h-245v176z" />
    <glyph glyph-name="lslash" unicode="&#x142;" horiz-adv-x="246" 
d="M63 209l-48 -48v116l48 48v400h120v-280l48 48v-115l-48 -49v-329h-120v209z" />
    <glyph glyph-name="Nacute" unicode="&#x143;" horiz-adv-x="329" 
d="M140 0h-115v700h85l76 -295h3v295h115v-700h-85l-77 295h-2v-295zM276 872l-156 -136l-67 67l156 136z" />
    <glyph glyph-name="nacute" unicode="&#x144;" horiz-adv-x="320" 
d="M145 384v-384h-120v500h120v-32c26 26 53 39 82 39c41 0 73 -30 73 -78v-429h-120v394c0 12 -4 18 -13 18c-15 0 -22 -9 -22 -28zM271 672l-156 -136l-67 67l156 136z" />
    <glyph glyph-name="Ncommaaccent" unicode="&#x145;" horiz-adv-x="329" 
d="M140 0h-115v700h85l76 -295h3v295h115v-700h-85l-77 295h-2v-295zM221 -30v-95c0 -29 -11 -64 -33 -105h-80c12 41 18 76 18 105v95h95z" />
    <glyph glyph-name="ncommaaccent" unicode="&#x146;" horiz-adv-x="320" 
d="M145 384v-384h-120v500h120v-32c26 26 53 39 82 39c41 0 73 -30 73 -78v-429h-120v394c0 12 -4 18 -13 18c-15 0 -22 -9 -22 -28zM216 -30v-95c0 -29 -11 -64 -33 -105h-80c12 41 18 76 18 105v95h95z" />
    <glyph glyph-name="Ncaron" unicode="&#x147;" horiz-adv-x="329" 
d="M140 0h-115v700h85l76 -295h3v295h115v-700h-85l-77 295h-2v-295zM320 872l-156 -131l-156 131l67 67l89 -79l89 79z" />
    <glyph glyph-name="ncaron" unicode="&#x148;" horiz-adv-x="320" 
d="M145 384v-384h-120v500h120v-32c26 26 53 39 82 39c41 0 73 -30 73 -78v-429h-120v394c0 12 -4 18 -13 18c-15 0 -22 -9 -22 -28zM316 672l-156 -131l-156 131l67 67l89 -79l89 79z" />
    <glyph glyph-name="Eng" unicode="&#x14a;" horiz-adv-x="329" 
d="M189 -114v227l-47 182h-2v-295h-115v700h85l76 -295h3v295h115v-814c0 -73 -56 -118 -132 -118c-79 0 -138 45 -138 118v64h120v-64c0 -15 6 -23 18 -23c11 0 17 8 17 23z" />
    <glyph glyph-name="eng" unicode="&#x14b;" 
d="M175 -114v508c0 12 -4 18 -13 18c-15 0 -22 -9 -22 -28v-384h-120v500h120v-32c26 26 53 39 82 39c41 0 73 -30 73 -78v-543c0 -73 -58 -118 -137 -118s-138 45 -138 118v64h120v-64c0 -15 6 -23 18 -23c11 0 17 8 17 23z" />
    <glyph glyph-name="Omacron" unicode="&#x14c;" 
d="M295 589v-479c0 -72 -59 -117 -138 -117s-137 44 -137 117v479c0 73 58 118 137 118s138 -45 138 -118zM140 589v-479c0 -15 6 -22 17 -22c12 0 18 7 18 22v479c0 15 -6 23 -18 23c-11 0 -17 -8 -17 -23zM267 780h-220v95h220v-95z" />
    <glyph glyph-name="omacron" unicode="&#x14d;" 
d="M295 389v-279c0 -72 -59 -117 -138 -117s-137 44 -137 117v279c0 73 58 118 137 118s138 -45 138 -118zM140 389v-279c0 -15 6 -22 17 -22c12 0 18 7 18 22v279c0 15 -6 23 -18 23c-11 0 -17 -8 -17 -23zM267 580h-220v95h220v-95z" />
    <glyph glyph-name="Obreve" unicode="&#x14e;" 
d="M295 589v-479c0 -72 -59 -117 -138 -117s-137 44 -137 117v479c0 73 58 118 137 118s138 -45 138 -118zM140 589v-479c0 -15 6 -22 17 -22c12 0 18 7 18 22v479c0 15 -6 23 -18 23c-11 0 -17 -8 -17 -23zM44 850h79c0 -25 15 -41 34 -41c21 0 36 14 36 41h78
c0 -65 -49 -107 -114 -107s-113 42 -113 107z" />
    <glyph glyph-name="obreve" unicode="&#x14f;" 
d="M295 389v-279c0 -72 -59 -117 -138 -117s-137 44 -137 117v279c0 73 58 118 137 118s138 -45 138 -118zM140 389v-279c0 -15 6 -22 17 -22c12 0 18 7 18 22v279c0 15 -6 23 -18 23c-11 0 -17 -8 -17 -23zM44 650h79c0 -25 15 -41 34 -41c21 0 36 14 36 41h78
c0 -65 -49 -107 -114 -107s-113 42 -113 107z" />
    <glyph glyph-name="Ohungarumlaut" unicode="&#x150;" 
d="M179 872l-136 -136l-67 67l136 136zM339 872l-136 -136l-67 67l136 136zM295 589v-479c0 -72 -59 -117 -138 -117s-137 44 -137 117v479c0 73 58 118 137 118s138 -45 138 -118zM140 589v-479c0 -15 6 -22 17 -22c12 0 18 7 18 22v479c0 15 -6 23 -18 23
c-11 0 -17 -8 -17 -23z" />
    <glyph glyph-name="ohungarumlaut" unicode="&#x151;" 
d="M179 672l-136 -136l-67 67l136 136zM339 672l-136 -136l-67 67l136 136zM295 389v-279c0 -72 -59 -117 -138 -117s-137 44 -137 117v279c0 73 58 118 137 118s138 -45 138 -118zM140 389v-279c0 -15 6 -22 17 -22c12 0 18 7 18 22v279c0 15 -6 23 -18 23
c-11 0 -17 -8 -17 -23z" />
    <glyph glyph-name="OE" unicode="&#x152;" horiz-adv-x="415" 
d="M395 0h-225v9c-17 -11 -35 -16 -53 -16c-56 0 -97 44 -97 117v479c0 73 41 118 97 118c19 0 36 -6 53 -17v10h225v-95h-105v-200h85v-95h-85v-215h105v-95zM157 88c5 0 9 2 13 6v512c-4 4 -8 6 -13 6c-11 0 -17 -8 -17 -23v-479c0 -15 6 -22 17 -22z" />
    <glyph glyph-name="oe" unicode="&#x153;" 
d="M450 389v-179h-155v-100c0 -15 6 -22 17 -22c12 0 18 7 18 22v65h120v-65c0 -72 -59 -117 -138 -117c-32 0 -67 12 -78 32c-12 -20 -45 -32 -77 -32c-79 0 -137 44 -137 117v279c0 73 58 118 137 118c32 0 66 -12 77 -33c11 21 46 33 78 33c79 0 138 -45 138 -118z
M140 389v-279c0 -15 6 -22 17 -22c12 0 18 7 18 22v279c0 15 -6 23 -18 23c-11 0 -17 -8 -17 -23zM295 389v-84h35v84c0 15 -6 23 -18 23c-11 0 -17 -8 -17 -23z" />
    <glyph glyph-name="Racute" unicode="&#x154;" horiz-adv-x="320" 
d="M316 0h-121l-34 280h-16v-280h-120v700h137c79 0 138 -45 138 -118v-185c0 -37 -14 -66 -43 -88zM145 605v-230h17c12 0 18 7 18 22v185c0 15 -6 23 -18 23h-17zM271 872l-156 -136l-67 67l156 136z" />
    <glyph glyph-name="racute" unicode="&#x155;" horiz-adv-x="305" 
d="M145 0h-120v500h120v-42c29 33 59 49 92 49c36 0 63 -27 63 -68v-114h-120v69c0 12 -4 18 -13 18c-15 0 -22 -9 -22 -28v-384zM266 672l-156 -136l-67 67l156 136z" />
    <glyph glyph-name="Rcommaaccent" unicode="&#x156;" horiz-adv-x="320" 
d="M316 0h-121l-34 280h-16v-280h-120v700h137c79 0 138 -45 138 -118v-185c0 -37 -14 -66 -43 -88zM145 605v-230h17c12 0 18 7 18 22v185c0 15 -6 23 -18 23h-17zM216 -30v-95c0 -29 -11 -64 -33 -105h-80c12 41 18 76 18 105v95h95z" />
    <glyph glyph-name="rcommaaccent" unicode="&#x157;" horiz-adv-x="305" 
d="M145 0h-120v500h120v-42c29 33 59 49 92 49c36 0 63 -27 63 -68v-114h-120v69c0 12 -4 18 -13 18c-15 0 -22 -9 -22 -28v-384zM133 -30v-95c0 -29 -11 -64 -33 -105h-80c12 41 18 76 18 105v95h95z" />
    <glyph glyph-name="Rcaron" unicode="&#x158;" horiz-adv-x="320" 
d="M316 0h-121l-34 280h-16v-280h-120v700h137c79 0 138 -45 138 -118v-185c0 -37 -14 -66 -43 -88zM145 605v-230h17c12 0 18 7 18 22v185c0 15 -6 23 -18 23h-17zM316 872l-156 -131l-156 131l67 67l89 -79l89 79z" />
    <glyph glyph-name="rcaron" unicode="&#x159;" horiz-adv-x="305" 
d="M145 0h-120v500h120v-42c29 33 59 49 92 49c36 0 63 -27 63 -68v-114h-120v69c0 12 -4 18 -13 18c-15 0 -22 -9 -22 -28v-384zM311 672l-156 -131l-156 131l67 67l89 -79l89 79z" />
    <glyph glyph-name="Sacute" unicode="&#x15a;" 
d="M20 110v90h120v-90c0 -15 6 -22 17 -22c12 0 18 7 18 22v140c0 59 -155 59 -155 200v139c0 73 58 118 137 118s138 -45 138 -118v-89h-120v89c0 15 -6 23 -18 23c-11 0 -17 -8 -17 -23v-139c0 -60 155 -60 155 -200v-140c0 -72 -59 -117 -138 -117s-137 44 -137 117z
M269 872l-156 -136l-67 67l156 136z" />
    <glyph glyph-name="sacute" unicode="&#x15b;" 
d="M20 110v65h120v-65c0 -15 6 -22 17 -22c12 0 18 7 18 22v73c0 9 -38 24 -78 40c-39 16 -77 55 -77 100v66c0 73 58 118 137 118s138 -45 138 -118v-64h-120v64c0 15 -6 23 -18 23c-11 0 -17 -8 -17 -23v-66c0 -9 38 -25 77 -41c40 -16 78 -54 78 -99v-73
c0 -72 -59 -117 -138 -117s-137 44 -137 117zM269 672l-156 -136l-67 67l156 136z" />
    <glyph glyph-name="Scircumflex" unicode="&#x15c;" 
d="M20 110v90h120v-90c0 -15 6 -22 17 -22c12 0 18 7 18 22v140c0 59 -155 59 -155 200v139c0 73 58 118 137 118s138 -45 138 -118v-89h-120v89c0 15 -6 23 -18 23c-11 0 -17 -8 -17 -23v-139c0 -60 155 -60 155 -200v-140c0 -72 -59 -117 -138 -117s-137 44 -137 117z
M157 820l-89 -79l-67 67l156 131l156 -131l-67 -67z" />
    <glyph glyph-name="scircumflex" unicode="&#x15d;" 
d="M20 110v65h120v-65c0 -15 6 -22 17 -22c12 0 18 7 18 22v73c0 9 -38 24 -78 40c-39 16 -77 55 -77 100v66c0 73 58 118 137 118s138 -45 138 -118v-64h-120v64c0 15 -6 23 -18 23c-11 0 -17 -8 -17 -23v-66c0 -9 38 -25 77 -41c40 -16 78 -54 78 -99v-73
c0 -72 -59 -117 -138 -117s-137 44 -137 117zM157 620l-89 -79l-67 67l156 131l156 -131l-67 -67z" />
    <glyph glyph-name="Scedilla" unicode="&#x15e;" 
d="M200 -150h-85v148c-57 12 -95 52 -95 112v90h120v-90c0 -15 6 -22 17 -22c12 0 18 7 18 22v140c0 59 -155 59 -155 200v139c0 73 58 118 137 118s138 -45 138 -118v-89h-120v89c0 15 -6 23 -18 23c-11 0 -17 -8 -17 -23v-139c0 -60 155 -60 155 -200v-140
c0 -59 -38 -99 -95 -112v-148z" />
    <glyph glyph-name="scedilla" unicode="&#x15f;" 
d="M200 -150h-85v148c-57 12 -95 52 -95 112v65h120v-65c0 -15 6 -22 17 -22c12 0 18 7 18 22v73c0 9 -38 24 -78 40c-39 16 -77 55 -77 100v66c0 73 58 118 137 118s138 -45 138 -118v-64h-120v64c0 15 -6 23 -18 23c-11 0 -17 -8 -17 -23v-66c0 -9 38 -25 77 -41
c40 -16 78 -54 78 -99v-73c0 -59 -38 -99 -95 -112v-148z" />
    <glyph glyph-name="Scaron" unicode="&#x160;" 
d="M20 110v90h120v-90c0 -15 6 -22 17 -22c12 0 18 7 18 22v140c0 59 -155 59 -155 200v139c0 73 58 118 137 118s138 -45 138 -118v-89h-120v89c0 15 -6 23 -18 23c-11 0 -17 -8 -17 -23v-139c0 -60 155 -60 155 -200v-140c0 -72 -59 -117 -138 -117s-137 44 -137 117z
M313 872l-156 -131l-156 131l67 67l89 -79l89 79z" />
    <glyph glyph-name="scaron" unicode="&#x161;" 
d="M20 110v65h120v-65c0 -15 6 -22 17 -22c12 0 18 7 18 22v73c0 9 -38 24 -78 40c-39 16 -77 55 -77 100v66c0 73 58 118 137 118s138 -45 138 -118v-64h-120v64c0 15 -6 23 -18 23c-11 0 -17 -8 -17 -23v-66c0 -9 38 -25 77 -41c40 -16 78 -54 78 -99v-73
c0 -72 -59 -117 -138 -117s-137 44 -137 117zM313 672l-156 -131l-156 131l67 67l89 -79l89 79z" />
    <glyph glyph-name="Tcommaaccent" unicode="&#x162;" horiz-adv-x="300" 
d="M90 605h-80v95h280v-95h-80v-605h-120v605zM199 -30v-95c0 -29 -11 -64 -33 -105h-80c12 41 18 76 18 105v95h95z" />
    <glyph glyph-name="tcommaaccent" unicode="&#x163;" horiz-adv-x="230" 
d="M216 92l4 2v-93c-12 -5 -28 -8 -49 -8c-83 0 -146 53 -146 137v490h120v-120h75v-95h-75v-275c0 -25 16 -42 40 -42c12 0 24 3 31 4zM171 -30v-95c0 -29 -11 -64 -33 -105h-80c12 41 18 76 18 105v95h95z" />
    <glyph glyph-name="Tcaron" unicode="&#x164;" horiz-adv-x="300" 
d="M90 605h-80v95h280v-95h-80v-605h-120v605zM306 872l-156 -131l-156 131l67 67l89 -79l89 79z" />
    <glyph glyph-name="tcaron" unicode="&#x165;" horiz-adv-x="395" 
d="M216 92l4 2v-93c-12 -5 -28 -8 -49 -8c-83 0 -146 53 -146 137v490h120v-120h75v-95h-75v-275c0 -25 16 -42 40 -42c12 0 24 3 31 4zM341 388l-11 -18h-95c17 43 25 85 25 125v125h115v-125c0 -36 -19 -83 -34 -107z" />
    <glyph glyph-name="Tbar" unicode="&#x166;" horiz-adv-x="300" 
d="M90 360h-80v95h80v150h-80v95h280v-95h-80v-150h80v-95h-80v-360h-120v360z" />
    <glyph glyph-name="tbar" unicode="&#x167;" horiz-adv-x="230" 
d="M216 92l4 2v-93c-12 -5 -28 -8 -49 -8c-83 0 -146 53 -146 137v490h120v-120h75v-95h-75v-60h75v-95h-75v-120c0 -25 16 -42 40 -42c12 0 24 3 31 4z" />
    <glyph glyph-name="Utilde" unicode="&#x168;" 
d="M91 748h-69c0 63 38 102 90 102c17 0 34 -6 50 -18s27 -18 34 -18c15 0 27 11 27 31h69c0 -63 -38 -102 -90 -102c-18 0 -35 6 -50 18s-27 18 -34 18c-15 0 -27 -11 -27 -31zM20 110v590h120v-590c0 -15 6 -22 17 -22c12 0 18 7 18 22v590h120v-590
c0 -72 -59 -117 -138 -117s-137 44 -137 117z" />
    <glyph glyph-name="utilde" unicode="&#x169;" horiz-adv-x="320" 
d="M94 548h-69c0 63 38 102 90 102c17 0 34 -6 50 -18s27 -18 34 -18c15 0 27 11 27 31h69c0 -63 -38 -102 -90 -102c-18 0 -35 6 -50 18s-27 18 -34 18c-15 0 -27 -11 -27 -31zM295 0h-120v32c-26 -26 -53 -39 -82 -39c-41 0 -73 30 -73 78v429h120v-394
c0 -12 4 -18 13 -18c15 0 22 9 22 28v384h120v-500z" />
    <glyph glyph-name="Umacron" unicode="&#x16a;" 
d="M20 110v590h120v-590c0 -15 6 -22 17 -22c12 0 18 7 18 22v590h120v-590c0 -72 -59 -117 -138 -117s-137 44 -137 117zM267 780h-220v95h220v-95z" />
    <glyph glyph-name="umacron" unicode="&#x16b;" horiz-adv-x="320" 
d="M295 0h-120v32c-26 -26 -53 -39 -82 -39c-41 0 -73 30 -73 78v429h120v-394c0 -12 4 -18 13 -18c15 0 22 9 22 28v384h120v-500zM270 580h-220v95h220v-95z" />
    <glyph glyph-name="Ubreve" unicode="&#x16c;" 
d="M20 110v590h120v-590c0 -15 6 -22 17 -22c12 0 18 7 18 22v590h120v-590c0 -72 -59 -117 -138 -117s-137 44 -137 117zM44 850h79c0 -25 15 -41 34 -41c21 0 36 14 36 41h78c0 -65 -49 -107 -114 -107s-113 42 -113 107z" />
    <glyph glyph-name="ubreve" unicode="&#x16d;" horiz-adv-x="320" 
d="M295 0h-120v32c-26 -26 -53 -39 -82 -39c-41 0 -73 30 -73 78v429h120v-394c0 -12 4 -18 13 -18c15 0 22 9 22 28v384h120v-500zM46 650h79c0 -25 15 -41 34 -41c21 0 36 14 36 41h78c0 -65 -49 -107 -114 -107s-113 42 -113 107z" />
    <glyph glyph-name="Uring" unicode="&#x16e;" 
d="M87 901c37 36 103 36 140 0c19 -17 28 -41 28 -71s-9 -54 -28 -71c-37 -35 -103 -35 -140 0c-18 17 -27 41 -27 71s9 54 27 71zM130 830c0 -21 12 -35 27 -35c16 0 28 14 28 35c0 23 -12 36 -28 36c-15 0 -27 -13 -27 -36zM20 110v590h120v-590c0 -15 6 -22 17 -22
c12 0 18 7 18 22v590h120v-590c0 -72 -59 -117 -138 -117s-137 44 -137 117z" />
    <glyph glyph-name="uring" unicode="&#x16f;" horiz-adv-x="320" 
d="M89 701c37 36 103 36 140 0c19 -17 28 -41 28 -71s-9 -54 -28 -71c-37 -35 -103 -35 -140 0c-18 17 -27 41 -27 71s9 54 27 71zM132 630c0 -21 12 -35 27 -35c16 0 28 14 28 35c0 23 -12 36 -28 36c-15 0 -27 -13 -27 -36zM295 0h-120v32c-26 -26 -53 -39 -82 -39
c-41 0 -73 30 -73 78v429h120v-394c0 -12 4 -18 13 -18c15 0 22 9 22 28v384h120v-500z" />
    <glyph glyph-name="Uhungarumlaut" unicode="&#x170;" 
d="M179 872l-136 -136l-67 67l136 136zM339 872l-136 -136l-67 67l136 136zM20 110v590h120v-590c0 -15 6 -22 17 -22c12 0 18 7 18 22v590h120v-590c0 -72 -59 -117 -138 -117s-137 44 -137 117z" />
    <glyph glyph-name="uhungarumlaut" unicode="&#x171;" horiz-adv-x="320" 
d="M181 672l-136 -136l-67 67l136 136zM341 672l-136 -136l-67 67l136 136zM295 0h-120v32c-26 -26 -53 -39 -82 -39c-41 0 -73 30 -73 78v429h120v-394c0 -12 4 -18 13 -18c15 0 22 9 22 28v384h120v-500z" />
    <glyph glyph-name="Uogonek" unicode="&#x172;" 
d="M130 -18v13c-65 9 -110 51 -110 115v590h120v-590c0 -15 6 -22 17 -22c12 0 18 7 18 22v590h120v-590c0 -55 -34 -94 -87 -110h1v-18c0 -29 16 -51 41 -51v-63c-73 0 -120 49 -120 114z" />
    <glyph glyph-name="uogonek" unicode="&#x173;" horiz-adv-x="320" 
d="M175 -18v50c-26 -26 -53 -39 -82 -39c-41 0 -73 30 -73 78v429h120v-394c0 -12 4 -18 13 -18c15 0 22 9 22 28v384h120v-500h-41v-18c0 -29 16 -51 41 -51v-63c-73 0 -120 49 -120 114z" />
    <glyph glyph-name="Wcircumflex" unicode="&#x174;" horiz-adv-x="540" 
d="M240 0h-157l-80 700h124l30 -584h2l35 584h152l34 -584h2l31 584h124l-80 -700h-157l-29 571h-2zM270 820l-89 -79l-67 67l156 131l156 -131l-67 -67z" />
    <glyph glyph-name="wcircumflex" unicode="&#x175;" horiz-adv-x="524" 
d="M232 0h-155l-75 500h123l28 -404h2l32 404h150l31 -404h2l29 404h123l-75 -500h-155l-29 391h-2zM262 620l-89 -79l-67 67l156 131l156 -131l-67 -67z" />
    <glyph glyph-name="Ycircumflex" unicode="&#x176;" 
d="M217 0h-120v191l-95 509h120l34 -327h2l35 327h120l-96 -509v-191zM157 820l-89 -79l-67 67l156 131l156 -131l-67 -67z" />
    <glyph glyph-name="ycircumflex" unicode="&#x177;" 
d="M20 -114v50h120v-50c0 -15 6 -23 18 -23c10 0 16 7 17 22v147c-26 -26 -53 -39 -82 -39c-41 0 -73 30 -73 78v429h120v-394c0 -12 4 -18 13 -18c15 0 22 9 22 28v384h120v-614c0 -73 -58 -118 -137 -118s-138 45 -138 118zM157 620l-89 -79l-67 67l156 131l156 -131
l-67 -67z" />
    <glyph glyph-name="Ydieresis" unicode="&#x178;" 
d="M217 0h-120v191l-95 509h120l34 -327h2l35 327h120l-96 -509v-191zM130 775h-100v125h100v-125zM285 775h-100v125h100v-125z" />
    <glyph glyph-name="Zacute" unicode="&#x179;" horiz-adv-x="310" 
d="M266 872l-156 -136l-67 67l156 136zM290 0h-270v50l141 555h-141v95h270v-50l-137 -555h137v-95z" />
    <glyph glyph-name="zacute" unicode="&#x17a;" horiz-adv-x="310" 
d="M290 0h-270v50l135 355h-135v95h270v-50l-131 -355h131v-95zM266 672l-156 -136l-67 67l156 136z" />
    <glyph glyph-name="Zdotaccent" unicode="&#x17b;" horiz-adv-x="310" 
d="M290 0h-270v50l141 555h-141v95h270v-50l-137 -555h137v-95zM215 775h-120v125h120v-125z" />
    <glyph glyph-name="zdotaccent" unicode="&#x17c;" horiz-adv-x="310" 
d="M290 0h-270v50l135 355h-135v95h270v-50l-131 -355h131v-95zM215 575h-120v125h120v-125z" />
    <glyph glyph-name="Zcaron" unicode="&#x17d;" horiz-adv-x="310" 
d="M290 0h-270v50l141 555h-141v95h270v-50l-137 -555h137v-95zM311 872l-156 -131l-156 131l67 67l89 -79l89 79z" />
    <glyph glyph-name="zcaron" unicode="&#x17e;" horiz-adv-x="310" 
d="M290 0h-270v50l135 355h-135v95h270v-50l-131 -355h131v-95zM311 672l-156 -131l-156 131l67 67l89 -79l89 79z" />
    <glyph glyph-name="longs" unicode="&#x17f;" horiz-adv-x="310" 
d="M140 0h-120v615c0 73 58 117 137 117s138 -45 138 -117v-50h-120v50c0 15 -6 22 -18 22c-11 0 -17 -7 -17 -22v-615z" />
    <glyph glyph-name="uni018F" unicode="&#x18f;" 
d="M20 110v290h155v189c0 15 -6 23 -17 23c-12 0 -18 -8 -18 -23v-89h-120v89c0 73 59 118 138 118s137 -45 137 -118v-479c0 -73 -58 -117 -137 -117s-138 45 -138 117zM158 88c11 0 17 7 17 22v195h-35v-195c0 -15 6 -22 18 -22z" />
    <glyph glyph-name="florin" unicode="&#x192;" horiz-adv-x="230" 
d="M-35 -226l-5 1v94c9 -4 19 -6 31 -6c20 0 34 12 34 32v700c0 84 63 137 146 137c19 0 36 -3 43 -6l6 -2v-93c-10 4 -22 6 -35 6c-24 0 -40 -17 -40 -42v-95h75v-95h-75v-510c0 -79 -60 -127 -139 -127c-17 0 -34 3 -41 6z" />
    <glyph glyph-name="uni01DD" unicode="&#x1dd;" 
d="M20 111v194h155v85c0 15 -6 22 -17 22c-12 0 -18 -7 -18 -22v-50h-120v50c0 72 59 117 138 117s137 -44 137 -117v-279c0 -73 -58 -118 -137 -118s-138 45 -138 118zM175 111v99h-35v-99c0 -15 6 -23 18 -23c11 0 17 8 17 23z" />
    <glyph glyph-name="AEacute" unicode="&#x1fc;" horiz-adv-x="444" 
d="M424 95v-95h-225v125h-62l-17 -125h-118l118 700h304v-95h-105v-200h85v-95h-85v-215h105zM197 579l-47 -359h49v359h-2zM333 872l-156 -136l-67 67l156 136z" />
    <glyph glyph-name="aeacute" unicode="&#x1fd;" horiz-adv-x="470" 
d="M450 389v-179h-155v-100c0 -15 6 -22 17 -22c12 0 18 7 18 22v65h120v-65c0 -72 -59 -117 -138 -117c-53 0 -92 17 -115 52c-23 -35 -57 -52 -104 -52c-43 0 -73 30 -73 78v110c0 71 45 109 110 117l45 5v87c0 15 -6 22 -17 22c-12 0 -18 -7 -18 -22v-65h-120v65
c0 72 59 117 138 117c35 0 61 -11 77 -33c16 22 42 33 77 33c79 0 138 -45 138 -118zM175 116v89l-17 -2c-12 -1 -18 -9 -18 -22v-75c0 -12 4 -18 13 -18c15 0 22 9 22 28zM295 389v-84h35v84c0 15 -6 23 -18 23c-11 0 -17 -8 -17 -23zM346 672l-156 -136l-67 67l156 136z
" />
    <glyph glyph-name="Oslashacute" unicode="&#x1fe;" 
d="M75 0h-60l18 55c-9 15 -13 34 -13 55v479c0 73 58 118 137 118c29 0 55 -6 79 -19l4 12h60l-18 -57c9 -16 13 -34 13 -54v-479c0 -72 -59 -117 -138 -117c-31 0 -57 6 -79 18zM269 872l-156 -136l-67 67l156 136zM157 88c12 0 18 7 18 22v201l-35 -109v-92
c0 -15 6 -22 17 -22zM140 589v-201l35 109v92c0 15 -6 23 -18 23c-11 0 -17 -8 -17 -23z" />
    <glyph glyph-name="oslashacute" unicode="&#x1ff;" 
d="M75 0h-60l22 49c-11 17 -17 38 -17 61v279c0 73 58 118 137 118c30 0 56 -6 78 -18l5 11h60l-23 -50c12 -19 18 -39 18 -61v-279c0 -72 -59 -117 -138 -117c-29 0 -55 6 -78 17zM269 672l-156 -136l-67 67l156 136zM157 88c12 0 18 7 18 22v112l-35 -77v-35
c0 -15 6 -22 17 -22zM140 389v-111l35 77v34c0 15 -6 23 -18 23c-11 0 -17 -8 -17 -23z" />
    <glyph glyph-name="Scommaaccent" unicode="&#x218;" 
d="M20 110v90h120v-90c0 -15 6 -22 17 -22c12 0 18 7 18 22v140c0 59 -155 59 -155 200v139c0 73 58 118 137 118s138 -45 138 -118v-89h-120v89c0 15 -6 23 -18 23c-11 0 -17 -8 -17 -23v-139c0 -60 155 -60 155 -200v-140c0 -72 -59 -117 -138 -117s-137 44 -137 117z
M205 -30v-95c0 -29 -11 -64 -33 -105h-80c12 41 18 76 18 105v95h95z" />
    <glyph glyph-name="scommaaccent" unicode="&#x219;" 
d="M20 110v65h120v-65c0 -15 6 -22 17 -22c12 0 18 7 18 22v73c0 9 -38 24 -78 40c-39 16 -77 55 -77 100v66c0 73 58 118 137 118s138 -45 138 -118v-64h-120v64c0 15 -6 23 -18 23c-11 0 -17 -8 -17 -23v-66c0 -9 38 -25 77 -41c40 -16 78 -54 78 -99v-73
c0 -72 -59 -117 -138 -117s-137 44 -137 117zM209 -30v-95c0 -29 -11 -64 -33 -105h-80c12 41 18 76 18 105v95h95z" />
    <glyph glyph-name="uni021A" unicode="&#x21a;" horiz-adv-x="300" 
d="M90 605h-80v95h280v-95h-80v-605h-120v605zM199 -30v-95c0 -29 -11 -64 -33 -105h-80c12 41 18 76 18 105v95h95z" />
    <glyph glyph-name="uni021B" unicode="&#x21b;" horiz-adv-x="230" 
d="M216 92l4 2v-93c-12 -5 -28 -8 -49 -8c-83 0 -146 53 -146 137v490h120v-120h75v-95h-75v-275c0 -25 16 -42 40 -42c12 0 24 3 31 4zM171 -30v-95c0 -29 -11 -64 -33 -105h-80c12 41 18 76 18 105v95h95z" />
    <glyph glyph-name="dotlessj" unicode="&#x237;" horiz-adv-x="170" 
d="M-35 -226l-5 1v94c9 -4 19 -6 31 -6c20 0 34 12 34 32v605h120v-605c0 -79 -60 -127 -139 -127c-17 0 -34 3 -41 6z" />
    <glyph glyph-name="circumflex" unicode="&#x2c6;" horiz-adv-x="170" 
d="M85 620l-89 -79l-67 67l156 131l156 -131l-67 -67z" />
    <glyph glyph-name="caron" unicode="&#x2c7;" horiz-adv-x="170" 
d="M241 672l-156 -131l-156 131l67 67l89 -79l89 79z" />
    <glyph glyph-name="breve" unicode="&#x2d8;" 
d="M44 650h79c0 -25 15 -41 34 -41c21 0 36 14 36 41h78c0 -65 -49 -107 -114 -107s-113 42 -113 107z" />
    <glyph glyph-name="dotaccent" unicode="&#x2d9;" horiz-adv-x="160" 
d="M140 575h-120v125h120v-125z" />
    <glyph glyph-name="ring" unicode="&#x2da;" 
d="M87 701c37 36 103 36 140 0c19 -17 28 -41 28 -71s-9 -54 -28 -71c-37 -35 -103 -35 -140 0c-18 17 -27 41 -27 71s9 54 27 71zM130 630c0 -21 12 -35 27 -35c16 0 28 14 28 35c0 23 -12 36 -28 36c-15 0 -27 -13 -27 -36z" />
    <glyph glyph-name="ogonek" unicode="&#x2db;" horiz-adv-x="160" 
d="M20 -18v18h79v-18c0 -29 16 -51 41 -51v-63c-73 0 -120 49 -120 114z" />
    <glyph glyph-name="tilde" unicode="&#x2dc;" 
d="M91 548h-69c0 63 38 102 90 102c17 0 34 -6 50 -18s27 -18 34 -18c15 0 27 11 27 31h69c0 -63 -38 -102 -90 -102c-18 0 -35 6 -50 18s-27 18 -34 18c-15 0 -27 -11 -27 -31z" />
    <glyph glyph-name="hungarumlaut" unicode="&#x2dd;" horiz-adv-x="172" 
d="M108 672l-136 -136l-67 67l136 136zM268 672l-136 -136l-67 67l136 136z" />
    <glyph glyph-name="uni0400" unicode="&#x400;" horiz-adv-x="295" 
d="M275 0h-250v700h250v-95h-130v-200h110v-95h-110v-215h130v-95zM259 803l-67 -67l-156 136l67 67z" />
    <glyph glyph-name="afii10023" unicode="&#x401;" horiz-adv-x="295" 
d="M275 0h-250v700h250v-95h-130v-200h110v-95h-110v-215h130v-95zM121 750h-100v125h100v-125zM276 750h-100v125h100v-125z" />
    <glyph glyph-name="afii10051" unicode="&#x402;" horiz-adv-x="385" 
d="M245 -114v433c0 12 -4 18 -13 18c-15 0 -22 -9 -22 -28v-309h-120v605h-80v95h280v-95h-80v-212c26 26 53 39 82 39c41 0 73 -30 73 -78v-468c0 -73 -58 -118 -137 -118s-138 45 -138 118v64h120v-64c0 -15 6 -23 18 -23c11 0 17 8 17 23z" />
    <glyph glyph-name="afii10052" unicode="&#x403;" horiz-adv-x="270" 
d="M246 872l-156 -136l-67 67l156 136zM145 0h-120v700h235v-95h-115v-605z" />
    <glyph glyph-name="afii10053" unicode="&#x404;" 
d="M245 405v-95h-105v-200c0 -15 6 -22 17 -22c12 0 18 7 18 22v90h120v-90c0 -72 -59 -117 -138 -117s-137 44 -137 117v479c0 73 58 118 137 118s138 -45 138 -118v-89h-120v89c0 15 -6 23 -18 23c-11 0 -17 -8 -17 -23v-184h105z" />
    <glyph glyph-name="afii10054" unicode="&#x405;" 
d="M20 110v90h120v-90c0 -15 6 -22 17 -22c12 0 18 7 18 22v140c0 59 -155 59 -155 200v139c0 73 58 118 137 118s138 -45 138 -118v-89h-120v89c0 15 -6 23 -18 23c-11 0 -17 -8 -17 -23v-139c0 -60 155 -60 155 -200v-140c0 -72 -59 -117 -138 -117s-137 44 -137 117z" />
    <glyph glyph-name="afii10055" unicode="&#x406;" horiz-adv-x="170" 
d="M145 0h-120v700h120v-700z" />
    <glyph glyph-name="afii10056" unicode="&#x407;" horiz-adv-x="170" 
d="M58 775h-100v125h100v-125zM213 775h-100v125h100v-125zM145 0h-120v700h120v-700z" />
    <glyph glyph-name="afii10057" unicode="&#x408;" 
d="M20 111v89h120v-89c0 -15 6 -23 18 -23c11 0 17 8 17 23v589h120v-589c0 -73 -58 -118 -137 -118s-138 45 -138 118z" />
    <glyph glyph-name="afii10058" unicode="&#x409;" horiz-adv-x="490" 
d="M10 -7v95c17 0 30 25 30 66v546h275v-295h17c79 0 138 -45 138 -117v-170c0 -73 -59 -118 -138 -118h-137v605h-35v-451c0 -49 -14 -89 -43 -118s-64 -43 -107 -43zM315 310v-215h17c12 0 18 8 18 23v170c0 15 -6 22 -18 22h-17z" />
    <glyph glyph-name="afii10059" unicode="&#x40a;" horiz-adv-x="475" 
d="M145 0h-120v700h120v-295h35v295h120v-295h17c79 0 138 -45 138 -117v-170c0 -73 -59 -118 -138 -118h-137v310h-35v-310zM300 310v-215h17c12 0 18 8 18 23v170c0 15 -6 22 -18 22h-17z" />
    <glyph glyph-name="afii10060" unicode="&#x40b;" horiz-adv-x="385" 
d="M210 309v-309h-120v605h-80v95h280v-95h-80v-212c26 26 53 39 82 39c41 0 73 -30 73 -78v-354h-120v319c0 12 -4 18 -13 18c-15 0 -22 -9 -22 -28z" />
    <glyph glyph-name="afii10061" unicode="&#x40c;" horiz-adv-x="320" 
d="M145 0h-120v700h120v-295h9l40 294h123l-74 -341l76 -358h-123l-41 310h-10v-310zM271 872l-156 -136l-67 67l156 136z" />
    <glyph glyph-name="uni040D" unicode="&#x40d;" horiz-adv-x="329" 
d="M140 0h-115v700h115v-337h2l47 237v100h115v-700h-115v337h-2l-47 -237v-100zM276 803l-67 -67l-156 136l67 67z" />
    <glyph glyph-name="afii10062" unicode="&#x40e;" 
d="M44 850h79c0 -25 15 -41 34 -41c21 0 36 14 36 41h78c0 -65 -49 -107 -114 -107s-113 42 -113 107zM78 0h-58v95h58c13 0 21 7 23 22l13 83h-34l-78 500h123l31 -404h2l32 404h123l-91 -583c-12 -73 -65 -117 -144 -117z" />
    <glyph glyph-name="afii10145" unicode="&#x40f;" horiz-adv-x="325" 
d="M103 0h-78v700h120v-605h35v605h120v-700h-77v-125h-120v125z" />
    <glyph glyph-name="afii10017" unicode="&#x410;" 
d="M125 0h-123l78 700h155l78 -700h-123l-7 125h-51zM159 569h-2l-20 -349h41z" />
    <glyph glyph-name="afii10018" unicode="&#x411;" horiz-adv-x="320" 
d="M162 0h-137v700h260v-95h-140v-160h17c79 0 138 -45 138 -117v-210c0 -73 -59 -118 -138 -118zM162 350h-17v-255h17c12 0 18 8 18 23v210c0 15 -6 22 -18 22z" />
    <glyph glyph-name="afii10019" unicode="&#x412;" horiz-adv-x="320" 
d="M167 0h-142v700h137c79 0 138 -45 138 -118v-125c0 -45 -19 -77 -58 -98c42 -21 63 -54 63 -101v-140c0 -73 -59 -118 -138 -118zM167 310h-22v-215h22c12 0 18 8 18 23v170c0 15 -6 22 -18 22zM145 605v-200h17c12 0 18 7 18 22v155c0 15 -6 23 -18 23h-17z" />
    <glyph glyph-name="afii10020" unicode="&#x413;" horiz-adv-x="270" 
d="M145 0h-120v700h235v-95h-115v-605z" />
    <glyph glyph-name="afii10021" unicode="&#x414;" horiz-adv-x="390" 
d="M130 -126h-120v221h20c17 0 30 25 30 66v539h275v-605h45v-221h-120v126h-130v-126zM180 605v-444c0 -24 -4 -46 -11 -66h46v510h-35z" />
    <glyph glyph-name="afii10022" unicode="&#x415;" horiz-adv-x="295" 
d="M275 0h-250v700h250v-95h-130v-200h110v-95h-110v-215h130v-95z" />
    <glyph glyph-name="afii10024" unicode="&#x416;" horiz-adv-x="470" 
d="M124 0h-123l76 358l-74 341h123l40 -294h9v295h120v-295h9l40 294h123l-74 -341l76 -358h-123l-41 310h-10v-310h-120v310h-10z" />
    <glyph glyph-name="afii10025" unicode="&#x417;" horiz-adv-x="311" 
d="M176 111v177c0 15 -6 22 -18 22h-64v95h59c12 0 18 7 18 22v162c0 15 -6 23 -18 23s-18 -7 -18 -22v-90h-120v90c0 72 59 117 138 117s138 -45 138 -118v-132c0 -45 -19 -77 -58 -98c42 -21 63 -54 63 -101v-147c0 -73 -59 -118 -138 -118s-138 45 -138 118v89h120v-89
c0 -15 6 -23 18 -23s18 8 18 23z" />
    <glyph glyph-name="afii10026" unicode="&#x418;" horiz-adv-x="329" 
d="M140 0h-115v700h115v-337h2l47 237v100h115v-700h-115v337h-2l-47 -237v-100z" />
    <glyph glyph-name="afii10027" unicode="&#x419;" horiz-adv-x="329" 
d="M51 850h79c0 -25 15 -41 34 -41c21 0 36 14 36 41h78c0 -65 -49 -107 -114 -107s-113 42 -113 107zM140 0h-115v700h115v-337h2l47 237v100h115v-700h-115v337h-2l-47 -237v-100z" />
    <glyph glyph-name="afii10028" unicode="&#x41a;" horiz-adv-x="320" 
d="M145 0h-120v700h120v-295h9l40 294h123l-74 -341l76 -358h-123l-41 310h-10v-310z" />
    <glyph glyph-name="afii10029" unicode="&#x41b;" horiz-adv-x="340" 
d="M40 154v546h275v-700h-120v605h-35v-451c0 -49 -14 -89 -43 -118s-64 -43 -107 -43v95c17 0 30 25 30 66z" />
    <glyph glyph-name="afii10030" unicode="&#x41c;" horiz-adv-x="545" 
d="M140 0h-115v700h175l71 -520h2l72 520h175v-700h-115v510h-2l-65 -510h-131l-65 510h-2v-510z" />
    <glyph glyph-name="afii10031" unicode="&#x41d;" horiz-adv-x="325" 
d="M145 0h-120v700h120v-295h35v295h120v-700h-120v310h-35v-310z" />
    <glyph glyph-name="afii10032" unicode="&#x41e;" 
d="M295 589v-479c0 -72 -59 -117 -138 -117s-137 44 -137 117v479c0 73 58 118 137 118s138 -45 138 -118zM140 589v-479c0 -15 6 -22 17 -22c12 0 18 7 18 22v479c0 15 -6 23 -18 23c-11 0 -17 -8 -17 -23z" />
    <glyph glyph-name="afii10033" unicode="&#x41f;" horiz-adv-x="325" 
d="M145 0h-120v700h275v-700h-120v605h-35v-605z" />
    <glyph glyph-name="afii10034" unicode="&#x420;" horiz-adv-x="320" 
d="M145 0h-120v700h137c79 0 138 -45 138 -118v-200c0 -72 -59 -117 -138 -117h-17v-265zM145 605v-245h17c12 0 18 7 18 22v200c0 15 -6 23 -18 23h-17z" />
    <glyph glyph-name="afii10035" unicode="&#x421;" 
d="M140 589v-479c0 -15 6 -22 17 -22c12 0 18 7 18 22v90h120v-90c0 -72 -59 -117 -138 -117s-137 44 -137 117v479c0 73 58 118 137 118s138 -45 138 -118v-89h-120v89c0 15 -6 23 -18 23c-11 0 -17 -8 -17 -23z" />
    <glyph glyph-name="afii10036" unicode="&#x422;" horiz-adv-x="300" 
d="M90 605h-80v95h280v-95h-80v-605h-120v605z" />
    <glyph glyph-name="afii10037" unicode="&#x423;" 
d="M78 0h-58v95h58c13 0 21 7 23 22l13 83h-34l-78 500h123l31 -404h2l32 404h123l-91 -583c-12 -73 -65 -117 -144 -117z" />
    <glyph glyph-name="afii10038" unicode="&#x424;" horiz-adv-x="470" 
d="M175 700h120v-95h17c79 0 138 -45 138 -117v-275c0 -73 -59 -118 -138 -118h-17v-95h-120v95h-17c-79 0 -138 45 -138 118v275c0 72 59 117 138 117h17v95zM175 190v320h-17c-12 0 -18 -7 -18 -22v-275c0 -15 6 -23 18 -23h17zM312 510h-17v-320h17c12 0 18 8 18 23v275
c0 15 -6 22 -18 22z" />
    <glyph glyph-name="afii10039" unicode="&#x425;" 
d="M124 0h-123l63 360l-61 340h123l30 -304h2l31 303h123l-61 -341l63 -358h-123l-32 324h-2z" />
    <glyph glyph-name="afii10040" unicode="&#x426;" horiz-adv-x="355" 
d="M345 -126h-120v126h-200v700h120v-605h35v605h120v-605h45v-221z" />
    <glyph glyph-name="afii10041" unicode="&#x427;" horiz-adv-x="320" 
d="M175 391v309h120v-700h-120v307c-26 -26 -53 -39 -82 -39c-41 0 -73 30 -73 78v354h120v-319c0 -12 4 -18 13 -18c15 0 22 9 22 28z" />
    <glyph glyph-name="afii10042" unicode="&#x428;" horiz-adv-x="480" 
d="M455 0h-430v700h120v-605h35v605h120v-605h35v605h120v-700z" />
    <glyph glyph-name="afii10043" unicode="&#x429;" horiz-adv-x="510" 
d="M380 0h-355v700h120v-605h35v605h120v-605h35v605h120v-605h45v-220h-120v125z" />
    <glyph glyph-name="afii10044" unicode="&#x42a;" horiz-adv-x="385" 
d="M227 0h-137v605h-80v95h200v-255h17c79 0 138 -45 138 -117v-210c0 -73 -59 -118 -138 -118zM210 350v-255h17c12 0 18 8 18 23v210c0 15 -6 22 -18 22h-17z" />
    <glyph glyph-name="afii10045" unicode="&#x42b;" horiz-adv-x="475" 
d="M162 0h-137v700h120v-255h17c79 0 138 -45 138 -117v-210c0 -73 -59 -118 -138 -118zM162 350h-17v-255h17c12 0 18 8 18 23v210c0 15 -6 22 -18 22zM450 0h-120v700h120v-700z" />
    <glyph glyph-name="afii10046" unicode="&#x42c;" horiz-adv-x="320" 
d="M162 0h-137v700h120v-255h17c79 0 138 -45 138 -117v-210c0 -73 -59 -118 -138 -118zM162 350h-17v-255h17c12 0 18 8 18 23v210c0 15 -6 22 -18 22z" />
    <glyph glyph-name="afii10047" unicode="&#x42d;" 
d="M175 110v200h-85v95h85v184c0 15 -6 23 -17 23c-12 0 -18 -8 -18 -23v-89h-120v89c0 73 59 118 138 118s137 -45 137 -118v-479c0 -73 -58 -117 -137 -117s-138 45 -138 117v90h120v-90c0 -15 6 -22 18 -22c11 0 17 7 17 22z" />
    <glyph glyph-name="afii10048" unicode="&#x42e;" horiz-adv-x="475" 
d="M145 0h-120v700h120v-295h35v184c0 73 58 118 137 118s138 -45 138 -118v-479c0 -72 -59 -117 -138 -117s-137 44 -137 117v200h-35v-310zM300 589v-479c0 -15 6 -22 17 -22c12 0 18 7 18 22v479c0 15 -6 23 -18 23c-11 0 -17 -8 -17 -23z" />
    <glyph glyph-name="afii10049" unicode="&#x42f;" horiz-adv-x="320" 
d="M175 280h-16l-34 -280h-121l59 309c-29 22 -43 51 -43 88v185c0 73 59 118 138 118h137v-700h-120v280zM158 375h17v230h-17c-12 0 -18 -8 -18 -23v-185c0 -15 6 -22 18 -22z" />
    <glyph glyph-name="afii10065" unicode="&#x430;" 
d="M295 0h-120v32c-25 -26 -52 -39 -82 -39c-43 0 -73 30 -73 78v110c0 71 45 110 110 117l45 5v87c0 15 -6 22 -17 22c-12 0 -18 -7 -18 -22v-65h-120v65c0 72 59 117 138 117s137 -44 137 -117v-390zM175 116v89l-17 -2c-12 -1 -18 -9 -18 -22v-75c0 -12 4 -18 13 -18
c15 0 22 9 22 28z" />
    <glyph glyph-name="afii10066" unicode="&#x431;" 
d="M140 525v-57c26 26 53 39 82 39c41 0 73 -30 73 -78v-319c0 -72 -59 -117 -138 -117s-137 44 -137 117v415c0 140 165 119 165 200h90c0 -53 -21 -92 -48 -112c-37 -27 -87 -43 -87 -88zM140 384v-274c0 -15 6 -22 17 -22c12 0 18 7 18 22v284c0 12 -4 18 -13 18
c-15 0 -22 -9 -22 -28z" />
    <glyph glyph-name="afii10067" unicode="&#x432;" horiz-adv-x="320" 
d="M167 0h-142v500h137c79 0 138 -45 138 -118v-25c0 -45 -19 -77 -58 -98c42 -21 63 -54 63 -101v-40c0 -73 -59 -118 -138 -118zM167 210h-22v-115h22c12 0 18 8 18 23v70c0 15 -6 22 -18 22zM145 405v-100h17c12 0 18 7 18 22v55c0 15 -6 23 -18 23h-17z" />
    <glyph glyph-name="afii10068" unicode="&#x433;" horiz-adv-x="270" 
d="M145 0h-120v500h235v-95h-115v-405z" />
    <glyph glyph-name="afii10069" unicode="&#x434;" horiz-adv-x="390" 
d="M130 -126h-120v221h20c17 0 30 25 30 66v339h275v-405h45v-221h-120v126h-130v-126zM180 405v-244c0 -24 -4 -46 -11 -66h46v310h-35z" />
    <glyph glyph-name="afii10070" unicode="&#x435;" 
d="M295 389v-179h-155v-100c0 -15 6 -22 17 -22c12 0 18 7 18 22v65h120v-65c0 -72 -59 -117 -138 -117s-137 44 -137 117v279c0 73 58 118 137 118s138 -45 138 -118zM140 389v-84h35v84c0 15 -6 23 -18 23c-11 0 -17 -8 -17 -23z" />
    <glyph glyph-name="afii10072" unicode="&#x436;" horiz-adv-x="470" 
d="M125 0h-123l83 260l-79 240h123l41 -194h5v194h120v-194h5l41 194h123l-79 -240l83 -260h-123l-45 216h-5v-216h-120v216h-5z" />
    <glyph glyph-name="afii10073" unicode="&#x437;" horiz-adv-x="311" 
d="M176 111v77c0 15 -6 22 -18 22h-59v95h54c12 0 18 7 18 22v62c0 15 -6 23 -18 23s-18 -7 -18 -22v-65h-120v65c0 72 59 117 138 117s138 -45 138 -118v-32c0 -45 -19 -77 -58 -98c42 -21 63 -54 63 -101v-47c0 -73 -59 -118 -138 -118s-138 45 -138 118v64h120v-64
c0 -15 6 -23 18 -23s18 8 18 23z" />
    <glyph glyph-name="afii10074" unicode="&#x438;" horiz-adv-x="329" 
d="M140 0h-115v500h115v-222h2l47 192v30h115v-500h-115v222h-2l-47 -192v-30z" />
    <glyph glyph-name="afii10075" unicode="&#x439;" horiz-adv-x="329" 
d="M51 650h79c0 -25 15 -41 34 -41c21 0 36 14 36 41h78c0 -65 -49 -107 -114 -107s-113 42 -113 107zM140 0h-115v500h115v-222h2l47 192v30h115v-500h-115v222h-2l-47 -192v-30z" />
    <glyph glyph-name="afii10076" unicode="&#x43a;" horiz-adv-x="320" 
d="M145 0h-120v500h120v-194h5l41 194h123l-79 -240l83 -260h-123l-45 216h-5v-216z" />
    <glyph glyph-name="afii10077" unicode="&#x43b;" horiz-adv-x="340" 
d="M40 154v346h275v-500h-120v405h-35v-251c0 -49 -14 -89 -43 -118s-64 -43 -107 -43v95c17 0 30 25 30 66z" />
    <glyph glyph-name="afii10078" unicode="&#x43c;" horiz-adv-x="525" 
d="M135 0h-110v500h175l61 -349h2l62 349h175v-500h-110v370h-2l-62 -370h-127l-62 370h-2v-370z" />
    <glyph glyph-name="afii10079" unicode="&#x43d;" horiz-adv-x="325" 
d="M145 0h-120v500h120v-195h35v195h120v-500h-120v210h-35v-210z" />
    <glyph glyph-name="afii10080" unicode="&#x43e;" 
d="M295 389v-279c0 -72 -59 -117 -138 -117s-137 44 -137 117v279c0 73 58 118 137 118s138 -45 138 -118zM140 389v-279c0 -15 6 -22 17 -22c12 0 18 7 18 22v279c0 15 -6 23 -18 23c-11 0 -17 -8 -17 -23z" />
    <glyph glyph-name="afii10081" unicode="&#x43f;" horiz-adv-x="325" 
d="M145 0h-120v500h275v-500h-120v405h-35v-405z" />
    <glyph glyph-name="afii10082" unicode="&#x440;" horiz-adv-x="320" 
d="M145 -200h-120v700h120v-32c26 26 53 39 82 39c41 0 73 -30 73 -78v-319c0 -72 -47 -117 -110 -117c-19 0 -34 2 -45 7v-200zM145 384v-290c5 -4 10 -6 17 -6c12 0 18 7 18 22v284c0 12 -4 18 -13 18c-15 0 -22 -9 -22 -28z" />
    <glyph glyph-name="afii10083" unicode="&#x441;" 
d="M140 389v-279c0 -15 6 -22 17 -22c12 0 18 7 18 22v65h120v-65c0 -72 -59 -117 -138 -117s-137 44 -137 117v279c0 73 58 118 137 118s138 -45 138 -118v-64h-120v64c0 15 -6 23 -18 23c-11 0 -17 -8 -17 -23z" />
    <glyph glyph-name="afii10084" unicode="&#x442;" horiz-adv-x="300" 
d="M90 405h-80v95h279v-95h-79v-405h-120v405z" />
    <glyph glyph-name="afii10085" unicode="&#x443;" 
d="M78 -200h-58v95h58c13 0 21 7 23 22l13 83h-34l-78 500h123l31 -404h2l32 404h123l-91 -583c-12 -73 -65 -117 -144 -117z" />
    <glyph glyph-name="afii10086" unicode="&#x444;" horiz-adv-x="470" 
d="M175 725h120v-225h17c79 0 138 -45 138 -117v-265c0 -73 -59 -118 -138 -118h-17v-200h-120v200h-17c-79 0 -138 45 -138 118v265c0 72 59 117 138 117h17v225zM175 95v310h-17c-12 0 -18 -7 -18 -22v-265c0 -15 6 -23 18 -23h17zM312 405h-17v-310h17c12 0 18 8 18 23
v265c0 15 -6 22 -18 22z" />
    <glyph glyph-name="afii10087" unicode="&#x445;" 
d="M125 0h-123l75 260l-71 240h123l27 -185h2l28 185h123l-71 -240l75 -260h-123l-32 210h-2z" />
    <glyph glyph-name="afii10088" unicode="&#x446;" horiz-adv-x="355" 
d="M345 -126h-120v126h-200v500h120v-405h35v405h120v-405h45v-221z" />
    <glyph glyph-name="afii10089" unicode="&#x447;" horiz-adv-x="320" 
d="M175 291v209h120v-500h-120v207c-26 -26 -53 -39 -82 -39c-41 0 -73 30 -73 78v254h120v-219c0 -12 4 -18 13 -18c15 0 22 9 22 28z" />
    <glyph glyph-name="afii10090" unicode="&#x448;" horiz-adv-x="480" 
d="M455 0h-430v500h120v-405h35v405h120v-405h35v405h120v-500z" />
    <glyph glyph-name="afii10091" unicode="&#x449;" horiz-adv-x="510" 
d="M380 0h-355v500h120v-405h35v405h120v-405h35v405h120v-405h45v-220h-120v125z" />
    <glyph glyph-name="afii10092" unicode="&#x44a;" horiz-adv-x="385" 
d="M227 0h-137v405h-80v95h200v-165h17c79 0 138 -45 138 -117v-100c0 -73 -59 -118 -138 -118zM210 240v-145h17c12 0 18 8 18 23v100c0 15 -6 22 -18 22h-17z" />
    <glyph glyph-name="afii10093" unicode="&#x44b;" horiz-adv-x="475" 
d="M162 0h-137v500h120v-165h17c79 0 138 -45 138 -117v-100c0 -73 -59 -118 -138 -118zM162 240h-17v-145h17c12 0 18 8 18 23v100c0 15 -6 22 -18 22zM450 0h-120v500h120v-500z" />
    <glyph glyph-name="afii10094" unicode="&#x44c;" horiz-adv-x="320" 
d="M162 0h-137v500h120v-165h17c79 0 138 -45 138 -117v-100c0 -73 -59 -118 -138 -118zM162 240h-17v-145h17c12 0 18 8 18 23v100c0 15 -6 22 -18 22z" />
    <glyph glyph-name="afii10095" unicode="&#x44d;" 
d="M175 110v100h-70v95h70v84c0 15 -6 23 -17 23c-12 0 -18 -8 -18 -23v-64h-120v64c0 73 59 118 138 118s137 -45 137 -118v-279c0 -73 -58 -117 -137 -117s-138 45 -138 117v65h120v-65c0 -15 6 -22 18 -22c11 0 17 7 17 22z" />
    <glyph glyph-name="afii10096" unicode="&#x44e;" horiz-adv-x="475" 
d="M145 0h-120v500h120v-195h35v84c0 73 58 118 137 118s138 -45 138 -118v-279c0 -72 -59 -117 -138 -117s-137 44 -137 117v100h-35v-210zM300 389v-279c0 -15 6 -22 17 -22c12 0 18 7 18 22v279c0 15 -6 23 -18 23c-11 0 -17 -8 -17 -23z" />
    <glyph glyph-name="afii10097" unicode="&#x44f;" horiz-adv-x="320" 
d="M125 0h-120l67 197c-35 21 -52 52 -52 95v90c0 73 59 118 138 118h137v-500h-120v175h-13zM158 270h17v135h-17c-12 0 -18 -8 -18 -23v-90c0 -15 6 -22 18 -22z" />
    <glyph glyph-name="uni0450" unicode="&#x450;" 
d="M295 389v-179h-155v-100c0 -15 6 -22 17 -22c12 0 18 7 18 22v65h120v-65c0 -72 -59 -117 -138 -117s-137 44 -137 117v279c0 73 58 118 137 118s138 -45 138 -118zM140 389v-84h35v84c0 15 -6 23 -18 23c-11 0 -17 -8 -17 -23zM269 603l-67 -67l-156 136l67 67z" />
    <glyph glyph-name="afii10071" unicode="&#x451;" 
d="M295 389v-179h-155v-100c0 -15 6 -22 17 -22c12 0 18 7 18 22v65h120v-65c0 -72 -59 -117 -138 -117s-137 44 -137 117v279c0 73 58 118 137 118s138 -45 138 -118zM140 389v-84h35v84c0 15 -6 23 -18 23c-11 0 -17 -8 -17 -23zM130 575h-100v125h100v-125zM285 575h-100
v125h100v-125z" />
    <glyph glyph-name="afii10099" unicode="&#x452;" horiz-adv-x="345" 
d="M205 -114v508c0 12 -4 18 -13 18c-15 0 -22 -9 -22 -28v-384h-120v555h-40v95h40v75h120v-75h105v-95h-105v-87c26 26 53 39 82 39c41 0 73 -30 73 -78v-543c0 -73 -58 -118 -137 -118s-138 45 -138 118v64h120v-64c0 -15 6 -23 18 -23c11 0 17 8 17 23z" />
    <glyph glyph-name="afii10100" unicode="&#x453;" horiz-adv-x="270" 
d="M246 672l-156 -136l-67 67l156 136zM145 0h-120v500h235v-95h-115v-405z" />
    <glyph glyph-name="afii10101" unicode="&#x454;" 
d="M220 305v-95h-80v-100c0 -15 6 -22 17 -22c12 0 18 7 18 22v65h120v-65c0 -72 -59 -117 -138 -117s-137 44 -137 117v279c0 73 58 118 137 118s138 -45 138 -118v-64h-120v64c0 15 -6 23 -18 23c-11 0 -17 -8 -17 -23v-84h80z" />
    <glyph glyph-name="afii10102" unicode="&#x455;" 
d="M20 110v65h120v-65c0 -15 6 -22 17 -22c12 0 18 7 18 22v73c0 9 -38 24 -78 40c-39 16 -77 55 -77 100v66c0 73 58 118 137 118s138 -45 138 -118v-64h-120v64c0 15 -6 23 -18 23c-11 0 -17 -8 -17 -23v-66c0 -9 38 -25 77 -41c40 -16 78 -54 78 -99v-73
c0 -72 -59 -117 -138 -117s-137 44 -137 117z" />
    <glyph glyph-name="afii10103" unicode="&#x456;" horiz-adv-x="170" 
d="M145 0h-120v500h120v-500zM145 575h-120v125h120v-125z" />
    <glyph glyph-name="afii10104" unicode="&#x457;" horiz-adv-x="170" 
d="M58 575h-100v125h100v-125zM213 575h-100v125h100v-125zM145 0h-120v500h120v-500z" />
    <glyph glyph-name="afii10105" unicode="&#x458;" horiz-adv-x="170" 
d="M-35 -226l-5 1v94c9 -4 19 -6 31 -6c20 0 34 12 34 32v605h120v-605c0 -79 -60 -127 -139 -127c-17 0 -34 3 -41 6zM145 575h-120v125h120v-125z" />
    <glyph glyph-name="afii10106" unicode="&#x459;" horiz-adv-x="490" 
d="M10 -7v95c17 0 30 25 30 66v346h275v-190h17c79 0 138 -45 138 -117v-75c0 -73 -59 -118 -138 -118h-137v405h-35v-251c0 -49 -14 -89 -43 -118s-64 -43 -107 -43zM315 215v-120h17c12 0 18 8 18 23v75c0 15 -6 22 -18 22h-17z" />
    <glyph glyph-name="afii10107" unicode="&#x45a;" horiz-adv-x="475" 
d="M145 0h-120v500h120v-190h35v190h120v-190h17c79 0 138 -45 138 -117v-75c0 -73 -59 -118 -138 -118h-137v215h-35v-215zM300 215v-120h17c12 0 18 8 18 23v75c0 15 -6 22 -18 22h-17z" />
    <glyph glyph-name="afii10108" unicode="&#x45b;" horiz-adv-x="345" 
d="M50 555h-40v95h40v75h120v-75h105v-95h-105v-87c26 26 53 39 82 39c41 0 73 -30 73 -78v-429h-120v394c0 12 -4 18 -13 18c-15 0 -22 -9 -22 -28v-384h-120v555z" />
    <glyph glyph-name="afii10109" unicode="&#x45c;" horiz-adv-x="320" 
d="M145 0h-120v500h120v-194h5l41 194h123l-79 -240l83 -260h-123l-45 216h-5v-216zM271 672l-156 -136l-67 67l156 136z" />
    <glyph glyph-name="uni045D" unicode="&#x45d;" horiz-adv-x="329" 
d="M140 0h-115v500h115v-222h2l47 192v30h115v-500h-115v222h-2l-47 -192v-30zM276 603l-67 -67l-156 136l67 67z" />
    <glyph glyph-name="afii10110" unicode="&#x45e;" 
d="M44 650h79c0 -25 15 -41 34 -41c21 0 36 14 36 41h78c0 -65 -49 -107 -114 -107s-113 42 -113 107zM78 -200h-58v95h58c13 0 21 7 23 22l13 83h-34l-78 500h123l31 -404h2l32 404h123l-91 -583c-12 -73 -65 -117 -144 -117z" />
    <glyph glyph-name="afii10193" unicode="&#x45f;" horiz-adv-x="325" 
d="M103 0h-78v500h120v-405h35v405h120v-500h-77v-125h-120v125z" />
    <glyph glyph-name="afii10050" unicode="&#x490;" horiz-adv-x="269" 
d="M145 0h-120v700h140v101h95v-196h-115v-605z" />
    <glyph glyph-name="afii10098" unicode="&#x491;" horiz-adv-x="270" 
d="M145 0h-120v500h140v100h95v-195h-115v-405z" />
    <glyph glyph-name="uni04D8" unicode="&#x4d8;" 
d="M20 110v290h155v189c0 15 -6 23 -17 23c-12 0 -18 -8 -18 -23v-89h-120v89c0 73 59 118 138 118s137 -45 137 -118v-479c0 -73 -58 -117 -137 -117s-138 45 -138 117zM158 88c11 0 17 7 17 22v195h-35v-195c0 -15 6 -22 18 -22z" />
    <glyph glyph-name="afii10846" unicode="&#x4d9;" 
d="M20 111v194h155v85c0 15 -6 22 -17 22c-12 0 -18 -7 -18 -22v-50h-120v50c0 72 59 117 138 117s137 -44 137 -117v-279c0 -73 -58 -118 -137 -118s-138 45 -138 118zM175 111v99h-35v-99c0 -15 6 -23 18 -23c11 0 17 8 17 23z" />
    <glyph glyph-name="Wgrave" unicode="&#x1e80;" horiz-adv-x="540" 
d="M240 0h-157l-80 700h124l30 -584h2l35 584h152l34 -584h2l31 584h124l-80 -700h-157l-29 571h-2zM381 803l-67 -67l-156 136l67 67z" />
    <glyph glyph-name="wgrave" unicode="&#x1e81;" horiz-adv-x="524" 
d="M232 0h-155l-75 500h123l28 -404h2l32 404h150l31 -404h2l29 404h123l-75 -500h-155l-29 391h-2zM373 603l-67 -67l-156 136l67 67z" />
    <glyph glyph-name="Wacute" unicode="&#x1e82;" horiz-adv-x="540" 
d="M240 0h-157l-80 700h124l30 -584h2l35 584h152l34 -584h2l31 584h124l-80 -700h-157l-29 571h-2zM381 872l-156 -136l-67 67l156 136z" />
    <glyph glyph-name="wacute" unicode="&#x1e83;" horiz-adv-x="524" 
d="M232 0h-155l-75 500h123l28 -404h2l32 404h150l31 -404h2l29 404h123l-75 -500h-155l-29 391h-2zM373 672l-156 -136l-67 67l156 136z" />
    <glyph glyph-name="Wdieresis" unicode="&#x1e84;" horiz-adv-x="540" 
d="M240 0h-157l-80 700h124l30 -584h2l35 584h152l34 -584h2l31 584h124l-80 -700h-157l-29 571h-2zM242 775h-100v125h100v-125zM397 775h-100v125h100v-125z" />
    <glyph glyph-name="wdieresis" unicode="&#x1e85;" horiz-adv-x="524" 
d="M232 0h-155l-75 500h123l28 -404h2l32 404h150l31 -404h2l29 404h123l-75 -500h-155l-29 391h-2zM234 575h-100v125h100v-125zM389 575h-100v125h100v-125z" />
    <glyph glyph-name="Ygrave" unicode="&#x1ef2;" 
d="M217 0h-120v191l-95 509h120l34 -327h2l35 327h120l-96 -509v-191zM269 803l-67 -67l-156 136l67 67z" />
    <glyph glyph-name="ygrave" unicode="&#x1ef3;" 
d="M20 -114v50h120v-50c0 -15 6 -23 18 -23c10 0 16 7 17 22v147c-26 -26 -53 -39 -82 -39c-41 0 -73 30 -73 78v429h120v-394c0 -12 4 -18 13 -18c15 0 22 9 22 28v384h120v-614c0 -73 -58 -118 -137 -118s-138 45 -138 118zM269 603l-67 -67l-156 136l67 67z" />
    <glyph glyph-name="figuredash" unicode="&#x2012;" horiz-adv-x="305" 
d="M290 265h-275v95h275v-95z" />
    <glyph glyph-name="endash" unicode="&#x2013;" horiz-adv-x="325" 
d="M310 235h-295v95h295v-95z" />
    <glyph glyph-name="emdash" unicode="&#x2014;" horiz-adv-x="479" 
d="M464 235h-449v95h449v-95z" />
    <glyph glyph-name="quoteleft" unicode="&#x2018;" horiz-adv-x="155" 
d="M54 707l11 18h95c-17 -43 -25 -85 -25 -125v-125h-115v125c0 36 18 83 34 107z" />
    <glyph glyph-name="quoteright" unicode="&#x2019;" horiz-adv-x="155" 
d="M101 493l-11 -18h-95c17 43 25 85 25 125v125h115v-125c0 -36 -19 -83 -34 -107z" />
    <glyph glyph-name="quotesinglbase" unicode="&#x201a;" horiz-adv-x="155" 
d="M101 -107l-11 -18h-95c17 43 25 85 25 125v125h115v-125c0 -36 -19 -83 -34 -107z" />
    <glyph glyph-name="quotedblleft" unicode="&#x201c;" horiz-adv-x="305" 
d="M54 707l11 18h95c-17 -43 -25 -85 -25 -125v-125h-115v125c0 36 18 83 34 107zM204 707l11 18h95c-17 -43 -25 -85 -25 -125v-125h-115v125c0 36 18 83 34 107z" />
    <glyph glyph-name="quotedblright" unicode="&#x201d;" horiz-adv-x="305" 
d="M101 493l-11 -18h-95c17 43 25 85 25 125v125h115v-125c0 -36 -19 -83 -34 -107zM251 493l-11 -18h-95c17 43 25 85 25 125v125h115v-125c0 -36 -19 -83 -34 -107z" />
    <glyph glyph-name="quotedblbase" unicode="&#x201e;" horiz-adv-x="305" 
d="M101 -107l-11 -18h-95c17 43 25 85 25 125v125h115v-125c0 -36 -19 -83 -34 -107zM251 -107l-11 -18h-95c17 43 25 85 25 125v125h115v-125c0 -36 -19 -83 -34 -107z" />
    <glyph glyph-name="dagger" unicode="&#x2020;" horiz-adv-x="300" 
d="M90 450h-80v95h80v155h120v-155h80v-95h-80v-450h-120v450z" />
    <glyph glyph-name="daggerdbl" unicode="&#x2021;" horiz-adv-x="300" 
d="M210 250h80v-95h-80v-155h-120v155h-80v95h80v200h-80v95h80v155h120v-155h80v-95h-80v-200z" />
    <glyph glyph-name="bullet" unicode="&#x2022;" horiz-adv-x="255" 
d="M230 200h-205v200h205v-200z" />
    <glyph glyph-name="ellipsis" unicode="&#x2026;" horiz-adv-x="455" 
d="M135 0h-115v125h115v-125zM285 0h-115v125h115v-125zM435 0h-115v125h115v-125z" />
    <glyph glyph-name="perthousand" unicode="&#x2030;" horiz-adv-x="775" 
d="M190 0h-85l230 700h85zM20 500v99c0 67 46 108 107 108s108 -43 108 -108v-99c0 -65 -47 -107 -108 -107s-107 40 -107 107zM95 599v-99c0 -25 15 -39 32 -39c19 0 33 14 33 39v99c0 25 -14 40 -33 40c-17 0 -32 -15 -32 -40zM290 100v99c0 67 46 108 107 108
s108 -43 108 -108v-99c0 -65 -47 -107 -108 -107s-107 40 -107 107zM365 199v-99c0 -25 15 -39 32 -39c19 0 33 14 33 39v99c0 25 -14 40 -33 40c-17 0 -32 -15 -32 -40zM540 100v99c0 67 46 108 107 108s108 -43 108 -108v-99c0 -65 -47 -107 -108 -107s-107 40 -107 107z
M615 199v-99c0 -25 15 -39 32 -39c19 0 33 14 33 39v99c0 25 -14 40 -33 40c-17 0 -32 -15 -32 -40z" />
    <glyph glyph-name="guilsinglleft" unicode="&#x2039;" horiz-adv-x="197" 
d="M60 425h122l-49 -175l49 -175h-122l-45 175z" />
    <glyph glyph-name="guilsinglright" unicode="&#x203a;" horiz-adv-x="197" 
d="M137 75h-122l49 175l-49 175h122l45 -175z" />
    <glyph glyph-name="fraction" unicode="&#x2044;" horiz-adv-x="380" 
d="M135 0h-120l230 700h120z" />
    <glyph glyph-name="Euro" unicode="&#x20ac;" horiz-adv-x="335" 
d="M40 375h-25v95h25v119c0 73 58 118 137 118s138 -45 138 -118v-89h-120v89c0 15 -6 23 -18 23c-11 0 -17 -8 -17 -23v-119h155v-95h-155v-45h155v-95h-155v-125c0 -15 6 -22 17 -22c12 0 18 7 18 22v90h120v-90c0 -72 -59 -117 -138 -117s-137 44 -137 117v125h-25v95h25
v45z" />
    <glyph glyph-name="uni20B4" unicode="&#x20b4;" 
d="M108 370h-93v95h154c4 11 6 23 6 35v89c0 15 -6 23 -17 23c-12 0 -18 -8 -18 -23v-89h-120v89c0 73 59 118 138 118s137 -45 137 -118v-89c0 -11 -2 -23 -5 -35h10v-95h-60c-7 -9 -17 -23 -32 -40h92v-95h-154c-4 -12 -6 -24 -6 -35v-90c0 -15 6 -22 18 -22
c11 0 17 7 17 22v90h120v-90c0 -73 -58 -117 -137 -117s-138 45 -138 117v90c0 13 1 24 4 35h-9v95h60z" />
    <glyph glyph-name="afii61352" unicode="&#x2116;" horiz-adv-x="574" 
d="M140 0h-115v700h85l76 -290h3v290h115v-700h-85l-77 290h-2v-290zM339 549v50c0 67 46 108 107 108s108 -43 108 -108v-50c0 -65 -47 -107 -108 -107s-107 40 -107 107zM414 599v-50c0 -25 15 -39 32 -39c19 0 33 14 33 39v50c0 25 -14 40 -33 40c-17 0 -32 -15 -32 -40z
" />
    <glyph glyph-name="trademark" unicode="&#x2122;" horiz-adv-x="170" 
d="M55 663h-40v47h140v-47h-40v-213h-60v213zM230 450h-55v260h87l31 -184h1l31 184h87v-260h-54v195h-1l-31 -195h-64l-31 195h-1v-195z" />
    <glyph glyph-name="arrowleft" unicode="&#x2190;" horiz-adv-x="1030" 
d="M471 81l-85 -84l-354 354l354 353l84 -84l-209 -209h717v-120h-717z" />
    <glyph glyph-name="arrowup" unicode="&#x2191;" horiz-adv-x="771" 
d="M446 -190h-120v717l-210 -210l-84 85l354 354l353 -354l-84 -84l-209 209v-717z" />
    <glyph glyph-name="arrowright" unicode="&#x2192;" horiz-adv-x="1030" 
d="M769 291h-717v120h717l-209 209l84 84l354 -353l-354 -354l-85 84z" />
    <glyph glyph-name="arrowdown" unicode="&#x2193;" horiz-adv-x="771" 
d="M739 158l-353 -354l-354 354l84 85l210 -210v717h120v-717l209 209z" />
    <glyph glyph-name="uni2196" unicode="&#x2196;" horiz-adv-x="795" 
d="M172 200h-120v500h500v-120h-296l507 -506l-85 -85l-506 507v-296z" />
    <glyph glyph-name="uni2197" unicode="&#x2197;" horiz-adv-x="795" 
d="M539 580h-296v120h500v-500h-120v296l-506 -507l-85 85z" />
    <glyph glyph-name="uni2198" unicode="&#x2198;" horiz-adv-x="795" 
d="M743 0h-500v120h296l-507 506l85 85l506 -507v296h120v-500z" />
    <glyph glyph-name="uni2199" unicode="&#x2199;" horiz-adv-x="795" 
d="M552 0h-500v500h120v-296l506 507l85 -85l-507 -506h296v-120z" />
    <glyph glyph-name="minus" unicode="&#x2212;" horiz-adv-x="325" 
d="M310 265h-295v95h295v-95z" />
    <glyph glyph-name="commaaccent" unicode="&#xf6c3;" horiz-adv-x="125" 
d="M115 -30v-95c0 -29 -11 -64 -33 -105h-80c12 41 18 76 18 105v95h95z" />
    <glyph glyph-name="dollaroldstyle" unicode="&#xf724;" 
d="M216 -100h-120v103c-51 19 -76 55 -76 107v65h120v-65c0 -15 6 -22 17 -22c12 0 18 7 18 22v73c0 9 -38 24 -78 40c-39 16 -77 55 -77 100v66c0 52 25 88 76 107v104h120v-103c48 -16 79 -56 79 -108v-64h-120v64c0 15 -6 23 -18 23c-11 0 -17 -8 -17 -23v-66
c0 -9 38 -25 77 -41c40 -16 78 -54 78 -99v-73c0 -52 -31 -91 -79 -108v-102z" />
    <glyph glyph-name="zerooldstyle" unicode="&#xf730;" 
d="M295 389v-279c0 -72 -59 -117 -138 -117s-137 44 -137 117v279c0 73 58 118 137 118s138 -45 138 -118zM140 389v-279c0 -15 6 -22 17 -22c12 0 18 7 18 22v279c0 15 -6 23 -18 23c-11 0 -17 -8 -17 -23z" />
    <glyph glyph-name="oneoldstyle" unicode="&#xf731;" horiz-adv-x="235" 
d="M90 390l-80 -50v110l80 50h120v-500h-120v390z" />
    <glyph glyph-name="twooldstyle" unicode="&#xf732;" horiz-adv-x="311" 
d="M291 0h-272v107c0 130 152 130 152 200v82c0 15 -6 23 -18 23s-18 -7 -18 -22v-65h-120v65c0 72 59 117 138 117s138 -45 138 -118v-82c0 -132 -152 -131 -152 -200v-12h152v-95z" />
    <glyph glyph-name="threeoldstyle" unicode="&#xf733;" horiz-adv-x="311" 
d="M176 -64v167c0 15 -6 22 -18 22h-59v95h54c12 0 18 7 18 22v147c0 15 -6 23 -18 23s-18 -7 -18 -22v-65h-120v65c0 72 59 117 138 117s138 -45 138 -118v-117c0 -45 -19 -77 -58 -98c42 -21 63 -55 63 -101v-137c0 -73 -59 -118 -138 -118s-138 45 -138 118v64h120v-64
c0 -15 6 -23 18 -23s18 8 18 23z" />
    <glyph glyph-name="fouroldstyle" unicode="&#xf734;" horiz-adv-x="316" 
d="M171 0h-161v95l94 405h182v-405h19v-95h-19v-150h-115v150zM169 380l-52 -285h54v285h-2z" />
    <glyph glyph-name="fiveoldstyle" unicode="&#xf735;" 
d="M140 144h-120v356h270v-95h-150v-177c26 26 53 39 82 39c41 0 73 -30 73 -78v-254c0 -72 -59 -117 -138 -117s-137 44 -137 117v65h120v-65c0 -15 6 -22 17 -22c12 0 18 7 18 22v219c0 12 -4 18 -13 18c-15 0 -22 -9 -22 -28z" />
    <glyph glyph-name="sixoldstyle" unicode="&#xf736;" 
d="M158 587c-12 0 -18 -8 -18 -23v-186c26 26 53 39 82 39c41 0 73 -30 73 -78v-229c0 -72 -59 -117 -138 -117s-137 44 -137 117v454c0 73 59 118 138 118s137 -45 137 -118v-64h-120v64c0 15 -6 23 -17 23zM140 294v-184c0 -15 6 -22 17 -22c12 0 18 7 18 22v194
c0 12 -4 18 -13 18c-15 0 -22 -9 -22 -28z" />
    <glyph glyph-name="sevenoldstyle" unicode="&#xf737;" horiz-adv-x="300" 
d="M156 405h-141v95h270v-50l-123 -600h-122z" />
    <glyph glyph-name="eightoldstyle" unicode="&#xf738;" 
d="M295 564v-119c0 -44 -19 -77 -57 -98c38 -23 57 -55 57 -98v-139c0 -72 -59 -117 -138 -117s-137 44 -137 117v139c0 43 19 76 56 98c-37 21 -56 53 -56 98v119c0 73 58 118 137 118s138 -45 138 -118zM140 564v-149c0 -15 6 -22 17 -22c12 0 18 7 18 22v149
c0 15 -6 23 -18 23c-11 0 -17 -8 -17 -23zM140 275v-165c0 -15 6 -22 17 -22c12 0 18 7 18 22v165c0 15 -6 23 -18 23c-11 0 -17 -8 -17 -23z" />
    <glyph glyph-name="nineoldstyle" unicode="&#xf739;" 
d="M157 -87c12 0 18 8 18 23v186c-26 -26 -53 -39 -82 -39c-41 0 -73 30 -73 78v229c0 72 59 117 138 117s137 -44 137 -117v-454c0 -73 -59 -118 -138 -118s-137 45 -137 118v64h120v-64c0 -15 6 -23 17 -23zM175 206v184c0 15 -6 22 -17 22c-12 0 -18 -7 -18 -22v-194
c0 -12 4 -18 13 -18c15 0 22 9 22 28z" />
    <glyph glyph-name="afii10019.smcp" horiz-adv-x="320" 
d="M167 0h-142v520h137c79 0 138 -45 138 -118v-35c0 -45 -19 -77 -58 -98c42 -21 63 -54 63 -101v-50c0 -73 -59 -118 -138 -118zM167 220h-22v-125h22c12 0 18 8 18 23v80c0 15 -6 22 -18 22zM145 425v-110h17c12 0 18 7 18 22v65c0 15 -6 23 -18 23h-17z" />
    <glyph glyph-name="afii10020.smcp" horiz-adv-x="270" 
d="M145 0h-120v520h235v-95h-115v-425z" />
    <glyph glyph-name="afii10021.smcp" horiz-adv-x="390" 
d="M130 -126h-120v221h20c17 0 30 25 30 66v359h275v-425h45v-221h-120v126h-130v-126zM180 425v-264c0 -24 -4 -46 -11 -66h46v330h-35z" />
    <glyph glyph-name="afii10022.smcp" horiz-adv-x="295" 
d="M275 0h-250v520h250v-95h-130v-110h110v-95h-110v-125h130v-95z" />
    <glyph glyph-name="afii10023.smcp" horiz-adv-x="295" 
d="M275 0h-250v520h250v-95h-130v-110h110v-95h-110v-125h130v-95zM120 575h-100v125h100v-125zM275 575h-100v125h100v-125z" />
    <glyph glyph-name="afii10024.smcp" horiz-adv-x="470" 
d="M125 0h-123l83 270l-79 250h123l41 -204h5v204h120v-204h5l41 204h123l-79 -250l83 -270h-123l-45 226h-5v-226h-120v226h-5z" />
    <glyph glyph-name="afii10025.smcp" horiz-adv-x="311" 
d="M176 111v87c0 15 -6 22 -18 22h-64v95h59c12 0 18 7 18 22v72c0 15 -6 23 -18 23s-18 -7 -18 -22v-65h-120v65c0 72 59 117 138 117s138 -45 138 -118v-42c0 -45 -19 -77 -58 -98c42 -21 63 -54 63 -101v-57c0 -73 -59 -118 -138 -118s-138 45 -138 118v64h120v-64
c0 -15 6 -23 18 -23s18 8 18 23z" />
    <glyph glyph-name="afii10026.smcp" horiz-adv-x="329" 
d="M140 0h-115v520h115v-232h2l47 202v30h115v-520h-115v232h-2l-47 -202v-30z" />
    <glyph glyph-name="afii10027.smcp" horiz-adv-x="329" 
d="M52 650h79c0 -25 15 -41 34 -41c21 0 36 14 36 41h78c0 -65 -49 -107 -114 -107s-113 42 -113 107zM140 0h-115v520h115v-232h2l47 202v30h115v-520h-115v232h-2l-47 -202v-30z" />
    <glyph glyph-name="afii10028.smcp" horiz-adv-x="320" 
d="M145 0h-120v520h120v-204h5l41 204h123l-79 -250l83 -270h-123l-45 226h-5v-226z" />
    <glyph glyph-name="afii10029.smcp" horiz-adv-x="340" 
d="M40 154v366h275v-520h-120v425h-35v-271c0 -49 -14 -89 -43 -118s-64 -43 -107 -43v95c17 0 30 25 30 66z" />
    <glyph glyph-name="afii10030.smcp" horiz-adv-x="525" 
d="M135 0h-110v520h175l61 -369h2l62 369h175v-520h-110v390h-2l-62 -390h-127l-62 390h-2v-390z" />
    <glyph glyph-name="afii10031.smcp" horiz-adv-x="325" 
d="M145 0h-120v520h120v-205h35v205h120v-520h-120v220h-35v-220z" />
    <glyph glyph-name="afii10032.smcp" 
d="M295 409v-299c0 -72 -59 -117 -138 -117s-137 44 -137 117v299c0 73 58 118 137 118s138 -45 138 -118zM140 409v-299c0 -15 6 -22 17 -22c12 0 18 7 18 22v299c0 15 -6 23 -18 23c-11 0 -17 -8 -17 -23z" />
    <glyph glyph-name="afii10033.smcp" horiz-adv-x="325" 
d="M145 0h-120v520h275v-520h-120v425h-35v-425z" />
    <glyph glyph-name="afii10034.smcp" horiz-adv-x="320" 
d="M145 0h-120v520h137c79 0 138 -45 138 -118v-110c0 -72 -59 -117 -138 -117h-17v-175zM145 425v-155h17c12 0 18 7 18 22v110c0 15 -6 23 -18 23h-17z" />
    <glyph glyph-name="afii10018.smcp" horiz-adv-x="320" 
d="M162 0h-137v520h260v-95h-140v-70h17c79 0 138 -45 138 -117v-120c0 -73 -59 -118 -138 -118zM162 260h-17v-165h17c12 0 18 8 18 23v120c0 15 -6 22 -18 22z" />
    <glyph glyph-name="afii10036.smcp" horiz-adv-x="300" 
d="M90 425h-80v95h280v-95h-80v-425h-120v425z" />
    <glyph glyph-name="afii10037.smcp" 
d="M87 0h-58v95h58c13 0 21 7 23 22l4 33h-34l-78 370h123l31 -274h2l32 274h123l-82 -403c-15 -75 -67 -117 -144 -117z" />
    <glyph glyph-name="afii10038.smcp" horiz-adv-x="470" 
d="M175 520h120v-95h17c79 0 138 -45 138 -117v-95c0 -73 -59 -118 -138 -118h-17v-95h-120v95h-17c-79 0 -138 45 -138 118v95c0 72 59 117 138 117h17v95zM175 190v140h-17c-12 0 -18 -7 -18 -22v-95c0 -15 6 -23 18 -23h17zM312 330h-17v-140h17c12 0 18 8 18 23v95
c0 15 -6 22 -18 22z" />
    <glyph glyph-name="afii10039.smcp" 
d="M125 0h-123l75 270l-71 250h123l27 -195h2l28 195h123l-71 -250l75 -270h-123l-32 220h-2z" />
    <glyph glyph-name="afii10040.smcp" horiz-adv-x="355" 
d="M345 -126h-120v126h-200v520h120v-425h35v425h120v-425h45v-221z" />
    <glyph glyph-name="afii10041.smcp" horiz-adv-x="320" 
d="M175 301v219h120v-520h-120v217c-26 -26 -53 -39 -82 -39c-41 0 -73 30 -73 78v264h120v-229c0 -12 4 -18 13 -18c15 0 22 9 22 28z" />
    <glyph glyph-name="afii10042.smcp" horiz-adv-x="480" 
d="M455 0h-430v520h120v-425h35v425h120v-425h35v425h120v-520z" />
    <glyph glyph-name="afii10043.smcp" horiz-adv-x="510" 
d="M380 0h-355v520h120v-425h35v425h120v-425h35v425h120v-425h45v-220h-120v125z" />
    <glyph glyph-name="afii10044.smcp" horiz-adv-x="385" 
d="M227 0h-137v425h-80v95h200v-165h17c79 0 138 -45 138 -117v-120c0 -73 -59 -118 -138 -118zM210 260v-165h17c12 0 18 8 18 23v120c0 15 -6 22 -18 22h-17z" />
    <glyph glyph-name="afii10045.smcp" horiz-adv-x="475" 
d="M162 0h-137v520h120v-165h17c79 0 138 -45 138 -117v-120c0 -73 -59 -118 -138 -118zM162 260h-17v-165h17c12 0 18 8 18 23v120c0 15 -6 22 -18 22zM450 0h-120v520h120v-520z" />
    <glyph glyph-name="afii10046.smcp" horiz-adv-x="320" 
d="M162 0h-137v520h120v-165h17c79 0 138 -45 138 -117v-120c0 -73 -59 -118 -138 -118zM162 260h-17v-165h17c12 0 18 8 18 23v120c0 15 -6 22 -18 22z" />
    <glyph glyph-name="afii10047.smcp" 
d="M175 110v110h-85v95h85v94c0 15 -6 23 -17 23c-12 0 -18 -8 -18 -23v-64h-120v64c0 73 59 118 138 118s137 -45 137 -118v-299c0 -73 -58 -117 -137 -117s-138 45 -138 117v65h120v-65c0 -15 6 -22 18 -22c11 0 17 7 17 22z" />
    <glyph glyph-name="afii10048.smcp" horiz-adv-x="475" 
d="M145 0h-120v520h120v-205h35v94c0 73 58 118 137 118s138 -45 138 -118v-299c0 -72 -59 -117 -138 -117s-137 44 -137 117v110h-35v-220zM300 409v-299c0 -15 6 -22 17 -22c12 0 18 7 18 22v299c0 15 -6 23 -18 23c-11 0 -17 -8 -17 -23z" />
    <glyph glyph-name="afii10049.smcp" horiz-adv-x="320" 
d="M125 0h-120l67 207c-35 21 -52 52 -52 95v100c0 73 59 118 138 118h137v-520h-120v185h-13zM158 280h17v145h-17c-12 0 -18 -8 -18 -23v-100c0 -15 6 -22 18 -22z" />
    <glyph glyph-name="afii10050.smcp" horiz-adv-x="269" 
d="M145 0h-120v520h140v101h95v-196h-115v-425z" />
    <glyph glyph-name="afii10051.smcp" horiz-adv-x="385" 
d="M245 -114v343c0 12 -4 18 -13 18c-15 0 -22 -9 -22 -28v-219h-120v425h-80v95h280v-95h-80v-122c26 26 53 39 82 39c41 0 73 -30 73 -78v-378c0 -73 -58 -118 -137 -118s-138 45 -138 118v64h120v-64c0 -15 6 -23 18 -23c11 0 17 8 17 23z" />
    <glyph glyph-name="afii10052.smcp" horiz-adv-x="270" 
d="M254 672l-156 -136l-67 67l156 136zM145 0h-120v520h235v-95h-115v-425z" />
    <glyph glyph-name="afii10017.smcp" 
d="M79 520h155l78 -520h-123l-9 115h-48l-8 -115h-123zM158 424h-2l-17 -214h34z" />
    <glyph glyph-name="six.fitted.smcp" 
d="M158 432c-12 0 -18 -8 -18 -23v-131c26 26 53 39 82 39c41 0 73 -30 73 -78v-129c0 -72 -59 -117 -138 -117s-137 44 -137 117v299c0 73 59 118 138 118s137 -45 137 -118v-64h-120v64c0 15 -6 23 -17 23zM140 194v-84c0 -15 6 -22 17 -22c12 0 18 7 18 22v94
c0 12 -4 18 -13 18c-15 0 -22 -9 -22 -28z" />
    <glyph glyph-name="IJ.smcp" horiz-adv-x="320" 
d="M25 111v89h120v-89c0 -15 6 -23 18 -23c11 0 17 8 17 23v409h120v-409c0 -73 -58 -118 -137 -118s-138 45 -138 118zM145 265h-120v255h120v-255z" />
    <glyph glyph-name="J.smcp" 
d="M20 111v89h120v-89c0 -15 6 -23 18 -23c11 0 17 8 17 23v409h120v-409c0 -73 -58 -118 -137 -118s-138 45 -138 118z" />
    <glyph glyph-name="K.smcp" horiz-adv-x="320" 
d="M145 0h-120v520h120v-204h5l41 204h123l-79 -250l83 -270h-123l-45 226h-5v-226z" />
    <glyph glyph-name="L.smcp" horiz-adv-x="280" 
d="M270 0h-245v520h120v-425h125v-95z" />
    <glyph glyph-name="afii10035.smcp" 
d="M140 409v-299c0 -15 6 -22 17 -22c12 0 18 7 18 22v65h120v-65c0 -72 -59 -117 -138 -117s-137 44 -137 117v299c0 73 58 118 137 118s138 -45 138 -118v-64h-120v64c0 15 -6 23 -18 23c-11 0 -17 -8 -17 -23z" />
    <glyph glyph-name="afii10062.smcp" 
d="M44 650h79c0 -25 15 -41 34 -41c21 0 36 14 36 41h78c0 -65 -49 -107 -114 -107s-113 42 -113 107zM87 0h-58v95h58c13 0 21 7 23 22l4 33h-34l-78 370h123l31 -274h2l32 274h123l-82 -403c-15 -75 -67 -117 -144 -117z" />
    <glyph glyph-name="afii10145.smcp" horiz-adv-x="325" 
d="M103 0h-78v520h120v-425h35v425h120v-520h-77v-125h-120v125z" />
    <glyph glyph-name="uni0400.smcp" horiz-adv-x="295" 
d="M262 603l-67 -67l-156 136l67 67zM275 0h-250v520h250v-95h-130v-110h110v-95h-110v-125h130v-95z" />
    <glyph glyph-name="uni040D.smcp" horiz-adv-x="329" 
d="M276 603l-67 -67l-156 136l67 67zM140 0h-115v520h115v-232h2l47 202v30h115v-520h-115v232h-2l-47 -202v-30z" />
    <glyph glyph-name="uni04D8.smcp" 
d="M20 110v200h155v99c0 15 -6 23 -17 23c-12 0 -18 -8 -18 -23v-64h-120v64c0 73 59 118 138 118s137 -45 137 -118v-299c0 -73 -58 -117 -137 -117s-138 45 -138 117zM158 88c11 0 17 7 17 22v105h-35v-105c0 -15 6 -22 18 -22z" />
    <glyph glyph-name="quoteright_afii10056.smcp" horiz-adv-x="300" 
d="M90 475h-95c17 43 25 85 25 125v125h115v-125c0 -36 -19 -83 -34 -107zM275 0h-120v520h120v-520zM344 575h-100v125h100v-125z" />
    <glyph glyph-name="afii10056_afii10056.smcp" horiz-adv-x="350" 
d="M145 0h-120v520h120v-520zM58 575h-100v125h100v-125zM225 575h-100v125h100v-125zM325 0h-120v520h120v-520zM394 575h-100v125h100v-125z" />
    <glyph glyph-name="five.fitted.smcp" 
d="M140 239h-120v281h270v-95h-150v-102c26 26 53 39 82 39c41 0 73 -30 73 -78v-174c0 -72 -59 -117 -138 -117s-137 44 -137 117v65h120v-65c0 -15 6 -22 17 -22c12 0 18 7 18 22v139c0 12 -4 18 -13 18c-15 0 -22 -9 -22 -28z" />
    <glyph glyph-name="four.fitted.smcp" 
d="M171 95h-161v95l94 330h182v-330h19v-95h-19v-95h-115v95zM169 400l-52 -210h54v210h-2z" />
    <glyph glyph-name="three.fitted.smcp" 
d="M176 111v82c0 15 -6 22 -18 22h-59v95h54c9 0 18 21 18 37v62c0 15 -6 23 -18 23s-18 -7 -18 -22v-65h-120v65c0 72 59 117 138 117s138 -45 138 -118v-47c0 -45 -19 -77 -58 -98c42 -21 63 -55 63 -101v-52c0 -73 -59 -118 -138 -118s-138 45 -138 118v64h120v-64
c0 -15 6 -23 18 -23s18 8 18 23z" />
    <glyph glyph-name="two.fitted.smcp" 
d="M293 0h-272v117c0 130 152 130 152 200v92c0 15 -6 23 -18 23s-18 -7 -18 -22v-65h-120v65c0 72 59 117 138 117s138 -45 138 -118v-92c0 -132 -152 -131 -152 -200v-22h152v-95z" />
    <glyph glyph-name="M.smcp" horiz-adv-x="525" 
d="M135 0h-110v520h175l61 -369h2l62 369h175v-520h-110v390h-2l-62 -390h-127l-62 390h-2v-390z" />
    <glyph glyph-name="zero.fitted.smcp" 
d="M295 409v-299c0 -72 -59 -117 -138 -117s-137 44 -137 117v299c0 73 58 118 137 118s138 -45 138 -118zM140 409v-299c0 -15 6 -22 17 -22c12 0 18 7 18 22v299c0 15 -6 23 -18 23c-11 0 -17 -8 -17 -23z" />
    <glyph glyph-name="nine.smcp" 
d="M157 88c12 0 18 8 18 23v126c-26 -26 -53 -39 -82 -39c-41 0 -73 30 -73 78v134c0 72 59 117 138 117s137 -44 137 -117v-299c0 -73 -59 -118 -138 -118s-137 45 -137 118v64h120v-64c0 -15 6 -23 17 -23zM175 321v89c0 15 -6 22 -17 22c-12 0 -18 -7 -18 -22v-99
c0 -12 4 -18 13 -18c15 0 22 9 22 28z" />
    <glyph glyph-name="eight.smcp" 
d="M295 409v-44c0 -44 -19 -77 -57 -98c38 -23 57 -55 57 -98v-59c0 -72 -59 -117 -138 -117s-137 44 -137 117v59c0 43 19 76 56 98c-37 21 -56 53 -56 98v44c0 73 58 118 137 118s138 -45 138 -118zM140 409v-74c0 -15 6 -22 17 -22c12 0 18 7 18 22v74c0 15 -6 23 -18 23
c-11 0 -17 -8 -17 -23zM140 195v-85c0 -15 6 -22 17 -22c12 0 18 7 18 22v85c0 15 -6 23 -18 23c-11 0 -17 -8 -17 -23z" />
    <glyph glyph-name="seven.smcp" horiz-adv-x="300" 
d="M156 425h-141v95h270v-50l-123 -470h-117z" />
    <glyph glyph-name="six.smcp" 
d="M158 432c-12 0 -18 -8 -18 -23v-131c26 26 53 39 82 39c41 0 73 -30 73 -78v-129c0 -72 -59 -117 -138 -117s-137 44 -137 117v299c0 73 59 118 138 118s137 -45 137 -118v-64h-120v64c0 15 -6 23 -17 23zM140 194v-84c0 -15 6 -22 17 -22c12 0 18 7 18 22v94
c0 12 -4 18 -13 18c-15 0 -22 -9 -22 -28z" />
    <glyph glyph-name="five.smcp" 
d="M140 239h-120v281h270v-95h-150v-102c26 26 53 39 82 39c41 0 73 -30 73 -78v-174c0 -72 -59 -117 -138 -117s-137 44 -137 117v65h120v-65c0 -15 6 -22 17 -22c12 0 18 7 18 22v139c0 12 -4 18 -13 18c-15 0 -22 -9 -22 -28z" />
    <glyph glyph-name="four.smcp" horiz-adv-x="316" 
d="M171 95h-161v95l94 330h182v-330h19v-95h-19v-95h-115v95zM169 400l-52 -210h54v210h-2z" />
    <glyph glyph-name="three.smcp" horiz-adv-x="311" 
d="M176 111v82c0 15 -6 22 -18 22h-59v95h54c12 0 18 7 18 22v77c0 15 -6 23 -18 23s-18 -7 -18 -22v-65h-120v65c0 72 59 117 138 117s138 -45 138 -118v-47c0 -45 -19 -77 -58 -98c42 -21 63 -55 63 -101v-52c0 -73 -59 -118 -138 -118s-138 45 -138 118v64h120v-64
c0 -15 6 -23 18 -23s18 8 18 23z" />
    <glyph glyph-name="two.smcp" horiz-adv-x="311" 
d="M291 0h-272v117c0 130 152 130 152 200v92c0 15 -6 23 -18 23s-18 -7 -18 -22v-65h-120v65c0 72 59 117 138 117s138 -45 138 -118v-92c0 -132 -152 -131 -152 -200v-22h152v-95z" />
    <glyph glyph-name="one.smcp" horiz-adv-x="235" 
d="M90 410l-80 -50v110l80 50h120v-520h-120v410z" />
    <glyph glyph-name="zero.smcp" 
d="M295 409v-299c0 -72 -59 -117 -138 -117s-137 44 -137 117v299c0 73 58 118 137 118s138 -45 138 -118zM140 409v-299c0 -15 6 -22 17 -22c12 0 18 7 18 22v299c0 15 -6 23 -18 23c-11 0 -17 -8 -17 -23z" />
    <glyph glyph-name="N.smcp" horiz-adv-x="329" 
d="M140 0h-115v520h83l78 -210h3v210h115v-520h-83l-79 210h-2v-210z" />
    <glyph glyph-name="afii10061.smcp" horiz-adv-x="320" 
d="M276 672l-156 -136l-67 67l156 136zM145 0h-120v520h120v-204h5l41 204h123l-79 -250l83 -270h-123l-45 226h-5v-226z" />
    <glyph glyph-name="afii10060.smcp" horiz-adv-x="385" 
d="M210 219v-219h-120v425h-80v95h280v-95h-80v-122c26 26 53 39 82 39c41 0 73 -30 73 -78v-264h-120v229c0 12 -4 18 -13 18c-15 0 -22 -9 -22 -28z" />
    <glyph glyph-name="afii10059.smcp" horiz-adv-x="475" 
d="M145 0h-120v520h120v-205h35v205h120v-205h17c79 0 138 -45 138 -117v-80c0 -73 -59 -118 -138 -118h-137v220h-35v-220zM300 220v-125h17c12 0 18 8 18 23v80c0 15 -6 22 -18 22h-17z" />
    <glyph glyph-name="afii10058.smcp" horiz-adv-x="490" 
d="M10 -7v95c17 0 30 25 30 66v366h275v-205h17c79 0 138 -45 138 -117v-80c0 -73 -59 -118 -138 -118h-137v425h-35v-271c0 -49 -14 -89 -43 -118s-64 -43 -107 -43zM315 220v-125h17c12 0 18 8 18 23v80c0 15 -6 22 -18 22h-17z" />
    <glyph glyph-name="afii10057.smcp" 
d="M20 111v89h120v-89c0 -15 6 -23 18 -23c11 0 17 8 17 23v409h120v-409c0 -73 -58 -118 -137 -118s-138 45 -138 118z" />
    <glyph glyph-name="afii10056.smcp" horiz-adv-x="170" 
d="M59 575h-100v125h100v-125zM214 575h-100v125h100v-125zM145 0h-120v520h120v-520z" />
    <glyph glyph-name="afii10055.smcp" horiz-adv-x="170" 
d="M145 0h-120v520h120v-520z" />
    <glyph glyph-name="afii10054.smcp" 
d="M20 110v65h120v-65c0 -15 6 -22 17 -22c12 0 18 7 18 22v83c0 9 -38 24 -78 40c-39 16 -77 55 -77 100v76c0 73 58 118 137 118s138 -45 138 -118v-64h-120v64c0 15 -6 23 -18 23c-11 0 -17 -8 -17 -23v-76c0 -9 38 -25 77 -41c40 -16 78 -54 78 -99v-83
c0 -72 -59 -117 -138 -117s-137 44 -137 117z" />
    <glyph glyph-name="afii10053.smcp" 
d="M245 315v-95h-105v-110c0 -15 6 -22 17 -22c12 0 18 7 18 22v65h120v-65c0 -72 -59 -117 -138 -117s-137 44 -137 117v299c0 73 58 118 137 118s138 -45 138 -118v-64h-120v64c0 15 -6 23 -18 23c-11 0 -17 -8 -17 -23v-94h105z" />
    <glyph glyph-name="Lslash.smcp" horiz-adv-x="280" 
d="M25 126l-15 -15v116l15 15v278h120v-158l81 81v-115l-81 -82v-151h125v-95h-245v126z" />
    <glyph glyph-name="Q.smcp" 
d="M95 -15v18c-50 19 -75 54 -75 107v299c0 73 58 118 137 118s138 -45 138 -118v-299c0 -53 -31 -92 -80 -108v-17c0 -15 6 -22 17 -22h63v-95h-63c-79 0 -137 44 -137 117zM140 409v-299c0 -15 6 -22 17 -22c12 0 18 7 18 22v299c0 15 -6 23 -18 23c-11 0 -17 -8 -17 -23z
" />
    <glyph glyph-name="P.smcp" horiz-adv-x="320" 
d="M145 0h-120v520h137c79 0 138 -45 138 -118v-110c0 -72 -59 -117 -138 -117h-17v-175zM145 425v-155h17c12 0 18 7 18 22v110c0 15 -6 23 -18 23h-17z" />
    <glyph glyph-name="R.smcp" horiz-adv-x="320" 
d="M316 0h-121l-34 190h-16v-190h-120v520h137c79 0 138 -45 138 -118v-95c0 -37 -14 -66 -43 -88zM145 425v-140h17c12 0 18 7 18 22v95c0 15 -6 23 -18 23h-17z" />
    <glyph glyph-name="S.smcp" 
d="M20 110v65h120v-65c0 -15 6 -22 17 -22c12 0 18 7 18 22v83c0 9 -38 24 -78 40c-39 16 -77 55 -77 100v76c0 73 58 118 137 118s138 -45 138 -118v-64h-120v64c0 15 -6 23 -18 23c-11 0 -17 -8 -17 -23v-76c0 -9 38 -25 77 -41c40 -16 78 -54 78 -99v-83
c0 -72 -59 -117 -138 -117s-137 44 -137 117z" />
    <glyph glyph-name="O.smcp" 
d="M295 409v-299c0 -72 -59 -117 -138 -117s-137 44 -137 117v299c0 73 58 118 137 118s138 -45 138 -118zM140 409v-299c0 -15 6 -22 17 -22c12 0 18 7 18 22v299c0 15 -6 23 -18 23c-11 0 -17 -8 -17 -23z" />
    <glyph glyph-name="Eng.smcp" horiz-adv-x="329" 
d="M189 -114v197l-47 127h-2v-210h-115v520h83l78 -210h3v210h115v-634c0 -73 -56 -118 -132 -118c-79 0 -138 45 -138 118v64h120v-64c0 -15 6 -23 18 -23c11 0 17 8 17 23z" />
    <glyph glyph-name="nine.fitted" 
d="M157 88c12 0 18 8 18 23v186c-26 -26 -53 -39 -82 -39c-41 0 -73 30 -73 78v229c0 72 59 117 138 117s137 -44 137 -117v-454c0 -73 -59 -118 -138 -118s-137 45 -137 118v79h120v-79c0 -15 6 -23 17 -23zM175 381v184c0 15 -6 22 -17 22c-12 0 -18 -7 -18 -22v-194
c0 -12 4 -18 13 -18c15 0 22 9 22 28z" />
    <glyph glyph-name="eight.fitted" 
d="M295 564v-119c0 -44 -19 -77 -57 -98c38 -23 57 -55 57 -98v-139c0 -72 -59 -117 -138 -117s-137 44 -137 117v139c0 43 19 76 56 98c-37 21 -56 53 -56 98v119c0 73 58 118 137 118s138 -45 138 -118zM140 564v-149c0 -15 6 -22 17 -22c12 0 18 7 18 22v149
c0 15 -6 23 -18 23c-11 0 -17 -8 -17 -23zM140 275v-165c0 -15 6 -22 17 -22c12 0 18 7 18 22v165c0 15 -6 23 -18 23c-11 0 -17 -8 -17 -23z" />
    <glyph glyph-name="seven.fitted" 
d="M171 580h-156v95h285v-50l-138 -625h-122z" />
    <glyph glyph-name="six.fitted" 
d="M158 587c-12 0 -18 -8 -18 -23v-186c26 26 53 39 82 39c41 0 73 -30 73 -78v-229c0 -72 -59 -117 -138 -117s-137 44 -137 117v454c0 73 59 118 138 118s137 -45 137 -118v-79h-120v79c0 15 -6 23 -17 23zM140 294v-184c0 -15 6 -22 17 -22c12 0 18 7 18 22v194
c0 12 -4 18 -13 18c-15 0 -22 -9 -22 -28z" />
    <glyph glyph-name="five.fitted" 
d="M140 319h-120v356h270v-95h-150v-177c26 26 53 39 82 39c41 0 73 -30 73 -78v-254c0 -72 -59 -117 -138 -117s-137 44 -137 117v80h120v-80c0 -15 6 -22 17 -22c12 0 18 7 18 22v219c0 12 -4 18 -13 18c-15 0 -22 -9 -22 -28z" />
    <glyph glyph-name="four.fitted" 
d="M171 125h-161v95l94 455h182v-455h19v-95h-19v-125h-115v125zM169 555l-52 -335h54v335h-2z" />
    <glyph glyph-name="three.fitted" 
d="M176 111v167c0 15 -6 22 -18 22h-59v95h54c12 0 18 7 18 22v147c0 15 -6 23 -18 23s-18 -7 -18 -22v-80h-120v80c0 72 59 117 138 117s138 -45 138 -118v-117c0 -45 -19 -77 -58 -98c42 -21 63 -54 63 -101v-137c0 -73 -59 -118 -138 -118s-138 45 -138 118v79h120v-79
c0 -15 6 -23 18 -23s18 8 18 23z" />
    <glyph glyph-name="zero.taboldstyle" 
d="M295 389v-279c0 -72 -59 -117 -138 -117s-137 44 -137 117v279c0 73 58 118 137 118s138 -45 138 -118zM140 389v-279c0 -15 6 -22 17 -22c12 0 18 7 18 22v279c0 15 -6 23 -18 23c-11 0 -17 -8 -17 -23z" />
    <glyph glyph-name="one.taboldstyle" 
d="M295 0h-275v95h78v295l-80 -50v110l80 50h120v-405h77v-95z" />
    <glyph glyph-name="T.smcp" horiz-adv-x="300" 
d="M90 425h-80v95h280v-95h-80v-425h-120v425z" />
    <glyph glyph-name="Tbar.smcp" horiz-adv-x="300" 
d="M90 230h-80v95h80v100h-80v95h280v-95h-80v-100h80v-95h-80v-230h-120v230z" />
    <glyph glyph-name="two.taboldstyle" 
d="M293 0h-272v107c0 130 152 130 152 200v82c0 15 -6 23 -18 23s-18 -7 -18 -22v-65h-120v65c0 72 59 117 138 117s138 -45 138 -118v-82c0 -132 -152 -131 -152 -200v-12h152v-95z" />
    <glyph glyph-name="three.taboldstyle" 
d="M178 -64v167c0 15 -6 22 -18 22h-59v95h54c12 0 18 7 18 22v147c0 15 -6 23 -18 23s-18 -7 -18 -22v-65h-120v65c0 72 59 117 138 117s138 -45 138 -118v-117c0 -45 -19 -77 -58 -98c42 -21 63 -55 63 -101v-137c0 -73 -59 -118 -138 -118s-138 45 -138 118v64h120v-64
c0 -15 6 -23 18 -23s18 8 18 23z" />
    <glyph glyph-name="four.taboldstyle" 
d="M171 0h-161v95l94 405h182v-405h19v-95h-19v-150h-115v150zM169 380l-52 -285h54v285h-2z" />
    <glyph glyph-name="five.taboldstyle" 
d="M140 144h-120v356h270v-95h-150v-177c26 26 53 39 82 39c41 0 73 -30 73 -78v-254c0 -72 -59 -117 -138 -117s-137 44 -137 117v65h120v-65c0 -15 6 -22 17 -22c12 0 18 7 18 22v219c0 12 -4 18 -13 18c-15 0 -22 -9 -22 -28z" />
    <glyph glyph-name="six.taboldstyle" 
d="M158 587c-12 0 -18 -8 -18 -23v-186c26 26 53 39 82 39c41 0 73 -30 73 -78v-229c0 -72 -59 -117 -138 -117s-137 44 -137 117v454c0 73 59 118 138 118s137 -45 137 -118v-64h-120v64c0 15 -6 23 -17 23zM140 294v-184c0 -15 6 -22 17 -22c12 0 18 7 18 22v194
c0 12 -4 18 -13 18c-15 0 -22 -9 -22 -28z" />
    <glyph glyph-name="seven.taboldstyle" 
d="M171 405h-156v95h285v-50l-133 -600h-122z" />
    <glyph glyph-name="I.smcp" horiz-adv-x="170" 
d="M145 0h-120v520h120v-520z" />
    <glyph glyph-name="Aacute.smcp" 
d="M269 672l-156 -136l-67 67l156 136zM79 520h155l78 -520h-123l-9 115h-48l-8 -115h-123zM158 424h-2l-17 -214h34z" />
    <glyph glyph-name="Abreve.smcp" 
d="M44 650h79c0 -25 15 -41 34 -41c21 0 36 14 36 41h78c0 -65 -49 -107 -114 -107s-113 42 -113 107zM79 520h155l78 -520h-123l-9 115h-48l-8 -115h-123zM158 424h-2l-17 -214h34z" />
    <glyph glyph-name="Acircumflex.smcp" 
d="M79 520h155l78 -520h-123l-9 115h-48l-8 -115h-123zM158 424h-2l-17 -214h34zM157 620l-89 -79l-67 67l156 131l156 -131l-67 -67z" />
    <glyph glyph-name="Agrave.smcp" 
d="M269 603l-67 -67l-156 136l67 67zM79 520h155l78 -520h-123l-9 115h-48l-8 -115h-123zM158 424h-2l-17 -214h34z" />
    <glyph glyph-name="Adieresis.smcp" 
d="M79 520h155l78 -520h-123l-9 115h-48l-8 -115h-123zM158 424h-2l-17 -214h34zM130 575h-100v125h100v-125zM285 575h-100v125h100v-125z" />
    <glyph glyph-name="Amacron.smcp" 
d="M79 520h155l78 -520h-123l-9 115h-48l-8 -115h-123zM158 424h-2l-17 -214h34zM267 580h-220v95h220v-95z" />
    <glyph glyph-name="Aogonek.smcp" 
d="M189 -18v18l-9 115h-48l-8 -115h-123l78 520h155l78 -520h-44v-18c0 -29 16 -51 41 -51v-63c-73 0 -120 49 -120 114zM158 424h-2l-17 -214h34z" />
    <glyph glyph-name="Aring.smcp" 
d="M87 701c37 36 103 36 140 0c19 -17 28 -41 28 -71s-9 -54 -28 -71c-37 -35 -103 -35 -140 0c-18 17 -27 41 -27 71s9 54 27 71zM130 630c0 -21 12 -35 27 -35c16 0 28 14 28 35c0 23 -12 36 -28 36c-15 0 -27 -13 -27 -36zM79 520h155l78 -520h-123l-9 115h-48l-8 -115
h-123zM158 424h-2l-17 -214h34z" />
    <glyph glyph-name="Atilde.smcp" 
d="M91 548h-69c0 63 38 102 90 102c17 0 34 -6 50 -18s27 -18 34 -18c15 0 27 11 27 31h69c0 -63 -38 -102 -90 -102c-18 0 -35 6 -50 18s-27 18 -34 18c-15 0 -27 -11 -27 -31zM79 520h155l78 -520h-123l-9 115h-48l-8 -115h-123zM158 424h-2l-17 -214h34z" />
    <glyph glyph-name="AEacute.smcp" horiz-adv-x="403" 
d="M383 0h-225v115h-26l-8 -115h-123l78 520h304v-95h-105v-110h85v-95h-85v-125h105v-95zM158 424h-2l-17 -214h19v214zM326 672l-156 -136l-67 67l156 136z" />
    <glyph glyph-name="Cacute.smcp" 
d="M140 409v-299c0 -15 6 -22 17 -22c12 0 18 7 18 22v65h120v-65c0 -72 -59 -117 -138 -117s-137 44 -137 117v299c0 73 58 118 137 118s138 -45 138 -118v-64h-120v64c0 15 -6 23 -18 23c-11 0 -17 -8 -17 -23zM269 672l-156 -136l-67 67l156 136z" />
    <glyph glyph-name="Ccaron.smcp" 
d="M140 409v-299c0 -15 6 -22 17 -22c12 0 18 7 18 22v65h120v-65c0 -72 -59 -117 -138 -117s-137 44 -137 117v299c0 73 58 118 137 118s138 -45 138 -118v-64h-120v64c0 15 -6 23 -18 23c-11 0 -17 -8 -17 -23zM314 672l-156 -131l-156 131l67 67l89 -79l89 79z" />
    <glyph glyph-name="Ccedilla.smcp" 
d="M200 -150h-85v148c-57 12 -95 52 -95 112v299c0 73 58 118 137 118s138 -45 138 -118v-64h-120v64c0 15 -6 23 -18 23c-11 0 -17 -8 -17 -23v-299c0 -15 6 -22 17 -22c12 0 18 7 18 22v65h120v-65c0 -59 -38 -99 -95 -112v-148z" />
    <glyph glyph-name="Ccircumflex.smcp" 
d="M140 409v-299c0 -15 6 -22 17 -22c12 0 18 7 18 22v65h120v-65c0 -72 -59 -117 -138 -117s-137 44 -137 117v299c0 73 58 118 137 118s138 -45 138 -118v-64h-120v64c0 15 -6 23 -18 23c-11 0 -17 -8 -17 -23zM157 620l-89 -79l-67 67l156 131l156 -131l-67 -67z" />
    <glyph glyph-name="Cdotaccent.smcp" 
d="M140 409v-299c0 -15 6 -22 17 -22c12 0 18 7 18 22v65h120v-65c0 -72 -59 -117 -138 -117s-137 44 -137 117v299c0 73 58 118 137 118s138 -45 138 -118v-64h-120v64c0 15 -6 23 -18 23c-11 0 -17 -8 -17 -23zM218 575h-120v125h120v-125z" />
    <glyph glyph-name="Dcaron.smcp" horiz-adv-x="320" 
d="M162 0h-137v520h137c79 0 138 -45 138 -118v-285c0 -72 -59 -117 -138 -117zM145 425v-330h17c12 0 18 7 18 22v285c0 15 -6 23 -18 23h-17zM318 672l-156 -131l-156 131l67 67l89 -79l89 79z" />
    <glyph glyph-name="Eacute.smcp" horiz-adv-x="295" 
d="M275 0h-250v520h250v-95h-130v-110h110v-95h-110v-125h130v-95zM262 672l-156 -136l-67 67l156 136z" />
    <glyph glyph-name="Ebreve.smcp" horiz-adv-x="295" 
d="M37 650h79c0 -25 15 -41 34 -41c21 0 36 14 36 41h78c0 -65 -49 -107 -114 -107s-113 42 -113 107zM275 0h-250v520h250v-95h-130v-110h110v-95h-110v-125h130v-95z" />
    <glyph glyph-name="Ecaron.smcp" horiz-adv-x="295" 
d="M275 0h-250v520h250v-95h-130v-110h110v-95h-110v-125h130v-95zM306 672l-156 -131l-156 131l67 67l89 -79l89 79z" />
    <glyph glyph-name="Ecircumflex.smcp" horiz-adv-x="295" 
d="M275 0h-250v520h250v-95h-130v-110h110v-95h-110v-125h130v-95zM150 620l-89 -79l-67 67l156 131l156 -131l-67 -67z" />
    <glyph glyph-name="Edieresis.smcp" horiz-adv-x="295" 
d="M275 0h-250v520h250v-95h-130v-110h110v-95h-110v-125h130v-95zM123 575h-100v125h100v-125zM278 575h-100v125h100v-125z" />
    <glyph glyph-name="Edotaccent.smcp" horiz-adv-x="295" 
d="M275 0h-250v520h250v-95h-130v-110h110v-95h-110v-125h130v-95zM210 575h-120v125h120v-125z" />
    <glyph glyph-name="Egrave.smcp" horiz-adv-x="295" 
d="M262 603l-67 -67l-156 136l67 67zM275 0h-250v520h250v-95h-130v-110h110v-95h-110v-125h130v-95z" />
    <glyph glyph-name="Emacron.smcp" horiz-adv-x="295" 
d="M275 0h-250v520h250v-95h-130v-110h110v-95h-110v-125h130v-95zM260 580h-220v95h220v-95z" />
    <glyph glyph-name="Eogonek.smcp" horiz-adv-x="295" 
d="M155 0h-130v520h250v-95h-130v-110h110v-95h-110v-125h130v-95h-41v-18c0 -29 16 -51 41 -51v-63c-73 0 -120 49 -120 114v18z" />
    <glyph glyph-name="Gbreve.smcp" 
d="M175 215h-15v95h135v-200c0 -72 -59 -117 -138 -117s-137 44 -137 117v299c0 73 58 118 137 118s138 -45 138 -118v-64h-120v64c0 15 -6 23 -18 23c-11 0 -17 -8 -17 -23v-299c0 -15 6 -22 17 -22c12 0 18 7 18 22v105zM44 650h79c0 -25 15 -41 34 -41c21 0 36 14 36 41
h78c0 -65 -49 -107 -114 -107s-113 42 -113 107z" />
    <glyph glyph-name="Gcircumflex.smcp" 
d="M175 215h-15v95h135v-200c0 -72 -59 -117 -138 -117s-137 44 -137 117v299c0 73 58 118 137 118s138 -45 138 -118v-64h-120v64c0 15 -6 23 -18 23c-11 0 -17 -8 -17 -23v-299c0 -15 6 -22 17 -22c12 0 18 7 18 22v105zM157 620l-89 -79l-67 67l156 131l156 -131l-67 -67
z" />
    <glyph glyph-name="seven.fitted.smcp" 
d="M171 425h-156v95h285v-50l-138 -470h-117z" />
    <glyph glyph-name="eight.fitted.smcp" 
d="M295 409v-44c0 -44 -19 -77 -57 -98c38 -23 57 -55 57 -98v-59c0 -72 -59 -117 -138 -117s-137 44 -137 117v59c0 43 19 76 56 98c-37 21 -56 53 -56 98v44c0 73 58 118 137 118s138 -45 138 -118zM140 409v-74c0 -15 6 -22 17 -22c12 0 18 7 18 22v74c0 15 -6 23 -18 23
c-11 0 -17 -8 -17 -23zM140 195v-85c0 -15 6 -22 17 -22c12 0 18 7 18 22v85c0 15 -6 23 -18 23c-11 0 -17 -8 -17 -23z" />
    <glyph glyph-name="nine.fitted.smcp" 
d="M157 88c12 0 18 8 18 23v126c-26 -26 -53 -39 -82 -39c-41 0 -73 30 -73 78v134c0 72 59 117 138 117s137 -44 137 -117v-299c0 -73 -59 -118 -138 -118s-137 45 -137 118v64h120v-64c0 -15 6 -23 17 -23zM175 321v89c0 15 -6 22 -17 22c-12 0 -18 -7 -18 -22v-99
c0 -12 4 -18 13 -18c15 0 22 9 22 28z" />
    <glyph glyph-name="two.fitted" 
d="M295 0h-275v157c0 129 155 181 155 250v157c0 15 -6 23 -18 23s-18 -7 -18 -22v-80h-119v80c0 73 58 117 137 117s138 -45 138 -118v-157c0 -60 -39 -117 -78 -149c-39 -31 -78 -70 -78 -101v-62h156v-95z" />
    <glyph glyph-name="one.fitted" 
d="M295 0h-275v95h78v470l-80 -50v110l80 50h120v-580h77v-95z" />
    <glyph glyph-name="zero.fitted" 
d="M295 564v-454c0 -72 -59 -117 -138 -117s-137 44 -137 117v454c0 73 58 118 137 118s138 -45 138 -118zM140 564v-454c0 -15 6 -22 17 -22c12 0 18 7 18 22v454c0 15 -6 23 -18 23c-11 0 -17 -8 -17 -23z" />
    <glyph glyph-name="uni018F.smcp" 
d="M20 110v200h155v99c0 15 -6 23 -17 23c-12 0 -18 -8 -18 -23v-64h-120v64c0 73 59 118 138 118s137 -45 137 -118v-299c0 -73 -58 -117 -137 -117s-138 45 -138 117zM158 88c11 0 17 7 17 22v105h-35v-105c0 -15 6 -22 18 -22z" />
    <glyph glyph-name="Z.smcp" horiz-adv-x="310" 
d="M290 0h-270v50l135 375h-135v95h270v-50l-131 -375h131v-95z" />
    <glyph glyph-name="Y.smcp" 
d="M217 0h-120v151l-95 369h120l34 -207h2l35 207h120l-96 -369v-151z" />
    <glyph glyph-name="X.smcp" 
d="M125 0h-123l75 270l-71 250h123l27 -195h2l28 195h123l-71 -250l75 -270h-123l-32 220h-2z" />
    <glyph glyph-name="W.smcp" horiz-adv-x="524" 
d="M232 0h-155l-75 520h123l28 -424h2l32 424h150l31 -424h2l29 424h123l-75 -520h-155l-29 411h-2z" />
    <glyph glyph-name="V.smcp" 
d="M235 0h-155l-78 520h123l31 -424h2l32 424h123z" />
    <glyph glyph-name="one.fitted.smcp" 
d="M295 0h-275v95h78v315l-80 -50v110l80 50h120v-425h77v-95z" />
    <glyph glyph-name="Kcommaaccent.smcp" horiz-adv-x="320" 
d="M145 0h-120v520h120v-204h5l41 204h123l-79 -250l83 -270h-123l-45 226h-5v-226zM216 -30v-95c0 -29 -11 -64 -33 -105h-80c12 41 18 76 18 105v95h95z" />
    <glyph glyph-name="Lacute.smcp" horiz-adv-x="280" 
d="M267 672l-156 -136l-67 67l156 136zM270 0h-245v520h120v-425h125v-95z" />
    <glyph glyph-name="Lcaron.smcp" horiz-adv-x="280" 
d="M270 0h-245v520h120v-425h125v-95zM311 672l-156 -131l-156 131l67 67l89 -79l89 79z" />
    <glyph glyph-name="Lcommaaccent.smcp" horiz-adv-x="280" 
d="M270 0h-245v520h120v-425h125v-95zM202 -30v-95c0 -29 -11 -64 -33 -105h-80c12 41 18 76 18 105v95h95z" />
    <glyph glyph-name="Ldot.smcp" horiz-adv-x="280" 
d="M270 0h-245v520h120v-425h125v-95zM272 224h-93v101h93v-101z" />
    <glyph glyph-name="Nacute.smcp" horiz-adv-x="329" 
d="M140 0h-115v520h83l78 -210h3v210h115v-520h-83l-79 210h-2v-210zM276 672l-156 -136l-67 67l156 136z" />
    <glyph glyph-name="Ncaron.smcp" horiz-adv-x="329" 
d="M140 0h-115v520h83l78 -210h3v210h115v-520h-83l-79 210h-2v-210zM320 672l-156 -131l-156 131l67 67l89 -79l89 79z" />
    <glyph glyph-name="Ncommaaccent.smcp" horiz-adv-x="329" 
d="M140 0h-115v520h83l78 -210h3v210h115v-520h-83l-79 210h-2v-210zM215 -30v-95c0 -29 -11 -64 -33 -105h-80c12 41 18 76 18 105v95h95z" />
    <glyph glyph-name="Ntilde.smcp" horiz-adv-x="329" 
d="M98 548h-69c0 63 38 102 90 102c17 0 34 -6 50 -18s27 -18 34 -18c15 0 27 11 27 31h69c0 -63 -38 -102 -90 -102c-18 0 -35 6 -50 18s-27 18 -34 18c-15 0 -27 -11 -27 -31zM140 0h-115v520h83l78 -210h3v210h115v-520h-83l-79 210h-2v-210z" />
    <glyph glyph-name="Oacute.smcp" 
d="M295 409v-299c0 -72 -59 -117 -138 -117s-137 44 -137 117v299c0 73 58 118 137 118s138 -45 138 -118zM140 409v-299c0 -15 6 -22 17 -22c12 0 18 7 18 22v299c0 15 -6 23 -18 23c-11 0 -17 -8 -17 -23zM269 672l-156 -136l-67 67l156 136z" />
    <glyph glyph-name="Obreve.smcp" 
d="M295 409v-299c0 -72 -59 -117 -138 -117s-137 44 -137 117v299c0 73 58 118 137 118s138 -45 138 -118zM140 409v-299c0 -15 6 -22 17 -22c12 0 18 7 18 22v299c0 15 -6 23 -18 23c-11 0 -17 -8 -17 -23zM44 650h79c0 -25 15 -41 34 -41c21 0 36 14 36 41h78
c0 -65 -49 -107 -114 -107s-113 42 -113 107z" />
    <glyph glyph-name="Ocircumflex.smcp" 
d="M295 409v-299c0 -72 -59 -117 -138 -117s-137 44 -137 117v299c0 73 58 118 137 118s138 -45 138 -118zM140 409v-299c0 -15 6 -22 17 -22c12 0 18 7 18 22v299c0 15 -6 23 -18 23c-11 0 -17 -8 -17 -23zM157 620l-89 -79l-67 67l156 131l156 -131l-67 -67z" />
    <glyph glyph-name="Odieresis.smcp" 
d="M295 409v-299c0 -72 -59 -117 -138 -117s-137 44 -137 117v299c0 73 58 118 137 118s138 -45 138 -118zM140 409v-299c0 -15 6 -22 17 -22c12 0 18 7 18 22v299c0 15 -6 23 -18 23c-11 0 -17 -8 -17 -23zM130 575h-100v125h100v-125zM285 575h-100v125h100v-125z" />
    <glyph glyph-name="Ograve.smcp" 
d="M295 409v-299c0 -72 -59 -117 -138 -117s-137 44 -137 117v299c0 73 58 118 137 118s138 -45 138 -118zM140 409v-299c0 -15 6 -22 17 -22c12 0 18 7 18 22v299c0 15 -6 23 -18 23c-11 0 -17 -8 -17 -23zM269 603l-67 -67l-156 136l67 67z" />
    <glyph glyph-name="Ohungarumlaut.smcp" 
d="M179 672l-136 -136l-67 67l136 136zM339 672l-136 -136l-67 67l136 136zM295 409v-299c0 -72 -59 -117 -138 -117s-137 44 -137 117v299c0 73 58 118 137 118s138 -45 138 -118zM140 409v-299c0 -15 6 -22 17 -22c12 0 18 7 18 22v299c0 15 -6 23 -18 23
c-11 0 -17 -8 -17 -23z" />
    <glyph glyph-name="Omacron.smcp" 
d="M295 409v-299c0 -72 -59 -117 -138 -117s-137 44 -137 117v299c0 73 58 118 137 118s138 -45 138 -118zM140 409v-299c0 -15 6 -22 17 -22c12 0 18 7 18 22v299c0 15 -6 23 -18 23c-11 0 -17 -8 -17 -23zM267 580h-220v95h220v-95z" />
    <glyph glyph-name="Otilde.smcp" 
d="M295 409v-299c0 -72 -59 -117 -138 -117s-137 44 -137 117v299c0 73 58 118 137 118s138 -45 138 -118zM140 409v-299c0 -15 6 -22 17 -22c12 0 18 7 18 22v299c0 15 -6 23 -18 23c-11 0 -17 -8 -17 -23zM91 548h-69c0 63 38 102 90 102c17 0 34 -6 50 -18s27 -18 34 -18
c15 0 27 11 27 31h69c0 -63 -38 -102 -90 -102c-18 0 -35 6 -50 18s-27 18 -34 18c-15 0 -27 -11 -27 -31z" />
    <glyph glyph-name="Racute.smcp" horiz-adv-x="320" 
d="M316 0h-121l-34 190h-16v-190h-120v520h137c79 0 138 -45 138 -118v-95c0 -37 -14 -66 -43 -88zM145 425v-140h17c12 0 18 7 18 22v95c0 15 -6 23 -18 23h-17zM273 672l-156 -136l-67 67l156 136z" />
    <glyph glyph-name="Rcaron.smcp" horiz-adv-x="320" 
d="M316 0h-121l-34 190h-16v-190h-120v520h137c79 0 138 -45 138 -118v-95c0 -37 -14 -66 -43 -88zM145 425v-140h17c12 0 18 7 18 22v95c0 15 -6 23 -18 23h-17zM318 672l-156 -131l-156 131l67 67l89 -79l89 79z" />
    <glyph glyph-name="Rcommaaccent.smcp" horiz-adv-x="320" 
d="M316 0h-121l-34 190h-16v-190h-120v520h137c79 0 138 -45 138 -118v-95c0 -37 -14 -66 -43 -88zM145 425v-140h17c12 0 18 7 18 22v95c0 15 -6 23 -18 23h-17zM207 -30v-95c0 -29 -11 -64 -33 -105h-80c12 41 18 76 18 105v95h95z" />
    <glyph glyph-name="Sacute.smcp" 
d="M20 110v65h120v-65c0 -15 6 -22 17 -22c12 0 18 7 18 22v83c0 9 -38 24 -78 40c-39 16 -77 55 -77 100v76c0 73 58 118 137 118s138 -45 138 -118v-64h-120v64c0 15 -6 23 -18 23c-11 0 -17 -8 -17 -23v-76c0 -9 38 -25 77 -41c40 -16 78 -54 78 -99v-83
c0 -72 -59 -117 -138 -117s-137 44 -137 117zM269 672l-156 -136l-67 67l156 136z" />
    <glyph glyph-name="Scaron.smcp" 
d="M20 110v65h120v-65c0 -15 6 -22 17 -22c12 0 18 7 18 22v83c0 9 -38 24 -78 40c-39 16 -77 55 -77 100v76c0 73 58 118 137 118s138 -45 138 -118v-64h-120v64c0 15 -6 23 -18 23c-11 0 -17 -8 -17 -23v-76c0 -9 38 -25 77 -41c40 -16 78 -54 78 -99v-83
c0 -72 -59 -117 -138 -117s-137 44 -137 117zM313 672l-156 -131l-156 131l67 67l89 -79l89 79z" />
    <glyph glyph-name="Scedilla.smcp" 
d="M200 -150h-85v148c-57 12 -95 52 -95 112v65h120v-65c0 -15 6 -22 17 -22c12 0 18 7 18 22v83c0 9 -38 24 -78 40c-39 16 -77 55 -77 100v76c0 73 58 118 137 118s138 -45 138 -118v-64h-120v64c0 15 -6 23 -18 23c-11 0 -17 -8 -17 -23v-76c0 -9 38 -25 77 -41
c40 -16 78 -54 78 -99v-83c0 -59 -38 -99 -95 -112v-148z" />
    <glyph glyph-name="Scircumflex.smcp" 
d="M20 110v65h120v-65c0 -15 6 -22 17 -22c12 0 18 7 18 22v83c0 9 -38 24 -78 40c-39 16 -77 55 -77 100v76c0 73 58 118 137 118s138 -45 138 -118v-64h-120v64c0 15 -6 23 -18 23c-11 0 -17 -8 -17 -23v-76c0 -9 38 -25 77 -41c40 -16 78 -54 78 -99v-83
c0 -72 -59 -117 -138 -117s-137 44 -137 117zM157 620l-89 -79l-67 67l156 131l156 -131l-67 -67z" />
    <glyph glyph-name="Scommaaccent.smcp" 
d="M20 110v65h120v-65c0 -15 6 -22 17 -22c12 0 18 7 18 22v83c0 9 -38 24 -78 40c-39 16 -77 55 -77 100v76c0 73 58 118 137 118s138 -45 138 -118v-64h-120v64c0 15 -6 23 -18 23c-11 0 -17 -8 -17 -23v-76c0 -9 38 -25 77 -41c40 -16 78 -54 78 -99v-83
c0 -72 -59 -117 -138 -117s-137 44 -137 117zM202 -30v-95c0 -29 -11 -64 -33 -105h-80c12 41 18 76 18 105v95h95z" />
    <glyph glyph-name="Tcaron.smcp" horiz-adv-x="300" 
d="M90 425h-80v95h280v-95h-80v-425h-120v425zM305 672l-156 -131l-156 131l67 67l89 -79l89 79z" />
    <glyph glyph-name="Tcommaaccent.smcp" horiz-adv-x="300" 
d="M90 425h-80v95h280v-95h-80v-425h-120v425zM198 -30v-95c0 -29 -11 -64 -33 -105h-80c12 41 18 76 18 105v95h95z" />
    <glyph glyph-name="uni021A.smcp" horiz-adv-x="300" 
d="M90 425h-80v95h280v-95h-80v-425h-120v425zM199 -30v-95c0 -29 -11 -64 -33 -105h-80c12 41 18 76 18 105v95h95z" />
    <glyph glyph-name="Uacute.smcp" 
d="M20 110v410h120v-410c0 -15 6 -22 17 -22c12 0 18 7 18 22v410h120v-410c0 -72 -59 -117 -138 -117s-137 44 -137 117zM269 672l-156 -136l-67 67l156 136z" />
    <glyph glyph-name="Ubreve.smcp" 
d="M20 110v410h120v-410c0 -15 6 -22 17 -22c12 0 18 7 18 22v410h120v-410c0 -72 -59 -117 -138 -117s-137 44 -137 117zM44 650h79c0 -25 15 -41 34 -41c21 0 36 14 36 41h78c0 -65 -49 -107 -114 -107s-113 42 -113 107z" />
    <glyph glyph-name="Ucircumflex.smcp" 
d="M20 110v410h120v-410c0 -15 6 -22 17 -22c12 0 18 7 18 22v410h120v-410c0 -72 -59 -117 -138 -117s-137 44 -137 117zM157 620l-89 -79l-67 67l156 131l156 -131l-67 -67z" />
    <glyph glyph-name="Udieresis.smcp" 
d="M20 110v410h120v-410c0 -15 6 -22 17 -22c12 0 18 7 18 22v410h120v-410c0 -72 -59 -117 -138 -117s-137 44 -137 117zM131 575h-100v125h100v-125zM286 575h-100v125h100v-125z" />
    <glyph glyph-name="Ugrave.smcp" 
d="M20 110v410h120v-410c0 -15 6 -22 17 -22c12 0 18 7 18 22v410h120v-410c0 -72 -59 -117 -138 -117s-137 44 -137 117zM269 603l-67 -67l-156 136l67 67z" />
    <glyph glyph-name="Uhungarumlaut.smcp" 
d="M179 672l-136 -136l-67 67l136 136zM339 672l-136 -136l-67 67l136 136zM20 110v410h120v-410c0 -15 6 -22 17 -22c12 0 18 7 18 22v410h120v-410c0 -72 -59 -117 -138 -117s-137 44 -137 117z" />
    <glyph glyph-name="Umacron.smcp" 
d="M20 110v410h120v-410c0 -15 6 -22 17 -22c12 0 18 7 18 22v410h120v-410c0 -72 -59 -117 -138 -117s-137 44 -137 117zM267 580h-220v95h220v-95z" />
    <glyph glyph-name="Uogonek.smcp" 
d="M128 -18v14c-64 9 -108 51 -108 114v410h120v-410c0 -15 6 -22 17 -22c12 0 18 7 18 22v410h120v-410c0 -56 -35 -95 -88 -110v-18c0 -29 16 -51 41 -51v-63c-73 0 -120 49 -120 114z" />
    <glyph glyph-name="Uring.smcp" 
d="M87 701c37 36 103 36 140 0c19 -17 28 -41 28 -71s-9 -54 -28 -71c-37 -35 -103 -35 -140 0c-18 17 -27 41 -27 71s9 54 27 71zM130 630c0 -21 12 -35 27 -35c16 0 28 14 28 35c0 23 -12 36 -28 36c-15 0 -27 -13 -27 -36zM20 110v410h120v-410c0 -15 6 -22 17 -22
c12 0 18 7 18 22v410h120v-410c0 -72 -59 -117 -138 -117s-137 44 -137 117z" />
    <glyph glyph-name="Utilde.smcp" 
d="M91 548h-69c0 63 38 102 90 102c17 0 34 -6 50 -18s27 -18 34 -18c15 0 27 11 27 31h69c0 -63 -38 -102 -90 -102c-18 0 -35 6 -50 18s-27 18 -34 18c-15 0 -27 -11 -27 -31zM20 110v410h120v-410c0 -15 6 -22 17 -22c12 0 18 7 18 22v410h120v-410
c0 -72 -59 -117 -138 -117s-137 44 -137 117z" />
    <glyph glyph-name="Wacute.smcp" horiz-adv-x="524" 
d="M232 0h-155l-75 520h123l28 -424h2l32 424h150l31 -424h2l29 424h123l-75 -520h-155l-29 411h-2zM374 672l-156 -136l-67 67l156 136z" />
    <glyph glyph-name="Wcircumflex.smcp" horiz-adv-x="524" 
d="M232 0h-155l-75 520h123l28 -424h2l32 424h150l31 -424h2l29 424h123l-75 -520h-155l-29 411h-2zM262 620l-89 -79l-67 67l156 131l156 -131l-67 -67z" />
    <glyph glyph-name="Wdieresis.smcp" horiz-adv-x="524" 
d="M232 0h-155l-75 520h123l28 -424h2l32 424h150l31 -424h2l29 424h123l-75 -520h-155l-29 411h-2zM235 575h-100v125h100v-125zM390 575h-100v125h100v-125z" />
    <glyph glyph-name="Wgrave.smcp" horiz-adv-x="524" 
d="M232 0h-155l-75 520h123l28 -424h2l32 424h150l31 -424h2l29 424h123l-75 -520h-155l-29 411h-2zM374 603l-67 -67l-156 136l67 67z" />
    <glyph glyph-name="Yacute.smcp" 
d="M269 672l-156 -136l-67 67l156 136zM217 0h-120v151l-95 369h120l34 -207h2l35 207h120l-96 -369v-151z" />
    <glyph glyph-name="Ycircumflex.smcp" 
d="M217 0h-120v151l-95 369h120l34 -207h2l35 207h120l-96 -369v-151zM157 620l-89 -79l-67 67l156 131l156 -131l-67 -67z" />
    <glyph glyph-name="Ydieresis.smcp" 
d="M130 575h-100v125h100v-125zM285 575h-100v125h100v-125zM217 0h-120v151l-95 369h120l34 -207h2l35 207h120l-96 -369v-151z" />
    <glyph glyph-name="Ygrave.smcp" 
d="M269 603l-67 -67l-156 136l67 67zM217 0h-120v151l-95 369h120l34 -207h2l35 207h120l-96 -369v-151z" />
    <glyph glyph-name="Zacute.smcp" horiz-adv-x="310" 
d="M290 0h-270v50l135 375h-135v95h270v-50l-131 -375h131v-95zM264 672l-156 -136l-67 67l156 136z" />
    <glyph glyph-name="Zcaron.smcp" horiz-adv-x="310" 
d="M290 0h-270v50l135 375h-135v95h270v-50l-131 -375h131v-95zM311 672l-156 -131l-156 131l67 67l89 -79l89 79z" />
    <glyph glyph-name="Zdotaccent.smcp" horiz-adv-x="310" 
d="M290 0h-270v50l135 375h-135v95h270v-50l-131 -375h131v-95zM217 575h-120v125h120v-125z" />
    <glyph glyph-name="exclam.smcp" horiz-adv-x="170" 
d="M145 175h-120v345h120v-345zM145 0h-120v125h120v-125z" />
    <glyph glyph-name="slash.smcp" horiz-adv-x="231" 
d="M135 0h-120l81 520h120z" />
    <glyph glyph-name="backslash.smcp" horiz-adv-x="231" 
d="M216 0h-120l-81 520h120z" />
    <glyph glyph-name="parenleft.smcp" horiz-adv-x="177" 
d="M167 532h-10c-11 0 -17 -8 -17 -23v-499c0 -15 6 -22 17 -22h10v-95h-10c-79 0 -137 44 -137 117v499c0 73 58 118 137 118h10v-95z" />
    <glyph glyph-name="parenright.smcp" horiz-adv-x="177" 
d="M10 -12h10c11 0 17 8 17 23v499c0 15 -6 22 -17 22h-10v95h10c79 0 137 -44 137 -117v-499c0 -73 -58 -118 -137 -118h-10v95z" />
    <glyph glyph-name="bracketleft.smcp" horiz-adv-x="177" 
d="M167 -100h-147v720h147v-95h-27v-530h27v-95z" />
    <glyph glyph-name="bracketright.smcp" horiz-adv-x="177" 
d="M157 -100h-147v95h27v530h-27v95h147v-720z" />
    <glyph glyph-name="braceleft.smcp" horiz-adv-x="199" 
d="M189 -12v-95h-10c-37 0 -70 10 -97 31s-40 48 -40 82v188c0 15 -6 22 -17 22h-10v97h10c11 0 17 8 17 23v173c0 73 58 118 137 118h10v-95h-10c-11 0 -17 -8 -17 -23v-173c0 -28 -8 -52 -24 -72c16 -19 24 -43 24 -70v-188c1 -12 7 -18 17 -18h10z" />
    <glyph glyph-name="braceright.smcp" horiz-adv-x="199" 
d="M25 -107h-10v95h10c11 0 17 8 17 23v173c0 28 8 52 24 72c-16 19 -24 43 -24 70v188c-1 12 -7 18 -17 18h-10v95h10c37 0 69 -10 96 -31s41 -48 41 -82v-188c0 -15 6 -22 17 -22h10v-97h-10c-11 0 -17 -8 -17 -23v-173c0 -73 -58 -118 -137 -118z" />
    <glyph glyph-name="exclamdown.smcp" horiz-adv-x="170" 
d="M145 -100h-120v425h120v-425zM145 395h-120v125h120v-125z" />
    <glyph glyph-name="questiondown.smcp" horiz-adv-x="311" 
d="M93 270v62h120v-62c0 -130 -78 -95 -78 -185v-74c0 -15 6 -23 18 -23s18 7 18 22v60h120v-60c0 -72 -59 -117 -138 -117s-138 45 -138 118v74c0 132 78 95 78 185zM213 402h-120v125h120v-125z" />
    <glyph glyph-name="question.smcp" horiz-adv-x="311" 
d="M213 175h-120v32c0 130 78 80 78 170v32c0 15 -6 23 -18 23s-18 -7 -18 -22v-30h-120v30c0 72 59 117 138 117s138 -45 138 -118v-32c0 -132 -78 -79 -78 -170v-32zM213 0h-120v125h120v-125z" />
    <glyph glyph-name="bar.smcp" horiz-adv-x="170" 
d="M145 -100h-120v720h120v-720z" />
    <glyph glyph-name="brokenbar.smcp" horiz-adv-x="170" 
d="M145 -100h-120v310h120v-310zM145 310h-120v310h120v-310z" />
    <glyph glyph-name="percent.smcp" horiz-adv-x="585" 
d="M250 0h-85l171 520h85zM20 320v99c0 67 46 108 107 108s108 -43 108 -108v-99c0 -65 -47 -107 -108 -107s-107 40 -107 107zM95 419v-99c0 -25 15 -39 32 -39c19 0 33 14 33 39v99c0 25 -14 40 -33 40c-17 0 -32 -15 -32 -40zM350 100v99c0 67 46 108 107 108
s108 -43 108 -108v-99c0 -65 -47 -107 -108 -107s-107 40 -107 107zM425 199v-99c0 -25 15 -39 32 -39c19 0 33 14 33 39v99c0 25 -14 40 -33 40c-17 0 -32 -15 -32 -40z" />
    <glyph glyph-name="perthousand.smcp" horiz-adv-x="835" 
d="M250 0h-85l171 520h85zM20 320v99c0 67 46 108 107 108s108 -43 108 -108v-99c0 -65 -47 -107 -108 -107s-107 40 -107 107zM95 419v-99c0 -25 15 -39 32 -39c19 0 33 14 33 39v99c0 25 -14 40 -33 40c-17 0 -32 -15 -32 -40zM350 100v99c0 67 46 108 107 108
s108 -43 108 -108v-99c0 -65 -47 -107 -108 -107s-107 40 -107 107zM425 199v-99c0 -25 15 -39 32 -39c19 0 33 14 33 39v99c0 25 -14 40 -33 40c-17 0 -32 -15 -32 -40zM600 100v99c0 67 46 108 107 108s108 -43 108 -108v-99c0 -65 -47 -107 -108 -107s-107 40 -107 107z
M675 199v-99c0 -25 15 -39 32 -39c19 0 33 14 33 39v99c0 25 -14 40 -33 40c-17 0 -32 -15 -32 -40z" />
    <glyph glyph-name="dagger.smcp" horiz-adv-x="300" 
d="M90 310h-80v95h80v115h120v-115h80v-95h-80v-310h-120v310z" />
    <glyph glyph-name="daggerdbl.smcp" horiz-adv-x="300" 
d="M210 200h80v-95h-80v-105h-120v105h-80v95h80v120h-80v95h80v105h120v-105h80v-95h-80v-120z" />
    <glyph glyph-name="section.smcp" 
d="M295 150v-80c0 -21 -5 -40 -15 -58c10 -20 15 -42 15 -67v-60c0 -72 -59 -117 -138 -117s-137 44 -137 117v30h120v-30c0 -15 6 -22 17 -22c12 0 18 7 18 22v60c0 59 -155 59 -155 200v79c0 23 5 42 15 58c-10 18 -15 41 -15 68v59c0 73 58 118 137 118s138 -45 138 -118
v-29h-120v29c0 15 -6 23 -18 23c-11 0 -17 -8 -17 -23v-59c0 -60 155 -60 155 -200zM175 100v50c0 14 -12 29 -35 44v-49c0 -15 12 -30 35 -45z" />
    <glyph glyph-name="paragraph.smcp" horiz-adv-x="480" 
d="M158 520h137v-620h-120v275h-17c-79 0 -138 45 -138 117v110c0 73 59 118 138 118zM335 520h120v-620h-120v620z" />
    <glyph glyph-name="afii61352.smcp" horiz-adv-x="574" 
d="M140 0h-115v520h83l78 -205h3v205h115v-520h-83l-79 205h-2v-205zM339 369v50c0 67 46 108 107 108s108 -43 108 -108v-50c0 -65 -47 -107 -108 -107s-107 40 -107 107zM414 419v-50c0 -25 15 -39 32 -39c19 0 33 14 33 39v50c0 25 -14 40 -33 40c-17 0 -32 -15 -32 -40z
" />
    <glyph glyph-name="Euro.smcp" horiz-adv-x="335" 
d="M40 275h-25v85h25v49c0 73 58 118 137 118s138 -45 138 -118v-19h-120v19c0 15 -6 23 -18 23c-11 0 -17 -8 -17 -23v-49h155v-85h-155v-35h155v-85h-155v-45c0 -15 6 -22 17 -22c12 0 18 7 18 22v20h120v-20c0 -72 -59 -117 -138 -117s-137 44 -137 117v45h-25v85h25v35z
" />
    <glyph glyph-name="sterling.smcp" horiz-adv-x="335" 
d="M40 185h-25v95h25v129c0 73 58 118 137 118s138 -45 138 -118v-64h-120v64c0 15 -6 23 -18 23c-11 0 -17 -8 -17 -23v-129h155v-95h-155v-90h155v-95h-300v95h25v90z" />
    <glyph glyph-name="yen.smcp" 
d="M93 165h-73v95h49l-67 260h120l34 -207h2l35 207h120l-68 -260h50v-95h-75l-3 -14v-15h78v-95h-78v-41h-120v41h-77v95h77v15z" />
    <glyph glyph-name="numbersign.smcp" horiz-adv-x="360" 
d="M165 0h-120v110h-30v95h30v110h-30v95h30v110h120v-110h30v110h120v-110h30v-95h-30v-110h30v-95h-30v-110h-120v110h-30v-110zM165 315v-110h30v110h-30z" />
    <glyph glyph-name="Hbar.smcp" horiz-adv-x="325" 
d="M25 360h-20v95h20v65h120v-65h35v65h120v-65h20v-95h-20v-360h-120v220h-35v-220h-120v360zM145 360v-45h35v45h-35z" />
    <glyph glyph-name="ampersand.smcp" 
d="M157 303h18v32h120v-225c0 -72 -59 -117 -138 -117s-137 44 -137 117v49c0 43 19 76 56 98c-37 21 -56 53 -56 98v29c0 73 58 118 137 118s138 -45 138 -118v-14h-120v14c0 15 -6 23 -18 23c-11 0 -17 -8 -17 -23v-59c0 -15 6 -22 17 -22zM175 208h-18
c-11 0 -17 -8 -17 -23v-75c0 -15 6 -22 17 -22c12 0 18 7 18 22v98z" />
    <glyph glyph-name="H.smcp" horiz-adv-x="325" 
d="M145 0h-120v520h120v-205h35v205h120v-520h-120v220h-35v-220z" />
    <glyph glyph-name="G.smcp" 
d="M175 215h-15v95h135v-200c0 -72 -59 -117 -138 -117s-137 44 -137 117v299c0 73 58 118 137 118s138 -45 138 -118v-64h-120v64c0 15 -6 23 -18 23c-11 0 -17 -8 -17 -23v-299c0 -15 6 -22 17 -22c12 0 18 7 18 22v105z" />
    <glyph glyph-name="F.smcp" horiz-adv-x="295" 
d="M145 0h-120v520h250v-95h-130v-110h110v-95h-110v-220z" />
    <glyph glyph-name="OE.smcp" horiz-adv-x="415" 
d="M395 0h-225v9c-17 -11 -35 -16 -53 -16c-56 0 -97 44 -97 117v299c0 73 41 118 97 118c19 0 36 -6 53 -17v10h225v-95h-105v-110h85v-95h-85v-125h105v-95zM157 88c5 0 9 2 13 6v332c-4 4 -8 6 -13 6c-11 0 -17 -8 -17 -23v-299c0 -15 6 -22 17 -22z" />
    <glyph glyph-name="Oslash.smcp" 
d="M75 0h-60l21 49c-11 18 -16 38 -16 61v299c0 73 58 118 137 118c30 0 56 -6 78 -18l5 11h60l-22 -51c11 -19 17 -39 17 -60v-299c0 -72 -59 -117 -138 -117c-29 0 -55 6 -78 17zM157 88c12 0 18 7 18 22v121l-35 -81v-40c0 -15 6 -22 17 -22zM140 409v-120l35 81v39
c0 15 -6 23 -18 23c-11 0 -17 -8 -17 -23z" />
    <glyph glyph-name="Oslashacute.smcp" 
d="M75 0h-60l21 49c-11 18 -16 38 -16 61v299c0 73 58 118 137 118c30 0 56 -6 78 -18l5 11h60l-22 -51c11 -19 17 -39 17 -60v-299c0 -72 -59 -117 -138 -117c-29 0 -55 6 -78 17zM269 672l-156 -136l-67 67l156 136zM157 88c12 0 18 7 18 22v121l-35 -81v-40
c0 -15 6 -22 17 -22zM140 409v-120l35 81v39c0 15 -6 23 -18 23c-11 0 -17 -8 -17 -23z" />
    <glyph glyph-name="zero.slash" 
d="M75 0h-60l18 55c-9 16 -13 34 -13 55v454c0 73 58 118 137 118c29 0 55 -6 79 -19l4 12h60l-19 -56c9 -17 14 -35 14 -55v-454c0 -72 -59 -117 -138 -117c-31 0 -57 6 -79 18zM157 88c12 0 18 7 18 22v190l-35 -105v-85c0 -15 6 -22 17 -22zM140 564v-189l35 105v84
c0 15 -6 23 -18 23c-11 0 -17 -8 -17 -23z" />
    <glyph glyph-name="zero.fitted.slash" 
d="M75 0h-60l18 55c-9 16 -13 34 -13 55v454c0 73 58 118 137 118c29 0 55 -6 79 -19l4 12h60l-19 -56c9 -17 14 -35 14 -55v-454c0 -72 -59 -117 -138 -117c-31 0 -57 6 -79 18zM157 88c12 0 18 7 18 22v190l-35 -105v-85c0 -15 6 -22 17 -22zM140 564v-189l35 105v84
c0 15 -6 23 -18 23c-11 0 -17 -8 -17 -23z" />
    <glyph glyph-name="zerooldstyle.slash" 
d="M75 0h-60l22 49c-11 17 -17 38 -17 61v279c0 73 58 118 137 118c30 0 56 -6 78 -18l5 11h60l-23 -50c12 -19 18 -39 18 -61v-279c0 -72 -59 -117 -138 -117c-29 0 -55 6 -78 17zM157 88c12 0 18 7 18 22v112l-35 -77v-35c0 -15 6 -22 17 -22zM140 389v-111l35 77v34
c0 15 -6 23 -18 23c-11 0 -17 -8 -17 -23z" />
    <glyph glyph-name="zero.taboldstyle.slash" 
d="M75 0h-60l22 49c-11 17 -17 38 -17 61v279c0 73 58 118 137 118c30 0 56 -6 78 -18l5 11h60l-23 -50c12 -19 18 -39 18 -61v-279c0 -72 -59 -117 -138 -117c-29 0 -55 6 -78 17zM157 88c12 0 18 7 18 22v112l-35 -77v-35c0 -15 6 -22 17 -22zM140 389v-111l35 77v34
c0 15 -6 23 -18 23c-11 0 -17 -8 -17 -23z" />
    <glyph glyph-name="zero.slash.smcp" 
d="M75 0h-60l21 49c-11 18 -16 38 -16 61v299c0 73 58 118 137 118c30 0 56 -6 78 -18l5 11h60l-22 -51c11 -19 17 -39 17 -60v-299c0 -72 -59 -117 -138 -117c-29 0 -55 6 -78 17zM157 88c12 0 18 7 18 22v121l-35 -81v-40c0 -15 6 -22 17 -22zM140 409v-120l35 81v39
c0 15 -6 23 -18 23c-11 0 -17 -8 -17 -23z" />
    <glyph glyph-name="zero.fitted.slash.smcp" 
d="M75 0h-60l21 49c-11 18 -16 38 -16 61v299c0 73 58 118 137 118c30 0 56 -6 78 -18l5 11h60l-22 -51c11 -19 17 -39 17 -60v-299c0 -72 -59 -117 -138 -117c-29 0 -55 6 -78 17zM157 88c12 0 18 7 18 22v121l-35 -81v-40c0 -15 6 -22 17 -22zM140 409v-120l35 81v39
c0 15 -6 23 -18 23c-11 0 -17 -8 -17 -23z" />
    <glyph glyph-name="Jcircumflex.smcp" 
d="M20 111v89h120v-89c0 -15 6 -23 18 -23c11 0 17 8 17 23v409h120v-409c0 -73 -58 -118 -137 -118s-138 45 -138 118zM236 620l-89 -79l-67 67l156 131l156 -131l-67 -67z" />
    <glyph glyph-name="Itilde.smcp" horiz-adv-x="170" 
d="M20 548h-69c0 63 38 102 90 102c17 0 34 -6 50 -18s27 -18 34 -18c15 0 27 11 27 31h69c0 -63 -38 -102 -90 -102c-18 0 -35 6 -50 18s-27 18 -34 18c-15 0 -27 -11 -27 -31zM145 0h-120v520h120v-520z" />
    <glyph glyph-name="uni20B4.smcp" 
d="M98 275h-83v65h151c6 11 9 21 9 30v40c0 15 -6 22 -18 22c-11 0 -17 -7 -17 -22v-40h-120v40c0 73 58 117 137 117s138 -45 138 -117v-40c0 -8 -1 -18 -4 -30h9v-65h-50c-12 -12 -23 -22 -34 -30h84v-65h-151c-6 -10 -9 -20 -9 -30v-39c0 -15 6 -23 17 -23
c12 0 18 8 18 23v39h120v-39c0 -73 -59 -118 -138 -118s-137 45 -137 118v39c0 11 1 21 4 30h-9v65h49z" />
    <glyph glyph-name="E.smcp" horiz-adv-x="295" 
d="M275 0h-250v520h250v-95h-130v-110h110v-95h-110v-125h130v-95z" />
    <glyph glyph-name="Thorn.smcp" horiz-adv-x="320" 
d="M145 0h-120v520h120v-85h17c79 0 138 -45 138 -117v-115c0 -73 -59 -118 -138 -118h-17v-85zM145 340v-160h17c12 0 18 8 18 23v115c0 15 -6 22 -18 22h-17z" />
    <glyph glyph-name="germandbls.smcp" horiz-adv-x="310" 
d="M175 110v40h120v-40c0 -15 6 -22 17 -22c12 0 18 7 18 22v40c0 9 -38 18 -78 29c-39 11 -77 44 -77 89v36c0 15 6 28 17 40s17 24 17 36v15c0 49 -69 49 -69 0v-395h-120v395c0 83 66 132 155 132c88 0 155 -49 155 -132v-35c0 -14 -6 -27 -18 -39
c-11 -12 -17 -24 -17 -37v-16c0 -9 38 -19 77 -30c40 -11 78 -43 78 -88v-40c0 -72 -59 -117 -138 -117s-137 44 -137 117z" />
    <glyph glyph-name="Eth.smcp" horiz-adv-x="320" 
d="M25 220h-20v95h20v205h137c79 0 138 -45 138 -118v-285c0 -72 -59 -117 -138 -117h-137v220zM145 220v-125h17c12 0 18 7 18 22v285c0 15 -6 23 -18 23h-17v-110h19v-95h-19z" />
    <glyph glyph-name="Dcroat.smcp" horiz-adv-x="320" 
d="M25 220h-20v95h20v205h137c79 0 138 -45 138 -118v-285c0 -72 -59 -117 -138 -117h-137v220zM145 220v-125h17c12 0 18 7 18 22v285c0 15 -6 23 -18 23h-17v-110h19v-95h-19z" />
    <glyph glyph-name="Iogonek.smcp" horiz-adv-x="170" 
d="M25 -18v18h79v-18c0 -29 16 -51 41 -51v-63c-73 0 -120 49 -120 114zM145 0h-120v520h120v-520z" />
    <glyph glyph-name="at.smcp" horiz-adv-x="625" 
d="M312 -112v-95c-84 0 -154 25 -209 76c-55 50 -83 119 -83 206v170c0 87 28 155 83 206s125 76 208 76s153 -25 209 -76c57 -51 85 -119 85 -206v-245h-275v32c-26 -26 -53 -39 -82 -39c-41 0 -73 30 -73 78v139c0 72 59 117 138 117c48 0 100 -16 121 -28l16 -9v-195h35
v150c0 57 -17 102 -50 136s-74 51 -123 51s-90 -17 -123 -51s-49 -79 -49 -136v-170c0 -58 16 -104 49 -137s74 -50 123 -50zM330 116v110c-5 4 -10 6 -17 6c-12 0 -18 -7 -18 -22v-104c0 -12 4 -18 13 -18c15 0 22 9 22 28z" />
    <glyph glyph-name="D.smcp" horiz-adv-x="320" 
d="M162 0h-137v520h137c79 0 138 -45 138 -118v-285c0 -72 -59 -117 -138 -117zM145 425v-330h17c12 0 18 7 18 22v285c0 15 -6 23 -18 23h-17z" />
    <glyph glyph-name="Imacron.smcp" horiz-adv-x="170" 
d="M145 0h-120v520h120v-520zM195 580h-220v95h220v-95z" />
    <glyph glyph-name="Igrave.smcp" horiz-adv-x="170" 
d="M196 603l-67 -67l-156 136l67 67zM145 0h-120v520h120v-520z" />
    <glyph glyph-name="Idotaccent.smcp" horiz-adv-x="170" 
d="M145 575h-120v125h120v-125zM145 0h-120v520h120v-520z" />
    <glyph glyph-name="Idieresis.smcp" horiz-adv-x="170" 
d="M60 575h-100v125h100v-125zM215 575h-100v125h100v-125zM145 0h-120v520h120v-520z" />
    <glyph glyph-name="Icircumflex.smcp" horiz-adv-x="170" 
d="M85 620l-89 -79l-67 67l156 131l156 -131l-67 -67zM145 0h-120v520h120v-520z" />
    <glyph glyph-name="Ibreve.smcp" horiz-adv-x="170" 
d="M-27 650h79c0 -25 15 -41 34 -41c21 0 36 14 36 41h78c0 -65 -49 -107 -114 -107s-113 42 -113 107zM145 0h-120v520h120v-520z" />
    <glyph glyph-name="Iacute.smcp" horiz-adv-x="170" 
d="M196 672l-156 -136l-67 67l156 136zM145 0h-120v520h120v-520z" />
    <glyph glyph-name="zero.sup" 
d="M295 564v-454c0 -72 -59 -117 -138 -117s-137 44 -137 117v454c0 73 58 118 137 118s138 -45 138 -118zM140 564v-454c0 -15 6 -22 17 -22c12 0 18 7 18 22v454c0 15 -6 23 -18 23c-11 0 -17 -8 -17 -23z" />
    <glyph glyph-name="one.sup" horiz-adv-x="124" 
d="M49 647l-35 -21v50l35 22h55v-298h-55v247z" />
    <glyph glyph-name="two.sup" horiz-adv-x="157" 
d="M139 400h-121v70c0 57 66 81 66 109v70c0 5 -2 8 -7 8c-4 0 -6 -3 -6 -8v-35h-55v35c-6 68 128 68 123 0v-70c0 -57 -66 -81 -66 -109v-27h66v-43z" />
    <glyph glyph-name="three.sup" horiz-adv-x="157" 
d="M80 440c4 0 6 3 6 9v74c0 5 -2 8 -6 8h-27v44h24c5 0 7 3 7 8v66c0 5 -2 8 -7 8c-4 0 -6 -3 -6 -8v-35h-55v35c-6 68 128 68 123 0v-52c0 -20 -8 -34 -25 -43c18 -10 27 -25 27 -45v-60c6 -68 -128 -68 -123 0v35h55v-35c0 -6 2 -9 7 -9z" />
    <glyph glyph-name="four.sup" horiz-adv-x="159" 
d="M84 455h-70v43l39 200h84v-200h8v-43h-8v-55h-53v55zM83 643l-20 -145h21v145h-1z" />
    <glyph glyph-name="five.sup" horiz-adv-x="158" 
d="M73 541h-55v157h120v-44h-65v-75c12 11 24 16 35 16c19 0 32 -13 32 -34v-112c7 -69 -129 -69 -122 0v35h55v-35c0 -12 12 -12 12 0v96c0 5 -1 7 -4 7c-5 0 -8 -4 -8 -11z" />
    <glyph glyph-name="six.sup" horiz-adv-x="158" 
d="M73 649v-81c12 11 24 16 35 16c19 0 32 -13 32 -34v-101c7 -69 -129 -69 -122 0v200c-6 68 128 68 122 0v-35h-55v35c0 11 -12 11 -12 0zM73 530v-81c0 -12 12 -12 12 0v85c0 5 -1 7 -4 7c-5 0 -8 -4 -8 -11z" />
    <glyph glyph-name="seven.sup" horiz-adv-x="152" 
d="M77 654h-61v44h120v-23l-54 -275h-56z" />
    <glyph glyph-name="eight.sup" horiz-adv-x="158" 
d="M140 649v-53c0 -19 -8 -33 -25 -43c17 -10 25 -24 25 -43v-61c7 -69 -129 -69 -122 0v61c0 19 8 33 25 43c-17 10 -25 24 -25 43v53c-6 68 128 68 122 0zM73 649v-67c0 -11 12 -11 12 0v67c0 11 -12 11 -12 0zM73 522v-73c0 -12 12 -12 12 0v73c0 12 -12 12 -12 0z" />
    <glyph glyph-name="nine.sup" horiz-adv-x="158" 
d="M85 449v81c-11 -11 -23 -17 -35 -17c-19 0 -32 14 -32 35v101c-6 68 128 68 122 0v-200c6 -68 -128 -68 -122 0v35h55v-35c0 -12 12 -12 12 0zM85 567v82c0 11 -12 11 -12 0v-85c0 -5 2 -7 5 -7c5 0 7 3 7 10z" />
    <glyph glyph-name="comma.sup" horiz-adv-x="89" 
d="M55 352l-5 -7h-43c7 19 11 37 11 55v56h53v-56c0 -16 -9 -37 -16 -48z" />
    <glyph glyph-name="period.sup" horiz-adv-x="89" 
d="M71 400h-53v56h53v-56z" />
    <glyph glyph-name="parenleft.sup" horiz-adv-x="97" 
d="M83 690h-4c-4 0 -6 -3 -6 -8v-278c0 -5 2 -8 6 -8h4v-43h-4c-36 0 -61 19 -61 51v278c0 32 26 52 61 52h4v-44z" />
    <glyph glyph-name="parenright.sup" horiz-adv-x="97" 
d="M14 396h4c4 0 6 3 6 9v277c0 5 -2 8 -6 8h-4v44h4c35 0 61 -20 61 -52v-277c0 -32 -26 -52 -61 -52h-4v43z" />
    <glyph glyph-name="hyphen.sup" horiz-adv-x="112" 
d="M96 503h-80v44h80v-44z" />
    <glyph glyph-name="zero.slash.sup" horiz-adv-x="159" 
d="M43 400h-27l8 24c-4 7 -6 15 -6 25v200c0 32 26 52 61 52c13 0 25 -3 34 -8l2 5h28l-9 -25c4 -7 6 -15 6 -24v-200c0 -33 -25 -52 -61 -52c-14 0 -26 2 -35 7zM73 649v-78l12 36v42c0 11 -12 11 -12 0zM85 449v76l-12 -36v-40c0 -12 12 -12 12 0z" />
    <glyph glyph-name="C.smcp" 
d="M140 409v-299c0 -15 6 -22 17 -22c12 0 18 7 18 22v65h120v-65c0 -72 -59 -117 -138 -117s-137 44 -137 117v299c0 73 58 118 137 118s138 -45 138 -118v-64h-120v64c0 15 -6 23 -18 23c-11 0 -17 -8 -17 -23z" />
    <glyph glyph-name="B.smcp" horiz-adv-x="320" 
d="M167 0h-142v520h137c79 0 138 -45 138 -118v-35c0 -45 -19 -77 -58 -98c42 -21 63 -54 63 -101v-50c0 -73 -59 -118 -138 -118zM167 220h-22v-125h22c12 0 18 8 18 23v80c0 15 -6 22 -18 22zM145 425v-110h17c12 0 18 7 18 22v65c0 15 -6 23 -18 23h-17z" />
    <glyph glyph-name="AE.smcp" horiz-adv-x="403" 
d="M383 0h-225v115h-26l-8 -115h-123l78 520h304v-95h-105v-110h85v-95h-85v-125h105v-95zM158 424h-2l-17 -214h19v214z" />
    <glyph glyph-name="zero.sub" horiz-adv-x="158" 
d="M140 199v-200c7 -69 -129 -69 -122 0v200c-6 68 128 68 122 0zM73 199v-200c0 -12 12 -12 12 0v200c0 11 -12 11 -12 0z" />
    <glyph glyph-name="one.sub" horiz-adv-x="124" 
d="M49 197l-35 -21v50l35 22h55v-298h-55v247z" />
    <glyph glyph-name="two.sub" horiz-adv-x="157" 
d="M139 -50h-121v70c0 57 66 81 66 109v70c0 5 -2 8 -7 8c-4 0 -6 -3 -6 -8v-35h-55v35c-6 68 128 68 123 0v-70c0 -57 -66 -81 -66 -109v-27h66v-43z" />
    <glyph glyph-name="three.sub" horiz-adv-x="157" 
d="M80 -10c4 0 6 3 6 9v74c0 5 -2 8 -6 8h-27v44h24c5 0 7 3 7 8v66c0 5 -2 8 -7 8c-4 0 -6 -3 -6 -8v-35h-55v35c-6 68 128 68 123 0v-52c0 -20 -8 -34 -25 -43c18 -10 27 -25 27 -45v-60c6 -68 -128 -68 -123 0v35h55v-35c0 -6 2 -9 7 -9z" />
    <glyph glyph-name="four.sub" horiz-adv-x="159" 
d="M84 5h-70v43l39 200h84v-200h8v-43h-8v-55h-53v55zM83 193l-20 -145h21v145h-1z" />
    <glyph glyph-name="five.sub" horiz-adv-x="158" 
d="M73 91h-55v157h120v-44h-65v-75c12 11 24 16 35 16c19 0 32 -13 32 -34v-112c7 -69 -129 -69 -122 0v35h55v-35c0 -12 12 -12 12 0v96c0 5 -1 7 -4 7c-5 0 -8 -4 -8 -11z" />
    <glyph glyph-name="six.sub" horiz-adv-x="158" 
d="M73 199v-81c12 11 24 16 35 16c19 0 32 -13 32 -34v-101c7 -69 -129 -69 -122 0v200c-6 68 128 68 122 0v-35h-55v35c0 11 -12 11 -12 0zM73 80v-81c0 -12 12 -12 12 0v85c0 5 -1 7 -4 7c-5 0 -8 -4 -8 -11z" />
    <glyph glyph-name="seven.sub" horiz-adv-x="152" 
d="M77 204h-61v44h120v-23l-54 -275h-56z" />
    <glyph glyph-name="eight.sub" horiz-adv-x="158" 
d="M140 199v-53c0 -19 -8 -33 -25 -43c17 -10 25 -24 25 -43v-61c7 -69 -129 -69 -122 0v61c0 19 8 33 25 43c-17 10 -25 24 -25 43v53c-6 68 128 68 122 0zM73 199v-67c0 -11 12 -11 12 0v67c0 11 -12 11 -12 0zM73 72v-73c0 -12 12 -12 12 0v73c0 12 -12 12 -12 0z" />
    <glyph glyph-name="nine.sub" horiz-adv-x="158" 
d="M85 -1v81c-11 -11 -23 -17 -35 -17c-19 0 -32 14 -32 35v101c-6 68 128 68 122 0v-200c6 -68 -128 -68 -122 0v35h55v-35c0 -12 12 -12 12 0zM85 117v82c0 11 -12 11 -12 0v-85c0 -5 2 -7 5 -7c5 0 7 3 7 10z" />
    <glyph glyph-name="comma.sub" horiz-adv-x="89" 
d="M55 -97l-5 -8h-43c7 19 11 37 11 55v56h53v-56c0 -16 -9 -36 -16 -47z" />
    <glyph glyph-name="period.sub" horiz-adv-x="89" 
d="M71 -50h-53v56h53v-56z" />
    <glyph glyph-name="parenleft.sub" horiz-adv-x="97" 
d="M83 240h-4c-4 0 -6 -3 -6 -8v-278c0 -5 2 -8 6 -8h4v-43h-4c-36 0 -61 19 -61 51v278c0 32 26 52 61 52h4v-44z" />
    <glyph glyph-name="parenright.sub" horiz-adv-x="97" 
d="M14 -54h4c4 0 6 3 6 9v277c0 5 -2 8 -6 8h-4v44h4c35 0 61 -20 61 -52v-277c0 -32 -26 -52 -61 -52h-4v43z" />
    <glyph glyph-name="hyphen.sub" horiz-adv-x="112" 
d="M96 53h-80v44h80v-44z" />
    <glyph glyph-name="zero.slash.sub" horiz-adv-x="159" 
d="M43 -50h-27l8 24c-4 7 -6 16 -6 25v200c0 32 26 52 61 52c13 0 25 -3 34 -8l2 5h28l-9 -25c4 -7 6 -15 6 -24v-200c0 -33 -25 -52 -61 -52c-13 0 -24 3 -35 8zM73 199v-78l12 36v42c0 11 -12 11 -12 0zM85 -1v76l-12 -36v-40c0 -12 12 -12 12 0z" />
    <glyph glyph-name="A.smcp" 
d="M79 520h155l78 -520h-123l-9 115h-48l-8 -115h-123zM158 424h-2l-17 -214h34z" />
    <glyph glyph-name="eight.taboldstyle" 
d="M295 564v-119c0 -44 -19 -77 -57 -98c38 -23 57 -55 57 -98v-139c0 -72 -59 -117 -138 -117s-137 44 -137 117v139c0 43 19 76 56 98c-37 21 -56 53 -56 98v119c0 73 58 118 137 118s138 -45 138 -118zM140 564v-149c0 -15 6 -22 17 -22c12 0 18 7 18 22v149
c0 15 -6 23 -18 23c-11 0 -17 -8 -17 -23zM140 275v-165c0 -15 6 -22 17 -22c12 0 18 7 18 22v165c0 15 -6 23 -18 23c-11 0 -17 -8 -17 -23z" />
    <glyph glyph-name="Hcircumflex.smcp" horiz-adv-x="325" 
d="M145 0h-120v520h120v-205h35v205h120v-520h-120v220h-35v-220zM162 620l-89 -79l-67 67l156 131l156 -131l-67 -67z" />
    <glyph glyph-name="nine.taboldstyle" 
d="M157 -87c12 0 18 8 18 23v186c-26 -26 -53 -39 -82 -39c-41 0 -73 30 -73 78v229c0 72 59 117 138 117s137 -44 137 -117v-454c0 -73 -59 -118 -138 -118s-137 45 -137 118v64h120v-64c0 -15 6 -23 17 -23zM175 206v184c0 15 -6 22 -17 22c-12 0 -18 -7 -18 -22v-194
c0 -12 4 -18 13 -18c15 0 22 9 22 28z" />
    <glyph glyph-name="Gdotaccent.smcp" 
d="M175 215h-15v95h135v-200c0 -72 -59 -117 -138 -117s-137 44 -137 117v299c0 73 58 118 137 118s138 -45 138 -118v-64h-120v64c0 15 -6 23 -18 23c-11 0 -17 -8 -17 -23v-299c0 -15 6 -22 17 -22c12 0 18 7 18 22v105zM217 575h-120v125h120v-125z" />
    <glyph glyph-name="Gcommaaccent.smcp" 
d="M175 215h-15v95h135v-200c0 -72 -59 -117 -138 -117s-137 44 -137 117v299c0 73 58 118 137 118s138 -45 138 -118v-64h-120v64c0 15 -6 23 -18 23c-11 0 -17 -8 -17 -23v-299c0 -15 6 -22 17 -22c12 0 18 7 18 22v105zM205 -30v-95c0 -29 -11 -64 -33 -105h-80
c12 41 18 76 18 105v95h95z" />
    <glyph glyph-name="U.smcp" 
d="M20 110v410h120v-410c0 -15 6 -22 17 -22c12 0 18 7 18 22v410h120v-410c0 -72 -59 -117 -138 -117s-137 44 -137 117z" />
    </font>
</defs>
</svg>
