<?xml version="1.0" standalone="no"?>
<!DOCTYPE svg PUBLIC "-//W3C//DTD SVG 1.1//EN" "http://www.w3.org/Graphics/SVG/1.1/DTD/svg11.dtd" >
<svg xmlns="http://www.w3.org/2000/svg" xmlns:xlink="http://www.w3.org/1999/xlink" version="1.1">
<metadata>
Created by FontForge 20160407 at Thu Jul 14 15:50:09 2016
 By Jimmy Warting
Copyright \(c\) 2013 by Andriy Konstantynov. All rights reserved.
</metadata>
<defs>
<font id="RistrettoPro-ExtraLight" horiz-adv-x="324" >
  <font-face 
    font-family="Ristretto Pro"
    font-weight="250"
    font-stretch="normal"
    units-per-em="1000"
    panose-1="2 11 0 8 3 2 0 2 0 4"
    ascent="762"
    descent="-238"
    x-height="500"
    cap-height="700"
    bbox="-49 -231 1076 905"
    underline-thickness="50"
    underline-position="-100"
    unicode-range="U+0020-F739"
  />
<missing-glyph horiz-adv-x="145" 
 />
    <glyph glyph-name="afii10056_afii10056" unicode="&#x407;&#x407;" horiz-adv-x="288" 
d="M87 0h-31v700h31v-700zM18 750h-29v81h29v-81zM159 750h-30v81h30v-81zM232 0h-31v700h31v-700zM300 750h-29v81h29v-81z" />
    <glyph glyph-name="quoteright_afii10056" unicode="&#x2019;&#x407;" horiz-adv-x="222" 
d="M55 629h-29c19 43 29 84 29 121v81h31v-81c0 -33 -13 -79 -24 -103zM165 0h-31v700h31v-700zM233 750h-29v81h29v-81z" />
    <glyph glyph-name="quoteright_afii10104" unicode="&#x2019;&#x457;" horiz-adv-x="220" 
d="M55 524h-29c19 43 29 83 29 120v81h31v-81c0 -32 -13 -78 -24 -102zM164 0h-32v500h32v-500zM232 597h-29v81h29v-81z" />
    <glyph glyph-name="afii10104_afii10104" unicode="&#x457;&#x457;" horiz-adv-x="288" 
d="M87 0h-31v500h31v-500zM18 597h-29v81h29v-81zM159 597h-29v81h29v-81zM232 0h-31v500h31v-500zM300 597h-29v81h29v-81z" />
    <glyph glyph-name=".notdef" horiz-adv-x="145" 
 />
    <glyph glyph-name="NULL" horiz-adv-x="0" 
 />
    <glyph glyph-name="CR" horiz-adv-x="333" 
 />
    <glyph glyph-name="space" unicode=" " horiz-adv-x="145" 
 />
    <glyph glyph-name="exclam" unicode="!" horiz-adv-x="143" 
d="M87 178h-31v522h31v-522zM87 0h-31v81h31v-81z" />
    <glyph glyph-name="quotedbl" unicode="&#x22;" horiz-adv-x="242" 
d="M83 550h-28v175h28v-175zM186 550h-28v175h28v-175z" />
    <glyph glyph-name="numbersign" unicode="#" horiz-adv-x="364" 
d="M125 0h-31v150h-48v29h48v342h-48v29h48v150h31v-150h123v150h32v-150h47v-29h-47v-342h47v-29h-47v-150h-32v150h-123v-150zM125 521v-342h123v342h-123z" />
    <glyph glyph-name="dollar" unicode="$" 
d="M176 -100h-29v99c-59 4 -100 46 -100 111v90h31v-90c0 -52 35 -84 83 -84s85 32 85 84v111c0 48 -31 77 -70 92c-56 21 -128 40 -128 134v95c0 64 40 104 99 109v99h29v-99c57 -5 100 -45 100 -109v-92h-32v92c0 51 -35 82 -83 82c-47 0 -81 -31 -81 -82v-95
c0 -48 32 -77 69 -92c56 -21 128 -42 128 -134v-111c0 -65 -42 -107 -101 -111v-99z" />
    <glyph glyph-name="percent" unicode="%" horiz-adv-x="491" 
d="M112 0h-29l296 700h29zM55 481v136c0 52 37 86 85 86c49 0 86 -34 86 -86v-136c0 -52 -38 -84 -86 -84s-85 32 -85 84zM82 617v-136c-6 -76 122 -76 118 0v136c0 36 -27 60 -60 60s-58 -24 -58 -60zM265 81v136c0 53 36 86 85 86s86 -34 86 -86v-136
c0 -52 -38 -84 -86 -84c-49 0 -85 32 -85 84zM292 217v-136c-6 -76 122 -76 118 0v136c0 36 -27 60 -60 60s-58 -24 -58 -60z" />
    <glyph glyph-name="ampersand" unicode="&#x26;" 
d="M161 358h85v45h31v-293c0 -69 -49 -113 -116 -113c-65 0 -114 44 -114 113v130c0 51 21 85 63 103c-42 18 -63 52 -63 103v118c0 69 49 114 114 114c67 0 116 -45 116 -114v-64h-31v64c0 52 -37 85 -85 85s-83 -33 -83 -85v-122c0 -52 35 -84 83 -84zM246 329h-85
c-48 0 -83 -33 -83 -85v-134c0 -52 35 -84 83 -84s85 32 85 84v219z" />
    <glyph glyph-name="quotesingle" unicode="'" horiz-adv-x="139" 
d="M83 550h-28v175h28v-175z" />
    <glyph glyph-name="parenleft" unicode="(" horiz-adv-x="199" 
d="M171 724h-10c-48 0 -83 -33 -83 -85v-629c0 -52 35 -84 83 -84h10v-29h-10c-65 0 -114 44 -114 113v629c0 69 49 114 114 114h10v-29z" />
    <glyph glyph-name="parenright" unicode=")" horiz-adv-x="199" 
d="M28 -74h10c48 0 83 33 83 85v629c0 52 -35 84 -83 84h-10v29h10c65 0 115 -44 115 -113v-629c0 -69 -50 -114 -115 -114h-10v29z" />
    <glyph glyph-name="asterisk" unicode="*" horiz-adv-x="343" 
d="M146 565h-109v28h108l-54 95l25 15l55 -96l54 96l25 -15l-55 -95h111v-28h-111l54 -95l-24 -14l-54 94l-54 -94l-25 14z" />
    <glyph glyph-name="plus" unicode="+" horiz-adv-x="343" 
d="M156 296h-119v29h119v125h29v-125h121v-29h-121v-124h-29v124z" />
    <glyph glyph-name="comma" unicode="," horiz-adv-x="142" 
d="M62 -103l-7 -18h-29c19 43 29 84 29 121v81h31v-81c0 -33 -13 -79 -24 -103z" />
    <glyph glyph-name="hyphen" unicode="-" horiz-adv-x="219" 
d="M182 257h-145v29h145v-29z" />
    <glyph glyph-name="period" unicode="." horiz-adv-x="142" 
d="M86 0h-31v81h31v-81z" />
    <glyph glyph-name="slash" unicode="/" horiz-adv-x="302" 
d="M69 -100h-32l196 849h32z" />
    <glyph glyph-name="zero" unicode="0" 
d="M161 678c67 0 116 -45 116 -114v-454c0 -69 -49 -113 -116 -113c-65 0 -114 44 -114 113v454c0 69 49 114 114 114zM78 564v-454c0 -52 35 -84 83 -84s85 32 85 84v454c0 52 -37 85 -85 85s-83 -33 -83 -85z" />
    <glyph glyph-name="one" unicode="1" horiz-adv-x="214" 
d="M126 642l-98 -59v33l98 59h32v-675h-32v642z" />
    <glyph glyph-name="two" unicode="2" horiz-adv-x="320" 
d="M273 0h-225v115c0 59 31 105 68 136c56 44 126 88 126 168v145c0 52 -37 85 -85 85c-45 0 -80 -31 -80 -80v-71h-31v71c0 68 47 109 111 109c67 0 116 -45 116 -114v-145c0 -158 -193 -166 -193 -304v-86h193v-29z" />
    <glyph glyph-name="three" unicode="3" horiz-adv-x="320" 
d="M158 26c48 0 84 33 84 85v145c0 52 -36 84 -84 84h-45v28h44c48 0 85 32 85 84v112c0 52 -37 85 -85 85c-45 0 -80 -31 -80 -80v-71h-31v71c0 68 47 109 111 109c67 0 116 -45 116 -114v-104c0 -53 -29 -91 -74 -106c45 -13 75 -51 75 -106v-137
c0 -69 -49 -114 -116 -114c-64 0 -111 42 -111 110v70h31v-70c0 -49 35 -81 80 -81z" />
    <glyph glyph-name="four" unicode="4" horiz-adv-x="315" 
d="M228 138h-200v29l181 508h50v-508h28v-29h-28v-138h-31v138zM226 634l-167 -467h169v467h-2z" />
    <glyph glyph-name="five" unicode="5" 
d="M78 312h-31v363h225v-29h-194v-279c24 41 61 62 111 62c49 0 88 -34 88 -89v-230c0 -69 -49 -113 -116 -113c-65 0 -114 44 -114 113v67h31v-67c0 -52 35 -84 83 -84s85 32 85 84v226c0 39 -28 64 -64 64c-28 0 -52 -9 -73 -28s-31 -39 -31 -60z" />
    <glyph glyph-name="six" unicode="6" 
d="M162 649c-48 0 -84 -33 -84 -85v-222c24 41 61 62 111 62c49 0 88 -34 88 -89v-205c0 -69 -49 -113 -116 -113c-65 0 -114 44 -114 113v454c0 69 50 114 115 114c64 0 112 -42 112 -110v-70h-32v70c0 49 -35 81 -80 81zM78 269v-159c0 -52 35 -84 83 -84s85 32 85 84v201
c0 39 -28 64 -64 64c-60 0 -104 -42 -104 -106z" />
    <glyph glyph-name="seven" unicode="7" horiz-adv-x="300" 
d="M229 646h-192v29h226v-23l-138 -652h-33z" />
    <glyph glyph-name="eight" unicode="8" 
d="M161 678c67 0 116 -45 116 -114v-118c0 -51 -21 -85 -64 -103c43 -18 64 -52 64 -103v-130c0 -69 -49 -113 -116 -113c-65 0 -114 44 -114 113v130c0 51 21 85 63 103c-42 18 -63 52 -63 103v118c0 69 49 114 114 114zM78 564v-122c0 -52 35 -84 83 -84s85 32 85 84v122
c0 52 -37 85 -85 85s-83 -33 -83 -85zM78 244v-134c0 -52 35 -84 83 -84s85 32 85 84v134c0 52 -37 85 -85 85s-83 -33 -83 -85z" />
    <glyph glyph-name="nine" unicode="9" 
d="M160 26c48 0 86 35 86 87v219c-24 -41 -61 -62 -111 -62c-49 0 -88 34 -88 89v206c0 69 50 113 115 113c67 0 115 -44 115 -113v-452c0 -71 -50 -116 -117 -116c-64 0 -113 43 -113 111v69h31v-69c0 -49 35 -82 82 -82zM246 405v160c0 52 -36 84 -84 84s-84 -32 -84 -84
v-202c0 -39 28 -64 63 -64c60 0 105 42 105 106z" />
    <glyph glyph-name="colon" unicode=":" horiz-adv-x="142" 
d="M86 0h-31v81h31v-81zM86 419h-31v81h31v-81z" />
    <glyph glyph-name="semicolon" unicode=";" horiz-adv-x="142" 
d="M62 -103l-7 -18h-29c19 43 29 84 29 121v81h31v-81c0 -33 -13 -79 -24 -103zM86 419h-31v81h31v-81z" />
    <glyph glyph-name="less" unicode="&#x3c;" horiz-adv-x="417" 
d="M55 278v43l306 115v-33l-272 -102v-2l272 -103v-33z" />
    <glyph glyph-name="equal" unicode="=" horiz-adv-x="343" 
d="M306 361h-269v29h269v-29zM306 210h-269v29h269v-29z" />
    <glyph glyph-name="greater" unicode="&#x3e;" horiz-adv-x="417" 
d="M361 322v-43l-306 -115v33l272 102v2l-272 103v33z" />
    <glyph glyph-name="question" unicode="?" horiz-adv-x="320" 
d="M172 178h-31v85c0 148 101 98 101 229v97c0 52 -37 85 -85 85c-45 0 -80 -31 -80 -80v-71h-31v71c0 68 47 109 111 109c67 0 116 -45 116 -114v-97c0 -55 -16 -91 -36 -108c-27 -25 -65 -45 -65 -121v-85zM172 0h-31v81h31v-81z" />
    <glyph glyph-name="at" unicode="@" horiz-adv-x="740" 
d="M369 -174v-29c-91 0 -166 28 -225 84c-59 55 -89 132 -89 229v278c0 97 30 174 89 230c60 57 135 85 225 85s165 -28 225 -85c61 -57 91 -133 91 -230v-388h-231v59c-24 -41 -61 -62 -111 -62c-49 0 -88 34 -88 89v304c0 69 49 113 116 113c44 0 86 -16 102 -28l12 -9
v-437h168v359c0 87 -27 156 -82 208c-54 52 -121 78 -202 78s-148 -26 -202 -78c-53 -52 -80 -121 -80 -208v-278c0 -87 27 -156 80 -207c54 -51 121 -77 202 -77zM454 132v317c-22 17 -50 25 -83 25c-48 0 -85 -32 -85 -84v-300c0 -39 28 -64 64 -64c60 0 104 42 104 106z
" />
    <glyph glyph-name="A" unicode="A" horiz-adv-x="315" 
d="M53 0h-32l115 700h43l115 -700h-32l-35 213h-139zM157 657l-66 -415h133l-65 415h-2z" />
    <glyph glyph-name="B" unicode="B" 
d="M163 0h-107v700h106c67 0 116 -43 116 -114v-116c0 -53 -29 -91 -74 -106c44 -13 74 -51 74 -106v-144c0 -71 -50 -114 -115 -114zM163 350h-76v-321h76c48 0 84 33 84 85v152c0 52 -36 84 -84 84zM87 671v-293h75c48 0 84 32 84 84v124c0 52 -36 85 -84 85h-75z" />
    <glyph glyph-name="C" unicode="C" horiz-adv-x="315" 
d="M78 593v-487c0 -49 34 -80 79 -80s80 31 80 80v94h31v-94c0 -68 -47 -109 -111 -109s-110 41 -110 109v487c0 68 47 110 110 110c64 0 111 -42 111 -110v-93h-31v93c0 49 -35 81 -80 81s-79 -32 -79 -81z" />
    <glyph glyph-name="D" unicode="D" horiz-adv-x="329" 
d="M166 0h-110v700h110c67 0 116 -43 116 -114v-473c0 -71 -49 -113 -116 -113zM87 671v-642h79c48 0 85 32 85 84v473c0 52 -37 85 -85 85h-79z" />
    <glyph glyph-name="E" unicode="E" horiz-adv-x="313" 
d="M266 0h-210v700h210v-29h-179v-297h159v-29h-159v-316h179v-29z" />
    <glyph glyph-name="F" unicode="F" horiz-adv-x="313" 
d="M87 0h-31v700h210v-29h-179v-297h159v-29h-159v-345z" />
    <glyph glyph-name="G" unicode="G" horiz-adv-x="315" 
d="M237 336h-80v29h111v-259c0 -68 -47 -109 -111 -109s-110 41 -110 109v487c0 68 47 110 110 110c64 0 111 -42 111 -110v-93h-31v93c0 49 -35 81 -80 81s-79 -32 -79 -81v-487c0 -49 34 -80 79 -80s80 31 80 80v230z" />
    <glyph glyph-name="H" unicode="H" horiz-adv-x="343" 
d="M87 0h-31v700h31v-326h168v326h32v-700h-32v345h-168v-345z" />
    <glyph glyph-name="I" unicode="I" horiz-adv-x="143" 
d="M87 0h-31v700h31v-700z" />
    <glyph glyph-name="J" unicode="J" horiz-adv-x="315" 
d="M47 107v93h31v-93c0 -49 35 -81 80 -81s79 32 79 81v593h31v-593c0 -68 -47 -110 -110 -110c-64 0 -111 42 -111 110z" />
    <glyph glyph-name="K" unicode="K" horiz-adv-x="320" 
d="M87 0h-31v700h31v-326h49l123 326h33l-130 -340l134 -360h-34l-126 345h-49v-345z" />
    <glyph glyph-name="L" unicode="L" horiz-adv-x="289" 
d="M261 0h-205v700h31v-671h174v-29z" />
    <glyph glyph-name="M" unicode="M" horiz-adv-x="443" 
d="M87 0h-31v700h48l116 -651h2l117 651h48v-700h-31v635h-2l-112 -635h-41l-112 635h-2v-635z" />
    <glyph glyph-name="N" unicode="N" horiz-adv-x="343" 
d="M87 0h-31v700h38l160 -621h2v621h31v-700h-38l-160 621h-2v-621z" />
    <glyph glyph-name="O" unicode="O" 
d="M161 703c67 0 116 -45 116 -114v-479c0 -69 -49 -113 -116 -113c-65 0 -114 44 -114 113v479c0 69 49 114 114 114zM78 589v-479c0 -52 35 -84 83 -84s85 32 85 84v479c0 52 -37 85 -85 85s-83 -33 -83 -85z" />
    <glyph glyph-name="P" unicode="P" 
d="M87 0h-31v700h106c67 0 116 -43 116 -114v-177c0 -71 -49 -113 -116 -113h-75v-296zM87 671v-346h75c48 0 84 32 84 84v177c0 52 -36 85 -84 85h-75z" />
    <glyph glyph-name="Q" unicode="Q" 
d="M146 -15v14c-59 7 -99 47 -99 111v479c0 69 49 114 114 114c67 0 116 -45 116 -114v-479c0 -64 -40 -104 -99 -111v-14c0 -52 36 -84 84 -84h15v-29h-15c-67 0 -116 44 -116 113zM78 589v-479c0 -52 35 -84 83 -84s85 32 85 84v479c0 52 -37 85 -85 85s-83 -33 -83 -85z
" />
    <glyph glyph-name="R" unicode="R" 
d="M297 0h-33l-103 315h-74v-315h-31v700h106c67 0 116 -43 116 -114v-158c0 -59 -35 -99 -87 -108zM87 671v-327h75c48 0 84 32 84 84v158c0 52 -36 85 -84 85h-75z" />
    <glyph glyph-name="S" unicode="S" 
d="M47 110v90h31v-90c0 -52 35 -84 83 -84s85 32 85 84v136c0 48 -31 77 -70 92c-56 21 -128 40 -128 134v120c0 69 49 111 113 111c65 0 115 -43 115 -111v-92h-32v92c0 51 -35 82 -83 82c-47 0 -81 -31 -81 -82v-120c0 -48 32 -77 69 -92c56 -21 128 -42 128 -134v-136
c0 -69 -49 -113 -116 -113c-65 0 -114 44 -114 113z" />
    <glyph glyph-name="T" unicode="T" horiz-adv-x="282" 
d="M125 671h-102v29h236v-29h-102v-671h-32v671z" />
    <glyph glyph-name="U" unicode="U" 
d="M47 110v590h31v-590c0 -52 35 -84 83 -84s85 32 85 84v590h31v-590c0 -69 -49 -113 -116 -113c-65 0 -114 44 -114 113z" />
    <glyph glyph-name="V" unicode="V" horiz-adv-x="315" 
d="M179 0h-43l-115 700h32l103 -657h2l104 657h32z" />
    <glyph glyph-name="W" unicode="W" horiz-adv-x="531" 
d="M177 0h-44l-111 700h32l99 -652h2l88 652h44l87 -652h2l99 652h33l-112 -700h-44l-86 651h-2z" />
    <glyph glyph-name="X" unicode="X" horiz-adv-x="315" 
d="M52 0h-32l115 360l-112 340h33l101 -316h2l100 316h33l-111 -340l114 -360h-32l-104 336h-2z" />
    <glyph glyph-name="Y" unicode="Y" horiz-adv-x="315" 
d="M173 0h-32v250l-120 450h33l102 -392h2l103 392h33l-121 -450v-250z" />
    <glyph glyph-name="Z" unicode="Z" horiz-adv-x="319" 
d="M272 0h-225v23l192 648h-192v29h225v-23l-192 -648h192v-29z" />
    <glyph glyph-name="bracketleft" unicode="[" horiz-adv-x="199" 
d="M171 -102h-124v852h124v-29h-93v-792h93v-31z" />
    <glyph glyph-name="backslash" unicode="\" horiz-adv-x="302" 
d="M265 -100h-32l-196 849h32z" />
    <glyph glyph-name="bracketright" unicode="]" horiz-adv-x="199" 
d="M153 -102h-125v29h93v793h-93v30h125v-852z" />
    <glyph glyph-name="asciicircum" unicode="^" horiz-adv-x="355" 
d="M184 668l-127 -107l-20 20l147 123l148 -123l-20 -20z" />
    <glyph glyph-name="underscore" unicode="_" 
d="M324 -54h-325v29h325v-29z" />
    <glyph glyph-name="grave" unicode="`" horiz-adv-x="307" 
d="M219 597l-21 -21l-110 89l21 21z" />
    <glyph glyph-name="a" unicode="a" 
d="M277 0h-31v59c-23 -39 -71 -62 -116 -62c-47 0 -83 33 -83 85v82c0 69 44 104 112 113l87 11v102c0 52 -36 84 -84 84s-84 -32 -84 -84v-43h-31v43c0 69 50 113 115 113c67 0 115 -44 115 -113v-390zM246 132v128l-84 -11c-49 -7 -84 -34 -84 -85v-78
c0 -37 26 -60 59 -60c29 0 54 10 76 29c22 20 33 46 33 77z" />
    <glyph glyph-name="b" unicode="b" horiz-adv-x="333" 
d="M67 25l-12 9v691h32v-284c24 41 61 62 111 62c49 0 88 -34 88 -89v-304c0 -69 -49 -113 -116 -113c-44 0 -87 16 -103 28zM87 368v-317c22 -17 50 -25 83 -25c48 0 85 32 85 84v300c0 39 -28 64 -64 64c-60 0 -104 -42 -104 -106z" />
    <glyph glyph-name="c" unicode="c" horiz-adv-x="315" 
d="M78 393v-287c0 -49 34 -80 79 -80s80 31 80 80v47h31v-47c0 -68 -47 -109 -111 -109s-110 41 -110 109v287c0 68 47 110 110 110c64 0 111 -42 111 -110v-46h-31v46c0 49 -35 81 -80 81s-79 -32 -79 -81z" />
    <glyph glyph-name="d" unicode="d" horiz-adv-x="333" 
d="M277 0h-31v59c-24 -41 -61 -62 -111 -62c-49 0 -88 34 -88 89v304c0 69 48 113 112 113c34 0 63 -7 87 -22v244h31v-725zM246 132v317c-22 17 -50 25 -84 25c-48 0 -84 -32 -84 -84v-300c0 -39 28 -64 63 -64c60 0 105 42 105 106z" />
    <glyph glyph-name="e" unicode="e" 
d="M277 389v-148h-199v-131c0 -52 35 -84 83 -84s85 32 85 84v43h31v-43c0 -69 -49 -113 -116 -113c-65 0 -114 44 -114 113v279c0 69 49 114 114 114c67 0 116 -45 116 -114zM78 389v-119h168v119c0 56 -36 85 -85 85s-83 -29 -83 -85z" />
    <glyph glyph-name="f" unicode="f" horiz-adv-x="234" 
d="M87 0h-31v622c0 65 46 106 107 106c16 0 32 -2 48 -6v-30c-14 5 -29 7 -46 7c-44 0 -78 -29 -78 -77v-122h124v-29h-124v-471z" />
    <glyph glyph-name="g" unicode="g" 
d="M47 -114v28h31v-28c0 -52 36 -85 84 -85s84 33 84 85v173c-24 -41 -61 -62 -111 -62c-49 0 -88 34 -88 89v304c0 69 50 113 115 113c45 0 87 -16 103 -28l12 -9v-580c0 -71 -48 -114 -115 -114c-65 0 -115 45 -115 114zM246 132v317c-22 17 -50 25 -84 25
c-48 0 -84 -32 -84 -84v-300c0 -39 28 -64 63 -64c60 0 105 42 105 106z" />
    <glyph glyph-name="h" unicode="h" horiz-adv-x="333" 
d="M87 0h-31v725h31v-284c25 41 62 62 112 62c49 0 88 -34 88 -89v-414h-32v410c0 39 -28 64 -63 64c-60 0 -105 -42 -105 -106v-368z" />
    <glyph glyph-name="i" unicode="i" horiz-adv-x="143" 
d="M87 0h-31v500h31v-500zM87 619h-31v81h31v-81z" />
    <glyph glyph-name="j" unicode="j" horiz-adv-x="143" 
d="M-49 -221v29c12 -5 26 -7 41 -7c36 0 64 26 64 63v636h31v-636c0 -57 -40 -92 -93 -92c-16 0 -30 2 -43 7zM87 619h-31v81h31v-81z" />
    <glyph glyph-name="k" unicode="k" horiz-adv-x="320" 
d="M87 0h-31v725h31v-457h64l108 232h35l-117 -246l120 -254h-35l-111 240h-64v-240z" />
    <glyph glyph-name="l" unicode="l" horiz-adv-x="143" 
d="M87 0h-31v725h31v-725z" />
    <glyph glyph-name="m" unicode="m" horiz-adv-x="533" 
d="M87 368v-368h-31v500h31v-59c25 41 62 62 112 62c43 0 77 -25 86 -66c24 44 62 66 113 66c49 0 88 -34 88 -89v-414h-32v410c0 39 -28 64 -63 64c-57 0 -104 -45 -104 -105v-369h-32v410c0 39 -28 64 -63 64c-60 0 -105 -42 -105 -106z" />
    <glyph glyph-name="n" unicode="n" horiz-adv-x="333" 
d="M87 368v-368h-31v500h31v-59c25 41 62 62 112 62c49 0 88 -34 88 -89v-414h-32v410c0 39 -28 64 -63 64c-60 0 -105 -42 -105 -106z" />
    <glyph glyph-name="o" unicode="o" 
d="M161 503c67 0 116 -45 116 -114v-279c0 -69 -49 -113 -116 -113c-65 0 -114 44 -114 113v279c0 69 49 114 114 114zM78 389v-279c0 -52 35 -84 83 -84s85 32 85 84v279c0 52 -37 85 -85 85s-83 -33 -83 -85z" />
    <glyph glyph-name="p" unicode="p" horiz-adv-x="333" 
d="M87 -200h-31v700h31v-59c25 41 62 62 112 62c49 0 88 -34 88 -89v-304c0 -69 -49 -113 -113 -113c-33 0 -62 7 -87 21v-218zM87 368v-317c22 -17 50 -25 84 -25c48 0 84 32 84 84v300c0 39 -28 64 -63 64c-60 0 -105 -42 -105 -106z" />
    <glyph glyph-name="q" unicode="q" 
d="M277 -200h-31v259c-24 -41 -61 -62 -111 -62c-49 0 -88 34 -88 89v304c0 69 50 113 115 113c45 0 87 -16 103 -28l12 -9v-666zM246 132v317c-22 17 -50 25 -84 25c-48 0 -84 -32 -84 -84v-300c0 -39 28 -64 63 -64c60 0 105 42 105 106z" />
    <glyph glyph-name="r" unicode="r" horiz-adv-x="283" 
d="M87 0h-31v500h31v-85c21 59 55 88 104 88c35 0 60 -24 60 -61v-95h-31v89c0 23 -16 38 -37 38c-60 0 -96 -67 -96 -151v-323z" />
    <glyph glyph-name="s" unicode="s" horiz-adv-x="315" 
d="M47 106v47h31v-47c0 -49 34 -80 79 -80s80 31 80 80v55c0 47 -30 71 -67 80c-54 15 -122 25 -122 117v38c0 67 46 107 109 107s110 -40 110 -107v-49h-32v49c0 48 -33 78 -78 78c-44 0 -77 -30 -77 -78v-38c0 -47 30 -70 66 -81c54 -13 122 -25 122 -116v-55
c0 -68 -47 -109 -111 -109s-110 41 -110 109z" />
    <glyph glyph-name="t" unicode="t" horiz-adv-x="239" 
d="M211 33v-30c-16 -4 -32 -6 -48 -6c-61 0 -107 41 -107 106v517h31v-120h124v-29h-124v-368c0 -48 34 -77 78 -77c17 0 32 2 46 7z" />
    <glyph glyph-name="u" unicode="u" horiz-adv-x="333" 
d="M277 0h-31v59c-24 -41 -61 -62 -111 -62c-49 0 -88 34 -88 89v414h31v-410c0 -39 28 -64 63 -64c60 0 105 42 105 106v368h31v-500z" />
    <glyph glyph-name="v" unicode="v" horiz-adv-x="315" 
d="M179 0h-43l-115 500h33l102 -465h2l103 465h33z" />
    <glyph glyph-name="w" unicode="w" horiz-adv-x="503" 
d="M169 0h-42l-106 500h33l93 -463h2l80 463h43l80 -463h2l92 463h33l-105 -500h-42l-81 462h-2z" />
    <glyph glyph-name="x" unicode="x" 
d="M58 0h-35l119 254l-116 246h35l99 -219h2l101 219h34l-116 -246l120 -254h-35l-104 228h-2z" />
    <glyph glyph-name="y" unicode="y" horiz-adv-x="333" 
d="M47 -114v28h31v-28c0 -52 36 -85 84 -85s84 33 84 85v173c-24 -41 -61 -62 -111 -62c-49 0 -88 34 -88 89v414h31v-410c0 -39 28 -64 63 -64c60 0 105 42 105 106v368h31v-614c0 -71 -48 -114 -115 -114c-65 0 -115 45 -115 114z" />
    <glyph glyph-name="z" unicode="z" horiz-adv-x="319" 
d="M272 0h-225v23l190 448h-190v29h225v-23l-190 -448h190v-29z" />
    <glyph glyph-name="braceleft" unicode="{" horiz-adv-x="274" 
d="M247 -74v-29h-10c-67 0 -115 44 -115 113v216c0 52 -36 84 -84 84h-10v31h10c48 0 84 33 84 85v213c0 71 48 114 115 114h10v-29h-10c-48 0 -84 -33 -84 -85v-213c0 -48 -20 -82 -60 -101c40 -18 60 -51 60 -99v-216c0 -52 36 -84 84 -84h10z" />
    <glyph glyph-name="bar" unicode="|" horiz-adv-x="143" 
d="M87 -100h-31v850h31v-850z" />
    <glyph glyph-name="braceright" unicode="}" horiz-adv-x="274" 
d="M38 -103h-10v29h10c48 0 84 33 84 85v213c0 48 20 82 60 101c-40 18 -60 51 -60 99v216c0 52 -36 84 -84 84h-10v29h10c65 0 115 -44 115 -113v-216c0 -52 36 -84 84 -84h10v-31h-10c-48 0 -84 -33 -84 -85v-213c0 -71 -48 -114 -115 -114z" />
    <glyph glyph-name="asciitilde" unicode="~" horiz-adv-x="387" 
d="M74 237h-27c0 52 36 85 87 85c72 0 64 -64 120 -64c33 0 60 23 60 59h27c0 -52 -38 -85 -87 -85c-60 0 -77 64 -120 64c-35 0 -60 -23 -60 -59z" />
    <glyph glyph-name="exclamdown" unicode="&#xa1;" horiz-adv-x="143" 
d="M87 -200h-31v522h31v-522zM87 419h-31v81h31v-81z" />
    <glyph glyph-name="cent" unicode="&#xa2;" horiz-adv-x="315" 
d="M173 -100h-32v99c-56 5 -94 44 -94 107v287c0 63 38 101 94 108v99h32v-99c56 -7 95 -47 95 -108v-46h-31v46c0 49 -35 81 -80 81s-79 -32 -79 -81v-287c0 -49 34 -80 79 -80s80 31 80 80v47h31v-47c0 -61 -40 -102 -95 -107v-99z" />
    <glyph glyph-name="sterling" unicode="&#xa3;" horiz-adv-x="344" 
d="M75 315h-47v29h47v249c0 68 47 110 111 110s111 -42 111 -110v-93h-31v93c0 49 -35 81 -80 81s-79 -32 -79 -81v-249h190v-29h-190v-286h190v-29h-269v29h47v286z" />
    <glyph glyph-name="currency" unicode="&#xa4;" 
d="M224 387l39 88h34l-49 -107c19 -21 29 -47 29 -79v-79c0 -31 -9 -56 -27 -76l51 -109h-35l-40 89c-19 -11 -41 -17 -65 -17c-25 0 -47 5 -64 16l-39 -88h-35l50 109c-17 21 -26 46 -26 76v79c0 32 10 59 29 80l-50 106h35l39 -87c36 20 85 20 124 -1zM78 289v-79
c0 -52 35 -84 83 -84s85 32 85 84v79c0 52 -37 85 -85 85s-83 -33 -83 -85z" />
    <glyph glyph-name="yen" unicode="&#xa5;" horiz-adv-x="315" 
d="M141 238h-99v28h94l-115 434h33l102 -392h2l103 392h33l-117 -434h96v-28h-100v-85h100v-29h-100v-124h-32v124h-99v29h99v85z" />
    <glyph glyph-name="brokenbar" unicode="&#xa6;" horiz-adv-x="143" 
d="M87 -100h-31v375h31v-375zM87 375h-31v375h31v-375z" />
    <glyph glyph-name="section" unicode="&#xa7;" 
d="M277 266v-136c0 -25 -6 -45 -17 -62c11 -19 17 -42 17 -67v-116c0 -69 -49 -113 -116 -113c-65 0 -114 44 -114 113v90h31v-90c0 -52 35 -84 83 -84s85 32 85 84v116c0 48 -31 77 -70 92c-56 21 -128 40 -128 134v120c0 28 8 51 23 70c-15 19 -23 44 -23 75v100
c0 69 49 111 113 111c65 0 115 -43 115 -111v-92h-32v92c0 51 -35 82 -83 82c-47 0 -81 -31 -81 -82v-100c0 -48 32 -77 69 -92c56 -21 128 -42 128 -134zM246 130v136c0 27 -8 48 -23 62c-15 15 -38 27 -68 38c-29 11 -50 21 -62 30c-9 -14 -13 -30 -13 -49v-120
c0 -44 28 -74 56 -86l53 -22c21 -9 38 -18 49 -27c5 12 8 25 8 38z" />
    <glyph glyph-name="dieresis" unicode="&#xa8;" horiz-adv-x="298" 
d="M90 597h-29v81h29v-81zM227 597h-29v81h29v-81z" />
    <glyph glyph-name="copyright" unicode="&#xa9;" horiz-adv-x="740" 
d="M685 424v-149c0 -85 -30 -153 -91 -203c-60 -50 -135 -75 -225 -75s-165 25 -225 74c-59 50 -89 118 -89 204v149c0 85 30 153 89 203c60 51 135 76 225 76s165 -25 225 -76c61 -50 91 -118 91 -203zM87 424v-149c0 -76 27 -137 80 -182c54 -45 121 -67 202 -67
s148 22 202 67c55 45 82 106 82 182v149c0 75 -27 136 -82 181c-54 46 -121 69 -202 69c-80 0 -147 -23 -201 -69c-54 -45 -81 -106 -81 -181zM286 424v-149c0 -52 36 -84 84 -84c47 0 84 33 84 84v23h31v-23c0 -69 -50 -112 -115 -112c-67 0 -115 43 -115 112v149
c0 71 48 113 115 113c65 0 115 -42 115 -113v-22h-31v22c0 51 -37 85 -84 85c-48 0 -84 -33 -84 -85z" />
    <glyph glyph-name="ordfeminine" unicode="&#xaa;" horiz-adv-x="181" 
d="M151 450h-25v27c-12 -19 -30 -28 -55 -28c-23 0 -40 16 -40 41v44c0 33 19 51 56 56l39 5v50c0 48 -71 48 -71 0v-23h-24v23c0 35 25 57 60 57c33 0 60 -22 60 -57v-195zM126 514v60l-35 -4c-24 -4 -36 -16 -36 -36v-39c0 -16 12 -26 25 -26c24 0 46 20 46 45z" />
    <glyph glyph-name="guillemotleft" unicode="&#xab;" horiz-adv-x="278" 
d="M118 425h34l-81 -175l81 -175h-34l-81 175zM216 425h34l-81 -175l81 -175h-34l-81 175z" />
    <glyph glyph-name="logicalnot" unicode="&#xac;" horiz-adv-x="343" 
d="M274 307h-237v29h269v-145h-32v116z" />
    <glyph glyph-name="uni00AD" unicode="&#xad;" horiz-adv-x="219" 
d="M182 257h-145v29h145v-29z" />
    <glyph glyph-name="registered" unicode="&#xae;" horiz-adv-x="740" 
d="M685 424v-149c0 -85 -30 -153 -91 -203c-60 -50 -135 -75 -225 -75s-165 25 -225 74c-59 50 -89 118 -89 204v149c0 85 30 153 89 203c60 51 135 76 225 76s165 -25 225 -76c61 -50 91 -118 91 -203zM87 424v-149c0 -76 27 -137 80 -182c54 -45 121 -67 202 -67
s148 22 202 67c55 45 82 106 82 182v149c0 75 -27 136 -82 181c-54 46 -121 69 -202 69c-80 0 -147 -23 -201 -69c-54 -45 -81 -106 -81 -181zM499 169h-32l-90 148h-82v-148h-32v364h115c65 0 107 -36 107 -96v-25c0 -51 -26 -82 -78 -91zM295 504v-158h83
c47 0 76 25 76 66v25c0 41 -29 67 -76 67h-83z" />
    <glyph glyph-name="overscore" unicode="&#xaf;" horiz-adv-x="143" 
d="M161 611h-180v29h180v-29z" />
    <glyph glyph-name="degree" unicode="&#xb0;" horiz-adv-x="282" 
d="M55 592v25c0 52 37 86 85 86c49 0 86 -34 86 -86v-25c0 -53 -38 -84 -86 -84c-49 0 -85 32 -85 84zM82 617v-25c0 -36 25 -59 58 -59s60 23 60 59v25c0 36 -27 60 -60 60s-58 -24 -58 -60z" />
    <glyph glyph-name="plusminus" unicode="&#xb1;" horiz-adv-x="343" 
d="M156 296h-119v29h119v125h29v-125h121v-29h-121v-124h-29v124zM306 105h-269v28h269v-28z" />
    <glyph glyph-name="twosuperior" unicode="&#xb2;" horiz-adv-x="161" 
d="M133 400h-105v56c0 67 81 74 81 127v66c0 39 -58 39 -58 2v-33h-24v33c-7 64 110 63 106 -2v-66c0 -66 -81 -74 -81 -127v-36h81v-20z" />
    <glyph glyph-name="threesuperior" unicode="&#xb3;" horiz-adv-x="160" 
d="M109 449v66c0 19 -13 30 -29 30h-22v20h21c17 0 30 11 30 30v54c0 39 -58 39 -58 2v-33h-24v33c-7 64 110 63 106 -2v-48c0 -23 -10 -38 -31 -45c21 -8 31 -24 31 -47v-60c5 -65 -111 -66 -105 -2v33h24v-33c0 -37 57 -38 57 2z" />
    <glyph glyph-name="acute" unicode="&#xb4;" horiz-adv-x="307" 
d="M218 666l-109 -90l-21 21l109 90z" />
    <glyph glyph-name="mu" unicode="&#xb5;" horiz-adv-x="333" 
d="M78 -150h-31v650h31v-410c0 -39 28 -64 63 -64c60 0 105 42 105 106v368h31v-500h-31v58c-21 -40 -56 -60 -105 -60c-27 0 -48 9 -63 26v-174z" />
    <glyph glyph-name="paragraph" unicode="&#xb6;" horiz-adv-x="431" 
d="M162 700h106v-800h-31v396h-75c-65 0 -115 42 -115 113v177c0 71 50 114 115 114zM344 700h31v-800h-31v800z" />
    <glyph glyph-name="middot" unicode="&#xb7;" horiz-adv-x="142" 
d="M86 222h-31v81h31v-81z" />
    <glyph glyph-name="cedilla" unicode="&#xb8;" horiz-adv-x="138" 
d="M83 -128h-28v133h28v-133z" />
    <glyph glyph-name="onesuperior" unicode="&#xb9;" horiz-adv-x="117" 
d="M61 674l-41 -25v23l41 26h24v-298h-24v274z" />
    <glyph glyph-name="ordmasculine" unicode="&#xba;" horiz-adv-x="181" 
d="M91 702c33 0 60 -22 60 -57v-140c0 -35 -27 -56 -60 -56c-35 0 -60 21 -60 56v140c0 35 25 57 60 57zM55 645v-140c0 -23 15 -36 36 -36c20 0 35 13 35 36v140c0 47 -71 47 -71 0z" />
    <glyph glyph-name="guillemotright" unicode="&#xbb;" horiz-adv-x="278" 
d="M63 75h-35l81 175l-81 175h35l80 -175zM161 75h-35l81 175l-81 175h35l80 -175z" />
    <glyph glyph-name="onequarter" unicode="&#xbc;" horiz-adv-x="491" 
d="M112 0h-29l296 700h29zM418 59h-83v20l70 219h37v-219h11v-20h-11v-59h-24v59zM90 674l-41 -25v23l41 26h24v-298h-24v274zM418 270l-61 -191h61v191z" />
    <glyph glyph-name="onehalf" unicode="&#xbd;" horiz-adv-x="491" 
d="M112 0h-29l296 700h29zM90 674l-41 -25v23l41 26h24v-298h-24v274zM444 0h-105v56c-3 58 85 83 81 127v66c1 39 -61 38 -58 2v-33h-24v33c-7 64 110 63 106 -2v-66c0 -66 -81 -74 -81 -127v-36h81v-20z" />
    <glyph glyph-name="threequarters" unicode="&#xbe;" horiz-adv-x="491" 
d="M112 0h-29l296 700h29zM418 59h-83v20l70 219h37v-219h11v-20h-11v-59h-24v59zM138 449v66c0 19 -13 30 -29 30h-22v20h21c17 0 30 11 30 30v54c0 39 -59 38 -59 2v-33h-24v33c-6 63 112 64 107 -2v-48c0 -23 -11 -38 -32 -45c21 -8 32 -24 32 -47v-60
c5 -65 -111 -66 -105 -2v33h24v-33c0 -37 57 -38 57 2zM418 270l-61 -191h61v191z" />
    <glyph glyph-name="questiondown" unicode="&#xbf;" horiz-adv-x="320" 
d="M147 240v85h31v-85c0 -55 -16 -91 -36 -108c-27 -25 -65 -45 -65 -121v-98c0 -52 37 -85 85 -85c45 0 80 31 80 79v93h31v-93c0 -67 -47 -108 -111 -108c-67 0 -116 43 -116 114v98c0 148 101 98 101 229zM178 422h-31v81h31v-81z" />
    <glyph glyph-name="Agrave" unicode="&#xc0;" horiz-adv-x="315" 
d="M53 0h-32l115 700h43l115 -700h-32l-35 213h-139zM157 657l-66 -415h133l-65 415h-2zM223 797l-21 -21l-110 89l21 21z" />
    <glyph glyph-name="Aacute" unicode="&#xc1;" horiz-adv-x="315" 
d="M53 0h-32l115 700h43l115 -700h-32l-35 213h-139zM157 657l-66 -415h133l-65 415h-2zM223 866l-109 -90l-21 21l109 90z" />
    <glyph glyph-name="Acircumflex" unicode="&#xc2;" horiz-adv-x="315" 
d="M53 0h-32l115 700h43l115 -700h-32l-35 213h-139zM157 657l-66 -415h133l-65 415h-2zM158 837l-80 -61l-20 20l100 77l100 -77l-20 -20z" />
    <glyph glyph-name="Atilde" unicode="&#xc3;" horiz-adv-x="315" 
d="M53 0h-32l115 700h43l115 -700h-32l-35 213h-139zM157 657l-66 -415h133l-65 415h-2zM68 784h-25c0 41 28 66 67 66c20 0 38 -8 53 -23s30 -22 43 -22c23 0 41 16 41 40h26c0 -41 -28 -66 -67 -66c-19 0 -37 7 -53 22s-30 23 -43 23c-23 0 -42 -15 -42 -40z" />
    <glyph glyph-name="Adieresis" unicode="&#xc4;" horiz-adv-x="315" 
d="M53 0h-32l115 700h43l115 -700h-32l-35 213h-139zM157 657l-66 -415h133l-65 415h-2zM103 797h-29v81h29v-81zM240 797h-29v81h29v-81z" />
    <glyph glyph-name="Aring" unicode="&#xc5;" horiz-adv-x="315" 
d="M53 0h-32l115 700h43l115 -700h-32l-35 213h-139zM157 657l-66 -415h133l-65 415h-2zM157 905c44 0 76 -28 76 -75s-32 -75 -76 -75c-43 0 -74 27 -74 74c0 48 31 76 74 76zM157 780c29 0 51 18 51 49s-22 51 -51 51c-28 0 -49 -20 -49 -51s21 -49 49 -49z" />
    <glyph glyph-name="AE" unicode="&#xc6;" horiz-adv-x="422" 
d="M375 29v-29h-185v213h-93l-44 -213h-32l146 700h208v-29h-153v-297h133v-29h-133v-316h153zM188 660l-86 -418h88v418h-2z" />
    <glyph glyph-name="Ccedilla" unicode="&#xc7;" horiz-adv-x="315" 
d="M171 -128h-28v126c-57 5 -96 45 -96 108v487c0 68 47 110 110 110c64 0 111 -42 111 -110v-93h-31v93c0 49 -35 81 -80 81s-79 -32 -79 -81v-487c0 -49 34 -80 79 -80s80 31 80 80v94h31v-94c0 -63 -41 -103 -97 -108v-126z" />
    <glyph glyph-name="Egrave" unicode="&#xc8;" horiz-adv-x="313" 
d="M266 0h-210v700h210v-29h-179v-297h159v-29h-159v-316h179v-29zM222 797l-21 -21l-110 89l21 21z" />
    <glyph glyph-name="Eacute" unicode="&#xc9;" horiz-adv-x="313" 
d="M266 0h-210v700h210v-29h-179v-297h159v-29h-159v-316h179v-29zM222 866l-109 -90l-21 21l109 90z" />
    <glyph glyph-name="Ecircumflex" unicode="&#xca;" horiz-adv-x="313" 
d="M157 837l-80 -61l-20 20l100 77l100 -77l-20 -20zM266 0h-210v700h210v-29h-179v-297h159v-29h-159v-316h179v-29z" />
    <glyph glyph-name="Edieresis" unicode="&#xcb;" horiz-adv-x="313" 
d="M266 0h-210v700h210v-29h-179v-297h159v-29h-159v-316h179v-29zM102 797h-29v81h29v-81zM239 797h-29v81h29v-81z" />
    <glyph glyph-name="Igrave" unicode="&#xcc;" horiz-adv-x="143" 
d="M138 797l-21 -21l-110 89l21 21zM87 0h-31v700h31v-700z" />
    <glyph glyph-name="Iacute" unicode="&#xcd;" horiz-adv-x="143" 
d="M137 866l-109 -90l-21 21l109 90zM87 0h-31v700h31v-700z" />
    <glyph glyph-name="Icircumflex" unicode="&#xce;" horiz-adv-x="143" 
d="M72 837l-80 -61l-20 20l100 77l100 -77l-20 -20zM87 0h-31v700h31v-700z" />
    <glyph glyph-name="Idieresis" unicode="&#xcf;" horiz-adv-x="143" 
d="M18 797h-29v81h29v-81zM155 797h-29v81h29v-81zM87 0h-31v700h31v-700z" />
    <glyph glyph-name="Eth" unicode="&#xd0;" horiz-adv-x="329" 
d="M56 345h-29v29h29v326h110c67 0 116 -43 116 -114v-473c0 -71 -49 -113 -116 -113h-110v345zM87 345v-316h79c48 0 85 32 85 84v473c0 52 -37 85 -85 85h-79v-297h87v-29h-87z" />
    <glyph glyph-name="Ntilde" unicode="&#xd1;" horiz-adv-x="343" 
d="M87 0h-31v700h38l160 -621h2v621h31v-700h-38l-160 621h-2v-621zM82 784h-25c0 41 28 66 67 66c20 0 38 -8 53 -23s30 -22 43 -22c23 0 41 16 41 40h26c0 -41 -28 -66 -67 -66c-19 0 -37 7 -53 22s-30 23 -43 23c-23 0 -42 -15 -42 -40z" />
    <glyph glyph-name="Ograve" unicode="&#xd2;" 
d="M161 703c67 0 116 -45 116 -114v-479c0 -69 -49 -113 -116 -113c-65 0 -114 44 -114 113v479c0 69 49 114 114 114zM78 589v-479c0 -52 35 -84 83 -84s85 32 85 84v479c0 52 -37 85 -85 85s-83 -33 -83 -85zM227 797l-21 -21l-110 89l21 21z" />
    <glyph glyph-name="Oacute" unicode="&#xd3;" 
d="M161 703c67 0 116 -45 116 -114v-479c0 -69 -49 -113 -116 -113c-65 0 -114 44 -114 113v479c0 69 49 114 114 114zM78 589v-479c0 -52 35 -84 83 -84s85 32 85 84v479c0 52 -37 85 -85 85s-83 -33 -83 -85zM226 866l-109 -90l-21 21l109 90z" />
    <glyph glyph-name="Ocircumflex" unicode="&#xd4;" 
d="M162 837l-80 -61l-20 20l100 77l100 -77l-20 -20zM161 703c67 0 116 -45 116 -114v-479c0 -69 -49 -113 -116 -113c-65 0 -114 44 -114 113v479c0 69 49 114 114 114zM78 589v-479c0 -52 35 -84 83 -84s85 32 85 84v479c0 52 -37 85 -85 85s-83 -33 -83 -85z" />
    <glyph glyph-name="Otilde" unicode="&#xd5;" 
d="M161 703c67 0 116 -45 116 -114v-479c0 -69 -49 -113 -116 -113c-65 0 -114 44 -114 113v479c0 69 49 114 114 114zM78 589v-479c0 -52 35 -84 83 -84s85 32 85 84v479c0 52 -37 85 -85 85s-83 -33 -83 -85zM72 784h-25c0 41 28 66 67 66c20 0 38 -8 53 -23
s30 -22 43 -22c23 0 41 16 41 40h26c0 -41 -28 -66 -67 -66c-19 0 -37 7 -53 22s-30 23 -43 23c-23 0 -42 -15 -42 -40z" />
    <glyph glyph-name="Odieresis" unicode="&#xd6;" 
d="M161 703c67 0 116 -45 116 -114v-479c0 -69 -49 -113 -116 -113c-65 0 -114 44 -114 113v479c0 69 49 114 114 114zM78 589v-479c0 -52 35 -84 83 -84s85 32 85 84v479c0 52 -37 85 -85 85s-83 -33 -83 -85zM108 797h-29v81h29v-81zM245 797h-29v81h29v-81z" />
    <glyph glyph-name="multiply" unicode="&#xd7;" horiz-adv-x="343" 
d="M151 310l-115 114l21 21l114 -115l114 115l20 -20l-114 -115l114 -114l-20 -20l-114 114l-114 -114l-21 21z" />
    <glyph glyph-name="Oslash" unicode="&#xd8;" 
d="M63 0h-26l19 61c-6 14 -9 30 -9 49v479c0 69 49 114 114 114c37 0 67 -12 88 -37l11 34h27l-20 -62c7 -15 10 -32 10 -49v-479c0 -69 -49 -113 -116 -113c-37 0 -67 12 -88 36zM161 26c48 0 85 32 85 84v462l-161 -501c13 -30 39 -45 76 -45zM78 589v-461l159 501
c-15 30 -41 45 -76 45c-48 0 -83 -33 -83 -85z" />
    <glyph glyph-name="Ugrave" unicode="&#xd9;" 
d="M47 110v590h31v-590c0 -52 35 -84 83 -84s85 32 85 84v590h31v-590c0 -69 -49 -113 -116 -113c-65 0 -114 44 -114 113zM227 797l-21 -21l-110 89l21 21z" />
    <glyph glyph-name="Uacute" unicode="&#xda;" 
d="M47 110v590h31v-590c0 -52 35 -84 83 -84s85 32 85 84v590h31v-590c0 -69 -49 -113 -116 -113c-65 0 -114 44 -114 113zM226 866l-109 -90l-21 21l109 90z" />
    <glyph glyph-name="Ucircumflex" unicode="&#xdb;" 
d="M162 837l-80 -61l-20 20l100 77l100 -77l-20 -20zM47 110v590h31v-590c0 -52 35 -84 83 -84s85 32 85 84v590h31v-590c0 -69 -49 -113 -116 -113c-65 0 -114 44 -114 113z" />
    <glyph glyph-name="Udieresis" unicode="&#xdc;" 
d="M47 110v590h31v-590c0 -52 35 -84 83 -84s85 32 85 84v590h31v-590c0 -69 -49 -113 -116 -113c-65 0 -114 44 -114 113zM108 797h-29v81h29v-81zM245 797h-29v81h29v-81z" />
    <glyph glyph-name="Yacute" unicode="&#xdd;" horiz-adv-x="315" 
d="M173 0h-32v250l-120 450h33l102 -392h2l103 392h33l-121 -450v-250zM223 866l-109 -90l-21 21l109 90z" />
    <glyph glyph-name="Thorn" unicode="&#xde;" horiz-adv-x="302" 
d="M87 0h-31v700h31v-121h53c65 0 116 -43 116 -112v-233c0 -69 -51 -113 -116 -113h-53v-121zM87 551v-402h53c48 0 84 33 84 85v233c0 52 -36 84 -84 84h-53z" />
    <glyph glyph-name="germandbls" unicode="&#xdf;" horiz-adv-x="385" 
d="M135 106v47h32v-47c0 -49 34 -80 79 -80s80 31 80 80v55c0 47 -30 71 -67 80c-54 15 -122 25 -122 117v39c0 43 26 69 51 78c25 11 51 36 51 77v66c0 49 -36 81 -81 81s-80 -32 -80 -81v-618h-31v618c0 68 47 110 111 110c65 0 113 -42 113 -110v-68
c0 -47 -25 -76 -52 -88c-25 -11 -51 -32 -51 -67v-37c0 -47 30 -70 66 -81c54 -14 123 -25 123 -116v-55c0 -68 -47 -109 -111 -109s-111 41 -111 109z" />
    <glyph glyph-name="agrave" unicode="&#xe0;" 
d="M277 0h-31v59c-23 -39 -71 -62 -116 -62c-47 0 -83 33 -83 85v82c0 69 44 104 112 113l87 11v102c0 52 -36 84 -84 84s-84 -32 -84 -84v-43h-31v43c0 69 50 113 115 113c67 0 115 -44 115 -113v-390zM246 132v128l-84 -11c-49 -7 -84 -34 -84 -85v-78
c0 -37 26 -60 59 -60c29 0 54 10 76 29c22 20 33 46 33 77zM227 597l-21 -21l-110 89l21 21z" />
    <glyph glyph-name="aacute" unicode="&#xe1;" 
d="M277 0h-31v59c-23 -39 -71 -62 -116 -62c-47 0 -83 33 -83 85v82c0 69 44 104 112 113l87 11v102c0 52 -36 84 -84 84s-84 -32 -84 -84v-43h-31v43c0 69 50 113 115 113c67 0 115 -44 115 -113v-390zM246 132v128l-84 -11c-49 -7 -84 -34 -84 -85v-78
c0 -37 26 -60 59 -60c29 0 54 10 76 29c22 20 33 46 33 77zM226 666l-109 -90l-21 21l109 90z" />
    <glyph glyph-name="acircumflex" unicode="&#xe2;" 
d="M277 0h-31v59c-23 -39 -71 -62 -116 -62c-47 0 -83 33 -83 85v82c0 69 44 104 112 113l87 11v102c0 52 -36 84 -84 84s-84 -32 -84 -84v-43h-31v43c0 69 50 113 115 113c67 0 115 -44 115 -113v-390zM246 132v128l-84 -11c-49 -7 -84 -34 -84 -85v-78
c0 -37 26 -60 59 -60c29 0 54 10 76 29c22 20 33 46 33 77zM162 637l-80 -61l-20 20l100 77l100 -77l-20 -20z" />
    <glyph glyph-name="atilde" unicode="&#xe3;" 
d="M277 0h-31v59c-23 -39 -71 -62 -116 -62c-47 0 -83 33 -83 85v82c0 69 44 104 112 113l87 11v102c0 52 -36 84 -84 84s-84 -32 -84 -84v-43h-31v43c0 69 50 113 115 113c67 0 115 -44 115 -113v-390zM246 132v128l-84 -11c-49 -7 -84 -34 -84 -85v-78
c0 -37 26 -60 59 -60c29 0 54 10 76 29c22 20 33 46 33 77zM72 584h-25c0 41 28 66 67 66c20 0 38 -8 53 -23s30 -22 43 -22c23 0 41 16 41 40h26c0 -41 -28 -66 -67 -66c-19 0 -37 7 -53 22s-30 23 -43 23c-23 0 -42 -15 -42 -40z" />
    <glyph glyph-name="adieresis" unicode="&#xe4;" 
d="M277 0h-31v59c-23 -39 -71 -62 -116 -62c-47 0 -83 33 -83 85v82c0 69 44 104 112 113l87 11v102c0 52 -36 84 -84 84s-84 -32 -84 -84v-43h-31v43c0 69 50 113 115 113c67 0 115 -44 115 -113v-390zM246 132v128l-84 -11c-49 -7 -84 -34 -84 -85v-78
c0 -37 26 -60 59 -60c29 0 54 10 76 29c22 20 33 46 33 77zM108 597h-29v81h29v-81zM245 597h-29v81h29v-81z" />
    <glyph glyph-name="aring" unicode="&#xe5;" 
d="M277 0h-31v59c-23 -39 -71 -62 -116 -62c-47 0 -83 33 -83 85v82c0 69 44 104 112 113l87 11v102c0 52 -36 84 -84 84s-84 -32 -84 -84v-43h-31v43c0 69 50 113 115 113c67 0 115 -44 115 -113v-390zM246 132v128l-84 -11c-49 -7 -84 -34 -84 -85v-78
c0 -37 26 -60 59 -60c29 0 54 10 76 29c22 20 33 46 33 77zM161 705c44 0 76 -28 76 -75s-32 -75 -76 -75c-43 0 -74 27 -74 74c0 48 31 76 74 76zM161 580c29 0 51 18 51 49s-22 51 -51 51c-28 0 -49 -20 -49 -51s21 -49 49 -49z" />
    <glyph glyph-name="ae" unicode="&#xe6;" horiz-adv-x="523" 
d="M477 389v-144h-200v-135c0 -52 36 -84 84 -84s84 32 84 84v43h32v-43c0 -69 -51 -113 -116 -113c-51 0 -92 27 -107 71c-30 -47 -71 -71 -124 -71c-47 0 -83 33 -83 85v64c0 71 48 117 112 121l87 6v117c0 52 -36 84 -84 84s-84 -32 -84 -84v-43h-31v43
c0 69 50 113 115 113c49 0 82 -20 100 -61c16 39 54 61 99 61c65 0 116 -45 116 -114zM246 132v113l-84 -7c-47 -3 -84 -40 -84 -92v-60c0 -37 26 -60 59 -60c29 0 54 10 76 29c22 20 33 46 33 77zM277 389v-115h168v115c0 56 -35 85 -84 85s-84 -29 -84 -85z" />
    <glyph glyph-name="ccedilla" unicode="&#xe7;" horiz-adv-x="315" 
d="M171 -128h-28v126c-57 5 -96 45 -96 108v287c0 68 47 110 110 110c64 0 111 -42 111 -110v-46h-31v46c0 49 -35 81 -80 81s-79 -32 -79 -81v-287c0 -49 34 -80 79 -80s80 31 80 80v47h31v-47c0 -63 -41 -103 -97 -108v-126z" />
    <glyph glyph-name="egrave" unicode="&#xe8;" 
d="M277 389v-148h-199v-131c0 -52 35 -84 83 -84s85 32 85 84v43h31v-43c0 -69 -49 -113 -116 -113c-65 0 -114 44 -114 113v279c0 69 49 114 114 114c67 0 116 -45 116 -114zM78 389v-119h168v119c0 56 -36 85 -85 85s-83 -29 -83 -85zM227 597l-21 -21l-110 89l21 21z" />
    <glyph glyph-name="eacute" unicode="&#xe9;" 
d="M277 389v-148h-199v-131c0 -52 35 -84 83 -84s85 32 85 84v43h31v-43c0 -69 -49 -113 -116 -113c-65 0 -114 44 -114 113v279c0 69 49 114 114 114c67 0 116 -45 116 -114zM78 389v-119h168v119c0 56 -36 85 -85 85s-83 -29 -83 -85zM226 666l-109 -90l-21 21l109 90z
" />
    <glyph glyph-name="ecircumflex" unicode="&#xea;" 
d="M277 389v-148h-199v-131c0 -52 35 -84 83 -84s85 32 85 84v43h31v-43c0 -69 -49 -113 -116 -113c-65 0 -114 44 -114 113v279c0 69 49 114 114 114c67 0 116 -45 116 -114zM78 389v-119h168v119c0 56 -36 85 -85 85s-83 -29 -83 -85zM162 637l-80 -61l-20 20l100 77
l100 -77l-20 -20z" />
    <glyph glyph-name="edieresis" unicode="&#xeb;" 
d="M277 389v-148h-199v-131c0 -52 35 -84 83 -84s85 32 85 84v43h31v-43c0 -69 -49 -113 -116 -113c-65 0 -114 44 -114 113v279c0 69 49 114 114 114c67 0 116 -45 116 -114zM78 389v-119h168v119c0 56 -36 85 -85 85s-83 -29 -83 -85zM108 597h-29v81h29v-81zM245 597h-29
v81h29v-81z" />
    <glyph glyph-name="igrave" unicode="&#xec;" horiz-adv-x="143" 
d="M138 597l-21 -21l-110 89l21 21zM87 0h-31v500h31v-500z" />
    <glyph glyph-name="iacute" unicode="&#xed;" horiz-adv-x="143" 
d="M137 666l-109 -90l-21 21l109 90zM87 0h-31v500h31v-500z" />
    <glyph glyph-name="icircumflex" unicode="&#xee;" horiz-adv-x="143" 
d="M72 637l-80 -61l-20 20l100 77l100 -77l-20 -20zM87 0h-31v500h31v-500z" />
    <glyph glyph-name="idieresis" unicode="&#xef;" horiz-adv-x="143" 
d="M18 597h-29v81h29v-81zM155 597h-29v81h29v-81zM87 0h-31v500h31v-500z" />
    <glyph glyph-name="eth" unicode="&#xf0;" 
d="M194 639l-57 -57l-19 19l56 55c-29 23 -69 43 -90 50l-15 6l16 16c37 -10 73 -28 108 -53l54 54l19 -19l-52 -51c42 -39 63 -83 63 -134v-415c0 -69 -48 -113 -115 -113c-65 0 -115 44 -115 113v304c0 55 39 89 88 89c50 0 87 -21 111 -62v84c0 41 -17 79 -52 114z
M246 110v258c0 64 -45 106 -105 106c-35 0 -63 -25 -63 -64v-300c0 -52 36 -84 84 -84s84 32 84 84z" />
    <glyph glyph-name="ntilde" unicode="&#xf1;" horiz-adv-x="333" 
d="M77 584h-25c0 41 28 66 67 66c20 0 38 -8 53 -23s30 -22 43 -22c23 0 41 16 41 40h26c0 -41 -28 -66 -67 -66c-19 0 -37 7 -53 22s-30 23 -43 23c-23 0 -42 -15 -42 -40zM87 368v-368h-31v500h31v-59c25 41 62 62 112 62c49 0 88 -34 88 -89v-414h-32v410
c0 39 -28 64 -63 64c-60 0 -105 -42 -105 -106z" />
    <glyph glyph-name="ograve" unicode="&#xf2;" 
d="M161 503c67 0 116 -45 116 -114v-279c0 -69 -49 -113 -116 -113c-65 0 -114 44 -114 113v279c0 69 49 114 114 114zM78 389v-279c0 -52 35 -84 83 -84s85 32 85 84v279c0 52 -37 85 -85 85s-83 -33 -83 -85zM227 597l-21 -21l-110 89l21 21z" />
    <glyph glyph-name="oacute" unicode="&#xf3;" 
d="M161 503c67 0 116 -45 116 -114v-279c0 -69 -49 -113 -116 -113c-65 0 -114 44 -114 113v279c0 69 49 114 114 114zM78 389v-279c0 -52 35 -84 83 -84s85 32 85 84v279c0 52 -37 85 -85 85s-83 -33 -83 -85zM226 666l-109 -90l-21 21l109 90z" />
    <glyph glyph-name="ocircumflex" unicode="&#xf4;" 
d="M162 637l-80 -61l-20 20l100 77l100 -77l-20 -20zM161 503c67 0 116 -45 116 -114v-279c0 -69 -49 -113 -116 -113c-65 0 -114 44 -114 113v279c0 69 49 114 114 114zM78 389v-279c0 -52 35 -84 83 -84s85 32 85 84v279c0 52 -37 85 -85 85s-83 -33 -83 -85z" />
    <glyph glyph-name="otilde" unicode="&#xf5;" 
d="M161 503c67 0 116 -45 116 -114v-279c0 -69 -49 -113 -116 -113c-65 0 -114 44 -114 113v279c0 69 49 114 114 114zM78 389v-279c0 -52 35 -84 83 -84s85 32 85 84v279c0 52 -37 85 -85 85s-83 -33 -83 -85zM72 584h-25c0 41 28 66 67 66c20 0 38 -8 53 -23
s30 -22 43 -22c23 0 41 16 41 40h26c0 -41 -28 -66 -67 -66c-19 0 -37 7 -53 22s-30 23 -43 23c-23 0 -42 -15 -42 -40z" />
    <glyph glyph-name="odieresis" unicode="&#xf6;" 
d="M161 503c67 0 116 -45 116 -114v-279c0 -69 -49 -113 -116 -113c-65 0 -114 44 -114 113v279c0 69 49 114 114 114zM78 389v-279c0 -52 35 -84 83 -84s85 32 85 84v279c0 52 -37 85 -85 85s-83 -33 -83 -85zM108 597h-29v81h29v-81zM245 597h-29v81h29v-81z" />
    <glyph glyph-name="divide" unicode="&#xf7;" horiz-adv-x="343" 
d="M187 87h-31v81h31v-81zM187 375h-31v81h31v-81zM306 257h-269v29h269v-29z" />
    <glyph glyph-name="oslash" unicode="&#xf8;" 
d="M63 0h-26l23 52c-9 17 -13 37 -13 58v279c0 69 49 114 114 114c35 0 64 -11 85 -34l14 31h27l-24 -53c9 -17 14 -36 14 -58v-279c0 -69 -49 -113 -116 -113c-35 0 -64 11 -85 33zM246 110v279c0 7 0 13 -1 17l-155 -344c15 -24 38 -36 71 -36c48 0 85 32 85 84zM78 389
v-279c0 -7 0 -13 1 -16l153 344c-15 24 -39 36 -71 36c-48 0 -83 -33 -83 -85z" />
    <glyph glyph-name="ugrave" unicode="&#xf9;" horiz-adv-x="333" 
d="M277 0h-31v59c-24 -41 -61 -62 -111 -62c-49 0 -88 34 -88 89v414h31v-410c0 -39 28 -64 63 -64c60 0 105 42 105 106v368h31v-500zM232 597l-21 -21l-110 89l21 21z" />
    <glyph glyph-name="uacute" unicode="&#xfa;" horiz-adv-x="333" 
d="M277 0h-31v59c-24 -41 -61 -62 -111 -62c-49 0 -88 34 -88 89v414h31v-410c0 -39 28 -64 63 -64c60 0 105 42 105 106v368h31v-500zM231 666l-109 -90l-21 21l109 90z" />
    <glyph glyph-name="ucircumflex" unicode="&#xfb;" horiz-adv-x="333" 
d="M166 637l-80 -61l-20 20l100 77l100 -77l-20 -20zM277 0h-31v59c-24 -41 -61 -62 -111 -62c-49 0 -88 34 -88 89v414h31v-410c0 -39 28 -64 63 -64c60 0 105 42 105 106v368h31v-500z" />
    <glyph glyph-name="udieresis" unicode="&#xfc;" horiz-adv-x="333" 
d="M277 0h-31v59c-24 -41 -61 -62 -111 -62c-49 0 -88 34 -88 89v414h31v-410c0 -39 28 -64 63 -64c60 0 105 42 105 106v368h31v-500zM112 597h-29v81h29v-81zM249 597h-29v81h29v-81z" />
    <glyph glyph-name="yacute" unicode="&#xfd;" horiz-adv-x="333" 
d="M47 -114v28h31v-28c0 -52 36 -85 84 -85s84 33 84 85v173c-24 -41 -61 -62 -111 -62c-49 0 -88 34 -88 89v414h31v-410c0 -39 28 -64 63 -64c60 0 105 42 105 106v368h31v-614c0 -71 -48 -114 -115 -114c-65 0 -115 45 -115 114zM231 666l-109 -90l-21 21l109 90z" />
    <glyph glyph-name="thorn" unicode="&#xfe;" horiz-adv-x="333" 
d="M87 -200h-31v925h31v-284c25 41 62 62 112 62c49 0 88 -34 88 -89v-304c0 -69 -49 -113 -113 -113c-33 0 -62 7 -87 21v-218zM87 368v-317c22 -17 50 -25 84 -25c48 0 84 32 84 84v300c0 39 -28 64 -63 64c-60 0 -105 -42 -105 -106z" />
    <glyph glyph-name="ydieresis" unicode="&#xff;" horiz-adv-x="333" 
d="M47 -114v28h31v-28c0 -52 36 -85 84 -85s84 33 84 85v173c-24 -41 -61 -62 -111 -62c-49 0 -88 34 -88 89v414h31v-410c0 -39 28 -64 63 -64c60 0 105 42 105 106v368h31v-614c0 -71 -48 -114 -115 -114c-65 0 -115 45 -115 114zM112 597h-29v81h29v-81zM249 597h-29v81
h29v-81z" />
    <glyph glyph-name="Amacron" unicode="&#x100;" horiz-adv-x="315" 
d="M53 0h-32l115 700h43l115 -700h-32l-35 213h-139zM157 657l-66 -415h133l-65 415h-2zM247 811h-180v29h180v-29z" />
    <glyph glyph-name="amacron" unicode="&#x101;" 
d="M277 0h-31v59c-23 -39 -71 -62 -116 -62c-47 0 -83 33 -83 85v82c0 69 44 104 112 113l87 11v102c0 52 -36 84 -84 84s-84 -32 -84 -84v-43h-31v43c0 69 50 113 115 113c67 0 115 -44 115 -113v-390zM246 132v128l-84 -11c-49 -7 -84 -34 -84 -85v-78
c0 -37 26 -60 59 -60c29 0 54 10 76 29c22 20 33 46 33 77zM252 611h-180v29h180v-29z" />
    <glyph glyph-name="Abreve" unicode="&#x102;" horiz-adv-x="315" 
d="M53 0h-32l115 700h43l115 -700h-32l-35 213h-139zM157 657l-66 -415h133l-65 415h-2zM71 854h27c-7 -79 125 -79 120 0h27c0 -52 -39 -85 -88 -85s-86 33 -86 85z" />
    <glyph glyph-name="abreve" unicode="&#x103;" 
d="M277 0h-31v59c-23 -39 -71 -62 -116 -62c-47 0 -83 33 -83 85v82c0 69 44 104 112 113l87 11v102c0 52 -36 84 -84 84s-84 -32 -84 -84v-43h-31v43c0 69 50 113 115 113c67 0 115 -44 115 -113v-390zM246 132v128l-84 -11c-49 -7 -84 -34 -84 -85v-78
c0 -37 26 -60 59 -60c29 0 54 10 76 29c22 20 33 46 33 77zM75 654h27c-7 -79 125 -79 120 0h27c0 -52 -39 -85 -88 -85s-86 33 -86 85z" />
    <glyph glyph-name="Aogonek" unicode="&#x104;" horiz-adv-x="315" 
d="M261 -40v40h1l-35 213h-139l-35 -213h-32l115 700h43l115 -700h-6v-40c0 -36 24 -63 61 -63v-25c-55 0 -88 39 -88 88zM157 657l-66 -415h133l-65 415h-2z" />
    <glyph glyph-name="aogonek" unicode="&#x105;" 
d="M245 -40v40h1v59c-23 -39 -71 -62 -116 -62c-47 0 -83 33 -83 85v82c0 69 44 104 112 113l87 11v102c0 52 -36 84 -84 84s-84 -32 -84 -84v-43h-31v43c0 69 50 113 115 113c67 0 115 -44 115 -113v-390h-5v-40c0 -36 24 -63 61 -63v-25c-55 0 -88 39 -88 88zM246 132v128
l-84 -11c-49 -7 -84 -34 -84 -85v-78c0 -37 26 -60 59 -60c29 0 54 10 76 29c22 20 33 46 33 77z" />
    <glyph glyph-name="Cacute" unicode="&#x106;" horiz-adv-x="315" 
d="M78 593v-487c0 -49 34 -80 79 -80s80 31 80 80v94h31v-94c0 -68 -47 -109 -111 -109s-110 41 -110 109v487c0 68 47 110 110 110c64 0 111 -42 111 -110v-93h-31v93c0 49 -35 81 -80 81s-79 -32 -79 -81zM223 866l-109 -90l-21 21l109 90z" />
    <glyph glyph-name="cacute" unicode="&#x107;" horiz-adv-x="315" 
d="M78 393v-287c0 -49 34 -80 79 -80s80 31 80 80v47h31v-47c0 -68 -47 -109 -111 -109s-110 41 -110 109v287c0 68 47 110 110 110c64 0 111 -42 111 -110v-46h-31v46c0 49 -35 81 -80 81s-79 -32 -79 -81zM223 666l-109 -90l-21 21l109 90z" />
    <glyph glyph-name="Ccircumflex" unicode="&#x108;" horiz-adv-x="315" 
d="M78 593v-487c0 -49 34 -80 79 -80s80 31 80 80v94h31v-94c0 -68 -47 -109 -111 -109s-110 41 -110 109v487c0 68 47 110 110 110c64 0 111 -42 111 -110v-93h-31v93c0 49 -35 81 -80 81s-79 -32 -79 -81zM158 837l-80 -61l-20 20l100 77l100 -77l-20 -20z" />
    <glyph glyph-name="ccircumflex" unicode="&#x109;" horiz-adv-x="315" 
d="M78 393v-287c0 -49 34 -80 79 -80s80 31 80 80v47h31v-47c0 -68 -47 -109 -111 -109s-110 41 -110 109v287c0 68 47 110 110 110c64 0 111 -42 111 -110v-46h-31v46c0 49 -35 81 -80 81s-79 -32 -79 -81zM158 637l-80 -61l-20 20l100 77l100 -77l-20 -20z" />
    <glyph glyph-name="Cdotaccent" unicode="&#x10a;" horiz-adv-x="315" 
d="M78 593v-487c0 -49 34 -80 79 -80s80 31 80 80v94h31v-94c0 -68 -47 -109 -111 -109s-110 41 -110 109v487c0 68 47 110 110 110c64 0 111 -42 111 -110v-93h-31v93c0 49 -35 81 -80 81s-79 -32 -79 -81zM173 819h-32v81h32v-81z" />
    <glyph glyph-name="cdotaccent" unicode="&#x10b;" horiz-adv-x="315" 
d="M78 393v-287c0 -49 34 -80 79 -80s80 31 80 80v47h31v-47c0 -68 -47 -109 -111 -109s-110 41 -110 109v287c0 68 47 110 110 110c64 0 111 -42 111 -110v-46h-31v46c0 49 -35 81 -80 81s-79 -32 -79 -81zM173 619h-32v81h32v-81z" />
    <glyph glyph-name="Ccaron" unicode="&#x10c;" horiz-adv-x="315" 
d="M78 593v-487c0 -49 34 -80 79 -80s80 31 80 80v94h31v-94c0 -68 -47 -109 -111 -109s-110 41 -110 109v487c0 68 47 110 110 110c64 0 111 -42 111 -110v-93h-31v93c0 49 -35 81 -80 81s-79 -32 -79 -81zM258 852l-100 -76l-100 76l20 20l80 -61l80 61z" />
    <glyph glyph-name="ccaron" unicode="&#x10d;" horiz-adv-x="315" 
d="M78 393v-287c0 -49 34 -80 79 -80s80 31 80 80v47h31v-47c0 -68 -47 -109 -111 -109s-110 41 -110 109v287c0 68 47 110 110 110c64 0 111 -42 111 -110v-46h-31v46c0 49 -35 81 -80 81s-79 -32 -79 -81zM258 652l-100 -76l-100 76l20 20l80 -61l80 61z" />
    <glyph glyph-name="Dcaron" unicode="&#x10e;" horiz-adv-x="329" 
d="M264 852l-100 -76l-100 76l20 20l80 -61l80 61zM166 0h-110v700h110c67 0 116 -43 116 -114v-473c0 -71 -49 -113 -116 -113zM87 671v-642h79c48 0 85 32 85 84v473c0 52 -37 85 -85 85h-79z" />
    <glyph glyph-name="dcaron" unicode="&#x10f;" horiz-adv-x="450" 
d="M277 0h-31v59c-24 -41 -61 -62 -111 -62c-49 0 -88 34 -88 89v304c0 69 48 113 112 113c34 0 63 -7 87 -22v244h31v-725zM246 132v317c-22 17 -50 25 -84 25c-48 0 -84 -32 -84 -84v-300c0 -39 28 -64 63 -64c60 0 105 42 105 106zM370 542l-7 -18h-29
c19 43 29 83 29 120v81h31v-81c0 -32 -13 -78 -24 -102z" />
    <glyph glyph-name="Dcroat" unicode="&#x110;" horiz-adv-x="329" 
d="M56 345h-29v29h29v326h110c67 0 116 -43 116 -114v-473c0 -71 -49 -113 -116 -113h-110v345zM87 345v-316h79c48 0 85 32 85 84v473c0 52 -37 85 -85 85h-79v-297h87v-29h-87z" />
    <glyph glyph-name="dslash" unicode="&#x111;" horiz-adv-x="333" 
d="M246 609h-158v29h158v87h31v-87h29v-29h-29v-609h-31v59c-24 -41 -61 -62 -111 -62c-49 0 -88 34 -88 89v304c0 69 48 113 112 113c34 0 63 -7 87 -22v128zM246 132v317c-22 17 -50 25 -84 25c-48 0 -84 -32 -84 -84v-300c0 -39 28 -64 63 -64c60 0 105 42 105 106z" />
    <glyph glyph-name="Emacron" unicode="&#x112;" horiz-adv-x="313" 
d="M266 0h-210v700h210v-29h-179v-297h159v-29h-159v-316h179v-29zM246 811h-180v29h180v-29z" />
    <glyph glyph-name="emacron" unicode="&#x113;" 
d="M277 389v-148h-199v-131c0 -52 35 -84 83 -84s85 32 85 84v43h31v-43c0 -69 -49 -113 -116 -113c-65 0 -114 44 -114 113v279c0 69 49 114 114 114c67 0 116 -45 116 -114zM78 389v-119h168v119c0 56 -36 85 -85 85s-83 -29 -83 -85zM252 611h-180v29h180v-29z" />
    <glyph glyph-name="Ebreve" unicode="&#x114;" horiz-adv-x="313" 
d="M266 0h-210v700h210v-29h-179v-297h159v-29h-159v-316h179v-29zM69 854h27c-7 -79 125 -79 120 0h27c0 -52 -39 -85 -88 -85s-86 33 -86 85z" />
    <glyph glyph-name="ebreve" unicode="&#x115;" 
d="M277 389v-148h-199v-131c0 -52 35 -84 83 -84s85 32 85 84v43h31v-43c0 -69 -49 -113 -116 -113c-65 0 -114 44 -114 113v279c0 69 49 114 114 114c67 0 116 -45 116 -114zM78 389v-119h168v119c0 56 -36 85 -85 85s-83 -29 -83 -85zM75 654h27c-7 -79 125 -79 120 0h27
c0 -52 -39 -85 -88 -85s-86 33 -86 85z" />
    <glyph glyph-name="Edotaccent" unicode="&#x116;" horiz-adv-x="313" 
d="M266 0h-210v700h210v-29h-179v-297h159v-29h-159v-316h179v-29zM172 819h-32v81h32v-81z" />
    <glyph glyph-name="edotaccent" unicode="&#x117;" 
d="M277 389v-148h-199v-131c0 -52 35 -84 83 -84s85 32 85 84v43h31v-43c0 -69 -49 -113 -116 -113c-65 0 -114 44 -114 113v279c0 69 49 114 114 114c67 0 116 -45 116 -114zM78 389v-119h168v119c0 56 -36 85 -85 85s-83 -29 -83 -85zM177 619h-32v81h32v-81z" />
    <glyph glyph-name="Eogonek" unicode="&#x118;" horiz-adv-x="313" 
d="M178 0h-122v700h210v-29h-179v-297h159v-29h-159v-316h179v-29h-61v-40c0 -36 24 -63 61 -63v-25c-55 0 -88 39 -88 88v40z" />
    <glyph glyph-name="eogonek" unicode="&#x119;" 
d="M162 -40v37h-1c-65 0 -114 44 -114 113v279c0 69 49 114 114 114c67 0 116 -45 116 -114v-148h-199v-131c0 -52 35 -84 83 -84s85 32 85 84v43h31v-43c0 -59 -36 -99 -88 -110v-40c0 -36 24 -63 61 -63v-25c-55 0 -88 39 -88 88zM78 389v-119h168v119c0 56 -36 85 -85 85
s-83 -29 -83 -85z" />
    <glyph glyph-name="Ecaron" unicode="&#x11a;" horiz-adv-x="313" 
d="M257 852l-100 -76l-100 76l20 20l80 -61l80 61zM266 0h-210v700h210v-29h-179v-297h159v-29h-159v-316h179v-29z" />
    <glyph glyph-name="ecaron" unicode="&#x11b;" 
d="M277 389v-148h-199v-131c0 -52 35 -84 83 -84s85 32 85 84v43h31v-43c0 -69 -49 -113 -116 -113c-65 0 -114 44 -114 113v279c0 69 49 114 114 114c67 0 116 -45 116 -114zM78 389v-119h168v119c0 56 -36 85 -85 85s-83 -29 -83 -85zM262 652l-100 -76l-100 76l20 20
l80 -61l80 61z" />
    <glyph glyph-name="Gcircumflex" unicode="&#x11c;" horiz-adv-x="315" 
d="M237 336h-80v29h111v-259c0 -68 -47 -109 -111 -109s-110 41 -110 109v487c0 68 47 110 110 110c64 0 111 -42 111 -110v-93h-31v93c0 49 -35 81 -80 81s-79 -32 -79 -81v-487c0 -49 34 -80 79 -80s80 31 80 80v230zM158 837l-80 -61l-20 20l100 77l100 -77l-20 -20z" />
    <glyph glyph-name="gcircumflex" unicode="&#x11d;" 
d="M47 -114v28h31v-28c0 -52 36 -85 84 -85s84 33 84 85v173c-24 -41 -61 -62 -111 -62c-49 0 -88 34 -88 89v304c0 69 50 113 115 113c45 0 87 -16 103 -28l12 -9v-580c0 -71 -48 -114 -115 -114c-65 0 -115 45 -115 114zM246 132v317c-22 17 -50 25 -84 25
c-48 0 -84 -32 -84 -84v-300c0 -39 28 -64 63 -64c60 0 105 42 105 106zM162 637l-80 -61l-20 20l100 77l100 -77l-20 -20z" />
    <glyph glyph-name="Gbreve" unicode="&#x11e;" horiz-adv-x="315" 
d="M237 336h-80v29h111v-259c0 -68 -47 -109 -111 -109s-110 41 -110 109v487c0 68 47 110 110 110c64 0 111 -42 111 -110v-93h-31v93c0 49 -35 81 -80 81s-79 -32 -79 -81v-487c0 -49 34 -80 79 -80s80 31 80 80v230zM71 854h27c-7 -79 125 -79 120 0h27
c0 -52 -39 -85 -88 -85s-86 33 -86 85z" />
    <glyph glyph-name="gbreve" unicode="&#x11f;" 
d="M47 -114v28h31v-28c0 -52 36 -85 84 -85s84 33 84 85v173c-24 -41 -61 -62 -111 -62c-49 0 -88 34 -88 89v304c0 69 50 113 115 113c45 0 87 -16 103 -28l12 -9v-580c0 -71 -48 -114 -115 -114c-65 0 -115 45 -115 114zM246 132v317c-22 17 -50 25 -84 25
c-48 0 -84 -32 -84 -84v-300c0 -39 28 -64 63 -64c60 0 105 42 105 106zM75 654h27c-7 -79 125 -79 120 0h27c0 -52 -39 -85 -88 -85s-86 33 -86 85z" />
    <glyph glyph-name="Gdotaccent" unicode="&#x120;" horiz-adv-x="315" 
d="M237 336h-80v29h111v-259c0 -68 -47 -109 -111 -109s-110 41 -110 109v487c0 68 47 110 110 110c64 0 111 -42 111 -110v-93h-31v93c0 49 -35 81 -80 81s-79 -32 -79 -81v-487c0 -49 34 -80 79 -80s80 31 80 80v230zM173 819h-32v81h32v-81z" />
    <glyph glyph-name="gdotaccent" unicode="&#x121;" 
d="M47 -114v28h31v-28c0 -52 36 -85 84 -85s84 33 84 85v173c-24 -41 -61 -62 -111 -62c-49 0 -88 34 -88 89v304c0 69 50 113 115 113c45 0 87 -16 103 -28l12 -9v-580c0 -71 -48 -114 -115 -114c-65 0 -115 45 -115 114zM246 132v317c-22 17 -50 25 -84 25
c-48 0 -84 -32 -84 -84v-300c0 -39 28 -64 63 -64c60 0 105 42 105 106zM177 619h-32v81h32v-81z" />
    <glyph glyph-name="Gcommaaccent" unicode="&#x122;" horiz-adv-x="315" 
d="M237 336h-80v29h111v-259c0 -68 -47 -109 -111 -109s-110 41 -110 109v487c0 68 47 110 110 110c64 0 111 -42 111 -110v-93h-31v93c0 49 -35 81 -80 81s-79 -32 -79 -81v-487c0 -49 34 -80 79 -80s80 31 80 80v230zM182 -30v-60c0 -26 -8 -59 -23 -100h-27
c14 36 21 69 21 100v60h29z" />
    <glyph glyph-name="gcommaaccent" unicode="&#x123;" 
d="M47 -114v28h31v-28c0 -52 36 -85 84 -85s84 33 84 85v173c-24 -41 -61 -62 -111 -62c-49 0 -88 34 -88 89v304c0 69 50 113 115 113c45 0 87 -16 103 -28l12 -9v-580c0 -71 -48 -114 -115 -114c-65 0 -115 45 -115 114zM246 132v317c-22 17 -50 25 -84 25
c-48 0 -84 -32 -84 -84v-300c0 -39 28 -64 63 -64c60 0 105 42 105 106zM169 763l8 18h29c-20 -43 -30 -84 -30 -121v-80h-31v80c0 33 13 79 24 103z" />
    <glyph glyph-name="Hcircumflex" unicode="&#x124;" horiz-adv-x="343" 
d="M171 837l-80 -61l-20 20l100 77l100 -77l-20 -20zM87 0h-31v700h31v-326h168v326h32v-700h-32v345h-168v-345z" />
    <glyph glyph-name="hcircumflex" unicode="&#x125;" horiz-adv-x="333" 
d="M184 802l-80 -61l-20 20l100 77l100 -77l-20 -20zM87 0h-31v725h31v-284c25 41 62 62 112 62c49 0 88 -34 88 -89v-414h-32v410c0 39 -28 64 -63 64c-60 0 -105 -42 -105 -106v-368z" />
    <glyph glyph-name="Hbar" unicode="&#x126;" horiz-adv-x="343" 
d="M56 513h-29v29h29v158h31v-158h168v158h32v-158h29v-29h-29v-513h-32v345h-168v-345h-31v513zM87 513v-139h168v139h-168z" />
    <glyph glyph-name="hbar" unicode="&#x127;" horiz-adv-x="354" 
d="M77 599h-49v29h49v97h31v-97h139v-29h-139v-158c24 41 61 62 111 62c49 0 88 -34 88 -89v-414h-31v410c0 39 -28 64 -64 64c-60 0 -104 -42 -104 -106v-368h-31v599z" />
    <glyph glyph-name="Itilde" unicode="&#x128;" horiz-adv-x="143" 
d="M-18 784h-25c0 41 28 66 67 66c20 0 38 -8 53 -23s30 -22 43 -22c23 0 41 16 41 40h26c0 -41 -28 -66 -67 -66c-19 0 -37 7 -53 22s-30 23 -43 23c-23 0 -42 -15 -42 -40zM87 0h-31v700h31v-700z" />
    <glyph glyph-name="itilde" unicode="&#x129;" horiz-adv-x="143" 
d="M-18 584h-25c0 41 28 66 67 66c20 0 38 -8 53 -23s30 -22 43 -22c23 0 41 16 41 40h26c0 -41 -28 -66 -67 -66c-19 0 -37 7 -53 22s-30 23 -43 23c-23 0 -42 -15 -42 -40zM87 0h-31v500h31v-500z" />
    <glyph glyph-name="Imacron" unicode="&#x12a;" horiz-adv-x="143" 
d="M87 0h-31v700h31v-700zM161 811h-180v29h180v-29z" />
    <glyph glyph-name="imacron" unicode="&#x12b;" horiz-adv-x="143" 
d="M87 0h-31v500h31v-500zM161 611h-180v29h180v-29z" />
    <glyph glyph-name="Ibreve" unicode="&#x12c;" horiz-adv-x="143" 
d="M-15 854h27c-7 -79 125 -79 120 0h27c0 -52 -39 -85 -88 -85s-86 33 -86 85zM87 0h-31v700h31v-700z" />
    <glyph glyph-name="ibreve" unicode="&#x12d;" horiz-adv-x="143" 
d="M-15 654h27c-7 -79 125 -79 120 0h27c0 -52 -39 -85 -88 -85s-86 33 -86 85zM87 0h-31v500h31v-500z" />
    <glyph glyph-name="Iogonek" unicode="&#x12e;" horiz-adv-x="143" 
d="M56 -40v40h27v-40c0 -36 24 -63 61 -63v-25c-55 0 -88 39 -88 88zM87 0h-31v700h31v-700z" />
    <glyph glyph-name="iogonek" unicode="&#x12f;" horiz-adv-x="143" 
d="M87 0h-31v500h31v-500zM87 619h-31v81h31v-81zM56 -40v40h27v-40c0 -36 24 -63 61 -63v-25c-55 0 -88 39 -88 88z" />
    <glyph glyph-name="Idot" unicode="&#x130;" horiz-adv-x="143" 
d="M88 819h-32v81h32v-81zM87 0h-31v700h31v-700z" />
    <glyph glyph-name="dotlessi" unicode="&#x131;" horiz-adv-x="143" 
d="M87 0h-31v500h31v-500z" />
    <glyph glyph-name="IJ" unicode="&#x132;" 
d="M56 107v93h31v-93c0 -49 35 -81 80 -81s79 32 79 81v593h32v-593c0 -68 -47 -110 -111 -110s-111 42 -111 110zM87 275h-31v425h31v-425z" />
    <glyph glyph-name="ij" unicode="&#x133;" horiz-adv-x="288" 
d="M96 -221v29c12 -5 26 -7 41 -7c36 0 64 26 64 63v636h31v-636c0 -57 -40 -92 -93 -92c-16 0 -30 2 -43 7zM232 619h-31v81h31v-81zM87 0h-31v500h31v-500zM87 619h-31v81h31v-81z" />
    <glyph glyph-name="Jcircumflex" unicode="&#x134;" horiz-adv-x="315" 
d="M253 837l-80 -61l-20 20l100 77l100 -77l-20 -20zM47 107v93h31v-93c0 -49 35 -81 80 -81s79 32 79 81v593h31v-593c0 -68 -47 -110 -110 -110c-64 0 -111 42 -111 110z" />
    <glyph glyph-name="jcircumflex" unicode="&#x135;" horiz-adv-x="143" 
d="M72 637l-80 -61l-20 20l100 77l100 -77l-20 -20zM-49 -221v29c12 -5 26 -7 41 -7c36 0 64 26 64 63v636h31v-636c0 -57 -40 -92 -93 -92c-16 0 -30 2 -43 7z" />
    <glyph glyph-name="Kcommaaccent" unicode="&#x136;" horiz-adv-x="320" 
d="M87 0h-31v700h31v-326h49l123 326h33l-130 -340l134 -360h-34l-126 345h-49v-345zM185 -30v-60c0 -26 -8 -59 -23 -100h-27c14 36 21 69 21 100v60h29z" />
    <glyph glyph-name="kcommaaccent" unicode="&#x137;" horiz-adv-x="320" 
d="M87 0h-31v725h31v-457h64l108 232h35l-117 -246l120 -254h-35l-111 240h-64v-240zM185 -30v-60c0 -26 -8 -59 -23 -100h-27c14 36 21 69 21 100v60h29z" />
    <glyph glyph-name="Lacute" unicode="&#x139;" horiz-adv-x="289" 
d="M209 866l-109 -90l-21 21l109 90zM261 0h-205v700h31v-671h174v-29z" />
    <glyph glyph-name="lacute" unicode="&#x13a;" horiz-adv-x="143" 
d="M137 831l-109 -90l-21 21l109 90zM87 0h-31v725h31v-725z" />
    <glyph glyph-name="Lcommaaccent" unicode="&#x13b;" horiz-adv-x="289" 
d="M261 0h-205v700h31v-671h174v-29zM169 -30v-60c0 -26 -8 -59 -23 -100h-27c14 36 21 69 21 100v60h29z" />
    <glyph glyph-name="lcommaaccent" unicode="&#x13c;" horiz-adv-x="143" 
d="M86 -30v-60c0 -26 -8 -59 -23 -100h-27c14 36 21 69 21 100v60h29zM87 0h-31v725h31v-725z" />
    <glyph glyph-name="Lcaron" unicode="&#x13d;" horiz-adv-x="289" 
d="M172 852l-100 -76l-100 76l20 20l80 -61l80 61zM261 0h-205v700h31v-671h174v-29z" />
    <glyph glyph-name="lcaron" unicode="&#x13e;" horiz-adv-x="260" 
d="M180 542l-7 -18h-29c19 43 29 83 29 120v81h31v-81c0 -32 -13 -78 -24 -102zM87 0h-31v725h31v-725z" />
    <glyph glyph-name="Ldot" unicode="&#x13f;" horiz-adv-x="289" 
d="M261 0h-205v700h31v-671h174v-29zM262 224h-31v80h31v-80z" />
    <glyph glyph-name="ldot" unicode="&#x140;" horiz-adv-x="257" 
d="M202 222h-31v81h31v-81zM87 0h-31v725h31v-725z" />
    <glyph glyph-name="Lslash" unicode="&#x141;" horiz-adv-x="289" 
d="M56 259l-28 -28v38l28 28v403h31v-372l89 90v-38l-89 -90v-261h174v-29h-205v259z" />
    <glyph glyph-name="lslash" unicode="&#x142;" horiz-adv-x="205" 
d="M87 290l-59 -59v38l59 59v397h31v-366l59 59v-38l-59 -59v-321h-31v290z" />
    <glyph glyph-name="Nacute" unicode="&#x143;" horiz-adv-x="343" 
d="M87 0h-31v700h38l160 -621h2v621h31v-700h-38l-160 621h-2v-621zM236 866l-109 -90l-21 21l109 90z" />
    <glyph glyph-name="nacute" unicode="&#x144;" horiz-adv-x="333" 
d="M87 368v-368h-31v500h31v-59c25 41 62 62 112 62c49 0 88 -34 88 -89v-414h-32v410c0 39 -28 64 -63 64c-60 0 -105 -42 -105 -106zM231 666l-109 -90l-21 21l109 90z" />
    <glyph glyph-name="Ncommaaccent" unicode="&#x145;" horiz-adv-x="343" 
d="M87 0h-31v700h38l160 -621h2v621h31v-700h-38l-160 621h-2v-621zM196 -30v-60c0 -26 -8 -59 -23 -100h-27c14 36 21 69 21 100v60h29z" />
    <glyph glyph-name="ncommaaccent" unicode="&#x146;" horiz-adv-x="333" 
d="M87 368v-368h-31v500h31v-59c25 41 62 62 112 62c49 0 88 -34 88 -89v-414h-32v410c0 39 -28 64 -63 64c-60 0 -105 -42 -105 -106zM191 -30v-60c0 -26 -8 -59 -23 -100h-27c14 36 21 69 21 100v60h29z" />
    <glyph glyph-name="Ncaron" unicode="&#x147;" horiz-adv-x="343" 
d="M271 852l-100 -76l-100 76l20 20l80 -61l80 61zM87 0h-31v700h38l160 -621h2v621h31v-700h-38l-160 621h-2v-621z" />
    <glyph glyph-name="ncaron" unicode="&#x148;" horiz-adv-x="333" 
d="M266 652l-100 -76l-100 76l20 20l80 -61l80 61zM87 368v-368h-31v500h31v-59c25 41 62 62 112 62c49 0 88 -34 88 -89v-414h-32v410c0 39 -28 64 -63 64c-60 0 -105 -42 -105 -106z" />
    <glyph glyph-name="Eng" unicode="&#x14a;" horiz-adv-x="343" 
d="M256 -137v108l-167 650h-2v-621h-31v700h38l160 -621h2v621h31v-837c0 -56 -39 -91 -91 -91c-53 0 -93 35 -93 91v47h32v-47c-5 -81 127 -82 121 0z" />
    <glyph glyph-name="eng" unicode="&#x14b;" 
d="M246 -137v547c0 39 -28 64 -64 64c-60 0 -104 -42 -104 -106v-368h-31v500h31v-59c24 41 61 62 111 62c49 0 88 -34 88 -89v-551c0 -56 -39 -91 -92 -91s-92 35 -92 91v47h31v-47c-6 -81 128 -81 122 0z" />
    <glyph glyph-name="Omacron" unicode="&#x14c;" 
d="M161 703c67 0 116 -45 116 -114v-479c0 -69 -49 -113 -116 -113c-65 0 -114 44 -114 113v479c0 69 49 114 114 114zM78 589v-479c0 -52 35 -84 83 -84s85 32 85 84v479c0 52 -37 85 -85 85s-83 -33 -83 -85zM252 811h-180v29h180v-29z" />
    <glyph glyph-name="omacron" unicode="&#x14d;" 
d="M161 503c67 0 116 -45 116 -114v-279c0 -69 -49 -113 -116 -113c-65 0 -114 44 -114 113v279c0 69 49 114 114 114zM78 389v-279c0 -52 35 -84 83 -84s85 32 85 84v279c0 52 -37 85 -85 85s-83 -33 -83 -85zM252 611h-180v29h180v-29z" />
    <glyph glyph-name="Obreve" unicode="&#x14e;" 
d="M161 703c67 0 116 -45 116 -114v-479c0 -69 -49 -113 -116 -113c-65 0 -114 44 -114 113v479c0 69 49 114 114 114zM78 589v-479c0 -52 35 -84 83 -84s85 32 85 84v479c0 52 -37 85 -85 85s-83 -33 -83 -85zM75 854h27c-7 -79 125 -79 120 0h27c0 -52 -39 -85 -88 -85
s-86 33 -86 85z" />
    <glyph glyph-name="obreve" unicode="&#x14f;" 
d="M161 503c67 0 116 -45 116 -114v-279c0 -69 -49 -113 -116 -113c-65 0 -114 44 -114 113v279c0 69 49 114 114 114zM78 389v-279c0 -52 35 -84 83 -84s85 32 85 84v279c0 52 -37 85 -85 85s-83 -33 -83 -85zM75 654h27c-7 -79 125 -79 120 0h27c0 -52 -39 -85 -88 -85
s-86 33 -86 85z" />
    <glyph glyph-name="Ohungarumlaut" unicode="&#x150;" 
d="M163 875l-107 -108l-21 21l107 108zM288 875l-107 -108l-21 21l107 108zM161 703c67 0 116 -45 116 -114v-479c0 -69 -49 -113 -116 -113c-65 0 -114 44 -114 113v479c0 69 49 114 114 114zM78 589v-479c0 -52 35 -84 83 -84s85 32 85 84v479c0 52 -37 85 -85 85
s-83 -33 -83 -85z" />
    <glyph glyph-name="ohungarumlaut" unicode="&#x151;" 
d="M163 675l-107 -108l-21 21l107 108zM288 675l-107 -108l-21 21l107 108zM161 503c67 0 116 -45 116 -114v-279c0 -69 -49 -113 -116 -113c-65 0 -114 44 -114 113v279c0 69 49 114 114 114zM78 389v-279c0 -52 35 -84 83 -84s85 32 85 84v279c0 52 -37 85 -85 85
s-83 -33 -83 -85z" />
    <glyph glyph-name="OE" unicode="&#x152;" horiz-adv-x="464" 
d="M417 0h-185v17c-19 -13 -41 -20 -66 -20c-64 0 -111 44 -111 113v479c0 69 48 114 111 114c25 0 47 -7 66 -20v17h185v-29h-154v-297h134v-29h-134v-316h154v-29zM170 26c25 0 46 8 62 24v598c-16 17 -37 26 -62 26c-48 0 -83 -33 -83 -85v-479c0 -52 35 -84 83 -84z" />
    <glyph glyph-name="oe" unicode="&#x153;" horiz-adv-x="505" 
d="M477 389v-148h-200v-131c0 -52 36 -84 84 -84s84 32 84 84v43h32v-43c0 -69 -51 -113 -116 -113c-49 0 -83 20 -100 60c-16 -39 -55 -60 -100 -60c-65 0 -114 44 -114 113v279c0 69 49 114 114 114c45 0 84 -22 100 -61c18 41 51 61 100 61c65 0 116 -45 116 -114z
M78 389v-279c0 -52 35 -84 83 -84s85 32 85 84v279c0 52 -37 85 -85 85s-83 -33 -83 -85zM277 389v-119h168v119c0 56 -35 85 -84 85s-84 -29 -84 -85z" />
    <glyph glyph-name="Racute" unicode="&#x154;" 
d="M297 0h-33l-103 315h-74v-315h-31v700h106c67 0 116 -43 116 -114v-158c0 -59 -35 -99 -87 -108zM87 671v-327h75c48 0 84 32 84 84v158c0 52 -36 85 -84 85h-75zM227 866l-109 -90l-21 21l109 90z" />
    <glyph glyph-name="racute" unicode="&#x155;" horiz-adv-x="283" 
d="M87 0h-31v500h31v-85c21 59 55 88 104 88c35 0 60 -24 60 -61v-95h-31v89c0 23 -16 38 -37 38c-60 0 -96 -67 -96 -151v-323zM209 666l-109 -90l-21 21l109 90z" />
    <glyph glyph-name="Rcommaaccent" unicode="&#x156;" 
d="M297 0h-33l-103 315h-74v-315h-31v700h106c67 0 116 -43 116 -114v-158c0 -59 -35 -99 -87 -108zM87 671v-327h75c48 0 84 32 84 84v158c0 52 -36 85 -84 85h-75zM187 -30v-60c0 -26 -8 -59 -23 -100h-27c14 36 21 69 21 100v60h29z" />
    <glyph glyph-name="rcommaaccent" unicode="&#x157;" horiz-adv-x="283" 
d="M87 0h-31v500h31v-85c21 59 55 88 104 88c35 0 60 -24 60 -61v-95h-31v89c0 23 -16 38 -37 38c-60 0 -96 -67 -96 -151v-323zM86 -30v-60c0 -26 -8 -59 -23 -100h-27c14 36 21 69 21 100v60h29z" />
    <glyph glyph-name="Rcaron" unicode="&#x158;" 
d="M297 0h-33l-103 315h-74v-315h-31v700h106c67 0 116 -43 116 -114v-158c0 -59 -35 -99 -87 -108zM87 671v-327h75c48 0 84 32 84 84v158c0 52 -36 85 -84 85h-75zM263 852l-100 -76l-100 76l20 20l80 -61l80 61z" />
    <glyph glyph-name="rcaron" unicode="&#x159;" horiz-adv-x="283" 
d="M244 652l-100 -76l-100 76l20 20l80 -61l80 61zM87 0h-31v500h31v-85c21 59 55 88 104 88c35 0 60 -24 60 -61v-95h-31v89c0 23 -16 38 -37 38c-60 0 -96 -67 -96 -151v-323z" />
    <glyph glyph-name="Sacute" unicode="&#x15a;" 
d="M47 110v90h31v-90c0 -52 35 -84 83 -84s85 32 85 84v136c0 48 -31 77 -70 92c-56 21 -128 40 -128 134v120c0 69 49 111 113 111c65 0 115 -43 115 -111v-92h-32v92c0 51 -35 82 -83 82c-47 0 -81 -31 -81 -82v-120c0 -48 32 -77 69 -92c56 -21 128 -42 128 -134v-136
c0 -69 -49 -113 -116 -113c-65 0 -114 44 -114 113zM226 866l-109 -90l-21 21l109 90z" />
    <glyph glyph-name="sacute" unicode="&#x15b;" horiz-adv-x="315" 
d="M47 106v47h31v-47c0 -49 34 -80 79 -80s80 31 80 80v55c0 47 -30 71 -67 80c-54 15 -122 25 -122 117v38c0 67 46 107 109 107s110 -40 110 -107v-49h-32v49c0 48 -33 78 -78 78c-44 0 -77 -30 -77 -78v-38c0 -47 30 -70 66 -81c54 -13 122 -25 122 -116v-55
c0 -68 -47 -109 -111 -109s-110 41 -110 109zM223 666l-109 -90l-21 21l109 90z" />
    <glyph glyph-name="Scircumflex" unicode="&#x15c;" 
d="M47 110v90h31v-90c0 -52 35 -84 83 -84s85 32 85 84v136c0 48 -31 77 -70 92c-56 21 -128 40 -128 134v120c0 69 49 111 113 111c65 0 115 -43 115 -111v-92h-32v92c0 51 -35 82 -83 82c-47 0 -81 -31 -81 -82v-120c0 -48 32 -77 69 -92c56 -21 128 -42 128 -134v-136
c0 -69 -49 -113 -116 -113c-65 0 -114 44 -114 113zM162 837l-80 -61l-20 20l100 77l100 -77l-20 -20z" />
    <glyph glyph-name="scircumflex" unicode="&#x15d;" horiz-adv-x="315" 
d="M47 106v47h31v-47c0 -49 34 -80 79 -80s80 31 80 80v55c0 47 -30 71 -67 80c-54 15 -122 25 -122 117v38c0 67 46 107 109 107s110 -40 110 -107v-49h-32v49c0 48 -33 78 -78 78c-44 0 -77 -30 -77 -78v-38c0 -47 30 -70 66 -81c54 -13 122 -25 122 -116v-55
c0 -68 -47 -109 -111 -109s-110 41 -110 109zM158 637l-80 -61l-20 20l100 77l100 -77l-20 -20z" />
    <glyph glyph-name="Scedilla" unicode="&#x15e;" 
d="M175 -128h-28v126c-59 5 -100 47 -100 112v90h31v-90c0 -52 35 -84 83 -84s85 32 85 84v136c0 48 -31 77 -70 92c-56 21 -128 40 -128 134v120c0 69 49 111 113 111c65 0 115 -43 115 -111v-92h-32v92c0 51 -35 82 -83 82c-47 0 -81 -31 -81 -82v-120
c0 -48 32 -77 69 -92c56 -21 128 -42 128 -134v-136c0 -65 -43 -107 -102 -112v-126z" />
    <glyph glyph-name="scedilla" unicode="&#x15f;" horiz-adv-x="315" 
d="M171 -128h-28v126c-57 5 -96 45 -96 108v47h31v-47c0 -49 34 -80 79 -80s80 31 80 80v55c0 47 -30 71 -67 80c-54 15 -122 25 -122 117v38c0 67 46 107 109 107s110 -40 110 -107v-49h-32v49c0 48 -33 78 -78 78c-44 0 -77 -30 -77 -78v-38c0 -47 30 -70 66 -81
c54 -13 122 -25 122 -116v-55c0 -63 -41 -103 -97 -108v-126z" />
    <glyph glyph-name="Scaron" unicode="&#x160;" 
d="M47 110v90h31v-90c0 -52 35 -84 83 -84s85 32 85 84v136c0 48 -31 77 -70 92c-56 21 -128 40 -128 134v120c0 69 49 111 113 111c65 0 115 -43 115 -111v-92h-32v92c0 51 -35 82 -83 82c-47 0 -81 -31 -81 -82v-120c0 -48 32 -77 69 -92c56 -21 128 -42 128 -134v-136
c0 -69 -49 -113 -116 -113c-65 0 -114 44 -114 113zM262 852l-100 -76l-100 76l20 20l80 -61l80 61z" />
    <glyph glyph-name="scaron" unicode="&#x161;" horiz-adv-x="315" 
d="M47 106v47h31v-47c0 -49 34 -80 79 -80s80 31 80 80v55c0 47 -30 71 -67 80c-54 15 -122 25 -122 117v38c0 67 46 107 109 107s110 -40 110 -107v-49h-32v49c0 48 -33 78 -78 78c-44 0 -77 -30 -77 -78v-38c0 -47 30 -70 66 -81c54 -13 122 -25 122 -116v-55
c0 -68 -47 -109 -111 -109s-110 41 -110 109zM258 652l-100 -76l-100 76l20 20l80 -61l80 61z" />
    <glyph glyph-name="Tcommaaccent" unicode="&#x162;" horiz-adv-x="282" 
d="M125 671h-102v29h236v-29h-102v-671h-32v671zM156 -30v-60c0 -26 -8 -59 -23 -100h-27c14 36 21 69 21 100v60h29z" />
    <glyph glyph-name="tcommaaccent" unicode="&#x163;" horiz-adv-x="239" 
d="M211 33v-30c-16 -4 -32 -6 -48 -6c-61 0 -107 41 -107 106v517h31v-120h124v-29h-124v-368c0 -48 34 -77 78 -77c17 0 32 2 46 7zM144 -30v-60c0 -26 -8 -59 -23 -100h-27c14 36 21 69 21 100v60h29z" />
    <glyph glyph-name="Tcaron" unicode="&#x164;" horiz-adv-x="282" 
d="M241 852l-100 -76l-100 76l20 20l80 -61l80 61zM125 671h-102v29h236v-29h-102v-671h-32v671z" />
    <glyph glyph-name="tcaron" unicode="&#x165;" horiz-adv-x="364" 
d="M211 33v-30c-16 -4 -32 -6 -48 -6c-61 0 -107 41 -107 106v517h31v-120h124v-29h-124v-368c0 -48 34 -77 78 -77c17 0 32 2 46 7zM284 441l-7 -18h-29c19 43 29 83 29 120v81h31v-81c0 -32 -13 -78 -24 -102z" />
    <glyph glyph-name="Tbar" unicode="&#x166;" horiz-adv-x="282" 
d="M125 426h-102v29h102v216h-102v29h236v-29h-102v-216h102v-29h-102v-426h-32v426z" />
    <glyph glyph-name="tbar" unicode="&#x167;" horiz-adv-x="239" 
d="M211 33v-30c-16 -4 -32 -6 -48 -6c-61 0 -107 41 -107 106v517h31v-120h124v-29h-124v-139h124v-29h-124v-200c0 -48 34 -77 78 -77c17 0 32 2 46 7z" />
    <glyph glyph-name="Utilde" unicode="&#x168;" 
d="M72 784h-25c0 41 28 66 67 66c20 0 38 -8 53 -23s30 -22 43 -22c23 0 41 16 41 40h26c0 -41 -28 -66 -67 -66c-19 0 -37 7 -53 22s-30 23 -43 23c-23 0 -42 -15 -42 -40zM47 110v590h31v-590c0 -52 35 -84 83 -84s85 32 85 84v590h31v-590c0 -69 -49 -113 -116 -113
c-65 0 -114 44 -114 113z" />
    <glyph glyph-name="utilde" unicode="&#x169;" horiz-adv-x="333" 
d="M77 584h-25c0 41 28 66 67 66c20 0 38 -8 53 -23s30 -22 43 -22c23 0 41 16 41 40h26c0 -41 -28 -66 -67 -66c-19 0 -37 7 -53 22s-30 23 -43 23c-23 0 -42 -15 -42 -40zM277 0h-31v59c-24 -41 -61 -62 -111 -62c-49 0 -88 34 -88 89v414h31v-410c0 -39 28 -64 63 -64
c60 0 105 42 105 106v368h31v-500z" />
    <glyph glyph-name="Umacron" unicode="&#x16a;" 
d="M47 110v590h31v-590c0 -52 35 -84 83 -84s85 32 85 84v590h31v-590c0 -69 -49 -113 -116 -113c-65 0 -114 44 -114 113zM252 811h-180v29h180v-29z" />
    <glyph glyph-name="umacron" unicode="&#x16b;" horiz-adv-x="333" 
d="M277 0h-31v59c-24 -41 -61 -62 -111 -62c-49 0 -88 34 -88 89v414h31v-410c0 -39 28 -64 63 -64c60 0 105 42 105 106v368h31v-500zM256 611h-180v29h180v-29z" />
    <glyph glyph-name="Ubreve" unicode="&#x16c;" 
d="M47 110v590h31v-590c0 -52 35 -84 83 -84s85 32 85 84v590h31v-590c0 -69 -49 -113 -116 -113c-65 0 -114 44 -114 113zM75 854h27c-7 -79 125 -79 120 0h27c0 -52 -39 -85 -88 -85s-86 33 -86 85z" />
    <glyph glyph-name="ubreve" unicode="&#x16d;" horiz-adv-x="333" 
d="M277 0h-31v59c-24 -41 -61 -62 -111 -62c-49 0 -88 34 -88 89v414h31v-410c0 -39 28 -64 63 -64c60 0 105 42 105 106v368h31v-500zM80 654h27c-7 -79 125 -79 120 0h27c0 -52 -39 -85 -88 -85s-86 33 -86 85z" />
    <glyph glyph-name="Uring" unicode="&#x16e;" 
d="M161 905c44 0 76 -28 76 -75s-32 -75 -76 -75c-43 0 -74 27 -74 74c0 48 31 76 74 76zM161 780c29 0 51 18 51 49s-22 51 -51 51c-28 0 -49 -20 -49 -51s21 -49 49 -49zM47 110v590h31v-590c0 -52 35 -84 83 -84s85 32 85 84v590h31v-590c0 -69 -49 -113 -116 -113
c-65 0 -114 44 -114 113z" />
    <glyph glyph-name="uring" unicode="&#x16f;" horiz-adv-x="333" 
d="M166 705c44 0 76 -28 76 -75s-32 -75 -76 -75c-43 0 -74 27 -74 74c0 48 31 76 74 76zM166 580c29 0 51 18 51 49s-22 51 -51 51c-28 0 -49 -20 -49 -51s21 -49 49 -49zM277 0h-31v59c-24 -41 -61 -62 -111 -62c-49 0 -88 34 -88 89v414h31v-410c0 -39 28 -64 63 -64
c60 0 105 42 105 106v368h31v-500z" />
    <glyph glyph-name="Uhungarumlaut" unicode="&#x170;" 
d="M163 875l-107 -108l-21 21l107 108zM288 875l-107 -108l-21 21l107 108zM47 110v590h31v-590c0 -52 35 -84 83 -84s85 32 85 84v590h31v-590c0 -69 -49 -113 -116 -113c-65 0 -114 44 -114 113z" />
    <glyph glyph-name="uhungarumlaut" unicode="&#x171;" horiz-adv-x="333" 
d="M168 675l-107 -108l-21 21l107 108zM293 675l-107 -108l-21 21l107 108zM277 0h-31v59c-24 -41 -61 -62 -111 -62c-49 0 -88 34 -88 89v414h31v-410c0 -39 28 -64 63 -64c60 0 105 42 105 106v368h31v-500z" />
    <glyph glyph-name="Uogonek" unicode="&#x172;" 
d="M162 -40v37h-1c-65 0 -114 44 -114 113v590h31v-590c0 -52 35 -84 83 -84s85 32 85 84v590h31v-590c0 -59 -36 -99 -88 -110v-40c0 -36 24 -63 61 -63v-25c-55 0 -88 39 -88 88z" />
    <glyph glyph-name="uogonek" unicode="&#x173;" horiz-adv-x="333" 
d="M245 -40v40h1v59c-24 -41 -61 -62 -111 -62c-49 0 -88 34 -88 89v414h31v-410c0 -39 28 -64 63 -64c60 0 105 42 105 106v368h31v-500h-5v-40c0 -36 24 -63 61 -63v-25c-55 0 -88 39 -88 88z" />
    <glyph glyph-name="Wcircumflex" unicode="&#x174;" horiz-adv-x="531" 
d="M177 0h-44l-111 700h32l99 -652h2l88 652h44l87 -652h2l99 652h33l-112 -700h-44l-86 651h-2zM266 837l-80 -61l-20 20l100 77l100 -77l-20 -20z" />
    <glyph glyph-name="wcircumflex" unicode="&#x175;" horiz-adv-x="503" 
d="M169 0h-42l-106 500h33l93 -463h2l80 463h43l80 -463h2l92 463h33l-105 -500h-42l-81 462h-2zM251 637l-80 -61l-20 20l100 77l100 -77l-20 -20z" />
    <glyph glyph-name="Ycircumflex" unicode="&#x176;" horiz-adv-x="315" 
d="M158 837l-80 -61l-20 20l100 77l100 -77l-20 -20zM173 0h-32v250l-120 450h33l102 -392h2l103 392h33l-121 -450v-250z" />
    <glyph glyph-name="ycircumflex" unicode="&#x177;" horiz-adv-x="333" 
d="M47 -114v28h31v-28c0 -52 36 -85 84 -85s84 33 84 85v173c-24 -41 -61 -62 -111 -62c-49 0 -88 34 -88 89v414h31v-410c0 -39 28 -64 63 -64c60 0 105 42 105 106v368h31v-614c0 -71 -48 -114 -115 -114c-65 0 -115 45 -115 114zM166 637l-80 -61l-20 20l100 77l100 -77
l-20 -20z" />
    <glyph glyph-name="Ydieresis" unicode="&#x178;" horiz-adv-x="315" 
d="M173 0h-32v250l-120 450h33l102 -392h2l103 392h33l-121 -450v-250zM103 797h-29v81h29v-81zM240 797h-29v81h29v-81z" />
    <glyph glyph-name="Zacute" unicode="&#x179;" horiz-adv-x="319" 
d="M272 0h-225v23l192 648h-192v29h225v-23l-192 -648h192v-29zM224 866l-109 -90l-21 21l109 90z" />
    <glyph glyph-name="zacute" unicode="&#x17a;" horiz-adv-x="319" 
d="M272 0h-225v23l190 448h-190v29h225v-23l-190 -448h190v-29zM224 666l-109 -90l-21 21l109 90z" />
    <glyph glyph-name="Zdotaccent" unicode="&#x17b;" horiz-adv-x="319" 
d="M272 0h-225v23l192 648h-192v29h225v-23l-192 -648h192v-29zM175 819h-32v81h32v-81z" />
    <glyph glyph-name="zdotaccent" unicode="&#x17c;" horiz-adv-x="319" 
d="M272 0h-225v23l190 448h-190v29h225v-23l-190 -448h190v-29zM175 619h-32v81h32v-81z" />
    <glyph glyph-name="Zcaron" unicode="&#x17d;" horiz-adv-x="319" 
d="M259 852l-100 -76l-100 76l20 20l80 -61l80 61zM272 0h-225v23l192 648h-192v29h225v-23l-192 -648h192v-29z" />
    <glyph glyph-name="zcaron" unicode="&#x17e;" horiz-adv-x="319" 
d="M259 652l-100 -76l-100 76l20 20l80 -61l80 61zM272 0h-225v23l190 448h-190v29h225v-23l-190 -448h190v-29z" />
    <glyph glyph-name="longs" unicode="&#x17f;" horiz-adv-x="260" 
d="M78 0h-31v637c0 56 39 91 91 91c53 0 93 -35 93 -91v-28h-31v28c0 37 -27 62 -62 62s-60 -25 -60 -62v-637z" />
    <glyph glyph-name="uni018F" unicode="&#x18f;" horiz-adv-x="315" 
d="M47 106v259h190v228c0 49 -34 81 -79 81s-80 -32 -80 -81v-93h-31v93c0 68 47 110 111 110c63 0 110 -42 110 -110v-487c0 -68 -46 -109 -110 -109s-111 41 -111 109zM237 106v230h-159v-230c0 -49 35 -80 80 -80s79 31 79 80z" />
    <glyph glyph-name="florin" unicode="&#x192;" horiz-adv-x="234" 
d="M-49 -221v29c12 -5 26 -7 41 -7c36 0 64 26 64 63v758c0 65 46 106 107 106c16 0 32 -2 48 -6v-30c-14 5 -29 7 -46 7c-44 0 -78 -29 -78 -77v-122h124v-29h-124v-607c0 -57 -40 -92 -93 -92c-16 0 -30 2 -43 7z" />
    <glyph glyph-name="uni01DD" unicode="&#x1dd;" 
d="M47 111v159h199v120c0 52 -36 84 -84 84s-84 -32 -84 -84v-41h-31v41c0 69 50 113 115 113c67 0 115 -44 115 -113v-279c0 -71 -48 -114 -115 -114c-65 0 -115 45 -115 114zM246 111v130h-168v-130c0 -56 35 -85 84 -85s84 29 84 85z" />
    <glyph glyph-name="AEacute" unicode="&#x1fc;" horiz-adv-x="422" 
d="M375 29v-29h-185v213h-93l-44 -213h-32l146 700h208v-29h-153v-297h133v-29h-133v-316h153zM188 660l-86 -418h88v418h-2zM275 866l-109 -90l-21 21l109 90z" />
    <glyph glyph-name="aeacute" unicode="&#x1fd;" horiz-adv-x="523" 
d="M477 389v-144h-200v-135c0 -52 36 -84 84 -84s84 32 84 84v43h32v-43c0 -69 -51 -113 -116 -113c-51 0 -92 27 -107 71c-30 -47 -71 -71 -124 -71c-47 0 -83 33 -83 85v64c0 71 48 117 112 121l87 6v117c0 52 -36 84 -84 84s-84 -32 -84 -84v-43h-31v43
c0 69 50 113 115 113c49 0 82 -20 100 -61c16 39 54 61 99 61c65 0 116 -45 116 -114zM246 132v113l-84 -7c-47 -3 -84 -40 -84 -92v-60c0 -37 26 -60 59 -60c29 0 54 10 76 29c22 20 33 46 33 77zM277 389v-115h168v115c0 56 -35 85 -84 85s-84 -29 -84 -85zM326 666
l-109 -90l-21 21l109 90z" />
    <glyph glyph-name="Oslashacute" unicode="&#x1fe;" 
d="M63 0h-26l19 61c-6 14 -9 30 -9 49v479c0 69 49 114 114 114c37 0 67 -12 88 -37l11 34h27l-20 -62c7 -15 10 -32 10 -49v-479c0 -69 -49 -113 -116 -113c-37 0 -67 12 -88 36zM161 26c48 0 85 32 85 84v462l-161 -501c13 -30 39 -45 76 -45zM78 589v-461l159 501
c-15 30 -41 45 -76 45c-48 0 -83 -33 -83 -85zM226 866l-109 -90l-21 21l109 90z" />
    <glyph glyph-name="oslashacute" unicode="&#x1ff;" 
d="M63 0h-26l23 52c-9 17 -13 37 -13 58v279c0 69 49 114 114 114c35 0 64 -11 85 -34l14 31h27l-24 -53c9 -17 14 -36 14 -58v-279c0 -69 -49 -113 -116 -113c-35 0 -64 11 -85 33zM246 110v279c0 7 0 13 -1 17l-155 -344c15 -24 38 -36 71 -36c48 0 85 32 85 84zM78 389
v-279c0 -7 0 -13 1 -16l153 344c-15 24 -39 36 -71 36c-48 0 -83 -33 -83 -85zM226 666l-109 -90l-21 21l109 90z" />
    <glyph glyph-name="Scommaaccent" unicode="&#x218;" 
d="M47 110v90h31v-90c0 -52 35 -84 83 -84s85 32 85 84v136c0 48 -31 77 -70 92c-56 21 -128 40 -128 134v120c0 69 49 111 113 111c65 0 115 -43 115 -111v-92h-32v92c0 51 -35 82 -83 82c-47 0 -81 -31 -81 -82v-120c0 -48 32 -77 69 -92c56 -21 128 -42 128 -134v-136
c0 -69 -49 -113 -116 -113c-65 0 -114 44 -114 113zM177 -30v-60c0 -26 -8 -59 -23 -100h-27c14 36 21 69 21 100v60h29z" />
    <glyph glyph-name="scommaaccent" unicode="&#x219;" horiz-adv-x="315" 
d="M47 106v47h31v-47c0 -49 34 -80 79 -80s80 31 80 80v55c0 47 -30 71 -67 80c-54 15 -122 25 -122 117v38c0 67 46 107 109 107s110 -40 110 -107v-49h-32v49c0 48 -33 78 -78 78c-44 0 -77 -30 -77 -78v-38c0 -47 30 -70 66 -81c54 -13 122 -25 122 -116v-55
c0 -68 -47 -109 -111 -109s-110 41 -110 109zM172 -30v-60c0 -26 -8 -59 -23 -100h-27c14 36 21 69 21 100v60h29z" />
    <glyph glyph-name="uni021A" unicode="&#x21a;" horiz-adv-x="282" 
d="M125 671h-102v29h236v-29h-102v-671h-32v671zM156 -30v-60c0 -26 -8 -59 -23 -100h-27c14 36 21 69 21 100v60h29z" />
    <glyph glyph-name="uni021B" unicode="&#x21b;" horiz-adv-x="239" 
d="M211 33v-30c-16 -4 -32 -6 -48 -6c-61 0 -107 41 -107 106v517h31v-120h124v-29h-124v-368c0 -48 34 -77 78 -77c17 0 32 2 46 7zM144 -30v-60c0 -26 -8 -59 -23 -100h-27c14 36 21 69 21 100v60h29z" />
    <glyph glyph-name="dotlessj" unicode="&#x237;" horiz-adv-x="143" 
d="M-49 -221v29c12 -5 26 -7 41 -7c36 0 64 26 64 63v636h31v-636c0 -57 -40 -92 -93 -92c-16 0 -30 2 -43 7z" />
    <glyph glyph-name="circumflex" unicode="&#x2c6;" horiz-adv-x="307" 
d="M154 637l-80 -61l-20 20l100 77l100 -77l-20 -20z" />
    <glyph glyph-name="caron" unicode="&#x2c7;" horiz-adv-x="307" 
d="M254 652l-100 -76l-100 76l20 20l80 -61l80 61z" />
    <glyph glyph-name="breve" unicode="&#x2d8;" 
d="M75 654h27c-7 -79 125 -79 120 0h27c0 -52 -39 -85 -88 -85s-86 33 -86 85z" />
    <glyph glyph-name="dotaccent" unicode="&#x2d9;" horiz-adv-x="142" 
d="M87 619h-32v81h32v-81z" />
    <glyph glyph-name="ring" unicode="&#x2da;" 
d="M161 705c44 0 76 -28 76 -75s-32 -75 -76 -75c-43 0 -74 27 -74 74c0 48 31 76 74 76zM161 580c29 0 51 18 51 49s-22 51 -51 51c-28 0 -49 -20 -49 -51s21 -49 49 -49z" />
    <glyph glyph-name="ogonek" unicode="&#x2db;" horiz-adv-x="133" 
d="M55 -40v40h27v-40c0 -36 24 -63 61 -63v-25c-55 0 -88 39 -88 88z" />
    <glyph glyph-name="tilde" unicode="&#x2dc;" 
d="M72 584h-25c0 41 28 66 67 66c20 0 38 -8 53 -23s30 -22 43 -22c23 0 41 16 41 40h26c0 -41 -28 -66 -67 -66c-19 0 -37 7 -53 22s-30 23 -43 23c-23 0 -42 -15 -42 -40z" />
    <glyph glyph-name="hungarumlaut" unicode="&#x2dd;" horiz-adv-x="307" 
d="M155 675l-107 -108l-21 21l107 108zM280 675l-107 -108l-21 21l107 108z" />
    <glyph glyph-name="uni0400" unicode="&#x400;" horiz-adv-x="313" 
d="M266 0h-210v700h210v-29h-179v-297h159v-29h-159v-316h179v-29zM222 797l-21 -21l-110 89l21 21z" />
    <glyph glyph-name="afii10023" unicode="&#x401;" horiz-adv-x="313" 
d="M266 0h-210v700h210v-29h-179v-297h159v-29h-159v-316h179v-29zM105 750h-29v81h29v-81zM242 750h-29v81h29v-81z" />
    <glyph glyph-name="afii10051" unicode="&#x402;" horiz-adv-x="403" 
d="M325 -137v472c0 39 -28 64 -64 64c-60 0 -104 -42 -104 -106v-293h-32v671h-102v29h236v-29h-102v-305c24 41 61 62 111 62c49 0 88 -34 88 -89v-476c0 -56 -39 -91 -92 -91s-93 35 -93 91v47h32v-47c-6 -81 128 -81 122 0z" />
    <glyph glyph-name="afii10052" unicode="&#x403;" horiz-adv-x="288" 
d="M209 866l-109 -90l-21 21l109 90zM87 0h-31v700h204v-29h-173v-671z" />
    <glyph glyph-name="afii10053" unicode="&#x404;" 
d="M245 370v-29h-167v-231c0 -52 35 -84 83 -84s85 32 85 84v90h31v-90c0 -69 -49 -113 -116 -113c-65 0 -114 44 -114 113v479c0 69 49 114 114 114c67 0 116 -45 116 -114v-89h-31v89c0 56 -36 85 -85 85s-83 -29 -83 -85v-219h167z" />
    <glyph glyph-name="afii10054" unicode="&#x405;" 
d="M47 110v90h31v-90c0 -52 35 -84 83 -84s85 32 85 84v136c0 48 -31 77 -70 92c-56 21 -128 40 -128 134v120c0 69 49 111 113 111c65 0 115 -43 115 -111v-92h-32v92c0 51 -35 82 -83 82c-47 0 -81 -31 -81 -82v-120c0 -48 32 -77 69 -92c56 -21 128 -42 128 -134v-136
c0 -69 -49 -113 -116 -113c-65 0 -114 44 -114 113z" />
    <glyph glyph-name="afii10055" unicode="&#x406;" horiz-adv-x="143" 
d="M87 0h-31v700h31v-700z" />
    <glyph glyph-name="afii10056" unicode="&#x407;" horiz-adv-x="143" 
d="M18 753h-29v81h29v-81zM155 753h-29v81h29v-81zM87 0h-31v700h31v-700z" />
    <glyph glyph-name="afii10057" unicode="&#x408;" horiz-adv-x="315" 
d="M47 107v93h31v-93c0 -49 35 -81 80 -81s79 32 79 81v593h31v-593c0 -68 -47 -110 -110 -110c-64 0 -111 42 -111 110z" />
    <glyph glyph-name="afii10058" unicode="&#x409;" horiz-adv-x="530" 
d="M28 -3v29c35 0 62 34 62 89v585h203v-326h74c67 0 116 -42 116 -113v-147c0 -71 -49 -114 -116 -114h-106v671h-140v-556c0 -72 -40 -118 -93 -118zM293 345v-316h74c48 0 85 33 85 85v147c0 52 -37 84 -85 84h-74z" />
    <glyph glyph-name="afii10059" unicode="&#x40a;" horiz-adv-x="524" 
d="M87 0h-31v700h31v-326h168v326h32v-326h74c67 0 116 -42 116 -113v-147c0 -71 -49 -114 -116 -114h-106v345h-168v-345zM287 345v-316h74c48 0 85 33 85 85v147c0 52 -37 84 -85 84h-74z" />
    <glyph glyph-name="afii10060" unicode="&#x40b;" horiz-adv-x="403" 
d="M157 293v-293h-32v671h-102v29h236v-29h-102v-305c24 41 61 62 111 62c49 0 88 -34 88 -89v-339h-31v335c0 39 -28 64 -64 64c-60 0 -104 -42 -104 -106z" />
    <glyph glyph-name="afii10061" unicode="&#x40c;" horiz-adv-x="320" 
d="M87 0h-31v700h31v-326h49l123 326h33l-130 -340l134 -360h-34l-126 345h-49v-345zM225 866l-109 -90l-21 21l109 90z" />
    <glyph glyph-name="uni040D" unicode="&#x40d;" horiz-adv-x="343" 
d="M87 0h-31v700h31v-580h1l168 551v29h31v-700h-31v580h-1l-168 -551v-29zM237 797l-21 -21l-110 89l21 21z" />
    <glyph glyph-name="afii10062" unicode="&#x40e;" horiz-adv-x="315" 
d="M71 854h27c-7 -79 125 -79 120 0h27c0 -52 -39 -85 -88 -85s-86 33 -86 85zM58 0h-16v29h16c30 0 50 18 60 55l29 116h-10l-116 500h33l102 -465h2l103 465h33l-145 -617c-13 -55 -43 -83 -91 -83z" />
    <glyph glyph-name="afii10145" unicode="&#x40f;" horiz-adv-x="343" 
d="M156 0h-100v700h31v-671h168v671h32v-700h-99v-125h-32v125z" />
    <glyph glyph-name="afii10017" unicode="&#x410;" horiz-adv-x="315" 
d="M53 0h-32l115 700h43l115 -700h-32l-35 213h-139zM159 657h-2l-66 -415h133z" />
    <glyph glyph-name="afii10018" unicode="&#x411;" 
d="M162 0h-106v700h211v-29h-180v-266h75c67 0 116 -43 116 -112v-179c0 -71 -49 -114 -116 -114zM162 377h-75v-348h75c48 0 84 33 84 85v179c0 52 -36 84 -84 84z" />
    <glyph glyph-name="afii10019" unicode="&#x412;" 
d="M163 0h-107v700h106c67 0 116 -43 116 -114v-116c0 -53 -29 -91 -74 -106c44 -13 74 -51 74 -106v-144c0 -71 -50 -114 -115 -114zM163 350h-76v-321h76c48 0 84 33 84 85v152c0 52 -36 84 -84 84zM87 671v-293h75c48 0 84 32 84 84v124c0 52 -36 85 -84 85h-75z" />
    <glyph glyph-name="afii10020" unicode="&#x413;" horiz-adv-x="288" 
d="M87 0h-31v700h204v-29h-173v-671z" />
    <glyph glyph-name="afii10021" unicode="&#x414;" horiz-adv-x="377" 
d="M59 -125h-31v154h6c36 0 62 33 62 89v582h204v-671h49v-154h-31v125h-259v-125zM128 671v-553c0 -40 -11 -70 -32 -89h172v642h-140z" />
    <glyph glyph-name="afii10022" unicode="&#x415;" horiz-adv-x="313" 
d="M266 0h-210v700h210v-29h-179v-297h159v-29h-159v-316h179v-29z" />
    <glyph glyph-name="afii10024" unicode="&#x416;" horiz-adv-x="497" 
d="M59 0h-34l133 360l-129 340h33l123 -326h48v326h32v-326h49l122 326h34l-130 -340l133 -360h-33l-126 345h-49v-345h-32v345h-49z" />
    <glyph glyph-name="afii10025" unicode="&#x417;" horiz-adv-x="320" 
d="M158 26c48 0 84 33 84 85v155c0 52 -36 84 -84 84h-45v28h44c48 0 85 32 85 84v127c0 52 -37 85 -85 85c-45 0 -80 -31 -80 -80v-94h-31v94c0 68 47 109 111 109c67 0 116 -45 116 -114v-119c0 -53 -29 -91 -74 -106c45 -13 75 -51 75 -106v-147
c0 -69 -49 -114 -116 -114c-64 0 -111 42 -111 110v93h31v-93c0 -49 35 -81 80 -81z" />
    <glyph glyph-name="afii10026" unicode="&#x418;" horiz-adv-x="343" 
d="M87 0h-31v700h31v-580h1l168 551v29h31v-700h-31v580h-1l-168 -551v-29z" />
    <glyph glyph-name="afii10027" unicode="&#x419;" horiz-adv-x="343" 
d="M87 0h-31v700h31v-580h1l168 551v29h31v-700h-31v580h-1l-168 -551v-29zM85 854h27c-7 -79 125 -79 120 0h27c0 -52 -39 -85 -88 -85s-86 33 -86 85z" />
    <glyph glyph-name="afii10028" unicode="&#x41a;" horiz-adv-x="320" 
d="M87 0h-31v700h31v-326h49l123 326h33l-130 -340l134 -360h-34l-126 345h-49v-345z" />
    <glyph glyph-name="afii10029" unicode="&#x41b;" horiz-adv-x="349" 
d="M90 115v585h203v-700h-32v671h-140v-556c0 -72 -40 -118 -93 -118v29c35 0 62 34 62 89z" />
    <glyph glyph-name="afii10030" unicode="&#x41c;" horiz-adv-x="443" 
d="M87 0h-31v700h48l116 -651h2l117 651h48v-700h-31v635h-2l-112 -635h-41l-112 635h-2v-635z" />
    <glyph glyph-name="afii10031" unicode="&#x41d;" horiz-adv-x="343" 
d="M87 0h-31v700h31v-326h168v326h32v-700h-32v345h-168v-345z" />
    <glyph glyph-name="afii10032" unicode="&#x41e;" 
d="M161 703c67 0 116 -45 116 -114v-479c0 -69 -49 -113 -116 -113c-65 0 -114 44 -114 113v479c0 69 49 114 114 114zM78 589v-479c0 -52 35 -84 83 -84s85 32 85 84v479c0 52 -37 85 -85 85s-83 -33 -83 -85z" />
    <glyph glyph-name="afii10033" unicode="&#x41f;" horiz-adv-x="343" 
d="M87 0h-31v700h231v-700h-32v671h-168v-671z" />
    <glyph glyph-name="afii10034" unicode="&#x420;" 
d="M87 0h-31v700h106c67 0 116 -43 116 -114v-177c0 -71 -49 -113 -116 -113h-75v-296zM87 671v-346h75c48 0 84 32 84 84v177c0 52 -36 85 -84 85h-75z" />
    <glyph glyph-name="afii10035" unicode="&#x421;" horiz-adv-x="315" 
d="M78 593v-487c0 -49 34 -80 79 -80s80 31 80 80v94h31v-94c0 -68 -47 -109 -111 -109s-110 41 -110 109v487c0 68 47 110 110 110c64 0 111 -42 111 -110v-93h-31v93c0 49 -35 81 -80 81s-79 -32 -79 -81z" />
    <glyph glyph-name="afii10036" unicode="&#x422;" horiz-adv-x="282" 
d="M125 671h-102v29h236v-29h-102v-671h-32v671z" />
    <glyph glyph-name="afii10037" unicode="&#x423;" horiz-adv-x="315" 
d="M58 0h-16v29h16c30 0 50 18 60 55l29 116h-10l-116 500h33l102 -465h2l103 465h33l-145 -617c-13 -55 -43 -83 -91 -83z" />
    <glyph glyph-name="afii10038" unicode="&#x424;" horiz-adv-x="461" 
d="M215 700h31v-77h53c65 0 116 -44 116 -113v-319c0 -69 -51 -114 -116 -114h-53v-77h-31v77h-53c-65 0 -115 45 -115 114v319c0 69 50 113 115 113h53v77zM215 106v488h-53c-48 0 -84 -32 -84 -84v-319c0 -52 36 -85 84 -85h53zM299 594h-53v-488h53c48 0 84 33 84 85v319
c0 52 -36 84 -84 84z" />
    <glyph glyph-name="afii10039" unicode="&#x425;" horiz-adv-x="315" 
d="M52 0h-32l115 360l-112 340h33l101 -316h2l100 316h33l-111 -340l114 -360h-32l-104 336h-2z" />
    <glyph glyph-name="afii10040" unicode="&#x426;" horiz-adv-x="364" 
d="M336 -125h-31v125h-249v700h31v-671h168v671h32v-671h49v-154z" />
    <glyph glyph-name="afii10041" unicode="&#x427;" horiz-adv-x="333" 
d="M246 429v271h31v-700h-31v357c-24 -41 -61 -62 -111 -62c-49 0 -88 33 -88 88v317h31v-313c0 -39 28 -64 63 -64c60 0 105 42 105 106z" />
    <glyph glyph-name="afii10042" unicode="&#x428;" horiz-adv-x="524" 
d="M468 0h-412v700h31v-671h159v671h32v-671h159v671h31v-700z" />
    <glyph glyph-name="afii10043" unicode="&#x429;" horiz-adv-x="545" 
d="M486 0h-430v700h31v-671h159v671h32v-671h159v671h31v-671h50v-154h-32v125z" />
    <glyph glyph-name="afii10044" unicode="&#x42a;" horiz-adv-x="394" 
d="M231 0h-106v671h-97v29h129v-295h74c67 0 116 -43 116 -112v-179c0 -71 -49 -114 -116 -114zM157 377v-348h74c48 0 85 33 85 85v179c0 52 -37 84 -85 84h-74z" />
    <glyph glyph-name="afii10045" unicode="&#x42b;" horiz-adv-x="435" 
d="M162 0h-106v700h31v-295h75c67 0 116 -43 116 -112v-179c0 -71 -49 -114 -116 -114zM162 377h-75v-348h75c48 0 84 33 84 85v179c0 52 -36 84 -84 84zM379 0h-31v700h31v-700z" />
    <glyph glyph-name="afii10046" unicode="&#x42c;" 
d="M162 0h-106v700h31v-295h75c67 0 116 -43 116 -112v-179c0 -71 -49 -114 -116 -114zM162 377h-75v-348h75c48 0 84 33 84 85v179c0 52 -36 84 -84 84z" />
    <glyph glyph-name="afii10047" unicode="&#x42d;" 
d="M246 110v231h-143v29h143v219c0 56 -35 85 -84 85s-84 -29 -84 -85v-89h-31v89c0 69 50 114 115 114c67 0 115 -43 115 -114v-479c0 -69 -48 -113 -115 -113c-65 0 -115 44 -115 113v90h31v-90c0 -52 36 -84 84 -84s84 32 84 84z" />
    <glyph glyph-name="afii10048" unicode="&#x42e;" horiz-adv-x="453" 
d="M87 0h-31v700h31v-330h89v219c0 69 49 114 114 114c67 0 116 -45 116 -114v-479c0 -69 -49 -113 -116 -113c-65 0 -114 44 -114 113v231h-89v-341zM207 589v-479c0 -52 35 -84 83 -84s85 32 85 84v479c0 52 -37 85 -85 85s-83 -33 -83 -85z" />
    <glyph glyph-name="afii10049" unicode="&#x42f;" 
d="M237 315h-74l-103 -315h-33l107 320c-52 9 -87 49 -87 108v158c0 71 50 114 115 114h106v-700h-31v315zM162 344h75v327h-75c-48 0 -84 -33 -84 -85v-158c0 -52 36 -84 84 -84z" />
    <glyph glyph-name="afii10065" unicode="&#x430;" 
d="M277 0h-31v59c-23 -39 -71 -62 -116 -62c-47 0 -83 33 -83 85v82c0 69 44 104 112 113l87 11v102c0 52 -36 84 -84 84s-84 -32 -84 -84v-43h-31v43c0 69 50 113 115 113c67 0 115 -44 115 -113v-390zM246 132v128l-84 -11c-49 -7 -84 -34 -84 -85v-78
c0 -37 26 -60 59 -60c29 0 54 10 76 29c22 20 33 46 33 77z" />
    <glyph glyph-name="afii10066" unicode="&#x431;" 
d="M78 525v-84c24 41 61 62 111 62c49 0 88 -34 88 -89v-304c0 -69 -49 -113 -116 -113c-65 0 -114 44 -114 113v415c0 154 182 101 182 200h28c0 -47 -28 -75 -63 -88c-51 -19 -116 -33 -116 -112zM78 368v-258c0 -52 35 -84 83 -84s85 32 85 84v300c0 39 -28 64 -64 64
c-60 0 -104 -42 -104 -106z" />
    <glyph glyph-name="afii10067" unicode="&#x432;" 
d="M163 0h-107v500h106c61 0 107 -40 107 -105v-34c0 -50 -22 -82 -65 -97c44 -13 74 -51 74 -106v-44c0 -71 -50 -114 -115 -114zM163 250h-76v-221h76c48 0 84 33 84 85v52c0 52 -36 84 -84 84zM87 471v-193h75c44 0 76 29 76 76v41c0 47 -32 76 -76 76h-75z" />
    <glyph glyph-name="afii10068" unicode="&#x433;" horiz-adv-x="274" 
d="M87 0h-31v500h191v-29h-160v-471z" />
    <glyph glyph-name="afii10069" unicode="&#x434;" horiz-adv-x="377" 
d="M59 -125h-31v154h6c36 0 62 33 62 89v382h204v-471h49v-154h-31v125h-259v-125zM128 471v-353c0 -40 -11 -70 -32 -89h172v442h-140z" />
    <glyph glyph-name="afii10070" unicode="&#x435;" 
d="M277 389v-148h-199v-131c0 -52 35 -84 83 -84s85 32 85 84v43h31v-43c0 -69 -49 -113 -116 -113c-65 0 -114 44 -114 113v279c0 69 49 114 114 114c67 0 116 -45 116 -114zM78 389v-119h168v119c0 56 -36 85 -85 85s-83 -29 -83 -85z" />
    <glyph glyph-name="afii10072" unicode="&#x436;" horiz-adv-x="497" 
d="M58 0h-35l120 254l-117 246h35l108 -232h64v232h31v-232h63l109 232h34l-117 -246l120 -254h-34l-112 240h-63v-240h-31v240h-64z" />
    <glyph glyph-name="afii10073" unicode="&#x437;" horiz-adv-x="320" 
d="M158 26c48 0 84 33 84 85v50c0 52 -36 84 -84 84h-45v29h44c48 0 85 32 85 84v31c0 52 -37 85 -85 85c-45 0 -80 -31 -80 -80v-47h-31v47c0 68 47 109 111 109c67 0 116 -45 116 -114v-23c0 -55 -29 -91 -74 -106c45 -15 75 -53 75 -106v-43c0 -69 -49 -114 -116 -114
c-64 0 -111 42 -111 110v46h31v-46c0 -49 35 -81 80 -81z" />
    <glyph glyph-name="afii10074" unicode="&#x438;" horiz-adv-x="343" 
d="M87 0h-31v500h31v-405h1l168 384v21h31v-500h-31v405h-1l-168 -384v-21z" />
    <glyph glyph-name="afii10075" unicode="&#x439;" horiz-adv-x="343" 
d="M87 0h-31v500h31v-405h1l168 384v21h31v-500h-31v405h-1l-168 -384v-21zM85 654h27c-7 -79 125 -79 120 0h27c0 -52 -39 -85 -88 -85s-86 33 -86 85z" />
    <glyph glyph-name="afii10076" unicode="&#x43a;" horiz-adv-x="320" 
d="M87 0h-31v500h31v-232h64l108 232h35l-117 -246l120 -254h-35l-111 240h-64v-240z" />
    <glyph glyph-name="afii10077" unicode="&#x43b;" horiz-adv-x="349" 
d="M90 115v385h203v-500h-32v471h-140v-356c0 -72 -40 -118 -93 -118v29c35 0 62 34 62 89z" />
    <glyph glyph-name="afii10078" unicode="&#x43c;" horiz-adv-x="441" 
d="M86 0h-30v500h48l115 -459h2l116 459h48v-500h-30v454h-2l-113 -454h-40l-112 454h-2v-454z" />
    <glyph glyph-name="afii10079" unicode="&#x43d;" horiz-adv-x="343" 
d="M87 0h-31v500h31v-230h168v230h32v-500h-32v241h-168v-241z" />
    <glyph glyph-name="afii10080" unicode="&#x43e;" 
d="M161 503c67 0 116 -45 116 -114v-279c0 -69 -49 -113 -116 -113c-65 0 -114 44 -114 113v279c0 69 49 114 114 114zM78 389v-279c0 -52 35 -84 83 -84s85 32 85 84v279c0 52 -37 85 -85 85s-83 -33 -83 -85z" />
    <glyph glyph-name="afii10081" unicode="&#x43f;" horiz-adv-x="343" 
d="M87 0h-31v500h231v-500h-32v471h-168v-471z" />
    <glyph glyph-name="afii10082" unicode="&#x440;" horiz-adv-x="333" 
d="M87 -200h-31v700h31v-59c25 41 62 62 112 62c49 0 88 -34 88 -89v-304c0 -69 -49 -113 -113 -113c-33 0 -62 7 -87 21v-218zM87 368v-317c22 -17 50 -25 84 -25c48 0 84 32 84 84v300c0 39 -28 64 -63 64c-60 0 -105 -42 -105 -106z" />
    <glyph glyph-name="afii10083" unicode="&#x441;" horiz-adv-x="315" 
d="M78 393v-287c0 -49 34 -80 79 -80s80 31 80 80v47h31v-47c0 -68 -47 -109 -111 -109s-110 41 -110 109v287c0 68 47 110 110 110c64 0 111 -42 111 -110v-46h-31v46c0 49 -35 81 -80 81s-79 -32 -79 -81z" />
    <glyph glyph-name="afii10084" unicode="&#x442;" horiz-adv-x="282" 
d="M125 471h-102v29h236v-29h-102v-471h-32v471z" />
    <glyph glyph-name="afii10085" unicode="&#x443;" horiz-adv-x="315" 
d="M58 -200h-16v29h16c30 0 50 18 60 55l29 116h-10l-116 500h33l102 -465h2l103 465h33l-145 -617c-13 -55 -43 -83 -91 -83z" />
    <glyph glyph-name="afii10086" unicode="&#x444;" horiz-adv-x="461" 
d="M215 725h31v-225h53c65 0 116 -42 116 -113v-273c0 -71 -51 -114 -116 -114h-53v-200h-31v200h-53c-65 0 -115 43 -115 114v273c0 71 50 113 115 113h53v225zM215 29v442h-53c-48 0 -84 -32 -84 -84v-273c0 -52 36 -85 84 -85h53zM299 471h-53v-442h53c48 0 84 33 84 85
v273c0 52 -36 84 -84 84z" />
    <glyph glyph-name="afii10087" unicode="&#x445;" 
d="M58 0h-35l119 254l-116 246h35l99 -219h2l101 219h34l-116 -246l120 -254h-35l-104 228h-2z" />
    <glyph glyph-name="afii10088" unicode="&#x446;" horiz-adv-x="364" 
d="M336 -125h-31v125h-249v500h31v-471h168v471h32v-471h49v-154z" />
    <glyph glyph-name="afii10089" unicode="&#x447;" horiz-adv-x="333" 
d="M246 329v171h31v-500h-31v257c-24 -41 -61 -62 -111 -62c-49 0 -88 33 -88 88v217h31v-213c0 -39 28 -64 63 -64c60 0 105 42 105 106z" />
    <glyph glyph-name="afii10090" unicode="&#x448;" horiz-adv-x="524" 
d="M468 0h-412v500h31v-471h159v471h32v-471h159v471h31v-500z" />
    <glyph glyph-name="afii10091" unicode="&#x449;" horiz-adv-x="545" 
d="M486 0h-430v500h31v-471h159v471h32v-471h159v471h31v-471h50v-154h-32v125z" />
    <glyph glyph-name="afii10092" unicode="&#x44a;" horiz-adv-x="390" 
d="M228 0h-106v471h-93v29h124v-205h75c65 0 116 -43 116 -112v-69c0 -71 -51 -114 -116 -114zM153 267v-238h75c48 0 84 33 84 85v69c0 52 -36 84 -84 84h-75z" />
    <glyph glyph-name="afii10093" unicode="&#x44b;" horiz-adv-x="435" 
d="M162 0h-106v500h31v-205h75c67 0 116 -43 116 -112v-69c0 -71 -49 -114 -116 -114zM162 267h-75v-238h75c48 0 84 33 84 85v69c0 52 -36 84 -84 84zM379 0h-31v500h31v-500z" />
    <glyph glyph-name="afii10094" unicode="&#x44c;" 
d="M162 0h-106v500h31v-205h75c67 0 116 -43 116 -112v-69c0 -71 -49 -114 -116 -114zM162 267h-75v-238h75c48 0 84 33 84 85v69c0 52 -36 84 -84 84z" />
    <glyph glyph-name="afii10095" unicode="&#x44d;" 
d="M246 110v131h-141v29h141v119c0 56 -35 85 -84 85s-84 -29 -84 -85v-42h-31v42c0 69 50 114 115 114c67 0 115 -43 115 -114v-279c0 -69 -48 -113 -115 -113c-65 0 -115 44 -115 113v43h31v-43c0 -52 36 -84 84 -84s84 32 84 84z" />
    <glyph glyph-name="afii10096" unicode="&#x44e;" horiz-adv-x="453" 
d="M87 0h-31v500h31v-230h89v119c0 69 49 114 114 114c67 0 116 -45 116 -114v-279c0 -69 -49 -113 -116 -113c-65 0 -114 44 -114 113v131h-89v-241zM207 389v-279c0 -52 35 -84 83 -84s85 32 85 84v279c0 52 -37 85 -85 85s-83 -33 -83 -85z" />
    <glyph glyph-name="afii10097" unicode="&#x44f;" 
d="M74 0h-34l94 218c-52 11 -87 50 -87 109v59c0 71 50 114 115 114h106v-500h-31v215h-74zM162 243h75v228h-75c-48 0 -84 -33 -84 -85v-59c0 -52 36 -84 84 -84z" />
    <glyph glyph-name="uni0450" unicode="&#x450;" 
d="M277 389v-148h-199v-131c0 -52 35 -84 83 -84s85 32 85 84v43h31v-43c0 -69 -49 -113 -116 -113c-65 0 -114 44 -114 113v279c0 69 49 114 114 114c67 0 116 -45 116 -114zM78 389v-119h168v119c0 56 -36 85 -85 85s-83 -29 -83 -85zM227 597l-21 -21l-110 89l21 21z" />
    <glyph glyph-name="afii10071" unicode="&#x451;" 
d="M277 389v-148h-199v-131c0 -52 35 -84 83 -84s85 32 85 84v43h31v-43c0 -69 -49 -113 -116 -113c-65 0 -114 44 -114 113v279c0 69 49 114 114 114c67 0 116 -45 116 -114zM78 389v-119h168v119c0 56 -36 85 -85 85s-83 -29 -83 -85zM108 597h-29v81h29v-81zM245 597h-29
v81h29v-81z" />
    <glyph glyph-name="afii10099" unicode="&#x452;" horiz-adv-x="354" 
d="M276 -137v547c0 39 -28 64 -64 64c-60 0 -104 -42 -104 -106v-368h-31v599h-49v29h49v97h31v-97h139v-29h-139v-158c24 41 61 62 111 62c49 0 88 -34 88 -89v-551c0 -56 -39 -91 -92 -91s-92 35 -92 91v47h31v-47c-6 -81 128 -81 122 0z" />
    <glyph glyph-name="afii10100" unicode="&#x453;" horiz-adv-x="274" 
d="M203 666l-109 -90l-21 21l109 90zM87 0h-31v500h191v-29h-160v-471z" />
    <glyph glyph-name="afii10101" unicode="&#x454;" 
d="M238 270v-29h-160v-131c0 -52 35 -84 83 -84s85 32 85 84v43h31v-43c0 -69 -49 -113 -116 -113c-65 0 -114 44 -114 113v279c0 69 49 114 114 114c67 0 116 -45 116 -114v-42h-31v42c0 56 -36 85 -85 85s-83 -29 -83 -85v-119h160z" />
    <glyph glyph-name="afii10102" unicode="&#x455;" horiz-adv-x="315" 
d="M47 106v47h31v-47c0 -49 34 -80 79 -80s80 31 80 80v55c0 47 -30 71 -67 80c-54 15 -122 25 -122 117v38c0 67 46 107 109 107s110 -40 110 -107v-49h-32v49c0 48 -33 78 -78 78c-44 0 -77 -30 -77 -78v-38c0 -47 30 -70 66 -81c54 -13 122 -25 122 -116v-55
c0 -68 -47 -109 -111 -109s-110 41 -110 109z" />
    <glyph glyph-name="afii10103" unicode="&#x456;" horiz-adv-x="143" 
d="M87 0h-31v500h31v-500zM87 619h-31v81h31v-81z" />
    <glyph glyph-name="afii10104" unicode="&#x457;" horiz-adv-x="143" 
d="M18 597h-29v81h29v-81zM155 597h-29v81h29v-81zM87 0h-31v500h31v-500z" />
    <glyph glyph-name="afii10105" unicode="&#x458;" horiz-adv-x="143" 
d="M-49 -221v29c12 -5 26 -7 41 -7c36 0 64 26 64 63v636h31v-636c0 -57 -40 -92 -93 -92c-16 0 -30 2 -43 7zM87 619h-31v81h31v-81z" />
    <glyph glyph-name="afii10106" unicode="&#x459;" horiz-adv-x="530" 
d="M28 -3v29c35 0 62 34 62 89v385h203v-225h74c67 0 116 -44 116 -113v-48c0 -71 -49 -114 -116 -114h-106v471h-140v-356c0 -72 -40 -118 -93 -118zM293 246v-217h74c48 0 85 33 85 85v48c0 52 -37 84 -85 84h-74z" />
    <glyph glyph-name="afii10107" unicode="&#x45a;" horiz-adv-x="524" 
d="M87 0h-31v500h31v-225h168v225h32v-225h74c67 0 116 -44 116 -113v-48c0 -71 -49 -114 -116 -114h-106v246h-168v-246zM287 246v-217h74c48 0 85 33 85 85v48c0 52 -37 84 -85 84h-74z" />
    <glyph glyph-name="afii10108" unicode="&#x45b;" horiz-adv-x="354" 
d="M77 599h-49v29h49v97h31v-97h139v-29h-139v-158c24 41 61 62 111 62c49 0 88 -34 88 -89v-414h-31v410c0 39 -28 64 -64 64c-60 0 -104 -42 -104 -106v-368h-31v599z" />
    <glyph glyph-name="afii10109" unicode="&#x45c;" horiz-adv-x="320" 
d="M87 0h-31v500h31v-232h64l108 232h35l-117 -246l120 -254h-35l-111 240h-64v-240zM225 666l-109 -90l-21 21l109 90z" />
    <glyph glyph-name="uni045D" unicode="&#x45d;" horiz-adv-x="343" 
d="M87 0h-31v500h31v-405h1l168 384v21h31v-500h-31v405h-1l-168 -384v-21zM237 597l-21 -21l-110 89l21 21z" />
    <glyph glyph-name="afii10110" unicode="&#x45e;" horiz-adv-x="315" 
d="M71 654h27c-7 -79 125 -79 120 0h27c0 -52 -39 -85 -88 -85s-86 33 -86 85zM58 -200h-16v29h16c30 0 50 18 60 55l29 116h-10l-116 500h33l102 -465h2l103 465h33l-145 -617c-13 -55 -43 -83 -91 -83z" />
    <glyph glyph-name="afii10193" unicode="&#x45f;" horiz-adv-x="343" 
d="M156 0h-100v500h31v-471h168v471h32v-500h-99v-125h-32v125z" />
    <glyph glyph-name="afii10050" unicode="&#x490;" horiz-adv-x="288" 
d="M87 0h-31v700h175v100h29v-129h-173v-671z" />
    <glyph glyph-name="afii10098" unicode="&#x491;" horiz-adv-x="274" 
d="M87 0h-31v500h162v100h29v-129h-160v-471z" />
    <glyph glyph-name="uni04D8" unicode="&#x4d8;" horiz-adv-x="315" 
d="M47 106v259h190v228c0 49 -34 81 -79 81s-80 -32 -80 -81v-93h-31v93c0 68 47 110 111 110c63 0 110 -42 110 -110v-487c0 -68 -46 -109 -110 -109s-111 41 -111 109zM237 106v230h-159v-230c0 -49 35 -80 80 -80s79 31 79 80z" />
    <glyph glyph-name="afii10846" unicode="&#x4d9;" 
d="M47 111v159h199v120c0 52 -36 84 -84 84s-84 -32 -84 -84v-41h-31v41c0 69 50 113 115 113c67 0 115 -44 115 -113v-279c0 -71 -48 -114 -115 -114c-65 0 -115 45 -115 114zM246 111v130h-168v-130c0 -56 35 -85 84 -85s84 29 84 85z" />
    <glyph glyph-name="Wgrave" unicode="&#x1e80;" horiz-adv-x="531" 
d="M177 0h-44l-111 700h32l99 -652h2l88 652h44l87 -652h2l99 652h33l-112 -700h-44l-86 651h-2zM331 797l-21 -21l-110 89l21 21z" />
    <glyph glyph-name="wgrave" unicode="&#x1e81;" horiz-adv-x="503" 
d="M169 0h-42l-106 500h33l93 -463h2l80 463h43l80 -463h2l92 463h33l-105 -500h-42l-81 462h-2zM316 597l-21 -21l-110 89l21 21z" />
    <glyph glyph-name="Wacute" unicode="&#x1e82;" horiz-adv-x="531" 
d="M177 0h-44l-111 700h32l99 -652h2l88 652h44l87 -652h2l99 652h33l-112 -700h-44l-86 651h-2zM330 866l-109 -90l-21 21l109 90z" />
    <glyph glyph-name="wacute" unicode="&#x1e83;" horiz-adv-x="503" 
d="M169 0h-42l-106 500h33l93 -463h2l80 463h43l80 -463h2l92 463h33l-105 -500h-42l-81 462h-2zM316 666l-109 -90l-21 21l109 90z" />
    <glyph glyph-name="Wdieresis" unicode="&#x1e84;" horiz-adv-x="531" 
d="M177 0h-44l-111 700h32l99 -652h2l88 652h44l87 -652h2l99 652h33l-112 -700h-44l-86 651h-2zM211 797h-29v81h29v-81zM348 797h-29v81h29v-81z" />
    <glyph glyph-name="wdieresis" unicode="&#x1e85;" horiz-adv-x="503" 
d="M169 0h-42l-106 500h33l93 -463h2l80 463h43l80 -463h2l92 463h33l-105 -500h-42l-81 462h-2zM197 597h-29v81h29v-81zM334 597h-29v81h29v-81z" />
    <glyph glyph-name="Ygrave" unicode="&#x1ef2;" horiz-adv-x="315" 
d="M173 0h-32v250l-120 450h33l102 -392h2l103 392h33l-121 -450v-250zM223 797l-21 -21l-110 89l21 21z" />
    <glyph glyph-name="ygrave" unicode="&#x1ef3;" horiz-adv-x="333" 
d="M47 -114v28h31v-28c0 -52 36 -85 84 -85s84 33 84 85v173c-24 -41 -61 -62 -111 -62c-49 0 -88 34 -88 89v414h31v-410c0 -39 28 -64 63 -64c60 0 105 42 105 106v368h31v-614c0 -71 -48 -114 -115 -114c-65 0 -115 45 -115 114zM232 597l-21 -21l-110 89l21 21z" />
    <glyph glyph-name="figuredash" unicode="&#x2012;" horiz-adv-x="305" 
d="M268 296h-231v29h231v-29z" />
    <glyph glyph-name="endash" unicode="&#x2013;" horiz-adv-x="343" 
d="M306 257h-269v29h269v-29z" />
    <glyph glyph-name="emdash" unicode="&#x2014;" horiz-adv-x="542" 
d="M505 257h-468v29h468v-29z" />
    <glyph glyph-name="quoteleft" unicode="&#x2018;" horiz-adv-x="142" 
d="M79 707l8 18h29c-20 -43 -30 -84 -30 -121v-80h-31v80c0 33 13 79 24 103z" />
    <glyph glyph-name="quoteright" unicode="&#x2019;" horiz-adv-x="142" 
d="M62 542l-7 -18h-29c19 43 29 83 29 120v81h31v-81c0 -32 -13 -78 -24 -102z" />
    <glyph glyph-name="quotesinglbase" unicode="&#x201a;" horiz-adv-x="142" 
d="M62 -103l-7 -18h-29c19 43 29 84 29 121v81h31v-81c0 -33 -13 -79 -24 -103z" />
    <glyph glyph-name="quotedblleft" unicode="&#x201c;" horiz-adv-x="225" 
d="M79 707l8 18h29c-20 -43 -30 -84 -30 -121v-80h-31v80c0 33 13 79 24 103zM172 707l8 18h28c-19 -43 -29 -84 -29 -121v-80h-31v80c0 33 13 79 24 103z" />
    <glyph glyph-name="quotedblright" unicode="&#x201d;" horiz-adv-x="225" 
d="M62 542l-7 -18h-29c19 43 29 83 29 120v81h31v-81c0 -32 -13 -78 -24 -102zM155 542l-8 -18h-29c20 43 30 83 30 120v81h31v-81c0 -32 -13 -78 -24 -102z" />
    <glyph glyph-name="quotedblbase" unicode="&#x201e;" horiz-adv-x="225" 
d="M62 -103l-7 -18h-29c19 43 29 84 29 121v81h31v-81c0 -33 -13 -79 -24 -103zM155 -103l-8 -18h-29c20 43 30 84 30 121v81h31v-81c0 -33 -13 -79 -24 -103z" />
    <glyph glyph-name="dagger" unicode="&#x2020;" horiz-adv-x="282" 
d="M125 477h-102v28h102v195h32v-195h102v-28h-102v-477h-32v477z" />
    <glyph glyph-name="daggerdbl" unicode="&#x2021;" horiz-adv-x="282" 
d="M157 223h102v-28h-102v-195h-32v195h-102v28h102v254h-102v28h102v195h32v-195h102v-28h-102v-254z" />
    <glyph glyph-name="bullet" unicode="&#x2022;" horiz-adv-x="264" 
d="M217 218h-170v164h170v-164z" />
    <glyph glyph-name="ellipsis" unicode="&#x2026;" horiz-adv-x="353" 
d="M86 0h-31v81h31v-81zM192 0h-31v81h31v-81zM298 0h-31v81h31v-81z" />
    <glyph glyph-name="perthousand" unicode="&#x2030;" horiz-adv-x="710" 
d="M112 0h-29l296 700h29zM55 481v136c0 52 37 86 85 86c49 0 86 -34 86 -86v-136c0 -52 -38 -84 -86 -84s-85 32 -85 84zM82 617v-136c-6 -76 122 -76 118 0v136c0 36 -27 60 -60 60s-58 -24 -58 -60zM265 81v136c0 53 36 86 85 86s86 -34 86 -86v-136
c0 -52 -38 -84 -86 -84c-49 0 -85 32 -85 84zM292 217v-136c-6 -76 122 -76 118 0v136c0 36 -27 60 -60 60s-58 -24 -58 -60zM484 81v136c0 52 37 86 85 86c49 0 86 -34 86 -86v-136c0 -52 -38 -84 -86 -84s-85 32 -85 84zM511 217v-136c-6 -76 122 -76 118 0v136
c0 36 -27 60 -60 60s-58 -24 -58 -60z" />
    <glyph glyph-name="guilsinglleft" unicode="&#x2039;" horiz-adv-x="180" 
d="M118 425h34l-81 -175l81 -175h-34l-81 175z" />
    <glyph glyph-name="guilsinglright" unicode="&#x203a;" horiz-adv-x="180" 
d="M63 75h-35l81 175l-81 175h35l80 -175z" />
    <glyph glyph-name="fraction" unicode="&#x2044;" horiz-adv-x="404" 
d="M70 0h-33l296 700h34z" />
    <glyph glyph-name="Euro" unicode="&#x20ac;" horiz-adv-x="344" 
d="M75 397h-47v29h47v167c0 68 47 110 111 110s111 -42 111 -110v-93h-31v93c0 49 -35 81 -80 81s-79 -32 -79 -81v-167h190v-29h-190v-85h190v-28h-190v-178c0 -49 34 -80 79 -80s80 31 80 80v94h31v-94c0 -68 -47 -109 -111 -109s-111 41 -111 109v178h-47v28h47v85z" />
    <glyph glyph-name="uni20B4" unicode="&#x20b4;" 
d="M194 395h-152v28h177c17 23 25 49 25 77v92c0 51 -34 82 -82 82c-47 0 -82 -31 -82 -82v-92h-32v92c0 68 49 111 114 111s114 -42 114 -111v-92c0 -28 -7 -54 -20 -77h26v-28h-47c-11 -13 -30 -29 -55 -49l-45 -35h147v-29h-175c-19 -23 -29 -51 -29 -82v-90
c0 -52 36 -84 84 -84s84 32 84 84v90h31v-90c0 -69 -48 -113 -115 -113c-65 0 -115 44 -115 113v90c0 31 8 58 23 82h-28v29h51c11 11 29 26 52 44s40 31 49 40z" />
    <glyph glyph-name="afii61352" unicode="&#x2116;" horiz-adv-x="570" 
d="M87 0h-31v700h38l160 -620h2v620h31v-700h-38l-160 620h-2v-620zM344 531v86c0 52 37 86 85 86c49 0 86 -34 86 -86v-86c0 -52 -38 -84 -86 -84c-49 0 -85 32 -85 84zM371 617v-86c-6 -76 122 -76 118 0v86c0 36 -27 60 -60 60s-58 -24 -58 -60z" />
    <glyph glyph-name="trademark" unicode="&#x2122;" horiz-adv-x="336" 
d="M69 690h-49v20h123v-20h-49v-240h-25v240zM190 450h-23v260h37l52 -228h1l52 228h38v-260h-24v229h-1l-51 -229h-29l-51 229h-1v-229z" />
    <glyph glyph-name="arrowleft" unicode="&#x2190;" horiz-adv-x="1142" 
d="M442 19l-22 -23l-354 354l354 354l22 -23l-316 -315h921v-32h-921z" />
    <glyph glyph-name="arrowup" unicode="&#x2191;" horiz-adv-x="839" 
d="M435 -228h-31v921l-315 -316l-23 22l354 354l354 -354l-23 -22l-316 316v-921z" />
    <glyph glyph-name="arrowright" unicode="&#x2192;" horiz-adv-x="1142" 
d="M1016 334h-922v32h922l-316 315l22 23l354 -354l-354 -354l-22 23z" />
    <glyph glyph-name="arrowdown" unicode="&#x2193;" horiz-adv-x="839" 
d="M774 123l-354 -354l-354 354l23 22l315 -316v921h31v-921l316 316z" />
    <glyph glyph-name="uni2196" unicode="&#x2196;" horiz-adv-x="865" 
d="M126 200h-32v500h500v-32h-446l651 -651l-22 -22l-651 651v-446z" />
    <glyph glyph-name="uni2197" unicode="&#x2197;" horiz-adv-x="865" 
d="M717 668h-447v32h500v-500h-31v446l-651 -651l-22 22z" />
    <glyph glyph-name="uni2198" unicode="&#x2198;" horiz-adv-x="865" 
d="M770 0h-500v31h447l-651 652l22 22l651 -651v446h31v-500z" />
    <glyph glyph-name="uni2199" unicode="&#x2199;" horiz-adv-x="865" 
d="M594 0h-500v500h32v-446l651 651l22 -22l-651 -652h446v-31z" />
    <glyph glyph-name="minus" unicode="&#x2212;" horiz-adv-x="343" 
d="M306 296h-269v29h269v-29z" />
    <glyph glyph-name="commaaccent" unicode="&#xf6c3;" horiz-adv-x="138" 
d="M84 -30v-60c0 -26 -8 -59 -23 -100h-27c14 36 21 69 21 100v60h29z" />
    <glyph glyph-name="dollaroldstyle" unicode="&#xf724;" horiz-adv-x="315" 
d="M173 -100h-32v99c-56 5 -94 44 -94 107v47h31v-47c0 -49 34 -80 79 -80s80 31 80 80v55c0 47 -30 71 -67 80c-54 15 -122 25 -122 117v38c0 61 38 99 93 104v100h32v-99c55 -7 94 -45 94 -105v-49h-32v49c0 48 -33 78 -78 78c-44 0 -77 -30 -77 -78v-38
c0 -47 30 -70 66 -81c54 -13 122 -25 122 -116v-55c0 -61 -40 -102 -95 -107v-99z" />
    <glyph glyph-name="zerooldstyle" unicode="&#xf730;" 
d="M161 503c67 0 116 -45 116 -114v-279c0 -69 -49 -113 -116 -113c-65 0 -114 44 -114 113v279c0 69 49 114 114 114zM78 389v-279c0 -52 35 -84 83 -84s85 32 85 84v279c0 52 -37 85 -85 85s-83 -33 -83 -85z" />
    <glyph glyph-name="oneoldstyle" unicode="&#xf731;" horiz-adv-x="214" 
d="M126 467l-98 -59v33l98 59h32v-500h-32v467z" />
    <glyph glyph-name="twooldstyle" unicode="&#xf732;" horiz-adv-x="320" 
d="M273 0h-225v79c0 157 194 116 194 253v57c0 52 -37 85 -85 85c-45 0 -80 -31 -80 -80v-47h-31v47c0 68 47 109 111 109c67 0 116 -45 116 -114v-57c0 -59 -30 -98 -69 -119c-54 -29 -124 -55 -124 -134v-50h193v-29z" />
    <glyph glyph-name="threeoldstyle" unicode="&#xf733;" horiz-adv-x="320" 
d="M158 -127c48 0 84 33 84 85v145c0 52 -36 84 -84 84h-45v29h44c48 0 85 32 85 84v89c0 52 -37 85 -85 85c-45 0 -80 -31 -80 -80v-47h-31v47c0 68 47 109 111 109c67 0 116 -45 116 -114v-82c0 -53 -29 -91 -74 -106c45 -13 75 -51 75 -106v-137
c0 -69 -49 -113 -116 -113c-64 0 -111 41 -111 109v46h31v-46c0 -49 35 -81 80 -81z" />
    <glyph glyph-name="fouroldstyle" unicode="&#xf734;" horiz-adv-x="315" 
d="M228 0h-200v29l181 471h50v-471h28v-29h-28v-150h-31v150zM226 459l-167 -430h169v430h-2z" />
    <glyph glyph-name="fiveoldstyle" unicode="&#xf735;" 
d="M78 148h-31v352h225v-29h-194v-268c24 41 61 62 111 62c49 0 88 -33 88 -88v-220c0 -69 -49 -112 -116 -112c-65 0 -114 43 -114 112v43h31v-43c0 -52 35 -84 83 -84s85 32 85 84v216c0 39 -28 64 -64 64c-28 0 -52 -10 -73 -29s-31 -39 -31 -60z" />
    <glyph glyph-name="sixoldstyle" unicode="&#xf736;" 
d="M162 649c-48 0 -84 -33 -84 -85v-222c24 41 61 62 111 62c49 0 88 -34 88 -89v-205c0 -69 -49 -113 -116 -113c-65 0 -114 44 -114 113v454c0 69 50 114 115 114c64 0 112 -42 112 -110v-46h-32v46c0 49 -35 81 -80 81zM78 269v-159c0 -52 35 -84 83 -84s85 32 85 84v201
c0 39 -28 64 -64 64c-60 0 -104 -42 -104 -106z" />
    <glyph glyph-name="sevenoldstyle" unicode="&#xf737;" horiz-adv-x="300" 
d="M229 471h-192v29h226v-23l-138 -627h-33z" />
    <glyph glyph-name="eightoldstyle" unicode="&#xf738;" 
d="M161 678c67 0 116 -45 116 -114v-118c0 -51 -21 -85 -64 -103c43 -18 64 -52 64 -103v-130c0 -69 -49 -113 -116 -113c-65 0 -114 44 -114 113v130c0 51 21 85 63 103c-42 18 -63 52 -63 103v118c0 69 49 114 114 114zM78 564v-122c0 -52 35 -84 83 -84s85 32 85 84v122
c0 52 -37 85 -85 85s-83 -33 -83 -85zM78 244v-134c0 -52 35 -84 83 -84s85 32 85 84v134c0 52 -37 85 -85 85s-83 -33 -83 -85z" />
    <glyph glyph-name="nineoldstyle" unicode="&#xf739;" 
d="M160 -127c48 0 86 35 86 87v197c-24 -41 -61 -62 -111 -62c-49 0 -88 34 -88 89v206c0 69 50 113 115 113c67 0 115 -44 115 -113v-430c0 -71 -50 -115 -117 -115c-64 0 -113 42 -113 110v45h31v-45c0 -49 35 -82 82 -82zM246 230v160c0 52 -36 84 -84 84
s-84 -32 -84 -84v-202c0 -39 28 -64 63 -64c60 0 105 42 105 106z" />
    <glyph glyph-name="afii10019.smcp" 
d="M163 0h-107v520h106c67 0 116 -43 116 -114v-26c0 -53 -29 -91 -74 -106c44 -13 74 -51 74 -106v-54c0 -71 -50 -114 -115 -114zM163 260h-76v-231h76c48 0 84 33 84 85v62c0 52 -36 84 -84 84zM87 491v-203h75c48 0 84 32 84 84v34c0 52 -36 85 -84 85h-75z" />
    <glyph glyph-name="afii10020.smcp" horiz-adv-x="288" 
d="M87 0h-31v520h204v-29h-173v-491z" />
    <glyph glyph-name="afii10021.smcp" horiz-adv-x="377" 
d="M59 -125h-31v154h6c36 0 62 33 62 89v402h204v-491h49v-154h-31v125h-259v-125zM128 491v-373c0 -40 -11 -70 -32 -89h172v462h-140z" />
    <glyph glyph-name="afii10022.smcp" horiz-adv-x="313" 
d="M266 0h-210v520h210v-29h-179v-207h159v-29h-159v-226h179v-29z" />
    <glyph glyph-name="afii10023.smcp" horiz-adv-x="313" 
d="M266 0h-210v520h210v-29h-179v-207h159v-29h-159v-226h179v-29zM111 597h-29v81h29v-81zM248 597h-29v81h29v-81z" />
    <glyph glyph-name="afii10024.smcp" horiz-adv-x="497" 
d="M58 0h-35l120 264l-117 256h35l108 -242h64v242h31v-242h63l109 242h34l-117 -256l120 -264h-34l-112 250h-63v-250h-31v250h-64z" />
    <glyph glyph-name="afii10025.smcp" horiz-adv-x="320" 
d="M158 26c48 0 84 33 84 85v65c0 52 -36 84 -84 84h-45v28h44c48 0 85 32 85 84v37c0 52 -37 85 -85 85c-45 0 -80 -31 -80 -80v-47h-31v47c0 68 47 109 111 109c67 0 116 -45 116 -114v-29c0 -53 -29 -91 -74 -106c45 -13 75 -51 75 -106v-57c0 -69 -49 -114 -116 -114
c-64 0 -111 42 -111 110v46h31v-46c0 -49 35 -81 80 -81z" />
    <glyph glyph-name="afii10026.smcp" horiz-adv-x="343" 
d="M87 0h-31v520h31v-424h1l168 403v21h31v-520h-31v424h-1l-168 -403v-21z" />
    <glyph glyph-name="afii10027.smcp" horiz-adv-x="343" 
d="M87 0h-31v520h31v-424h1l168 403v21h31v-520h-31v424h-1l-168 -403v-21zM86 654h27c-7 -79 125 -79 120 0h27c0 -52 -39 -85 -88 -85s-86 33 -86 85z" />
    <glyph glyph-name="afii10028.smcp" horiz-adv-x="320" 
d="M87 0h-31v520h31v-242h64l108 242h35l-117 -256l120 -264h-35l-111 250h-64v-250z" />
    <glyph glyph-name="afii10029.smcp" horiz-adv-x="349" 
d="M90 115v405h203v-520h-32v491h-140v-376c0 -72 -40 -118 -93 -118v29c35 0 62 34 62 89z" />
    <glyph glyph-name="afii10030.smcp" horiz-adv-x="441" 
d="M86 0h-30v520h48l115 -479h2l116 479h48v-520h-30v474h-2l-113 -474h-40l-112 474h-2v-474z" />
    <glyph glyph-name="afii10031.smcp" horiz-adv-x="343" 
d="M87 0h-31v520h31v-236h168v236h32v-520h-32v255h-168v-255z" />
    <glyph glyph-name="afii10032.smcp" 
d="M161 523c67 0 116 -45 116 -114v-299c0 -69 -49 -113 -116 -113c-65 0 -114 44 -114 113v299c0 69 49 114 114 114zM78 409v-299c0 -52 35 -84 83 -84s85 32 85 84v299c0 52 -37 85 -85 85s-83 -33 -83 -85z" />
    <glyph glyph-name="afii10033.smcp" horiz-adv-x="343" 
d="M87 0h-31v520h231v-520h-32v491h-168v-491z" />
    <glyph glyph-name="afii10034.smcp" 
d="M87 0h-31v520h106c67 0 116 -43 116 -114v-87c0 -71 -49 -113 -116 -113h-75v-206zM87 491v-256h75c48 0 84 32 84 84v87c0 52 -36 85 -84 85h-75z" />
    <glyph glyph-name="afii10018.smcp" 
d="M162 0h-106v520h211v-29h-180v-176h75c67 0 116 -43 116 -112v-89c0 -71 -49 -114 -116 -114zM162 287h-75v-258h75c48 0 84 33 84 85v89c0 52 -36 84 -84 84z" />
    <glyph glyph-name="afii10036.smcp" horiz-adv-x="282" 
d="M125 491h-102v29h236v-29h-102v-491h-32v491z" />
    <glyph glyph-name="afii10037.smcp" horiz-adv-x="290" 
d="M63 0h-15v29h15c29 0 49 18 60 55l11 39h-11l-102 397h33l90 -362h2l90 362h33l-113 -437c-15 -55 -46 -83 -93 -83z" />
    <glyph glyph-name="afii10038.smcp" horiz-adv-x="461" 
d="M215 520h31v-77h53c65 0 116 -44 116 -113v-139c0 -69 -51 -114 -116 -114h-53v-77h-31v77h-53c-65 0 -115 45 -115 114v139c0 69 50 113 115 113h53v77zM215 106v308h-53c-48 0 -84 -32 -84 -84v-139c0 -52 36 -85 84 -85h53zM299 414h-53v-308h53c48 0 84 33 84 85v139
c0 52 -36 84 -84 84z" />
    <glyph glyph-name="afii10039.smcp" 
d="M58 0h-35l119 264l-116 256h35l99 -229h2l101 229h34l-116 -256l120 -264h-35l-104 238h-2z" />
    <glyph glyph-name="afii10040.smcp" horiz-adv-x="364" 
d="M336 -125h-31v125h-249v520h31v-491h168v491h32v-491h49v-154z" />
    <glyph glyph-name="afii10041.smcp" horiz-adv-x="333" 
d="M246 339v181h31v-520h-31v267c-24 -41 -61 -62 -111 -62c-49 0 -88 33 -88 88v227h31v-223c0 -39 28 -64 63 -64c60 0 105 42 105 106z" />
    <glyph glyph-name="afii10042.smcp" horiz-adv-x="524" 
d="M468 0h-412v520h31v-491h159v491h32v-491h159v491h31v-520z" />
    <glyph glyph-name="afii10043.smcp" horiz-adv-x="545" 
d="M486 0h-430v520h31v-491h159v491h32v-491h159v491h31v-491h50v-154h-32v125z" />
    <glyph glyph-name="afii10044.smcp" horiz-adv-x="394" 
d="M231 0h-106v491h-97v29h129v-205h74c67 0 116 -43 116 -112v-89c0 -71 -49 -114 -116 -114zM157 287v-258h74c48 0 85 33 85 85v89c0 52 -37 84 -85 84h-74z" />
    <glyph glyph-name="afii10045.smcp" horiz-adv-x="435" 
d="M162 0h-106v520h31v-205h75c67 0 116 -43 116 -112v-89c0 -71 -49 -114 -116 -114zM162 287h-75v-258h75c48 0 84 33 84 85v89c0 52 -36 84 -84 84zM379 0h-31v520h31v-520z" />
    <glyph glyph-name="afii10046.smcp" 
d="M162 0h-106v520h31v-205h75c67 0 116 -43 116 -112v-89c0 -71 -49 -114 -116 -114zM162 287h-75v-258h75c48 0 84 33 84 85v89c0 52 -36 84 -84 84z" />
    <glyph glyph-name="afii10047.smcp" 
d="M246 110v141h-143v29h143v129c0 56 -35 85 -84 85s-84 -29 -84 -85v-42h-31v42c0 69 50 114 115 114c67 0 115 -43 115 -114v-299c0 -69 -48 -113 -115 -113c-65 0 -115 44 -115 113v43h31v-43c0 -52 36 -84 84 -84s84 32 84 84z" />
    <glyph glyph-name="afii10048.smcp" horiz-adv-x="453" 
d="M87 0h-31v520h31v-240h89v129c0 69 49 114 114 114c67 0 116 -45 116 -114v-299c0 -69 -49 -113 -116 -113c-65 0 -114 44 -114 113v141h-89v-251zM207 409v-299c0 -52 35 -84 83 -84s85 32 85 84v299c0 52 -37 85 -85 85s-83 -33 -83 -85z" />
    <glyph glyph-name="afii10049.smcp" 
d="M74 0h-34l94 228c-52 11 -87 50 -87 109v69c0 71 50 114 115 114h106v-520h-31v225h-74zM162 253h75v238h-75c-48 0 -84 -33 -84 -85v-69c0 -52 36 -84 84 -84z" />
    <glyph glyph-name="afii10050.smcp" horiz-adv-x="288" 
d="M87 0h-31v520h175v100h29v-129h-173v-491z" />
    <glyph glyph-name="afii10051.smcp" horiz-adv-x="403" 
d="M325 -137v382c0 39 -28 64 -64 64c-60 0 -104 -42 -104 -106v-203h-32v491h-102v29h236v-29h-102v-215c24 41 61 62 111 62c49 0 88 -34 88 -89v-386c0 -56 -39 -91 -92 -91s-93 35 -93 91v47h32v-47c-6 -81 128 -81 122 0z" />
    <glyph glyph-name="afii10052.smcp" horiz-adv-x="288" 
d="M225 666l-109 -90l-21 21l109 90zM87 0h-31v520h204v-29h-173v-491z" />
    <glyph glyph-name="afii10017.smcp" horiz-adv-x="315" 
d="M136 520h43l114 -520h-32l-34 159h-139l-34 -159h-33zM159 485h-2l-64 -297h129z" />
    <glyph glyph-name="six.fitted.smcp" 
d="M162 494c-48 0 -84 -33 -84 -85v-158c24 41 61 62 111 62c49 0 88 -34 88 -89v-114c0 -69 -49 -113 -116 -113c-65 0 -114 44 -114 113v299c0 69 50 114 115 114c64 0 112 -42 112 -110v-46h-32v46c0 49 -35 81 -80 81zM78 178v-68c0 -52 35 -84 83 -84s85 32 85 84v110
c0 39 -28 64 -64 64c-60 0 -104 -42 -104 -106z" />
    <glyph glyph-name="IJ.smcp" 
d="M56 107v49h31v-49c0 -49 35 -81 80 -81s79 32 79 81v413h32v-413c0 -68 -47 -110 -111 -110s-111 42 -111 110zM87 230h-31v290h31v-290z" />
    <glyph glyph-name="J.smcp" horiz-adv-x="315" 
d="M47 107v49h31v-49c0 -49 35 -81 80 -81s79 32 79 81v413h31v-413c0 -68 -47 -110 -110 -110c-64 0 -111 42 -111 110z" />
    <glyph glyph-name="K.smcp" horiz-adv-x="320" 
d="M87 0h-31v520h31v-242h64l108 242h35l-117 -256l120 -264h-35l-111 250h-64v-250z" />
    <glyph glyph-name="L.smcp" horiz-adv-x="289" 
d="M261 0h-205v520h31v-491h174v-29z" />
    <glyph glyph-name="afii10035.smcp" horiz-adv-x="315" 
d="M78 413v-307c0 -49 34 -80 79 -80s80 31 80 80v47h31v-47c0 -68 -47 -109 -111 -109s-110 41 -110 109v307c0 68 47 110 110 110c64 0 111 -42 111 -110v-46h-31v46c0 49 -35 81 -80 81s-79 -32 -79 -81z" />
    <glyph glyph-name="afii10062.smcp" horiz-adv-x="290" 
d="M63 0h-15v29h15c29 0 49 18 60 55l11 39h-11l-102 397h33l90 -362h2l90 362h33l-113 -437c-15 -55 -46 -83 -93 -83zM58 654h27c-7 -79 125 -79 120 0h27c0 -52 -39 -85 -88 -85s-86 33 -86 85z" />
    <glyph glyph-name="afii10145.smcp" horiz-adv-x="343" 
d="M156 0h-100v520h31v-491h168v491h32v-520h-99v-125h-32v125z" />
    <glyph glyph-name="uni0400.smcp" horiz-adv-x="313" 
d="M227 597l-21 -21l-110 89l21 21zM266 0h-210v520h210v-29h-179v-207h159v-29h-159v-226h179v-29z" />
    <glyph glyph-name="uni040D.smcp" horiz-adv-x="343" 
d="M87 0h-31v520h31v-424h1l168 403v21h31v-520h-31v424h-1l-168 -403v-21zM240 597l-21 -21l-110 89l21 21z" />
    <glyph glyph-name="uni04D8.smcp" horiz-adv-x="315" 
d="M47 106v169h190v138c0 49 -34 81 -79 81s-80 -32 -80 -81v-46h-31v46c0 68 47 110 111 110c63 0 110 -42 110 -110v-307c0 -68 -46 -109 -110 -109s-111 41 -111 109zM237 106v140h-159v-140c0 -49 35 -80 80 -80s79 31 79 80z" />
    <glyph glyph-name="quoteright_afii10056.smcp" horiz-adv-x="216" 
d="M55 524h-29c19 43 29 83 29 120v81h31v-81c0 -32 -13 -78 -24 -102zM160 0h-32v520h32v-520zM229 597h-29v81h29v-81z" />
    <glyph glyph-name="afii10056_afii10056.smcp" horiz-adv-x="288" 
d="M87 0h-31v520h31v-520zM18 597h-29v81h29v-81zM160 597h-30v81h30v-81zM232 0h-31v520h31v-520zM301 597h-29v81h29v-81z" />
    <glyph glyph-name="five.fitted.smcp" 
d="M78 241h-31v279h225v-29h-194v-195c24 41 61 62 111 62c49 0 88 -34 88 -89v-159c0 -69 -49 -113 -116 -113c-65 0 -114 44 -114 113v43h31v-43c0 -52 35 -84 83 -84s85 32 85 84v155c0 39 -28 64 -64 64c-28 0 -52 -9 -73 -28s-31 -39 -31 -60z" />
    <glyph glyph-name="four.fitted.smcp" 
d="M236 99h-208v29l190 392h49v-392h29v-29h-29v-99h-31v99zM234 479l-175 -351h177v351h-2z" />
    <glyph glyph-name="three.fitted.smcp" 
d="M160 26c48 0 84 33 84 85v60c0 52 -36 84 -84 84h-45v28h44c48 0 85 34 85 86v40c0 52 -37 85 -85 85c-45 0 -80 -31 -80 -80v-47h-31v47c0 68 47 109 111 109c67 0 116 -45 116 -114v-34c0 -53 -29 -91 -74 -106c45 -13 75 -51 75 -106v-52c0 -69 -51 -114 -116 -114
c-64 0 -112 42 -112 110v46h32v-46c0 -49 35 -81 80 -81z" />
    <glyph glyph-name="two.fitted.smcp" 
d="M275 0h-227v89c-1 157 197 116 196 253v67c0 52 -37 85 -85 85c-45 0 -80 -31 -80 -80v-47h-31v47c0 68 47 109 111 109c67 0 116 -45 116 -114v-67c0 -59 -30 -98 -69 -119c-55 -30 -126 -54 -126 -134v-60h195v-29z" />
    <glyph glyph-name="M.smcp" horiz-adv-x="441" 
d="M86 0h-30v520h48l115 -479h2l116 479h48v-520h-30v474h-2l-113 -474h-40l-112 474h-2v-474z" />
    <glyph glyph-name="zero.fitted.smcp" 
d="M161 523c67 0 116 -45 116 -114v-299c0 -69 -49 -113 -116 -113c-65 0 -114 44 -114 113v299c0 69 49 114 114 114zM78 409v-299c0 -52 35 -84 83 -84s85 32 85 84v299c0 52 -37 85 -85 85s-83 -33 -83 -85z" />
    <glyph glyph-name="nine.smcp" 
d="M160 26c48 0 86 35 86 87v159c-24 -41 -61 -62 -111 -62c-49 0 -88 34 -88 89v111c0 69 50 113 115 113c67 0 115 -44 115 -113v-297c0 -71 -50 -116 -117 -116c-64 0 -113 43 -113 111v45h31v-45c0 -49 35 -82 82 -82zM246 345v65c0 52 -36 84 -84 84s-84 -32 -84 -84
v-107c0 -39 28 -64 63 -64c60 0 105 42 105 106z" />
    <glyph glyph-name="eight.smcp" 
d="M161 523c67 0 116 -45 116 -114v-39c0 -51 -21 -85 -64 -102c43 -19 64 -54 64 -103v-55c0 -69 -49 -113 -116 -113c-65 0 -114 44 -114 113v55c0 50 21 84 63 103c-42 17 -63 51 -63 102v39c0 69 49 114 114 114zM78 409v-43c0 -52 35 -84 83 -84s85 32 85 84v43
c0 52 -37 85 -85 85s-83 -33 -83 -85zM78 168v-58c0 -52 35 -84 83 -84s85 32 85 84v58c0 52 -36 85 -85 85c-48 0 -83 -33 -83 -85z" />
    <glyph glyph-name="seven.smcp" horiz-adv-x="300" 
d="M229 491h-192v29h226v-23l-138 -497h-32z" />
    <glyph glyph-name="six.smcp" 
d="M162 494c-48 0 -84 -33 -84 -85v-158c24 41 61 62 111 62c49 0 88 -34 88 -89v-114c0 -69 -49 -113 -116 -113c-65 0 -114 44 -114 113v299c0 69 50 114 115 114c64 0 112 -42 112 -110v-46h-32v46c0 49 -35 81 -80 81zM78 178v-68c0 -52 35 -84 83 -84s85 32 85 84v110
c0 39 -28 64 -64 64c-60 0 -104 -42 -104 -106z" />
    <glyph glyph-name="five.smcp" 
d="M78 241h-31v279h225v-29h-194v-195c24 41 61 62 111 62c49 0 88 -34 88 -89v-159c0 -69 -49 -113 -116 -113c-65 0 -114 44 -114 113v43h31v-43c0 -52 35 -84 83 -84s85 32 85 84v155c0 39 -28 64 -64 64c-28 0 -52 -9 -73 -28s-31 -39 -31 -60z" />
    <glyph glyph-name="four.smcp" horiz-adv-x="315" 
d="M228 99h-200v29l181 392h50v-392h28v-29h-28v-99h-31v99zM226 479l-167 -351h169v351h-2z" />
    <glyph glyph-name="three.smcp" horiz-adv-x="320" 
d="M158 26c48 0 84 33 84 85v60c0 52 -36 84 -84 84h-45v28h44c48 0 85 32 85 84v42c0 52 -37 85 -85 85c-45 0 -80 -31 -80 -80v-47h-31v47c0 68 47 109 111 109c67 0 116 -45 116 -114v-34c0 -53 -29 -91 -74 -106c45 -13 75 -51 75 -106v-52c0 -69 -49 -114 -116 -114
c-64 0 -111 42 -111 110v46h31v-46c0 -49 35 -81 80 -81z" />
    <glyph glyph-name="two.smcp" horiz-adv-x="320" 
d="M273 0h-225v89c0 157 194 116 194 253v67c0 52 -37 85 -85 85c-45 0 -80 -31 -80 -80v-47h-31v47c0 68 47 109 111 109c67 0 116 -45 116 -114v-67c0 -59 -30 -98 -69 -119c-54 -29 -124 -55 -124 -134v-60h193v-29z" />
    <glyph glyph-name="one.smcp" horiz-adv-x="214" 
d="M126 487l-98 -59v33l98 59h32v-520h-32v487z" />
    <glyph glyph-name="zero.smcp" 
d="M161 523c67 0 116 -45 116 -114v-299c0 -69 -49 -113 -116 -113c-65 0 -114 44 -114 113v299c0 69 49 114 114 114zM78 409v-299c0 -52 35 -84 83 -84s85 32 85 84v299c0 52 -37 85 -85 85s-83 -33 -83 -85z" />
    <glyph glyph-name="N.smcp" horiz-adv-x="343" 
d="M87 0h-31v520h37l161 -452h2v452h31v-520h-37l-161 452h-2v-452z" />
    <glyph glyph-name="afii10061.smcp" horiz-adv-x="320" 
d="M87 0h-31v520h31v-242h64l108 242h35l-117 -256l120 -264h-35l-111 250h-64v-250zM227 666l-109 -90l-21 21l109 90z" />
    <glyph glyph-name="afii10060.smcp" horiz-adv-x="403" 
d="M157 203v-203h-32v491h-102v29h236v-29h-102v-215c24 41 61 62 111 62c49 0 88 -34 88 -89v-249h-31v245c0 39 -28 64 -64 64c-60 0 -104 -42 -104 -106z" />
    <glyph glyph-name="afii10059.smcp" horiz-adv-x="524" 
d="M87 0h-31v520h31v-236h168v236h32v-236h74c67 0 116 -42 116 -113v-57c0 -71 -49 -114 -116 -114h-106v255h-168v-255zM287 255v-226h74c48 0 85 33 85 85v57c0 52 -37 84 -85 84h-74z" />
    <glyph glyph-name="afii10058.smcp" horiz-adv-x="530" 
d="M28 -3v29c35 0 62 34 62 89v405h203v-236h74c67 0 116 -42 116 -113v-57c0 -71 -49 -114 -116 -114h-106v491h-140v-376c0 -72 -40 -118 -93 -118zM293 255v-226h74c48 0 85 33 85 85v57c0 52 -37 84 -85 84h-74z" />
    <glyph glyph-name="afii10057.smcp" horiz-adv-x="315" 
d="M47 107v49h31v-49c0 -49 35 -81 80 -81s79 32 79 81v413h31v-413c0 -68 -47 -110 -110 -110c-64 0 -111 42 -111 110z" />
    <glyph glyph-name="afii10056.smcp" horiz-adv-x="143" 
d="M19 597h-29v81h29v-81zM156 597h-29v81h29v-81zM87 0h-31v520h31v-520z" />
    <glyph glyph-name="afii10055.smcp" horiz-adv-x="143" 
d="M87 0h-31v520h31v-520z" />
    <glyph glyph-name="afii10054.smcp" horiz-adv-x="315" 
d="M47 106v47h31v-47c0 -49 34 -80 79 -80s80 31 80 80v65c0 47 -30 71 -67 80c-54 15 -122 25 -122 117v48c0 67 46 107 109 107s110 -40 110 -107v-49h-32v49c0 48 -33 78 -78 78c-44 0 -77 -30 -77 -78v-48c0 -47 30 -70 66 -81c54 -13 122 -25 122 -116v-65
c0 -68 -47 -109 -111 -109s-110 41 -110 109z" />
    <glyph glyph-name="afii10053.smcp" 
d="M245 280v-29h-167v-141c0 -52 35 -84 83 -84s85 32 85 84v43h31v-43c0 -69 -49 -113 -116 -113c-65 0 -114 44 -114 113v299c0 69 49 114 114 114c67 0 116 -45 116 -114v-42h-31v42c0 56 -36 85 -85 85s-83 -29 -83 -85v-129h167z" />
    <glyph glyph-name="Lslash.smcp" horiz-adv-x="289" 
d="M56 174l-28 -28v38l28 28v308h31v-277l89 89v-38l-89 -89v-176h174v-29h-205v174z" />
    <glyph glyph-name="Q.smcp" 
d="M146 -15v14c-59 7 -99 47 -99 111v299c0 69 49 114 114 114c67 0 116 -45 116 -114v-299c0 -64 -40 -104 -99 -111v-14c0 -52 36 -84 84 -84h15v-29h-15c-67 0 -116 44 -116 113zM78 409v-299c0 -52 35 -84 83 -84s85 32 85 84v299c0 52 -37 85 -85 85s-83 -33 -83 -85z
" />
    <glyph glyph-name="P.smcp" 
d="M87 0h-31v520h106c67 0 116 -43 116 -114v-87c0 -71 -49 -113 -116 -113h-75v-206zM87 491v-256h75c48 0 84 32 84 84v87c0 52 -36 85 -84 85h-75z" />
    <glyph glyph-name="R.smcp" 
d="M293 0h-33l-99 225h-74v-225h-31v520h106c67 0 116 -43 116 -114v-68c0 -59 -35 -99 -87 -108zM87 491v-237h75c48 0 84 32 84 84v68c0 52 -36 85 -84 85h-75z" />
    <glyph glyph-name="S.smcp" horiz-adv-x="315" 
d="M47 106v47h31v-47c0 -49 34 -80 79 -80s80 31 80 80v65c0 47 -30 71 -67 80c-54 15 -122 25 -122 117v48c0 67 46 107 109 107s110 -40 110 -107v-49h-32v49c0 48 -33 78 -78 78c-44 0 -77 -30 -77 -78v-48c0 -47 30 -70 66 -81c54 -13 122 -25 122 -116v-65
c0 -68 -47 -109 -111 -109s-110 41 -110 109z" />
    <glyph glyph-name="O.smcp" 
d="M161 523c67 0 116 -45 116 -114v-299c0 -69 -49 -113 -116 -113c-65 0 -114 44 -114 113v299c0 69 49 114 114 114zM78 409v-299c0 -52 35 -84 83 -84s85 32 85 84v299c0 52 -37 85 -85 85s-83 -33 -83 -85z" />
    <glyph glyph-name="Eng.smcp" horiz-adv-x="343" 
d="M256 -137v119l-167 470h-2v-452h-31v520h37l161 -452h2v452h31v-657c0 -56 -39 -91 -91 -91c-53 0 -93 35 -93 91v47h32v-47c-5 -81 127 -82 121 0z" />
    <glyph glyph-name="nine.fitted" 
d="M160 26c48 0 86 35 86 87v219c-24 -41 -61 -62 -111 -62c-49 0 -88 34 -88 89v206c0 69 50 113 115 113c67 0 115 -44 115 -113v-452c0 -71 -50 -116 -117 -116c-64 0 -113 43 -113 111v69h31v-69c0 -49 35 -82 82 -82zM246 405v160c0 52 -36 84 -84 84s-84 -32 -84 -84
v-202c0 -39 28 -64 63 -64c60 0 105 42 105 106z" />
    <glyph glyph-name="eight.fitted" 
d="M161 678c67 0 116 -45 116 -114v-118c0 -51 -21 -85 -64 -103c43 -18 64 -52 64 -103v-130c0 -69 -49 -113 -116 -113c-65 0 -114 44 -114 113v130c0 51 21 85 63 103c-42 18 -63 52 -63 103v118c0 69 49 114 114 114zM78 564v-122c0 -52 35 -84 83 -84s85 32 85 84v122
c0 52 -37 85 -85 85s-83 -33 -83 -85zM78 244v-134c0 -52 35 -84 83 -84s85 32 85 84v134c0 52 -37 85 -85 85s-83 -33 -83 -85z" />
    <glyph glyph-name="seven.fitted" 
d="M253 646h-216v29h250v-23l-153 -652h-33z" />
    <glyph glyph-name="six.fitted" 
d="M162 649c-48 0 -84 -33 -84 -85v-222c24 41 61 62 111 62c49 0 88 -34 88 -89v-205c0 -69 -49 -113 -116 -113c-65 0 -114 44 -114 113v454c0 69 50 114 115 114c64 0 112 -42 112 -110v-70h-32v70c0 49 -35 81 -80 81zM78 269v-159c0 -52 35 -84 83 -84s85 32 85 84v201
c0 39 -28 64 -64 64c-60 0 -104 -42 -104 -106z" />
    <glyph glyph-name="five.fitted" 
d="M78 312h-31v363h225v-29h-194v-279c24 41 61 62 111 62c49 0 88 -34 88 -89v-230c0 -69 -49 -113 -116 -113c-65 0 -114 44 -114 113v67h31v-67c0 -52 35 -84 83 -84s85 32 85 84v226c0 39 -28 64 -64 64c-28 0 -52 -9 -73 -28s-31 -39 -31 -60z" />
    <glyph glyph-name="four.fitted" 
d="M236 138h-208v29l190 508h49v-508h29v-29h-29v-138h-31v138zM234 634l-175 -467h177v467h-2z" />
    <glyph glyph-name="three.fitted" 
d="M160 26c48 0 84 33 84 85v145c0 52 -36 84 -84 84h-45v28h44c48 0 85 33 85 84v112c0 52 -37 85 -85 85c-45 0 -80 -31 -80 -80v-71h-31v71c0 68 47 109 111 109c67 0 116 -45 116 -114v-104c0 -53 -29 -91 -74 -106c45 -13 75 -51 75 -106v-137
c0 -69 -51 -114 -116 -114c-64 0 -112 42 -112 110v70h32v-70c0 -49 35 -81 80 -81z" />
    <glyph glyph-name="zero.taboldstyle" 
d="M161 503c67 0 116 -45 116 -114v-279c0 -69 -49 -113 -116 -113c-65 0 -114 44 -114 113v279c0 69 49 114 114 114zM78 389v-279c0 -52 35 -84 83 -84s85 32 85 84v279c0 52 -37 85 -85 85s-83 -33 -83 -85z" />
    <glyph glyph-name="one.taboldstyle" 
d="M286 0h-248v29h110v438l-99 -59v33l99 59h31v-471h107v-29z" />
    <glyph glyph-name="T.smcp" horiz-adv-x="282" 
d="M125 491h-102v29h236v-29h-102v-491h-32v491z" />
    <glyph glyph-name="Tbar.smcp" horiz-adv-x="282" 
d="M125 318h-102v29h102v144h-102v29h236v-29h-102v-144h102v-29h-102v-318h-32v318z" />
    <glyph glyph-name="two.taboldstyle" 
d="M275 0h-227v79c-1 157 197 116 196 253v57c0 52 -37 85 -85 85c-45 0 -80 -31 -80 -80v-47h-31v47c0 68 47 109 111 109c67 0 116 -45 116 -114v-57c0 -59 -30 -98 -69 -119c-55 -30 -126 -54 -126 -134v-50h195v-29z" />
    <glyph glyph-name="three.taboldstyle" 
d="M160 -127c48 0 84 33 84 85v145c0 52 -36 84 -84 84h-45v29h44c48 0 85 32 85 84v89c0 52 -37 85 -85 85c-45 0 -80 -31 -80 -80v-47h-31v47c0 68 47 109 111 109c67 0 116 -45 116 -114v-82c0 -53 -29 -91 -74 -106c45 -13 75 -51 75 -106v-137
c0 -69 -49 -113 -116 -113c-64 0 -111 41 -111 109v46h31v-46c0 -49 35 -81 80 -81z" />
    <glyph glyph-name="four.taboldstyle" 
d="M236 0h-208v29l190 471h49v-471h29v-29h-29v-150h-31v150zM234 459l-175 -430h177v430h-2z" />
    <glyph glyph-name="five.taboldstyle" 
d="M78 148h-31v352h225v-29h-194v-268c24 41 61 62 111 62c49 0 88 -33 88 -88v-220c0 -69 -49 -112 -116 -112c-65 0 -114 43 -114 112v43h31v-43c0 -52 35 -84 83 -84s85 32 85 84v216c0 39 -28 64 -64 64c-28 0 -52 -10 -73 -29s-31 -39 -31 -60z" />
    <glyph glyph-name="six.taboldstyle" 
d="M162 649c-48 0 -84 -33 -84 -85v-222c24 41 61 62 111 62c49 0 88 -34 88 -89v-205c0 -69 -49 -113 -116 -113c-65 0 -114 44 -114 113v454c0 69 50 114 115 114c64 0 112 -42 112 -110v-46h-32v46c0 49 -35 81 -80 81zM78 269v-159c0 -52 35 -84 83 -84s85 32 85 84v201
c0 39 -28 64 -64 64c-60 0 -104 -42 -104 -106z" />
    <glyph glyph-name="seven.taboldstyle" 
d="M253 471h-216v29h250v-23l-162 -627h-32z" />
    <glyph glyph-name="I.smcp" horiz-adv-x="143" 
d="M87 0h-31v520h31v-520z" />
    <glyph glyph-name="Aacute.smcp" horiz-adv-x="315" 
d="M136 520h43l114 -520h-32l-34 159h-139l-34 -159h-33zM159 485h-2l-64 -297h129zM223 666l-109 -90l-21 21l109 90z" />
    <glyph glyph-name="Abreve.smcp" horiz-adv-x="315" 
d="M136 520h43l114 -520h-32l-34 159h-139l-34 -159h-33zM159 485h-2l-64 -297h129zM71 654h27c-7 -79 125 -79 120 0h27c0 -52 -39 -85 -88 -85s-86 33 -86 85z" />
    <glyph glyph-name="Acircumflex.smcp" horiz-adv-x="315" 
d="M136 520h43l114 -520h-32l-34 159h-139l-34 -159h-33zM159 485h-2l-64 -297h129zM158 637l-80 -61l-20 20l100 77l100 -77l-20 -20z" />
    <glyph glyph-name="Agrave.smcp" horiz-adv-x="315" 
d="M136 520h43l114 -520h-32l-34 159h-139l-34 -159h-33zM159 485h-2l-64 -297h129zM224 597l-21 -21l-110 89l21 21z" />
    <glyph glyph-name="Adieresis.smcp" horiz-adv-x="315" 
d="M136 520h43l114 -520h-32l-34 159h-139l-34 -159h-33zM159 485h-2l-64 -297h129zM104 597h-29v81h29v-81zM241 597h-29v81h29v-81z" />
    <glyph glyph-name="Amacron.smcp" horiz-adv-x="315" 
d="M136 520h43l114 -520h-32l-34 159h-139l-34 -159h-33zM159 485h-2l-64 -297h129zM248 611h-180v29h180v-29z" />
    <glyph glyph-name="Aogonek.smcp" horiz-adv-x="315" 
d="M260 -40v40h1l-34 159h-139l-34 -159h-33l115 520h43l114 -520h-6v-40c0 -36 24 -63 61 -63v-25c-55 0 -88 39 -88 88zM159 485h-2l-64 -297h129z" />
    <glyph glyph-name="Aring.smcp" horiz-adv-x="315" 
d="M136 520h43l114 -520h-32l-34 159h-139l-34 -159h-33zM159 485h-2l-64 -297h129zM157 705c44 0 76 -28 76 -75s-32 -75 -76 -75c-43 0 -74 27 -74 74c0 48 31 76 74 76zM157 580c29 0 51 18 51 49s-22 51 -51 51c-28 0 -49 -20 -49 -51s21 -49 49 -49z" />
    <glyph glyph-name="Atilde.smcp" horiz-adv-x="315" 
d="M136 520h43l114 -520h-32l-34 159h-139l-34 -159h-33zM159 485h-2l-64 -297h129zM68 584h-25c0 41 28 66 67 66c20 0 38 -8 53 -23s30 -22 43 -22c23 0 41 16 41 40h26c0 -41 -28 -66 -67 -66c-19 0 -37 7 -53 22s-30 23 -43 23c-23 0 -42 -15 -42 -40z" />
    <glyph glyph-name="AEacute.smcp" horiz-adv-x="391" 
d="M344 0h-185v159h-71l-34 -159h-33l115 520h208v-29h-154v-207h134v-29h-134v-226h154v-29zM159 485h-2l-64 -297h66v297zM277 666l-109 -90l-21 21l109 90z" />
    <glyph glyph-name="Cacute.smcp" horiz-adv-x="315" 
d="M78 413v-307c0 -49 34 -80 79 -80s80 31 80 80v47h31v-47c0 -68 -47 -109 -111 -109s-110 41 -110 109v307c0 68 47 110 110 110c64 0 111 -42 111 -110v-46h-31v46c0 49 -35 81 -80 81s-79 -32 -79 -81zM222 666l-109 -90l-21 21l109 90z" />
    <glyph glyph-name="Ccaron.smcp" horiz-adv-x="315" 
d="M78 413v-307c0 -49 34 -80 79 -80s80 31 80 80v47h31v-47c0 -68 -47 -109 -111 -109s-110 41 -110 109v307c0 68 47 110 110 110c64 0 111 -42 111 -110v-46h-31v46c0 49 -35 81 -80 81s-79 -32 -79 -81zM256 652l-100 -76l-100 76l20 20l80 -61l80 61z" />
    <glyph glyph-name="Ccedilla.smcp" horiz-adv-x="315" 
d="M171 -128h-28v126c-57 5 -96 45 -96 108v307c0 68 47 110 110 110c64 0 111 -42 111 -110v-46h-31v46c0 49 -35 81 -80 81s-79 -32 -79 -81v-307c0 -49 34 -80 79 -80s80 31 80 80v47h31v-47c0 -63 -41 -103 -97 -108v-126z" />
    <glyph glyph-name="Ccircumflex.smcp" horiz-adv-x="315" 
d="M78 413v-307c0 -49 34 -80 79 -80s80 31 80 80v47h31v-47c0 -68 -47 -109 -111 -109s-110 41 -110 109v307c0 68 47 110 110 110c64 0 111 -42 111 -110v-46h-31v46c0 49 -35 81 -80 81s-79 -32 -79 -81zM156 637l-80 -61l-20 20l100 77l100 -77l-20 -20z" />
    <glyph glyph-name="Cdotaccent.smcp" horiz-adv-x="315" 
d="M78 413v-307c0 -49 34 -80 79 -80s80 31 80 80v47h31v-47c0 -68 -47 -109 -111 -109s-110 41 -110 109v307c0 68 47 110 110 110c64 0 111 -42 111 -110v-46h-31v46c0 49 -35 81 -80 81s-79 -32 -79 -81zM172 619h-32v81h32v-81z" />
    <glyph glyph-name="Dcaron.smcp" horiz-adv-x="329" 
d="M263 652l-100 -76l-100 76l20 20l80 -61l80 61zM166 0h-110v520h110c67 0 116 -43 116 -114v-293c0 -71 -49 -113 -116 -113zM87 491v-462h79c48 0 85 32 85 84v293c0 52 -37 85 -85 85h-79z" />
    <glyph glyph-name="Eacute.smcp" horiz-adv-x="313" 
d="M266 0h-210v520h210v-29h-179v-207h159v-29h-159v-226h179v-29zM226 666l-109 -90l-21 21l109 90z" />
    <glyph glyph-name="Ebreve.smcp" horiz-adv-x="313" 
d="M74 654h27c-7 -79 125 -79 120 0h27c0 -52 -39 -85 -88 -85s-86 33 -86 85zM266 0h-210v520h210v-29h-179v-207h159v-29h-159v-226h179v-29z" />
    <glyph glyph-name="Ecaron.smcp" horiz-adv-x="313" 
d="M261 652l-100 -76l-100 76l20 20l80 -61l80 61zM266 0h-210v520h210v-29h-179v-207h159v-29h-159v-226h179v-29z" />
    <glyph glyph-name="Ecircumflex.smcp" horiz-adv-x="313" 
d="M161 637l-80 -61l-20 20l100 77l100 -77l-20 -20zM266 0h-210v520h210v-29h-179v-207h159v-29h-159v-226h179v-29z" />
    <glyph glyph-name="Edieresis.smcp" horiz-adv-x="313" 
d="M266 0h-210v520h210v-29h-179v-207h159v-29h-159v-226h179v-29zM107 597h-29v81h29v-81zM244 597h-29v81h29v-81z" />
    <glyph glyph-name="Edotaccent.smcp" horiz-adv-x="313" 
d="M266 0h-210v520h210v-29h-179v-207h159v-29h-159v-226h179v-29zM179 619h-32v81h32v-81z" />
    <glyph glyph-name="Egrave.smcp" horiz-adv-x="313" 
d="M227 597l-21 -21l-110 89l21 21zM266 0h-210v520h210v-29h-179v-207h159v-29h-159v-226h179v-29z" />
    <glyph glyph-name="Emacron.smcp" horiz-adv-x="313" 
d="M266 0h-210v520h210v-29h-179v-207h159v-29h-159v-226h179v-29zM253 611h-180v29h180v-29z" />
    <glyph glyph-name="Eogonek.smcp" horiz-adv-x="313" 
d="M178 0h-122v520h210v-29h-179v-207h159v-29h-159v-226h179v-29h-61v-40c0 -36 24 -63 61 -63v-25c-55 0 -88 39 -88 88v40z" />
    <glyph glyph-name="Gbreve.smcp" horiz-adv-x="315" 
d="M237 246h-80v29h111v-169c0 -68 -47 -109 -111 -109s-110 41 -110 109v307c0 68 47 110 110 110c64 0 111 -42 111 -110v-46h-31v46c0 49 -35 81 -80 81s-79 -32 -79 -81v-307c0 -49 34 -80 79 -80s80 31 80 80v140zM71 654h27c-7 -79 125 -79 120 0h27
c0 -52 -39 -85 -88 -85s-86 33 -86 85z" />
    <glyph glyph-name="Gcircumflex.smcp" horiz-adv-x="315" 
d="M237 246h-80v29h111v-169c0 -68 -47 -109 -111 -109s-110 41 -110 109v307c0 68 47 110 110 110c64 0 111 -42 111 -110v-46h-31v46c0 49 -35 81 -80 81s-79 -32 -79 -81v-307c0 -49 34 -80 79 -80s80 31 80 80v140zM158 637l-80 -61l-20 20l100 77l100 -77l-20 -20z" />
    <glyph glyph-name="seven.fitted.smcp" 
d="M253 491h-216v29h250v-23l-153 -497h-32z" />
    <glyph glyph-name="eight.fitted.smcp" 
d="M161 523c67 0 116 -45 116 -114v-39c0 -51 -21 -85 -64 -102c43 -19 64 -54 64 -103v-55c0 -69 -49 -113 -116 -113c-65 0 -114 44 -114 113v55c0 50 21 84 63 103c-42 17 -63 51 -63 102v39c0 69 49 114 114 114zM78 409v-43c0 -52 35 -84 83 -84s85 32 85 84v43
c0 52 -37 85 -85 85s-83 -33 -83 -85zM78 168v-58c0 -52 35 -84 83 -84s85 32 85 84v58c0 52 -36 85 -85 85c-48 0 -83 -33 -83 -85z" />
    <glyph glyph-name="nine.fitted.smcp" 
d="M160 26c48 0 86 35 86 87v159c-24 -41 -61 -62 -111 -62c-49 0 -88 34 -88 89v111c0 69 50 113 115 113c67 0 115 -44 115 -113v-297c0 -71 -50 -116 -117 -116c-64 0 -113 43 -113 111v45h31v-45c0 -49 35 -82 82 -82zM246 345v65c0 52 -36 84 -84 84s-84 -32 -84 -84
v-107c0 -39 28 -64 63 -64c60 0 105 42 105 106z" />
    <glyph glyph-name="two.fitted" 
d="M276 0h-226v115c0 59 31 105 68 136c56 44 126 88 126 168v145c0 52 -36 85 -84 85c-45 0 -80 -31 -80 -80v-71h-32v71c0 68 48 109 112 109c65 0 116 -45 116 -114v-145c0 -158 -195 -166 -195 -304v-86h195v-29z" />
    <glyph glyph-name="one.fitted" 
d="M286 0h-248v29h110v613l-99 -59v33l99 59h31v-646h107v-29z" />
    <glyph glyph-name="zero.fitted" 
d="M161 678c67 0 116 -45 116 -114v-454c0 -69 -49 -113 -116 -113c-65 0 -114 44 -114 113v454c0 69 49 114 114 114zM78 564v-454c0 -52 35 -84 83 -84s85 32 85 84v454c0 52 -37 85 -85 85s-83 -33 -83 -85z" />
    <glyph glyph-name="uni018F.smcp" horiz-adv-x="315" 
d="M47 106v169h190v138c0 49 -34 81 -79 81s-80 -32 -80 -81v-46h-31v46c0 68 47 110 111 110c63 0 110 -42 110 -110v-307c0 -68 -46 -109 -110 -109s-111 41 -111 109zM237 106v140h-159v-140c0 -49 35 -80 80 -80s79 31 79 80z" />
    <glyph glyph-name="Z.smcp" horiz-adv-x="319" 
d="M272 0h-225v23l190 468h-190v29h225v-23l-190 -468h190v-29z" />
    <glyph glyph-name="Y.smcp" horiz-adv-x="315" 
d="M173 0h-32v184l-120 336h33l102 -283h2l103 283h33l-121 -336v-184z" />
    <glyph glyph-name="X.smcp" 
d="M58 0h-35l119 264l-116 256h35l99 -229h2l101 229h34l-116 -256l120 -264h-35l-104 238h-2z" />
    <glyph glyph-name="W.smcp" horiz-adv-x="503" 
d="M169 0h-42l-106 520h33l93 -483h2l80 483h43l80 -483h2l92 483h33l-105 -520h-42l-81 482h-2z" />
    <glyph glyph-name="V.smcp" horiz-adv-x="315" 
d="M179 0h-43l-115 520h33l102 -485h2l103 485h33z" />
    <glyph glyph-name="one.fitted.smcp" 
d="M286 0h-248v29h110v458l-99 -59v33l99 59h31v-491h107v-29z" />
    <glyph glyph-name="Kcommaaccent.smcp" horiz-adv-x="320" 
d="M87 0h-31v520h31v-242h64l108 242h35l-117 -256l120 -264h-35l-111 250h-64v-250zM184 -30v-60c0 -26 -8 -59 -23 -100h-27c14 36 21 69 21 100v60h29z" />
    <glyph glyph-name="Lacute.smcp" horiz-adv-x="289" 
d="M226 666l-109 -90l-21 21l109 90zM261 0h-205v520h31v-491h174v-29z" />
    <glyph glyph-name="Lcaron.smcp" horiz-adv-x="289" 
d="M262 652l-100 -76l-100 76l20 20l80 -61l80 61zM261 0h-205v520h31v-491h174v-29z" />
    <glyph glyph-name="Lcommaaccent.smcp" horiz-adv-x="289" 
d="M261 0h-205v520h31v-491h174v-29zM178 -30v-60c0 -26 -8 -59 -23 -100h-27c14 36 21 69 21 100v60h29z" />
    <glyph glyph-name="Ldot.smcp" horiz-adv-x="289" 
d="M261 0h-205v520h31v-491h174v-29zM262 224h-30v79h30v-79z" />
    <glyph glyph-name="Nacute.smcp" horiz-adv-x="343" 
d="M87 0h-31v520h37l161 -452h2v452h31v-520h-37l-161 452h-2v-452zM238 666l-109 -90l-21 21l109 90z" />
    <glyph glyph-name="Ncaron.smcp" horiz-adv-x="343" 
d="M274 652l-100 -76l-100 76l20 20l80 -61l80 61zM87 0h-31v520h37l161 -452h2v452h31v-520h-37l-161 452h-2v-452z" />
    <glyph glyph-name="Ncommaaccent.smcp" horiz-adv-x="343" 
d="M87 0h-31v520h37l161 -452h2v452h31v-520h-37l-161 452h-2v-452zM191 -30v-60c0 -26 -8 -59 -23 -100h-27c14 36 21 69 21 100v60h29z" />
    <glyph glyph-name="Ntilde.smcp" horiz-adv-x="343" 
d="M87 0h-31v520h37l161 -452h2v452h31v-520h-37l-161 452h-2v-452zM82 584h-25c0 41 28 66 67 66c20 0 38 -8 53 -23s30 -22 43 -22c23 0 41 16 41 40h26c0 -41 -28 -66 -67 -66c-19 0 -37 7 -53 22s-30 23 -43 23c-23 0 -42 -15 -42 -40z" />
    <glyph glyph-name="Oacute.smcp" 
d="M161 523c67 0 116 -45 116 -114v-299c0 -69 -49 -113 -116 -113c-65 0 -114 44 -114 113v299c0 69 49 114 114 114zM78 409v-299c0 -52 35 -84 83 -84s85 32 85 84v299c0 52 -37 85 -85 85s-83 -33 -83 -85zM226 666l-109 -90l-21 21l109 90z" />
    <glyph glyph-name="Obreve.smcp" 
d="M161 523c67 0 116 -45 116 -114v-299c0 -69 -49 -113 -116 -113c-65 0 -114 44 -114 113v299c0 69 49 114 114 114zM78 409v-299c0 -52 35 -84 83 -84s85 32 85 84v299c0 52 -37 85 -85 85s-83 -33 -83 -85zM75 654h27c-7 -79 125 -79 120 0h27c0 -52 -39 -85 -88 -85
s-86 33 -86 85z" />
    <glyph glyph-name="Ocircumflex.smcp" 
d="M162 637l-80 -61l-20 20l100 77l100 -77l-20 -20zM161 523c67 0 116 -45 116 -114v-299c0 -69 -49 -113 -116 -113c-65 0 -114 44 -114 113v299c0 69 49 114 114 114zM78 409v-299c0 -52 35 -84 83 -84s85 32 85 84v299c0 52 -37 85 -85 85s-83 -33 -83 -85z" />
    <glyph glyph-name="Odieresis.smcp" 
d="M161 523c67 0 116 -45 116 -114v-299c0 -69 -49 -113 -116 -113c-65 0 -114 44 -114 113v299c0 69 49 114 114 114zM78 409v-299c0 -52 35 -84 83 -84s85 32 85 84v299c0 52 -37 85 -85 85s-83 -33 -83 -85zM108 597h-29v81h29v-81zM245 597h-29v81h29v-81z" />
    <glyph glyph-name="Ograve.smcp" 
d="M161 523c67 0 116 -45 116 -114v-299c0 -69 -49 -113 -116 -113c-65 0 -114 44 -114 113v299c0 69 49 114 114 114zM78 409v-299c0 -52 35 -84 83 -84s85 32 85 84v299c0 52 -37 85 -85 85s-83 -33 -83 -85zM227 597l-21 -21l-110 89l21 21z" />
    <glyph glyph-name="Ohungarumlaut.smcp" 
d="M163 675l-107 -108l-21 21l107 108zM288 675l-107 -108l-21 21l107 108zM161 523c67 0 116 -45 116 -114v-299c0 -69 -49 -113 -116 -113c-65 0 -114 44 -114 113v299c0 69 49 114 114 114zM78 409v-299c0 -52 35 -84 83 -84s85 32 85 84v299c0 52 -37 85 -85 85
s-83 -33 -83 -85z" />
    <glyph glyph-name="Omacron.smcp" 
d="M161 523c67 0 116 -45 116 -114v-299c0 -69 -49 -113 -116 -113c-65 0 -114 44 -114 113v299c0 69 49 114 114 114zM78 409v-299c0 -52 35 -84 83 -84s85 32 85 84v299c0 52 -37 85 -85 85s-83 -33 -83 -85zM252 611h-180v29h180v-29z" />
    <glyph glyph-name="Otilde.smcp" 
d="M161 523c67 0 116 -45 116 -114v-299c0 -69 -49 -113 -116 -113c-65 0 -114 44 -114 113v299c0 69 49 114 114 114zM78 409v-299c0 -52 35 -84 83 -84s85 32 85 84v299c0 52 -37 85 -85 85s-83 -33 -83 -85zM72 584h-25c0 41 28 66 67 66c20 0 38 -8 53 -23
s30 -22 43 -22c23 0 41 16 41 40h26c0 -41 -28 -66 -67 -66c-19 0 -37 7 -53 22s-30 23 -43 23c-23 0 -42 -15 -42 -40z" />
    <glyph glyph-name="Racute.smcp" 
d="M293 0h-33l-99 225h-74v-225h-31v520h106c67 0 116 -43 116 -114v-68c0 -59 -35 -99 -87 -108zM87 491v-237h75c48 0 84 32 84 84v68c0 52 -36 85 -84 85h-75zM226 666l-109 -90l-21 21l109 90z" />
    <glyph glyph-name="Rcaron.smcp" 
d="M293 0h-33l-99 225h-74v-225h-31v520h106c67 0 116 -43 116 -114v-68c0 -59 -35 -99 -87 -108zM87 491v-237h75c48 0 84 32 84 84v68c0 52 -36 85 -84 85h-75zM262 652l-100 -76l-100 76l20 20l80 -61l80 61z" />
    <glyph glyph-name="Rcommaaccent.smcp" 
d="M293 0h-33l-99 225h-74v-225h-31v520h106c67 0 116 -43 116 -114v-68c0 -59 -35 -99 -87 -108zM87 491v-237h75c48 0 84 32 84 84v68c0 52 -36 85 -84 85h-75zM174 -30v-60c0 -26 -8 -59 -23 -100h-27c14 36 21 69 21 100v60h29z" />
    <glyph glyph-name="Sacute.smcp" horiz-adv-x="315" 
d="M47 106v47h31v-47c0 -49 34 -80 79 -80s80 31 80 80v65c0 47 -30 71 -67 80c-54 15 -122 25 -122 117v48c0 67 46 107 109 107s110 -40 110 -107v-49h-32v49c0 48 -33 78 -78 78c-44 0 -77 -30 -77 -78v-48c0 -47 30 -70 66 -81c54 -13 122 -25 122 -116v-65
c0 -68 -47 -109 -111 -109s-110 41 -110 109zM222 666l-109 -90l-21 21l109 90z" />
    <glyph glyph-name="Scaron.smcp" horiz-adv-x="315" 
d="M47 106v47h31v-47c0 -49 34 -80 79 -80s80 31 80 80v65c0 47 -30 71 -67 80c-54 15 -122 25 -122 117v48c0 67 46 107 109 107s110 -40 110 -107v-49h-32v49c0 48 -33 78 -78 78c-44 0 -77 -30 -77 -78v-48c0 -47 30 -70 66 -81c54 -13 122 -25 122 -116v-65
c0 -68 -47 -109 -111 -109s-110 41 -110 109zM257 652l-100 -76l-100 76l20 20l80 -61l80 61z" />
    <glyph glyph-name="Scedilla.smcp" horiz-adv-x="315" 
d="M172 -128h-28v126c-57 4 -97 45 -97 108v47h31v-47c0 -49 34 -80 79 -80s80 31 80 80v65c0 47 -30 71 -67 80c-54 15 -122 25 -122 117v48c0 67 46 107 109 107s110 -40 110 -107v-49h-32v49c0 48 -33 78 -78 78c-44 0 -77 -30 -77 -78v-48c0 -47 30 -70 66 -81
c54 -13 122 -25 122 -116v-65c0 -63 -40 -103 -96 -108v-126z" />
    <glyph glyph-name="Scircumflex.smcp" horiz-adv-x="315" 
d="M47 106v47h31v-47c0 -49 34 -80 79 -80s80 31 80 80v65c0 47 -30 71 -67 80c-54 15 -122 25 -122 117v48c0 67 46 107 109 107s110 -40 110 -107v-49h-32v49c0 48 -33 78 -78 78c-44 0 -77 -30 -77 -78v-48c0 -47 30 -70 66 -81c54 -13 122 -25 122 -116v-65
c0 -68 -47 -109 -111 -109s-110 41 -110 109zM157 637l-80 -61l-20 20l100 77l100 -77l-20 -20z" />
    <glyph glyph-name="Scommaaccent.smcp" horiz-adv-x="315" 
d="M47 106v47h31v-47c0 -49 34 -80 79 -80s80 31 80 80v65c0 47 -30 71 -67 80c-54 15 -122 25 -122 117v48c0 67 46 107 109 107s110 -40 110 -107v-49h-32v49c0 48 -33 78 -78 78c-44 0 -77 -30 -77 -78v-48c0 -47 30 -70 66 -81c54 -13 122 -25 122 -116v-65
c0 -68 -47 -109 -111 -109s-110 41 -110 109zM172 -30v-60c0 -26 -8 -59 -23 -100h-27c14 36 21 69 21 100v60h29z" />
    <glyph glyph-name="Tcaron.smcp" horiz-adv-x="282" 
d="M241 652l-100 -76l-100 76l20 20l80 -61l80 61zM125 491h-102v29h236v-29h-102v-491h-32v491z" />
    <glyph glyph-name="Tcommaaccent.smcp" horiz-adv-x="282" 
d="M125 491h-102v29h236v-29h-102v-491h-32v491zM155 -30v-60c0 -26 -8 -59 -23 -100h-27c14 36 21 69 21 100v60h29z" />
    <glyph glyph-name="uni021A.smcp" horiz-adv-x="282" 
d="M125 491h-102v29h236v-29h-102v-491h-32v491zM156 -30v-60c0 -26 -8 -59 -23 -100h-27c14 36 21 69 21 100v60h29z" />
    <glyph glyph-name="Uacute.smcp" 
d="M47 110v410h31v-410c0 -52 35 -84 83 -84s85 32 85 84v410h31v-410c0 -69 -49 -113 -116 -113c-65 0 -114 44 -114 113zM226 666l-109 -90l-21 21l109 90z" />
    <glyph glyph-name="Ubreve.smcp" 
d="M47 110v410h31v-410c0 -52 35 -84 83 -84s85 32 85 84v410h31v-410c0 -69 -49 -113 -116 -113c-65 0 -114 44 -114 113zM75 654h27c-7 -79 125 -79 120 0h27c0 -52 -39 -85 -88 -85s-86 33 -86 85z" />
    <glyph glyph-name="Ucircumflex.smcp" 
d="M162 637l-80 -61l-20 20l100 77l100 -77l-20 -20zM47 110v410h31v-410c0 -52 35 -84 83 -84s85 32 85 84v410h31v-410c0 -69 -49 -113 -116 -113c-65 0 -114 44 -114 113z" />
    <glyph glyph-name="Udieresis.smcp" 
d="M47 110v410h31v-410c0 -52 35 -84 83 -84s85 32 85 84v410h31v-410c0 -69 -49 -113 -116 -113c-65 0 -114 44 -114 113zM107 597h-29v81h29v-81zM244 597h-29v81h29v-81z" />
    <glyph glyph-name="Ugrave.smcp" 
d="M47 110v410h31v-410c0 -52 35 -84 83 -84s85 32 85 84v410h31v-410c0 -69 -49 -113 -116 -113c-65 0 -114 44 -114 113zM227 597l-21 -21l-110 89l21 21z" />
    <glyph glyph-name="Uhungarumlaut.smcp" 
d="M163 675l-107 -108l-21 21l107 108zM288 675l-107 -108l-21 21l107 108zM47 110v410h31v-410c0 -52 35 -84 83 -84s85 32 85 84v410h31v-410c0 -69 -49 -113 -116 -113c-65 0 -114 44 -114 113z" />
    <glyph glyph-name="Umacron.smcp" 
d="M47 110v410h31v-410c0 -52 35 -84 83 -84s85 32 85 84v410h31v-410c0 -69 -49 -113 -116 -113c-65 0 -114 44 -114 113zM251 611h-180v29h180v-29z" />
    <glyph glyph-name="Uogonek.smcp" 
d="M161 -40v37c-65 0 -114 44 -114 113v410h31v-410c0 -52 35 -84 83 -84s85 32 85 84v410h31v-410c0 -60 -36 -101 -89 -110v-40c0 -36 24 -63 61 -63v-25c-55 0 -88 39 -88 88z" />
    <glyph glyph-name="Uring.smcp" 
d="M160 705c44 0 76 -28 76 -75s-32 -75 -76 -75c-43 0 -74 27 -74 74c0 48 31 76 74 76zM160 580c29 0 51 18 51 49s-22 51 -51 51c-28 0 -49 -20 -49 -51s21 -49 49 -49zM47 110v410h31v-410c0 -52 35 -84 83 -84s85 32 85 84v410h31v-410c0 -69 -49 -113 -116 -113
c-65 0 -114 44 -114 113z" />
    <glyph glyph-name="Utilde.smcp" 
d="M72 584h-25c0 41 28 66 67 66c20 0 38 -8 53 -23s30 -22 43 -22c23 0 41 16 41 40h26c0 -41 -28 -66 -67 -66c-19 0 -37 7 -53 22s-30 23 -43 23c-23 0 -42 -15 -42 -40zM47 110v410h31v-410c0 -52 35 -84 83 -84s85 32 85 84v410h31v-410c0 -69 -49 -113 -116 -113
c-65 0 -114 44 -114 113z" />
    <glyph glyph-name="Wacute.smcp" horiz-adv-x="503" 
d="M169 0h-42l-106 520h33l93 -483h2l80 483h43l80 -483h2l92 483h33l-105 -520h-42l-81 482h-2zM315 666l-109 -90l-21 21l109 90z" />
    <glyph glyph-name="Wcircumflex.smcp" horiz-adv-x="503" 
d="M169 0h-42l-106 520h33l93 -483h2l80 483h43l80 -483h2l92 483h33l-105 -520h-42l-81 482h-2zM250 637l-80 -61l-20 20l100 77l100 -77l-20 -20z" />
    <glyph glyph-name="Wdieresis.smcp" horiz-adv-x="503" 
d="M169 0h-42l-106 520h33l93 -483h2l80 483h43l80 -483h2l92 483h33l-105 -520h-42l-81 482h-2zM197 597h-29v81h29v-81zM334 597h-29v81h29v-81z" />
    <glyph glyph-name="Wgrave.smcp" horiz-adv-x="503" 
d="M169 0h-42l-106 520h33l93 -483h2l80 483h43l80 -483h2l92 483h33l-105 -520h-42l-81 482h-2zM316 597l-21 -21l-110 89l21 21z" />
    <glyph glyph-name="Yacute.smcp" horiz-adv-x="315" 
d="M173 0h-32v184l-120 336h33l102 -283h2l103 283h33l-121 -336v-184zM222 666l-109 -90l-21 21l109 90z" />
    <glyph glyph-name="Ycircumflex.smcp" horiz-adv-x="315" 
d="M173 0h-32v184l-120 336h33l102 -283h2l103 283h33l-121 -336v-184zM157 637l-80 -61l-20 20l100 77l100 -77l-20 -20z" />
    <glyph glyph-name="Ydieresis.smcp" horiz-adv-x="315" 
d="M173 0h-32v184l-120 336h33l102 -283h2l103 283h33l-121 -336v-184zM103 597h-29v81h29v-81zM240 597h-29v81h29v-81z" />
    <glyph glyph-name="Ygrave.smcp" horiz-adv-x="315" 
d="M173 0h-32v184l-120 336h33l102 -283h2l103 283h33l-121 -336v-184zM223 597l-21 -21l-110 89l21 21z" />
    <glyph glyph-name="Zacute.smcp" horiz-adv-x="319" 
d="M272 0h-225v23l190 468h-190v29h225v-23l-190 -468h190v-29zM224 666l-109 -90l-21 21l109 90z" />
    <glyph glyph-name="Zcaron.smcp" horiz-adv-x="319" 
d="M260 652l-100 -76l-100 76l20 20l80 -61l80 61zM272 0h-225v23l190 468h-190v29h225v-23l-190 -468h190v-29z" />
    <glyph glyph-name="Zdotaccent.smcp" horiz-adv-x="319" 
d="M272 0h-225v23l190 468h-190v29h225v-23l-190 -468h190v-29zM175 619h-32v81h32v-81z" />
    <glyph glyph-name="exclam.smcp" horiz-adv-x="143" 
d="M87 148h-31v372h31v-372zM87 0h-31v81h31v-81z" />
    <glyph glyph-name="slash.smcp" horiz-adv-x="226" 
d="M69 0h-32l120 520h32z" />
    <glyph glyph-name="backslash.smcp" horiz-adv-x="226" 
d="M189 0h-32l-120 520h32z" />
    <glyph glyph-name="parenleft.smcp" horiz-adv-x="199" 
d="M171 550h-10c-48 0 -83 -33 -83 -85v-455c0 -52 35 -84 83 -84h10v-29h-10c-65 0 -114 44 -114 113v455c0 69 49 113 114 113h10v-28z" />
    <glyph glyph-name="parenright.smcp" horiz-adv-x="199" 
d="M28 -74h10c48 0 83 33 83 85v455c0 52 -35 84 -83 84h-10v28h10c65 0 115 -43 115 -112v-455c0 -69 -50 -114 -115 -114h-10v29z" />
    <glyph glyph-name="bracketleft.smcp" horiz-adv-x="199" 
d="M171 -102h-124v678h124v-29h-93v-618h93v-31z" />
    <glyph glyph-name="bracketright.smcp" horiz-adv-x="199" 
d="M153 -102h-125v29h93v618h-93v31h125v-678z" />
    <glyph glyph-name="braceleft.smcp" horiz-adv-x="274" 
d="M247 -74v-29h-10c-67 0 -115 44 -115 113v129c0 52 -36 84 -84 84h-10v31h10c48 0 84 33 84 85v126c0 69 48 113 115 113h10v-28h-10c-48 0 -84 -33 -84 -85v-126c0 -48 -20 -82 -60 -101c40 -18 60 -51 60 -99v-129c0 -52 36 -84 84 -84h10z" />
    <glyph glyph-name="braceright.smcp" horiz-adv-x="274" 
d="M38 -103h-10v29h10c48 0 84 33 84 85v126c0 49 20 82 60 100c-40 19 -60 53 -60 100v129c0 52 -36 84 -84 84h-10v28h10c65 0 115 -43 115 -112v-129c0 -52 36 -84 84 -84h10v-31h-10c-48 0 -84 -33 -84 -85v-126c0 -71 -48 -114 -115 -114z" />
    <glyph glyph-name="exclamdown.smcp" horiz-adv-x="143" 
d="M87 -100h-31v469h31v-469zM87 439h-31v81h31v-81z" />
    <glyph glyph-name="questiondown.smcp" horiz-adv-x="320" 
d="M147 312v60h31v-60c0 -55 -16 -90 -36 -109c-27 -25 -65 -45 -65 -121v-71c0 -52 37 -85 85 -85c45 0 80 31 80 80v68h31v-68c0 -68 -47 -109 -111 -109c-67 0 -116 45 -116 114v71c0 55 16 91 35 108c29 27 66 46 66 122zM178 442h-31v81h31v-81z" />
    <glyph glyph-name="question.smcp" horiz-adv-x="320" 
d="M172 148h-31v26c0 122 101 96 101 201v34c0 52 -37 85 -85 85c-45 0 -80 -31 -80 -80v-38h-31v38c0 68 47 109 111 109c67 0 116 -45 116 -114v-34c0 -122 -101 -96 -101 -201v-26zM172 0h-31v81h31v-81z" />
    <glyph glyph-name="bar.smcp" horiz-adv-x="143" 
d="M87 -100h-31v631h31v-631z" />
    <glyph glyph-name="brokenbar.smcp" horiz-adv-x="143" 
d="M87 -100h-31v275h31v-275zM87 257h-31v274h31v-274z" />
    <glyph glyph-name="percent.smcp" horiz-adv-x="569" 
d="M190 0h-29l220 520h29zM55 301v136c0 52 37 86 85 86c49 0 86 -34 86 -86v-136c0 -52 -38 -84 -86 -84s-85 32 -85 84zM82 437v-136c-6 -76 122 -76 118 0v136c0 36 -27 60 -60 60s-58 -24 -58 -60zM343 81v136c0 53 36 86 85 86c48 0 86 -34 86 -86v-136
c0 -52 -38 -84 -86 -84c-49 0 -85 32 -85 84zM369 217v-136c-5 -76 123 -76 118 0v136c0 36 -26 60 -59 60s-59 -24 -59 -60z" />
    <glyph glyph-name="perthousand.smcp" horiz-adv-x="788" 
d="M190 0h-29l219 520h29zM55 301v136c0 52 37 86 85 86c49 0 86 -34 86 -86v-136c0 -52 -38 -84 -86 -84s-85 32 -85 84zM82 437v-136c-6 -76 122 -76 118 0v136c0 36 -27 60 -60 60s-58 -24 -58 -60zM343 81v136c0 53 36 86 85 86c48 0 86 -34 86 -86v-136
c0 -52 -38 -84 -86 -84c-49 0 -85 32 -85 84zM369 217v-136c-5 -76 123 -76 118 0v136c0 36 -26 60 -59 60s-59 -24 -59 -60zM562 81v136c0 53 36 86 85 86c48 0 86 -34 86 -86v-136c0 -52 -38 -84 -86 -84c-49 0 -85 32 -85 84zM588 217v-136c-5 -76 123 -76 118 0v136
c0 36 -26 60 -59 60s-59 -24 -59 -60z" />
    <glyph glyph-name="dagger.smcp" horiz-adv-x="282" 
d="M125 345h-102v29h102v146h32v-146h102v-29h-102v-345h-32v345z" />
    <glyph glyph-name="daggerdbl.smcp" horiz-adv-x="282" 
d="M157 173h102v-28h-102v-145h-32v145h-102v28h102v174h-102v28h102v145h32v-145h102v-28h-102v-174z" />
    <glyph glyph-name="section.smcp" 
d="M277 146v-76c0 -25 -6 -45 -17 -62c11 -18 17 -40 17 -67v-56c0 -69 -49 -113 -116 -113c-65 0 -114 44 -114 113v57h31v-57c0 -52 35 -84 83 -84s85 32 85 84v56c0 48 -31 77 -70 92c-56 21 -128 40 -128 134v60c0 28 8 51 23 70c-15 19 -23 44 -23 75v40
c0 69 49 111 113 111c65 0 115 -43 115 -111v-59h-32v59c0 51 -35 82 -83 82c-47 0 -81 -31 -81 -82v-40c0 -48 32 -77 69 -92c56 -21 128 -42 128 -134zM246 70v76c0 27 -8 48 -23 62c-15 15 -38 27 -68 38c-29 11 -50 21 -62 30c-9 -14 -13 -30 -13 -49v-60
c0 -44 28 -74 56 -86l53 -22c21 -9 38 -18 49 -27c5 12 8 25 8 38z" />
    <glyph glyph-name="paragraph.smcp" horiz-adv-x="431" 
d="M162 520h106v-620h-31v306h-75c-65 0 -115 42 -115 113v87c0 71 50 114 115 114zM344 520h31v-620h-31v620z" />
    <glyph glyph-name="afii61352.smcp" horiz-adv-x="570" 
d="M87 0h-31v520h37l161 -451h2v451h31v-520h-37l-161 451h-2v-451zM344 351v86c0 52 37 86 85 86c49 0 86 -34 86 -86v-86c0 -52 -38 -84 -86 -84c-49 0 -85 32 -85 84zM371 437v-86c-6 -76 122 -76 118 0v86c0 36 -27 60 -60 60s-58 -24 -58 -60z" />
    <glyph glyph-name="Euro.smcp" horiz-adv-x="344" 
d="M75 297h-47v28h47v88c0 68 47 110 111 110s111 -42 111 -110v-41h-31v41c0 49 -35 81 -80 81s-79 -32 -79 -81v-88h190v-28h-190v-66h190v-27h-190v-98c0 -49 34 -80 79 -80s80 31 80 80v42h31v-42c0 -68 -47 -109 -111 -109s-111 41 -111 109v98h-47v27h47v66z" />
    <glyph glyph-name="sterling.smcp" horiz-adv-x="344" 
d="M75 225h-47v28h47v160c0 68 47 110 111 110s111 -42 111 -110v-46h-31v46c0 49 -35 81 -80 81s-79 -32 -79 -81v-160h190v-28h-190v-196h190v-29h-269v29h47v196z" />
    <glyph glyph-name="yen.smcp" horiz-adv-x="315" 
d="M141 150h-99v29h99v5l-120 336h33l102 -283h2l103 283h33l-121 -336v-5h100v-29h-100v-56h100v-29h-100v-65h-32v65h-99v29h99v56z" />
    <glyph glyph-name="numbersign.smcp" horiz-adv-x="364" 
d="M125 0h-31v145h-48v29h48v172h-48v29h48v145h31v-145h123v145h32v-145h47v-29h-47v-172h47v-29h-47v-145h-32v145h-123v-145zM125 346v-172h123v172h-123z" />
    <glyph glyph-name="Hbar.smcp" horiz-adv-x="343" 
d="M56 400h-29v28h29v92h31v-92h168v92h32v-92h29v-28h-29v-400h-32v255h-168v-255h-31v400zM87 400v-116h168v116h-168z" />
    <glyph glyph-name="ampersand.smcp" 
d="M161 268h85v36h31v-194c0 -69 -49 -113 -116 -113c-65 0 -114 44 -114 113v40c0 51 21 85 63 103c-42 18 -63 52 -63 103v28c0 69 49 114 114 114c67 0 116 -45 116 -114v-32h-31v32c0 52 -37 85 -85 85s-83 -33 -83 -85v-32c0 -52 35 -84 83 -84zM246 239h-85
c-48 0 -83 -33 -83 -85v-44c0 -52 35 -84 83 -84s85 32 85 84v129z" />
    <glyph glyph-name="H.smcp" horiz-adv-x="343" 
d="M87 0h-31v520h31v-236h168v236h32v-520h-32v255h-168v-255z" />
    <glyph glyph-name="G.smcp" horiz-adv-x="315" 
d="M237 246h-80v29h111v-169c0 -68 -47 -109 -111 -109s-110 41 -110 109v307c0 68 47 110 110 110c64 0 111 -42 111 -110v-46h-31v46c0 49 -35 81 -80 81s-79 -32 -79 -81v-307c0 -49 34 -80 79 -80s80 31 80 80v140z" />
    <glyph glyph-name="F.smcp" horiz-adv-x="313" 
d="M87 0h-31v520h210v-29h-179v-207h159v-29h-159v-255z" />
    <glyph glyph-name="OE.smcp" horiz-adv-x="464" 
d="M417 0h-185v17c-19 -13 -41 -20 -66 -20c-64 0 -111 44 -111 113v299c0 69 48 114 111 114c25 0 47 -7 66 -20v17h185v-29h-154v-207h134v-29h-134v-226h154v-29zM170 26c25 0 46 8 62 24v418c-16 17 -37 26 -62 26c-48 0 -83 -33 -83 -85v-299c0 -52 35 -84 83 -84z" />
    <glyph glyph-name="Oslash.smcp" 
d="M63 0h-26l23 53c-9 15 -13 34 -13 57v299c0 69 49 114 114 114c36 0 65 -11 86 -34l13 31h27l-24 -54c9 -17 14 -36 14 -57v-299c0 -69 -49 -113 -116 -113c-35 0 -64 11 -85 34zM246 110v299c0 4 -1 10 -1 14l-155 -360c15 -25 38 -37 71 -37c48 0 85 32 85 84zM78 409
v-312l155 360c-16 25 -40 37 -72 37c-48 0 -83 -33 -83 -85z" />
    <glyph glyph-name="Oslashacute.smcp" 
d="M63 0h-26l23 53c-9 15 -13 34 -13 57v299c0 69 49 114 114 114c36 0 65 -11 86 -34l13 31h27l-24 -54c9 -17 14 -36 14 -57v-299c0 -69 -49 -113 -116 -113c-35 0 -64 11 -85 34zM246 110v299c0 4 -1 10 -1 14l-155 -360c15 -25 38 -37 71 -37c48 0 85 32 85 84zM78 409
v-312l155 360c-16 25 -40 37 -72 37c-48 0 -83 -33 -83 -85zM226 666l-109 -90l-21 21l109 90z" />
    <glyph glyph-name="zero.slash" 
d="M63 0h-26l20 60c-7 13 -10 30 -10 50v454c0 69 49 114 114 114c36 0 65 -12 88 -36l11 33h27l-20 -61c7 -15 10 -32 10 -50v-454c0 -69 -49 -113 -116 -113c-37 0 -66 12 -87 36zM161 26c48 0 85 32 85 84v441l-160 -481c15 -29 40 -44 75 -44zM78 564v-441l159 482
c-15 29 -40 44 -76 44c-48 0 -83 -33 -83 -85z" />
    <glyph glyph-name="zero.fitted.slash" 
d="M63 0h-26l20 60c-7 13 -10 30 -10 50v454c0 69 49 114 114 114c36 0 65 -12 88 -36l11 33h27l-20 -61c7 -15 10 -32 10 -50v-454c0 -69 -49 -113 -116 -113c-37 0 -66 12 -87 36zM161 26c48 0 85 32 85 84v441l-160 -481c15 -29 40 -44 75 -44zM78 564v-441l159 482
c-15 29 -40 44 -76 44c-48 0 -83 -33 -83 -85z" />
    <glyph glyph-name="zerooldstyle.slash" 
d="M63 0h-26l23 52c-9 17 -13 37 -13 58v279c0 69 49 114 114 114c35 0 64 -11 85 -34l14 31h27l-24 -53c9 -17 14 -36 14 -58v-279c0 -69 -49 -113 -116 -113c-35 0 -64 11 -85 33zM246 110v279c0 7 0 13 -1 17l-155 -344c15 -24 38 -36 71 -36c48 0 85 32 85 84zM78 389
v-279c0 -7 0 -13 1 -16l153 344c-15 24 -39 36 -71 36c-48 0 -83 -33 -83 -85z" />
    <glyph glyph-name="zero.taboldstyle.slash" 
d="M63 0h-26l23 52c-9 17 -13 37 -13 58v279c0 69 49 114 114 114c35 0 64 -11 85 -34l14 31h27l-24 -53c9 -17 14 -36 14 -58v-279c0 -69 -49 -113 -116 -113c-35 0 -64 11 -85 33zM246 110v279c0 7 0 13 -1 17l-155 -344c15 -24 38 -36 71 -36c48 0 85 32 85 84zM78 389
v-279c0 -7 0 -13 1 -16l153 344c-15 24 -39 36 -71 36c-48 0 -83 -33 -83 -85z" />
    <glyph glyph-name="zero.slash.smcp" 
d="M63 0h-26l23 53c-9 15 -13 34 -13 57v299c0 69 49 114 114 114c36 0 65 -11 86 -34l13 31h27l-24 -54c9 -17 14 -36 14 -57v-299c0 -69 -49 -113 -116 -113c-35 0 -64 11 -85 34zM246 110v299c0 4 -1 10 -1 14l-155 -360c15 -25 38 -37 71 -37c48 0 85 32 85 84zM78 409
v-312l155 360c-16 25 -40 37 -72 37c-48 0 -83 -33 -83 -85z" />
    <glyph glyph-name="zero.fitted.slash.smcp" 
d="M63 0h-26l23 53c-9 15 -13 34 -13 57v299c0 69 49 114 114 114c36 0 65 -11 86 -34l13 31h27l-24 -54c9 -17 14 -36 14 -57v-299c0 -69 -49 -113 -116 -113c-35 0 -64 11 -85 34zM246 110v299c0 4 -1 10 -1 14l-155 -360c15 -25 38 -37 71 -37c48 0 85 32 85 84zM78 409
v-312l155 360c-16 25 -40 37 -72 37c-48 0 -83 -33 -83 -85z" />
    <glyph glyph-name="Jcircumflex.smcp" horiz-adv-x="315" 
d="M253 637l-80 -61l-20 20l100 77l100 -77l-20 -20zM47 107v49h31v-49c0 -49 35 -81 80 -81s79 32 79 81v413h31v-413c0 -68 -47 -110 -110 -110c-64 0 -111 42 -111 110z" />
    <glyph glyph-name="Itilde.smcp" horiz-adv-x="143" 
d="M-18 584h-25c0 41 28 66 67 66c20 0 38 -8 53 -23s30 -22 43 -22c23 0 41 16 41 40h26c0 -41 -28 -66 -67 -66c-19 0 -37 7 -53 22s-30 23 -43 23c-23 0 -42 -15 -42 -40zM87 0h-31v520h31v-520z" />
    <glyph glyph-name="uni20B4.smcp" horiz-adv-x="315" 
d="M185 297h-143v25h172c14 15 21 33 21 52v42c0 48 -33 78 -77 78c-45 0 -78 -30 -78 -78v-46h-32v46c0 67 47 107 110 107s109 -40 109 -107v-42c0 -19 -5 -37 -15 -52h21v-25h-41c-12 -11 -32 -25 -59 -41s-44 -27 -52 -33h152v-25h-179c-11 -14 -16 -30 -16 -47v-45
c0 -49 35 -80 80 -80s79 31 79 80v44h31v-44c0 -68 -46 -109 -110 -109s-111 41 -111 109v45c0 17 4 32 11 47h-16v25h35c11 12 31 27 60 44z" />
    <glyph glyph-name="E.smcp" horiz-adv-x="313" 
d="M266 0h-210v520h210v-29h-179v-207h159v-29h-159v-226h179v-29z" />
    <glyph glyph-name="Thorn.smcp" horiz-adv-x="302" 
d="M87 0h-31v520h31v-72h53c65 0 116 -43 116 -112v-151c0 -69 -51 -113 -116 -113h-53v-72zM87 420v-320h53c48 0 84 33 84 85v151c0 52 -36 84 -84 84h-53z" />
    <glyph glyph-name="germandbls.smcp" horiz-adv-x="385" 
d="M135 106v44h32v-44c0 -49 34 -80 79 -80s80 31 80 80v20c0 73 -189 42 -189 143v22c0 67 102 49 102 103v19c0 49 -36 81 -81 81s-80 -32 -80 -81v-413h-31v413c0 68 47 110 111 110c65 0 113 -42 113 -110v-21c0 -65 -103 -56 -103 -104v-19c0 -73 189 -42 189 -143v-20
c0 -68 -47 -109 -111 -109s-111 41 -111 109z" />
    <glyph glyph-name="Eth.smcp" horiz-adv-x="329" 
d="M56 255h-29v29h29v236h110c67 0 116 -43 116 -114v-293c0 -71 -49 -113 -116 -113h-110v255zM87 255v-226h79c48 0 85 32 85 84v293c0 52 -37 85 -85 85h-79v-207h87v-29h-87z" />
    <glyph glyph-name="Dcroat.smcp" horiz-adv-x="329" 
d="M56 255h-29v29h29v236h110c67 0 116 -43 116 -114v-293c0 -71 -49 -113 -116 -113h-110v255zM87 255v-226h79c48 0 85 32 85 84v293c0 52 -37 85 -85 85h-79v-207h87v-29h-87z" />
    <glyph glyph-name="Iogonek.smcp" horiz-adv-x="143" 
d="M56 -40v40h27v-40c0 -36 24 -63 61 -63v-25c-55 0 -88 39 -88 88zM87 0h-31v520h31v-520z" />
    <glyph glyph-name="at.smcp" horiz-adv-x="740" 
d="M369 -174v-29c-91 0 -166 28 -225 84c-59 55 -89 132 -89 229v98c0 97 30 174 89 230c60 57 135 85 225 85s165 -28 225 -85c61 -57 91 -133 91 -230v-208h-231v59c-24 -41 -61 -62 -111 -62c-49 0 -88 34 -88 89v124c0 69 49 113 116 113c44 0 86 -16 102 -28l12 -9
v-257h168v179c0 87 -27 156 -82 208c-54 52 -121 78 -202 78s-148 -26 -202 -78c-53 -52 -80 -121 -80 -208v-98c0 -87 27 -156 80 -207c54 -51 121 -77 202 -77zM454 132v137c-22 17 -50 25 -83 25c-48 0 -85 -32 -85 -84v-120c0 -39 28 -64 64 -64c60 0 104 42 104 106z
" />
    <glyph glyph-name="D.smcp" horiz-adv-x="329" 
d="M166 0h-110v520h110c67 0 116 -43 116 -114v-293c0 -71 -49 -113 -116 -113zM87 491v-462h79c48 0 85 32 85 84v293c0 52 -37 85 -85 85h-79z" />
    <glyph glyph-name="Imacron.smcp" horiz-adv-x="143" 
d="M87 0h-31v520h31v-520zM162 611h-180v29h180v-29z" />
    <glyph glyph-name="Igrave.smcp" horiz-adv-x="143" 
d="M138 597l-21 -21l-110 89l21 21zM87 0h-31v520h31v-520z" />
    <glyph glyph-name="Idotaccent.smcp" horiz-adv-x="143" 
d="M88 619h-32v81h32v-81zM87 0h-31v520h31v-520z" />
    <glyph glyph-name="Idieresis.smcp" horiz-adv-x="143" 
d="M18 597h-29v81h29v-81zM155 597h-29v81h29v-81zM87 0h-31v520h31v-520z" />
    <glyph glyph-name="Icircumflex.smcp" horiz-adv-x="143" 
d="M72 637l-80 -61l-20 20l100 77l100 -77l-20 -20zM87 0h-31v520h31v-520z" />
    <glyph glyph-name="Ibreve.smcp" horiz-adv-x="143" 
d="M-15 654h27c-7 -79 125 -79 120 0h27c0 -52 -39 -85 -88 -85s-86 33 -86 85zM87 0h-31v520h31v-520z" />
    <glyph glyph-name="Iacute.smcp" horiz-adv-x="143" 
d="M137 666l-109 -90l-21 21l109 90zM87 0h-31v520h31v-520z" />
    <glyph glyph-name="zero.sup" 
d="M161 678c67 0 116 -45 116 -114v-454c0 -69 -49 -113 -116 -113c-65 0 -114 44 -114 113v454c0 69 49 114 114 114zM78 564v-454c0 -52 35 -84 83 -84s85 32 85 84v454c0 52 -37 85 -85 85s-83 -33 -83 -85z" />
    <glyph glyph-name="one.sup" horiz-adv-x="117" 
d="M61 674l-41 -25v23l41 26h24v-298h-24v274z" />
    <glyph glyph-name="two.sup" horiz-adv-x="161" 
d="M133 400h-105v56c0 67 81 74 81 127v66c0 39 -58 39 -58 2v-33h-24v33c-7 64 110 63 106 -2v-66c0 -66 -81 -74 -81 -127v-36h81v-20z" />
    <glyph glyph-name="three.sup" horiz-adv-x="160" 
d="M109 449v66c0 19 -13 30 -29 30h-22v20h21c17 0 30 11 30 30v54c0 39 -58 39 -58 2v-33h-24v33c-7 64 110 63 106 -2v-48c0 -23 -10 -38 -31 -45c21 -8 31 -24 31 -47v-60c5 -65 -111 -66 -105 -2v33h24v-33c0 -37 57 -38 57 2z" />
    <glyph glyph-name="four.sup" horiz-adv-x="159" 
d="M103 459h-83v20l70 219h37v-219h12v-20h-12v-59h-24v59zM103 670l-60 -191h60v191z" />
    <glyph glyph-name="five.sup" horiz-adv-x="162" 
d="M52 538h-24v160h105v-21h-81v-111c11 17 26 25 45 25c21 0 38 -15 38 -38v-104c5 -66 -113 -66 -107 0v31h24v-31c0 -20 10 -30 29 -30c17 0 30 11 30 30v99c0 13 -10 23 -23 23c-19 0 -36 -17 -36 -33z" />
    <glyph glyph-name="six.sup" horiz-adv-x="162" 
d="M82 679c-17 0 -30 -13 -30 -30v-94c11 17 26 25 45 25c21 0 38 -15 38 -38v-93c5 -66 -113 -66 -107 0v200c0 31 23 50 54 50c29 0 51 -18 51 -49v-32h-24v32c0 17 -11 29 -27 29zM52 521v-72c0 -20 10 -30 29 -30c17 0 30 11 30 30v88c0 13 -10 23 -23 23
c-20 0 -36 -15 -36 -39z" />
    <glyph glyph-name="seven.sup" horiz-adv-x="153" 
d="M103 677h-79v21h105v-13l-59 -285h-25z" />
    <glyph glyph-name="eight.sup" horiz-adv-x="162" 
d="M135 649v-52c0 -22 -9 -37 -28 -45c19 -9 28 -24 28 -45v-58c5 -66 -113 -66 -107 0v58c0 21 9 36 27 45c-18 8 -27 23 -27 45v52c-6 66 112 66 107 0zM52 649v-57c0 -20 10 -30 29 -30c17 0 30 11 30 30v57c0 17 -14 30 -30 30c-17 0 -29 -13 -29 -30zM52 511v-62
c0 -20 10 -30 29 -30c17 0 30 11 30 30v62c0 19 -13 31 -30 31c-19 0 -29 -10 -29 -31z" />
    <glyph glyph-name="nine.sup" horiz-adv-x="162" 
d="M81 419c16 0 30 12 30 31v92c-12 -17 -27 -25 -46 -25c-21 0 -37 15 -37 39v93c-5 66 113 66 107 0v-199c5 -68 -113 -66 -107 -2v32h24v-32c0 -17 12 -29 29 -29zM111 576v73c0 19 -13 30 -29 30c-17 0 -30 -11 -30 -30v-88c0 -13 10 -23 22 -23c21 0 37 15 37 38z" />
    <glyph glyph-name="comma.sup" horiz-adv-x="84" 
d="M42 354l-4 -7h-20c8 19 12 36 12 53v41h23v-41c0 -15 -6 -35 -11 -46z" />
    <glyph glyph-name="period.sup" horiz-adv-x="84" 
d="M53 400h-23v41h23v-41z" />
    <glyph glyph-name="parenleft.sup" horiz-adv-x="106" 
d="M86 712h-5c-19 0 -29 -10 -29 -30v-278c0 -17 12 -29 29 -29h5v-21h-5c-31 0 -53 19 -53 50v278c0 31 22 50 53 50h5v-20z" />
    <glyph glyph-name="parenright.sup" horiz-adv-x="106" 
d="M20 375h4c17 0 30 11 30 30v277c0 19 -13 30 -30 30h-4v20h4c31 0 54 -19 54 -50v-277c0 -31 -23 -51 -54 -51h-4v21z" />
    <glyph glyph-name="hyphen.sup" horiz-adv-x="116" 
d="M92 511h-68v20h68v-20z" />
    <glyph glyph-name="zero.slash.sup" horiz-adv-x="163" 
d="M39 400h-15l8 26c-3 5 -4 13 -4 23v200c0 31 22 50 53 50c15 0 27 -4 38 -13l4 12h16l-9 -27c3 -7 5 -14 5 -22v-200c0 -32 -23 -50 -54 -50c-17 0 -29 4 -38 13zM81 419c17 0 30 11 30 30v165l-58 -173c3 -15 13 -22 28 -22zM52 649v-165l58 174c-4 14 -14 21 -29 21
c-17 0 -29 -13 -29 -30z" />
    <glyph glyph-name="C.smcp" horiz-adv-x="315" 
d="M78 413v-307c0 -49 34 -80 79 -80s80 31 80 80v47h31v-47c0 -68 -47 -109 -111 -109s-110 41 -110 109v307c0 68 47 110 110 110c64 0 111 -42 111 -110v-46h-31v46c0 49 -35 81 -80 81s-79 -32 -79 -81z" />
    <glyph glyph-name="B.smcp" 
d="M163 0h-107v520h106c67 0 116 -43 116 -114v-26c0 -53 -29 -91 -74 -106c44 -13 74 -51 74 -106v-54c0 -71 -50 -114 -115 -114zM163 260h-76v-231h76c48 0 84 33 84 85v62c0 52 -36 84 -84 84zM87 491v-203h75c48 0 84 32 84 84v34c0 52 -36 85 -84 85h-75z" />
    <glyph glyph-name="AE.smcp" horiz-adv-x="391" 
d="M344 0h-185v159h-71l-34 -159h-33l115 520h208v-29h-154v-207h134v-29h-134v-226h154v-29zM159 485h-2l-64 -297h66v297z" />
    <glyph glyph-name="zero.sub" horiz-adv-x="162" 
d="M135 199v-200c5 -66 -113 -66 -107 0v200c-6 66 112 66 107 0zM52 199v-200c0 -20 10 -30 29 -30c17 0 30 11 30 30v200c0 17 -14 30 -30 30c-17 0 -29 -13 -29 -30z" />
    <glyph glyph-name="one.sub" horiz-adv-x="117" 
d="M61 224l-41 -25v23l41 26h24v-298h-24v274z" />
    <glyph glyph-name="two.sub" horiz-adv-x="161" 
d="M133 -50h-105v56c0 67 81 74 81 127v66c0 39 -58 39 -58 2v-33h-24v33c-7 64 110 63 106 -2v-66c0 -66 -81 -74 -81 -127v-36h81v-20z" />
    <glyph glyph-name="three.sub" horiz-adv-x="160" 
d="M109 -1v66c0 19 -13 30 -29 30h-22v20h21c17 0 30 11 30 30v54c0 39 -58 39 -58 2v-33h-24v33c-7 64 110 63 106 -2v-48c0 -23 -10 -38 -31 -45c21 -8 31 -24 31 -47v-60c5 -65 -111 -66 -105 -2v33h24v-33c0 -37 57 -38 57 2z" />
    <glyph glyph-name="four.sub" horiz-adv-x="159" 
d="M103 9h-83v20l70 219h37v-219h12v-20h-12v-59h-24v59zM103 220l-60 -191h60v191z" />
    <glyph glyph-name="five.sub" horiz-adv-x="162" 
d="M52 88h-24v160h105v-21h-81v-111c11 17 26 25 45 25c21 0 38 -15 38 -38v-104c5 -66 -113 -66 -107 0v31h24v-31c0 -20 10 -30 29 -30c17 0 30 11 30 30v99c0 13 -10 23 -23 23c-19 0 -36 -17 -36 -33z" />
    <glyph glyph-name="six.sub" horiz-adv-x="162" 
d="M82 229c-17 0 -30 -13 -30 -30v-94c11 17 26 25 45 25c21 0 38 -15 38 -38v-93c5 -66 -113 -66 -107 0v200c0 31 23 50 54 50c29 0 51 -18 51 -49v-32h-24v32c0 17 -11 29 -27 29zM52 71v-72c0 -20 10 -30 29 -30c17 0 30 11 30 30v88c0 13 -10 23 -23 23
c-20 0 -36 -15 -36 -39z" />
    <glyph glyph-name="seven.sub" horiz-adv-x="153" 
d="M103 227h-79v21h105v-13l-59 -285h-25z" />
    <glyph glyph-name="eight.sub" horiz-adv-x="162" 
d="M135 199v-52c0 -22 -9 -37 -28 -45c19 -9 28 -24 28 -45v-58c5 -66 -113 -66 -107 0v58c0 21 9 36 27 45c-18 8 -27 23 -27 45v52c-6 66 112 66 107 0zM52 199v-57c0 -20 10 -30 29 -30c17 0 30 11 30 30v57c0 17 -14 30 -30 30c-17 0 -29 -13 -29 -30zM52 61v-62
c0 -20 10 -30 29 -30c17 0 30 11 30 30v62c0 19 -13 31 -30 31c-19 0 -29 -10 -29 -31z" />
    <glyph glyph-name="nine.sub" horiz-adv-x="162" 
d="M81 -31c16 0 30 12 30 31v92c-12 -17 -27 -25 -46 -25c-21 0 -37 15 -37 39v93c-5 66 113 66 107 0v-199c5 -68 -113 -66 -107 -2v32h24v-32c0 -17 12 -29 29 -29zM111 126v73c0 19 -13 30 -29 30c-17 0 -30 -11 -30 -30v-88c0 -13 10 -23 22 -23c21 0 37 15 37 38z" />
    <glyph glyph-name="comma.sub" horiz-adv-x="84" 
d="M42 -96l-4 -7h-20c8 19 12 36 12 53v41h23v-41c0 -15 -6 -35 -11 -46z" />
    <glyph glyph-name="period.sub" horiz-adv-x="84" 
d="M53 -50h-23v41h23v-41z" />
    <glyph glyph-name="parenleft.sub" horiz-adv-x="106" 
d="M86 262h-5c-19 0 -29 -10 -29 -30v-278c0 -17 12 -29 29 -29h5v-21h-5c-31 0 -53 19 -53 50v278c0 31 22 50 53 50h5v-20z" />
    <glyph glyph-name="parenright.sub" horiz-adv-x="106" 
d="M20 -75h4c17 0 30 11 30 30v277c0 19 -13 30 -30 30h-4v20h4c31 0 54 -19 54 -50v-277c0 -31 -23 -51 -54 -51h-4v21z" />
    <glyph glyph-name="hyphen.sub" horiz-adv-x="116" 
d="M92 61h-68v20h68v-20z" />
    <glyph glyph-name="zero.slash.sub" horiz-adv-x="163" 
d="M39 -50h-15l8 26c-3 6 -4 14 -4 23v200c0 31 22 50 53 50c15 0 27 -4 38 -13l4 12h16l-9 -27c3 -7 5 -14 5 -22v-200c4 -48 -62 -64 -92 -37zM81 -31c17 0 30 11 30 30v165l-58 -173c3 -15 13 -22 28 -22zM52 199v-165l58 174c-4 14 -14 21 -29 21c-17 0 -29 -13 -29 -30
z" />
    <glyph glyph-name="A.smcp" horiz-adv-x="315" 
d="M136 520h43l114 -520h-32l-34 159h-139l-34 -159h-33zM159 485h-2l-64 -297h129z" />
    <glyph glyph-name="eight.taboldstyle" 
d="M161 678c67 0 116 -45 116 -114v-118c0 -51 -21 -85 -64 -103c43 -18 64 -52 64 -103v-130c0 -69 -49 -113 -116 -113c-65 0 -114 44 -114 113v130c0 51 21 85 63 103c-42 18 -63 52 -63 103v118c0 69 49 114 114 114zM78 564v-122c0 -52 35 -84 83 -84s85 32 85 84v122
c0 52 -37 85 -85 85s-83 -33 -83 -85zM78 244v-134c0 -52 35 -84 83 -84s85 32 85 84v134c0 52 -37 85 -85 85s-83 -33 -83 -85z" />
    <glyph glyph-name="Hcircumflex.smcp" horiz-adv-x="343" 
d="M172 637l-80 -61l-20 20l100 77l100 -77l-20 -20zM87 0h-31v520h31v-236h168v236h32v-520h-32v255h-168v-255z" />
    <glyph glyph-name="nine.taboldstyle" 
d="M160 -127c48 0 86 35 86 87v197c-24 -41 -61 -62 -111 -62c-49 0 -88 34 -88 89v206c0 69 50 113 115 113c67 0 115 -44 115 -113v-430c0 -71 -50 -115 -117 -115c-64 0 -113 42 -113 110v45h31v-45c0 -49 35 -82 82 -82zM246 230v160c0 52 -36 84 -84 84
s-84 -32 -84 -84v-202c0 -39 28 -64 63 -64c60 0 105 42 105 106z" />
    <glyph glyph-name="Gdotaccent.smcp" horiz-adv-x="315" 
d="M237 246h-80v29h111v-169c0 -68 -47 -109 -111 -109s-110 41 -110 109v307c0 68 47 110 110 110c64 0 111 -42 111 -110v-46h-31v46c0 49 -35 81 -80 81s-79 -32 -79 -81v-307c0 -49 34 -80 79 -80s80 31 80 80v140zM173 619h-32v81h32v-81z" />
    <glyph glyph-name="Gcommaaccent.smcp" horiz-adv-x="315" 
d="M237 246h-80v29h111v-169c0 -68 -47 -109 -111 -109s-110 41 -110 109v307c0 68 47 110 110 110c64 0 111 -42 111 -110v-46h-31v46c0 49 -35 81 -80 81s-79 -32 -79 -81v-307c0 -49 34 -80 79 -80s80 31 80 80v140zM172 -30v-60c0 -26 -8 -59 -23 -100h-27
c14 36 21 69 21 100v60h29z" />
    <glyph glyph-name="U.smcp" 
d="M47 110v410h31v-410c0 -52 35 -84 83 -84s85 32 85 84v410h31v-410c0 -69 -49 -113 -116 -113c-65 0 -114 44 -114 113z" />
    </font>
</defs>
</svg>
